<?xml version="1.0" encoding="us-ascii" standalone="no"?><svg xmlns="http://www.w3.org/2000/svg" xmlns:xlink="http://www.w3.org/1999/xlink" contentStyleType="text/css" height="2562px" preserveAspectRatio="none" style="width:2129px;height:2562px;background:#FFFFFF;" version="1.1" viewBox="0 0 2129 2562" width="2129px" zoomAndPan="magnify"><defs/><g><text fill="#000000" font-family="sans-serif" font-size="14" font-weight="bold" lengthAdjust="spacing" textLength="359" x="881.25" y="28.5352">Remittance Transfer using Mojaloop FX APIs POC</text><text fill="#000000" font-family="sans-serif" font-size="14" font-weight="bold" lengthAdjust="spacing" textLength="370" x="875.75" y="45.0234">Payer DFSP requests conversion with SEND amount</text><rect fill="#ADD8E6" height="2496.9023" style="stroke:#181818;stroke-width:0.5;" width="97" x="226" y="59.9766"/><text fill="#000000" font-family="sans-serif" font-size="13" font-weight="bold" lengthAdjust="spacing" textLength="74" x="237.5" y="72.5449">Payer DFSP</text><rect fill="#DDDDDD" height="2496.9023" style="stroke:#181818;stroke-width:0.5;" width="94" x="1310.5" y="59.9766"/><text fill="#000000" font-family="sans-serif" font-size="13" font-weight="bold" lengthAdjust="spacing" textLength="78" x="1318.5" y="72.5449">FX provider</text><rect fill="#ADD8E6" height="2496.9023" style="stroke:#181818;stroke-width:0.5;" width="94" x="1665.5" y="59.9766"/><text fill="#000000" font-family="sans-serif" font-size="13" font-weight="bold" lengthAdjust="spacing" textLength="76" x="1674.5" y="72.5449">Payee DFSP</text><rect fill="#FFFFFF" height="146.9316" style="stroke:#181818;stroke-width:1.0;" width="10" x="269.5" y="1039.5527"/><rect fill="#FFFFFF" height="59.3105" style="stroke:#181818;stroke-width:1.0;" width="10" x="269.5" y="2400.0801"/><rect fill="#FFFFFF" height="563.0742" style="stroke:#181818;stroke-width:1.0;" width="10" x="740.5" y="218.373"/><rect fill="#FFFFFF" height="216.4844" style="stroke:#181818;stroke-width:1.0;" width="10" x="740.5" y="853.0684"/><rect fill="#FFFFFF" height="285.7949" style="stroke:#181818;stroke-width:1.0;" width="10" x="740.5" y="1156.4844"/><rect fill="#FFFFFF" height="856.248" style="stroke:#181818;stroke-width:1.0;" width="10" x="740.5" y="1573.832"/><rect fill="#FFFFFF" height="131.6211" style="stroke:#181818;stroke-width:1.0;" width="10" x="1352.5" y="751.4473"/><rect fill="#FFFFFF" height="225.7949" style="stroke:#181818;stroke-width:1.0;" width="10" x="1352.5" y="2033.1113"/><rect fill="#FFFFFF" height="191.5527" style="stroke:#181818;stroke-width:1.0;" width="10" x="1707.5" y="1412.2793"/><line style="stroke:#181818;stroke-width:0.5;stroke-dasharray:5.0,5.0;" x1="55" x2="55" y1="143.752" y2="2477.3906"/><line style="stroke:#181818;stroke-width:0.5;stroke-dasharray:5.0,5.0;" x1="274" x2="274" y1="143.752" y2="2477.3906"/><line style="stroke:#181818;stroke-width:0.5;stroke-dasharray:5.0,5.0;" x1="745.5" x2="745.5" y1="143.752" y2="2477.3906"/><line style="stroke:#181818;stroke-width:0.5;stroke-dasharray:5.0,5.0;" x1="1357.5" x2="1357.5" y1="143.752" y2="2477.3906"/><line style="stroke:#181818;stroke-width:0.5;stroke-dasharray:5.0,5.0;" x1="1712.5" x2="1712.5" y1="143.752" y2="2477.3906"/><line style="stroke:#181818;stroke-width:0.5;stroke-dasharray:5.0,5.0;" x1="2098.5" x2="2098.5" y1="143.752" y2="2477.3906"/><text fill="#000000" font-family="sans-serif" font-size="14" lengthAdjust="spacing" textLength="95" x="5" y="140.7988">$senderName</text><ellipse cx="55.5" cy="75.7637" fill="#E2E2F0" rx="8" ry="8" style="stroke:#181818;stroke-width:0.5;"/><path d="M55.5,83.7637 L55.5,110.7637 M42.5,91.7637 L68.5,91.7637 M55.5,110.7637 L42.5,125.7637 M55.5,110.7637 L68.5,125.7637 " fill="none" style="stroke:#181818;stroke-width:0.5;"/><text fill="#000000" font-family="sans-serif" font-size="14" lengthAdjust="spacing" textLength="95" x="5" y="2489.9258">$senderName</text><ellipse cx="55.5" cy="2501.3789" fill="#E2E2F0" rx="8" ry="8" style="stroke:#181818;stroke-width:0.5;"/><path d="M55.5,2509.3789 L55.5,2536.3789 M42.5,2517.3789 L68.5,2517.3789 M55.5,2536.3789 L42.5,2551.3789 M55.5,2536.3789 L68.5,2551.3789 " fill="none" style="stroke:#181818;stroke-width:0.5;"/><rect fill="#E2E2F0" height="30.4883" rx="2.5" ry="2.5" style="stroke:#181818;stroke-width:0.5;" width="89" x="230" y="112.2637"/><text fill="#000000" font-family="sans-serif" font-size="14" lengthAdjust="spacing" textLength="75" x="237" y="132.7988">Payer DFSP</text><rect fill="#E2E2F0" height="30.4883" rx="2.5" ry="2.5" style="stroke:#181818;stroke-width:0.5;" width="89" x="230" y="2476.3906"/><text fill="#000000" font-family="sans-serif" font-size="14" lengthAdjust="spacing" textLength="75" x="237" y="2496.9258">Payer DFSP</text><rect fill="#E2E2F0" height="30.4883" rx="2.5" ry="2.5" style="stroke:#181818;stroke-width:0.5;" width="126" x="682.5" y="112.2637"/><text fill="#000000" font-family="sans-serif" font-size="14" lengthAdjust="spacing" textLength="112" x="689.5" y="132.7988">Mojaloop Switch</text><rect fill="#E2E2F0" height="30.4883" rx="2.5" ry="2.5" style="stroke:#181818;stroke-width:0.5;" width="126" x="682.5" y="2476.3906"/><text fill="#000000" font-family="sans-serif" font-size="14" lengthAdjust="spacing" textLength="112" x="689.5" y="2496.9258">Mojaloop Switch</text><rect fill="#E2E2F0" height="46.9766" rx="2.5" ry="2.5" style="stroke:#181818;stroke-width:0.5;" width="86" x="1314.5" y="95.7754"/><text fill="#000000" font-family="sans-serif" font-size="14" lengthAdjust="spacing" textLength="25" x="1345" y="116.3105">FXP</text><text fill="#000000" font-family="sans-serif" font-size="14" lengthAdjust="spacing" textLength="72" x="1321.5" y="132.7988">Connector</text><rect fill="#E2E2F0" height="46.9766" rx="2.5" ry="2.5" style="stroke:#181818;stroke-width:0.5;" width="86" x="1314.5" y="2476.3906"/><text fill="#000000" font-family="sans-serif" font-size="14" lengthAdjust="spacing" textLength="25" x="1345" y="2496.9258">FXP</text><text fill="#000000" font-family="sans-serif" font-size="14" lengthAdjust="spacing" textLength="72" x="1321.5" y="2513.4141">Connector</text><rect fill="#E2E2F0" height="63.4648" rx="2.5" ry="2.5" style="stroke:#181818;stroke-width:0.5;" width="86" x="1669.5" y="79.2871"/><text fill="#000000" font-family="sans-serif" font-size="14" lengthAdjust="spacing" textLength="39" x="1693" y="99.8223">Payee</text><text fill="#000000" font-family="sans-serif" font-size="14" lengthAdjust="spacing" textLength="64" x="1680.5" y="116.3105">Mojaloop</text><text fill="#000000" font-family="sans-serif" font-size="14" lengthAdjust="spacing" textLength="72" x="1676.5" y="132.7988">Connector</text><rect fill="#E2E2F0" height="63.4648" rx="2.5" ry="2.5" style="stroke:#181818;stroke-width:0.5;" width="86" x="1669.5" y="2476.3906"/><text fill="#000000" font-family="sans-serif" font-size="14" lengthAdjust="spacing" textLength="39" x="1693" y="2496.9258">Payee</text><text fill="#000000" font-family="sans-serif" font-size="14" lengthAdjust="spacing" textLength="64" x="1680.5" y="2513.4141">Mojaloop</text><text fill="#000000" font-family="sans-serif" font-size="14" lengthAdjust="spacing" textLength="72" x="1676.5" y="2529.9023">Connector</text><text fill="#000000" font-family="sans-serif" font-size="14" lengthAdjust="spacing" textLength="32" x="2079.5" y="140.7988">Yaro</text><ellipse cx="2098.5" cy="75.7637" fill="#E2E2F0" rx="8" ry="8" style="stroke:#181818;stroke-width:0.5;"/><path d="M2098.5,83.7637 L2098.5,110.7637 M2085.5,91.7637 L2111.5,91.7637 M2098.5,110.7637 L2085.5,125.7637 M2098.5,110.7637 L2111.5,125.7637 " fill="none" style="stroke:#181818;stroke-width:0.5;"/><text fill="#000000" font-family="sans-serif" font-size="14" lengthAdjust="spacing" textLength="32" x="2079.5" y="2489.9258">Yaro</text><ellipse cx="2098.5" cy="2501.3789" fill="#E2E2F0" rx="8" ry="8" style="stroke:#181818;stroke-width:0.5;"/><path d="M2098.5,2509.3789 L2098.5,2536.3789 M2085.5,2517.3789 L2111.5,2517.3789 M2098.5,2536.3789 L2085.5,2551.3789 M2098.5,2536.3789 L2111.5,2551.3789 " fill="none" style="stroke:#181818;stroke-width:0.5;"/><rect fill="#FFFFFF" height="146.9316" style="stroke:#181818;stroke-width:1.0;" width="10" x="269.5" y="1039.5527"/><rect fill="#FFFFFF" height="59.3105" style="stroke:#181818;stroke-width:1.0;" width="10" x="269.5" y="2400.0801"/><rect fill="#FFFFFF" height="563.0742" style="stroke:#181818;stroke-width:1.0;" width="10" x="740.5" y="218.373"/><rect fill="#FFFFFF" height="216.4844" style="stroke:#181818;stroke-width:1.0;" width="10" x="740.5" y="853.0684"/><rect fill="#FFFFFF" height="285.7949" style="stroke:#181818;stroke-width:1.0;" width="10" x="740.5" y="1156.4844"/><rect fill="#FFFFFF" height="856.248" style="stroke:#181818;stroke-width:1.0;" width="10" x="740.5" y="1573.832"/><rect fill="#FFFFFF" height="131.6211" style="stroke:#181818;stroke-width:1.0;" width="10" x="1352.5" y="751.4473"/><rect fill="#FFFFFF" height="225.7949" style="stroke:#181818;stroke-width:1.0;" width="10" x="1352.5" y="2033.1113"/><rect fill="#FFFFFF" height="191.5527" style="stroke:#181818;stroke-width:1.0;" width="10" x="1707.5" y="1412.2793"/><rect fill="#EEEEEE" height="3" style="stroke:#EEEEEE;stroke-width:1.0;" width="2122.5" x="0" y="174.4072"/><line style="stroke:#000000;stroke-width:1.0;" x1="0" x2="2122.5" y1="174.4072" y2="174.4072"/><line style="stroke:#000000;stroke-width:1.0;" x1="0" x2="2122.5" y1="177.4072" y2="177.4072"/><rect fill="#EEEEEE" height="23.3105" style="stroke:#000000;stroke-width:2.0;" width="120" x="1001.25" y="163.752"/><text fill="#000000" font-family="sans-serif" font-size="13" font-weight="bold" lengthAdjust="spacing" textLength="102" x="1007.25" y="180.3203">Transfer Phase</text><line style="stroke:#181818;stroke-width:1.0;" x1="738.5" x2="728.5" y1="218.373" y2="214.373"/><line style="stroke:#181818;stroke-width:1.0;" x1="738.5" x2="728.5" y1="218.373" y2="222.373"/><line style="stroke:#181818;stroke-width:1.0;" x1="274.5" x2="739.5" y1="218.373" y2="218.373"/><text fill="#000000" font-family="sans-serif" font-size="13" font-weight="bold" lengthAdjust="spacing" textLength="9" x="281.5" y="213.6309">1</text><text fill="#000000" font-family="sans-serif" font-size="13" lengthAdjust="spacing" textLength="247" x="294.5" y="213.6309">Please confirm your part of the transfer</text><path d="M279,231.373 L279,501.373 L774,501.373 L774,241.373 L764,231.373 L279,231.373 " fill="#FEFFDD" style="stroke:#181818;stroke-width:0.5;"/><path d="M764,231.373 L764,241.373 L774,241.373 L764,231.373 " fill="#FEFFDD" style="stroke:#181818;stroke-width:0.5;"/><text fill="#000000" font-family="sans-serif" font-size="13" font-weight="bold" lengthAdjust="spacing" textLength="124" x="285" y="248.9414">POST /fxTransfers</text><text fill="#000000" font-family="sans-serif" font-size="13" lengthAdjust="spacing" textLength="4" x="285" y="264.252">{</text><text fill="#000000" font-family="sans-serif" font-size="13" lengthAdjust="spacing" textLength="421" x="301" y="279.5625">"commitRequestId": "77c9d78d-c26a-4474-8b3c-99b96a814bfc",</text><text fill="#000000" font-family="sans-serif" font-size="13" lengthAdjust="spacing" textLength="458" x="301" y="294.873">"determiningTransferId": "d9ce59d4-3598-4396-8630-581bb0551451",</text><text fill="#000000" font-family="sans-serif" font-size="13" lengthAdjust="spacing" textLength="165" x="301" y="310.1836">"initiatingFsp": "PayerFSP",</text><text fill="#000000" font-family="sans-serif" font-size="13" lengthAdjust="spacing" textLength="182" x="301" y="325.4941">"counterPartyFsp": "FDH_FX",</text><text fill="#000000" font-family="sans-serif" font-size="13" lengthAdjust="spacing" textLength="144" x="301" y="340.8047">"amountType": "SEND",</text><text fill="#000000" font-family="sans-serif" font-size="13" lengthAdjust="spacing" textLength="114" x="301" y="356.1152">"sourceAmount": {</text><text fill="#000000" font-family="sans-serif" font-size="13" lengthAdjust="spacing" textLength="111" x="317" y="371.4258">"currency": "BWP",</text><text fill="#000000" font-family="sans-serif" font-size="13" lengthAdjust="spacing" textLength="100" x="317" y="386.7363">"amount": "300"</text><text fill="#000000" font-family="sans-serif" font-size="13" lengthAdjust="spacing" textLength="8" x="301" y="402.0469">},</text><text fill="#000000" font-family="sans-serif" font-size="13" lengthAdjust="spacing" textLength="109" x="301" y="417.3574">"targetAmount": {</text><text fill="#000000" font-family="sans-serif" font-size="13" lengthAdjust="spacing" textLength="109" x="317" y="432.668">"currency": "TZS",</text><text fill="#000000" font-family="sans-serif" font-size="13" lengthAdjust="spacing" textLength="116" x="317" y="447.9785">"amount": "48000"</text><text fill="#000000" font-family="sans-serif" font-size="13" lengthAdjust="spacing" textLength="8" x="301" y="463.2891">},</text><text fill="#000000" font-family="sans-serif" font-size="13" lengthAdjust="spacing" textLength="416" x="301" y="478.5996">"condition": "GRzLaTP7DJ9t4P-a_BA0WA9wzzlsugf00-Tn6kESAfM"</text><text fill="#000000" font-family="sans-serif" font-size="13" lengthAdjust="spacing" textLength="4" x="285" y="493.9102">}</text><line style="stroke:#181818;stroke-width:1.0;" x1="750.5" x2="792.5" y1="527.9629" y2="527.9629"/><line style="stroke:#181818;stroke-width:1.0;" x1="792.5" x2="792.5" y1="527.9629" y2="540.9629"/><line style="stroke:#181818;stroke-width:1.0;" x1="751.5" x2="792.5" y1="540.9629" y2="540.9629"/><polygon fill="#181818" points="761.5,536.9629,751.5,540.9629,761.5,544.9629,757.5,540.9629" style="stroke:#181818;stroke-width:1.0;"/><text fill="#000000" font-family="sans-serif" font-size="13" font-weight="bold" lengthAdjust="spacing" textLength="9" x="757.5" y="523.2207">2</text><text fill="#000000" font-family="sans-serif" font-size="13" lengthAdjust="spacing" textLength="211" x="770.5" y="523.2207">OK, so this is an FX confirmation.</text><line style="stroke:#181818;stroke-width:1.0;" x1="750.5" x2="792.5" y1="585.584" y2="585.584"/><line style="stroke:#181818;stroke-width:1.0;" x1="792.5" x2="792.5" y1="585.584" y2="598.584"/><line style="stroke:#181818;stroke-width:1.0;" x1="751.5" x2="792.5" y1="598.584" y2="598.584"/><polygon fill="#181818" points="761.5,594.584,751.5,598.584,761.5,602.584,757.5,598.584" style="stroke:#181818;stroke-width:1.0;"/><text fill="#000000" font-family="sans-serif" font-size="13" font-weight="bold" lengthAdjust="spacing" textLength="9" x="757.5" y="573.1865">3</text><text fill="#000000" font-family="sans-serif" font-size="13" lengthAdjust="spacing" textLength="328" x="770.5" y="565.5313">Is there any transfer with determiningTransactionId?</text><text fill="#000000" font-family="sans-serif" font-size="13" lengthAdjust="spacing" textLength="89" x="770.5" y="580.8418">No, it does'nt.</text><line style="stroke:#181818;stroke-width:1.0;" x1="750.5" x2="792.5" y1="627.8945" y2="627.8945"/><line style="stroke:#181818;stroke-width:1.0;" x1="792.5" x2="792.5" y1="627.8945" y2="640.8945"/><line style="stroke:#181818;stroke-width:1.0;" x1="751.5" x2="792.5" y1="640.8945" y2="640.8945"/><polygon fill="#181818" points="761.5,636.8945,751.5,640.8945,761.5,644.8945,757.5,640.8945" style="stroke:#181818;stroke-width:1.0;"/><text fill="#000000" font-family="sans-serif" font-size="13" font-weight="bold" lengthAdjust="spacing" textLength="9" x="757.5" y="623.1523">4</text><text fill="#000000" font-family="sans-serif" font-size="13" lengthAdjust="spacing" textLength="328" x="770.5" y="623.1523">Liquidity check and reserve on Payer DFSP's account</text><path d="M604,653.8945 L604,708.8945 L886,708.8945 L886,663.8945 L876,653.8945 L604,653.8945 " fill="#FEFFDD" style="stroke:#181818;stroke-width:0.5;"/><path d="M876,653.8945 L876,663.8945 L886,663.8945 L876,653.8945 " fill="#FEFFDD" style="stroke:#181818;stroke-width:0.5;"/><text fill="#000000" font-family="sans-serif" font-size="13" lengthAdjust="spacing" textLength="84" x="610" y="671.4629">Reservations:</text><text fill="#000000" font-family="sans-serif" font-size="13" lengthAdjust="spacing" textLength="4" x="610" y="686.7734">&#160;</text><text fill="#000000" font-family="sans-serif" font-size="13" font-weight="bold" lengthAdjust="spacing" textLength="261" x="610" y="702.084">PayerFSP has a reservation of 300 BWP</text><line style="stroke:#181818;stroke-width:1.0;" x1="1350.5" x2="1340.5" y1="751.4473" y2="747.4473"/><line style="stroke:#181818;stroke-width:1.0;" x1="1350.5" x2="1340.5" y1="751.4473" y2="755.4473"/><line style="stroke:#181818;stroke-width:1.0;" x1="750.5" x2="1351.5" y1="751.4473" y2="751.4473"/><text fill="#000000" font-family="sans-serif" font-size="13" font-weight="bold" lengthAdjust="spacing" textLength="9" x="757.5" y="739.0498">5</text><text fill="#000000" font-family="sans-serif" font-size="13" lengthAdjust="spacing" textLength="370" x="770.5" y="731.3945">Please confirm the currency conversion part of the transfer</text><rect fill="#000000" height="3.5" style="stroke:#000000;stroke-width:0.0;" width="3.5" x="779.5" y="739.4473"/><text fill="#000000" font-family="sans-serif" font-size="13" lengthAdjust="spacing" textLength="127" x="786.5" y="746.7051">POST /fxTransfers**</text><line style="stroke:#181818;stroke-width:1.0;" x1="1362.5" x2="1404.5" y1="810.7578" y2="810.7578"/><line style="stroke:#181818;stroke-width:1.0;" x1="1404.5" x2="1404.5" y1="810.7578" y2="823.7578"/><line style="stroke:#181818;stroke-width:1.0;" x1="1363.5" x2="1404.5" y1="823.7578" y2="823.7578"/><polygon fill="#181818" points="1373.5,819.7578,1363.5,823.7578,1373.5,827.7578,1369.5,823.7578" style="stroke:#181818;stroke-width:1.0;"/><text fill="#000000" font-family="sans-serif" font-size="13" font-weight="bold" lengthAdjust="spacing" textLength="9" x="1369.5" y="806.0156">6</text><text fill="#000000" font-family="sans-serif" font-size="13" lengthAdjust="spacing" textLength="202" x="1382.5" y="806.0156">Reserve funds for FX conversion</text><line style="stroke:#181818;stroke-width:1.0;" x1="751.5" x2="761.5" y1="853.0684" y2="849.0684"/><line style="stroke:#181818;stroke-width:1.0;" x1="751.5" x2="761.5" y1="853.0684" y2="857.0684"/><line style="stroke:#181818;stroke-width:1.0;" x1="750.5" x2="1351.5" y1="853.0684" y2="853.0684"/><text fill="#000000" font-family="sans-serif" font-size="13" font-weight="bold" lengthAdjust="spacing" textLength="9" x="767.5" y="848.3262">7</text><text fill="#000000" font-family="sans-serif" font-size="13" lengthAdjust="spacing" textLength="203" x="780.5" y="848.3262">Confirmed. Here's the fulfilment</text><path d="M752,896.0684 L752,997.0684 L1352,997.0684 L1352,906.0684 L1342,896.0684 L752,896.0684 " fill="#FEFFDD" style="stroke:#181818;stroke-width:0.5;"/><path d="M1342,896.0684 L1342,906.0684 L1352,906.0684 L1342,896.0684 " fill="#FEFFDD" style="stroke:#181818;stroke-width:0.5;"/><text fill="#000000" font-family="sans-serif" font-size="13" font-weight="bold" lengthAdjust="spacing" textLength="429" x="758" y="913.6367">PUT /fxTransfers/77c9d78d-c26a-4474-8b3c-99b96a814bfc</text><text fill="#000000" font-family="sans-serif" font-size="13" lengthAdjust="spacing" textLength="4" x="758" y="928.9473">{</text><text fill="#000000" font-family="sans-serif" font-size="13" lengthAdjust="spacing" textLength="579" x="758" y="944.2578">"fulfilment": "188909ceb6cd5c35d5c6b394f0a9e5a0571199c332fbd013dc1e6b8a2d5fff42",</text><text fill="#000000" font-family="sans-serif" font-size="13" lengthAdjust="spacing" textLength="386" x="758" y="959.5684">"completedTimestamp": "2021-08-25T14:17:08.175+01:00",</text><text fill="#000000" font-family="sans-serif" font-size="13" lengthAdjust="spacing" textLength="190" x="758" y="974.8789">"conversionState": "RESERVED"</text><text fill="#000000" font-family="sans-serif" font-size="13" lengthAdjust="spacing" textLength="4" x="758" y="990.1895">}</text><polygon fill="#181818" points="290.5,1035.5527,280.5,1039.5527,290.5,1043.5527,286.5,1039.5527" style="stroke:#181818;stroke-width:1.0;"/><line style="stroke:#181818;stroke-width:1.0;" x1="284.5" x2="739.5" y1="1039.5527" y2="1039.5527"/><text fill="#000000" font-family="sans-serif" font-size="13" font-weight="bold" lengthAdjust="spacing" textLength="9" x="296.5" y="1027.1553">8</text><text fill="#000000" font-family="sans-serif" font-size="13" lengthAdjust="spacing" textLength="315" x="309.5" y="1019.5">Conversion succeeded subject to transfer success</text><text fill="#000000" font-family="sans-serif" font-size="13" font-weight="bold" lengthAdjust="spacing" textLength="429" x="309.5" y="1034.8105">PUT /fxTransfers/77c9d78d-c26a-4474-8b3c-99b96a814bfc</text><line style="stroke:#181818;stroke-width:1.0;" x1="279.5" x2="321.5" y1="1114.1738" y2="1114.1738"/><line style="stroke:#181818;stroke-width:1.0;" x1="321.5" x2="321.5" y1="1114.1738" y2="1127.1738"/><line style="stroke:#181818;stroke-width:1.0;" x1="280.5" x2="321.5" y1="1127.1738" y2="1127.1738"/><polygon fill="#181818" points="290.5,1123.1738,280.5,1127.1738,290.5,1131.1738,286.5,1127.1738" style="stroke:#181818;stroke-width:1.0;"/><text fill="#000000" font-family="sans-serif" font-size="13" font-weight="bold" lengthAdjust="spacing" textLength="9" x="286.5" y="1101.7764">9</text><text fill="#000000" font-family="sans-serif" font-size="13" lengthAdjust="spacing" textLength="133" x="299.5" y="1094.1211">OK, so that's all right</text><text fill="#000000" font-family="sans-serif" font-size="13" lengthAdjust="spacing" textLength="209" x="299.5" y="1109.4316">Now I can send the transfer itself</text><polygon fill="#181818" points="728.5,1152.4844,738.5,1156.4844,728.5,1160.4844,732.5,1156.4844" style="stroke:#181818;stroke-width:1.0;"/><line style="stroke:#181818;stroke-width:1.0;" x1="279.5" x2="734.5" y1="1156.4844" y2="1156.4844"/><text fill="#000000" font-family="sans-serif" font-size="13" font-weight="bold" lengthAdjust="spacing" textLength="18" x="286.5" y="1151.7422">10</text><text fill="#000000" font-family="sans-serif" font-size="13" lengthAdjust="spacing" textLength="136" x="308.5" y="1151.7422">Please do the transfer</text><text fill="#000000" font-family="sans-serif" font-size="13" font-weight="bold" lengthAdjust="spacing" textLength="107" x="448.5" y="1151.7422">POST /transfers</text><line style="stroke:#181818;stroke-width:1.0;" x1="750.5" x2="792.5" y1="1215.7949" y2="1215.7949"/><line style="stroke:#181818;stroke-width:1.0;" x1="792.5" x2="792.5" y1="1215.7949" y2="1228.7949"/><line style="stroke:#181818;stroke-width:1.0;" x1="751.5" x2="792.5" y1="1228.7949" y2="1228.7949"/><polygon fill="#181818" points="761.5,1224.7949,751.5,1228.7949,761.5,1232.7949,757.5,1228.7949" style="stroke:#181818;stroke-width:1.0;"/><text fill="#000000" font-family="sans-serif" font-size="13" font-weight="bold" lengthAdjust="spacing" textLength="18" x="757.5" y="1211.0527">11</text><text fill="#000000" font-family="sans-serif" font-size="13" lengthAdjust="spacing" textLength="212" x="779.5" y="1211.0527">Is there a dependent transfer? Yes</text><line style="stroke:#181818;stroke-width:1.0;" x1="750.5" x2="792.5" y1="1273.416" y2="1273.416"/><line style="stroke:#181818;stroke-width:1.0;" x1="792.5" x2="792.5" y1="1273.416" y2="1286.416"/><line style="stroke:#181818;stroke-width:1.0;" x1="751.5" x2="792.5" y1="1286.416" y2="1286.416"/><polygon fill="#181818" points="761.5,1282.416,751.5,1286.416,761.5,1290.416,757.5,1286.416" style="stroke:#181818;stroke-width:1.0;"/><text fill="#000000" font-family="sans-serif" font-size="13" font-weight="bold" lengthAdjust="spacing" textLength="18" x="757.5" y="1261.0186">12</text><text fill="#000000" font-family="sans-serif" font-size="13" lengthAdjust="spacing" textLength="262" x="779.5" y="1253.3633">Perform liquidity check and reserve funds</text><text fill="#000000" font-family="sans-serif" font-size="13" lengthAdjust="spacing" textLength="275" x="779.5" y="1268.6738">against creditor party to dependent transfer</text><path d="M602,1299.416 L602,1370.416 L888,1370.416 L888,1309.416 L878,1299.416 L602,1299.416 " fill="#FEFFDD" style="stroke:#181818;stroke-width:0.5;"/><path d="M878,1299.416 L878,1309.416 L888,1309.416 L878,1299.416 " fill="#FEFFDD" style="stroke:#181818;stroke-width:0.5;"/><text fill="#000000" font-family="sans-serif" font-size="13" lengthAdjust="spacing" textLength="84" x="608" y="1316.9844">Reservations:</text><text fill="#000000" font-family="sans-serif" font-size="13" lengthAdjust="spacing" textLength="4" x="608" y="1332.2949">&#160;</text><text fill="#000000" font-family="sans-serif" font-size="13" lengthAdjust="spacing" textLength="239" x="608" y="1347.6055">PayerFSP has a reservation of 300 BWP</text><text fill="#000000" font-family="sans-serif" font-size="13" font-weight="bold" lengthAdjust="spacing" textLength="265" x="608" y="1362.916">FDH_FX has a reservation of 48000 TZS</text><polygon fill="#181818" points="1695.5,1408.2793,1705.5,1412.2793,1695.5,1416.2793,1699.5,1412.2793" style="stroke:#181818;stroke-width:1.0;"/><line style="stroke:#181818;stroke-width:1.0;" x1="750.5" x2="1701.5" y1="1412.2793" y2="1412.2793"/><text fill="#000000" font-family="sans-serif" font-size="13" font-weight="bold" lengthAdjust="spacing" textLength="18" x="757.5" y="1399.8818">13</text><text fill="#000000" font-family="sans-serif" font-size="13" lengthAdjust="spacing" textLength="136" x="779.5" y="1392.2266">Please do the transfer</text><text fill="#000000" font-family="sans-serif" font-size="13" font-weight="bold" lengthAdjust="spacing" textLength="107" x="779.5" y="1407.5371">POST /transfers</text><line style="stroke:#181818;stroke-width:1.0;" x1="1717.5" x2="1759.5" y1="1502.2109" y2="1502.2109"/><line style="stroke:#181818;stroke-width:1.0;" x1="1759.5" x2="1759.5" y1="1502.2109" y2="1515.2109"/><line style="stroke:#181818;stroke-width:1.0;" x1="1718.5" x2="1759.5" y1="1515.2109" y2="1515.2109"/><polygon fill="#181818" points="1728.5,1511.2109,1718.5,1515.2109,1728.5,1519.2109,1724.5,1515.2109" style="stroke:#181818;stroke-width:1.0;"/><text fill="#000000" font-family="sans-serif" font-size="13" font-weight="bold" lengthAdjust="spacing" textLength="18" x="1724.5" y="1482.1582">14</text><text fill="#000000" font-family="sans-serif" font-size="13" lengthAdjust="spacing" textLength="340" x="1746.5" y="1466.8477">Let me check that the terms of the dependent transfer</text><text fill="#000000" font-family="sans-serif" font-size="13" lengthAdjust="spacing" textLength="227" x="1746.5" y="1482.1582">are the same as the ones I agreed to</text><text fill="#000000" font-family="sans-serif" font-size="13" lengthAdjust="spacing" textLength="276" x="1746.5" y="1497.4688">and that the fulfilment and condition match</text><polygon fill="#181818" points="2086.5,1540.5215,2096.5,1544.5215,2086.5,1548.5215,2090.5,1544.5215" style="stroke:#181818;stroke-width:1.0;"/><line style="stroke:#181818;stroke-width:1.0;" x1="1717.5" x2="2092.5" y1="1544.5215" y2="1544.5215"/><text fill="#000000" font-family="sans-serif" font-size="13" font-weight="bold" lengthAdjust="spacing" textLength="18" x="1724.5" y="1539.7793">15</text><text fill="#000000" font-family="sans-serif" font-size="13" lengthAdjust="spacing" textLength="292" x="1746.5" y="1539.7793">Hi Yaro's, you got inbound transfer 44000 TZS</text><line style="stroke:#181818;stroke-width:1.0;" x1="751.5" x2="761.5" y1="1573.832" y2="1569.832"/><line style="stroke:#181818;stroke-width:1.0;" x1="751.5" x2="761.5" y1="1573.832" y2="1577.832"/><line style="stroke:#181818;stroke-width:1.0;" x1="750.5" x2="1706.5" y1="1573.832" y2="1573.832"/><text fill="#000000" font-family="sans-serif" font-size="13" font-weight="bold" lengthAdjust="spacing" textLength="18" x="767.5" y="1569.0898">16</text><text fill="#000000" font-family="sans-serif" font-size="13" lengthAdjust="spacing" textLength="270" x="789.5" y="1569.0898">Transfer is confirmed, here's the fulfilment</text><path d="M1478,1616.832 L1478,1717.832 L1946,1717.832 L1946,1626.832 L1936,1616.832 L1478,1616.832 " fill="#FEFFDD" style="stroke:#181818;stroke-width:0.5;"/><path d="M1936,1616.832 L1936,1626.832 L1946,1626.832 L1936,1616.832 " fill="#FEFFDD" style="stroke:#181818;stroke-width:0.5;"/><text fill="#000000" font-family="sans-serif" font-size="13" font-weight="bold" lengthAdjust="spacing" textLength="412" x="1484" y="1634.4004">PUT /transfers/77c9d78d-c26a-4474-8b3c-99b96a814bfc</text><text fill="#000000" font-family="sans-serif" font-size="13" lengthAdjust="spacing" textLength="4" x="1484" y="1649.7109">{</text><text fill="#000000" font-family="sans-serif" font-size="13" lengthAdjust="spacing" textLength="386" x="1500" y="1665.0215">"completedTimestamp": "2021-08-25T14:17:08.227+01:00",</text><text fill="#000000" font-family="sans-serif" font-size="13" lengthAdjust="spacing" textLength="431" x="1500" y="1680.332">"fulfilment": "mhPUT9ZAwd-BXLfeSd7-YPh46rBWRNBiTCSWjpku90s",</text><text fill="#000000" font-family="sans-serif" font-size="13" lengthAdjust="spacing" textLength="186" x="1500" y="1695.6426">"transferState": "COMMITTED"</text><text fill="#000000" font-family="sans-serif" font-size="13" lengthAdjust="spacing" textLength="4" x="1484" y="1710.9531">}</text><line style="stroke:#181818;stroke-width:1.0;" x1="750.5" x2="792.5" y1="1760.3164" y2="1760.3164"/><line style="stroke:#181818;stroke-width:1.0;" x1="792.5" x2="792.5" y1="1760.3164" y2="1773.3164"/><line style="stroke:#181818;stroke-width:1.0;" x1="751.5" x2="792.5" y1="1773.3164" y2="1773.3164"/><polygon fill="#181818" points="761.5,1769.3164,751.5,1773.3164,761.5,1777.3164,757.5,1773.3164" style="stroke:#181818;stroke-width:1.0;"/><text fill="#000000" font-family="sans-serif" font-size="13" font-weight="bold" lengthAdjust="spacing" textLength="18" x="757.5" y="1747.9189">17</text><text fill="#000000" font-family="sans-serif" font-size="13" lengthAdjust="spacing" textLength="186" x="779.5" y="1740.2637">Is there a dependent transfer?</text><text fill="#000000" font-family="sans-serif" font-size="13" lengthAdjust="spacing" textLength="81" x="779.5" y="1755.5742">Yes, there is.</text><line style="stroke:#181818;stroke-width:1.0;" x1="750.5" x2="792.5" y1="1817.9375" y2="1817.9375"/><line style="stroke:#181818;stroke-width:1.0;" x1="792.5" x2="792.5" y1="1817.9375" y2="1830.9375"/><line style="stroke:#181818;stroke-width:1.0;" x1="751.5" x2="792.5" y1="1830.9375" y2="1830.9375"/><polygon fill="#181818" points="761.5,1826.9375,751.5,1830.9375,761.5,1834.9375,757.5,1830.9375" style="stroke:#181818;stroke-width:1.0;"/><text fill="#000000" font-family="sans-serif" font-size="13" font-weight="bold" lengthAdjust="spacing" textLength="18" x="757.5" y="1805.54">18</text><text fill="#000000" font-family="sans-serif" font-size="13" lengthAdjust="spacing" textLength="372" x="779.5" y="1797.8848">Is this dependency against the debtor party to the transfer?</text><text fill="#000000" font-family="sans-serif" font-size="13" lengthAdjust="spacing" textLength="58" x="779.5" y="1813.1953">Yes, it is.</text><line style="stroke:#181818;stroke-width:1.0;" x1="750.5" x2="792.5" y1="1860.248" y2="1860.248"/><line style="stroke:#181818;stroke-width:1.0;" x1="792.5" x2="792.5" y1="1860.248" y2="1873.248"/><line style="stroke:#181818;stroke-width:1.0;" x1="751.5" x2="792.5" y1="1873.248" y2="1873.248"/><polygon fill="#181818" points="761.5,1869.248,751.5,1873.248,761.5,1877.248,757.5,1873.248" style="stroke:#181818;stroke-width:1.0;"/><text fill="#000000" font-family="sans-serif" font-size="13" font-weight="bold" lengthAdjust="spacing" textLength="18" x="757.5" y="1855.5059">19</text><text fill="#000000" font-family="sans-serif" font-size="13" lengthAdjust="spacing" textLength="566" x="779.5" y="1855.5059">Create an obligation from the debtor party to the party named in the dependency (the FXP)</text><line style="stroke:#181818;stroke-width:1.0;" x1="750.5" x2="792.5" y1="1917.8691" y2="1917.8691"/><line style="stroke:#181818;stroke-width:1.0;" x1="792.5" x2="792.5" y1="1917.8691" y2="1930.8691"/><line style="stroke:#181818;stroke-width:1.0;" x1="751.5" x2="792.5" y1="1930.8691" y2="1930.8691"/><polygon fill="#181818" points="761.5,1926.8691,751.5,1930.8691,761.5,1934.8691,757.5,1930.8691" style="stroke:#181818;stroke-width:1.0;"/><text fill="#000000" font-family="sans-serif" font-size="13" font-weight="bold" lengthAdjust="spacing" textLength="18" x="757.5" y="1905.4717">20</text><text fill="#000000" font-family="sans-serif" font-size="13" lengthAdjust="spacing" textLength="458" x="779.5" y="1897.8164">Is the transfer denominated in the currency of the payee receive amount?</text><text fill="#000000" font-family="sans-serif" font-size="13" lengthAdjust="spacing" textLength="58" x="779.5" y="1913.127">Yes, it is.</text><line style="stroke:#181818;stroke-width:1.0;" x1="750.5" x2="792.5" y1="1975.4902" y2="1975.4902"/><line style="stroke:#181818;stroke-width:1.0;" x1="792.5" x2="792.5" y1="1975.4902" y2="1988.4902"/><line style="stroke:#181818;stroke-width:1.0;" x1="751.5" x2="792.5" y1="1988.4902" y2="1988.4902"/><polygon fill="#181818" points="761.5,1984.4902,751.5,1988.4902,761.5,1992.4902,757.5,1988.4902" style="stroke:#181818;stroke-width:1.0;"/><text fill="#000000" font-family="sans-serif" font-size="13" font-weight="bold" lengthAdjust="spacing" textLength="18" x="757.5" y="1963.0928">21</text><text fill="#000000" font-family="sans-serif" font-size="13" lengthAdjust="spacing" textLength="386" x="779.5" y="1955.4375">Create an obligation from the party named in the dependency</text><text fill="#000000" font-family="sans-serif" font-size="13" lengthAdjust="spacing" textLength="225" x="779.5" y="1970.748">to the creditor party for the transfer</text><line style="stroke:#181818;stroke-width:1.0;" x1="1350.5" x2="1340.5" y1="2033.1113" y2="2029.1113"/><line style="stroke:#181818;stroke-width:1.0;" x1="1350.5" x2="1340.5" y1="2033.1113" y2="2037.1113"/><line style="stroke:#181818;stroke-width:1.0;" x1="750.5" x2="1351.5" y1="2033.1113" y2="2033.1113"/><text fill="#000000" font-family="sans-serif" font-size="13" font-weight="bold" lengthAdjust="spacing" textLength="18" x="757.5" y="2020.7139">22</text><text fill="#000000" font-family="sans-serif" font-size="13" lengthAdjust="spacing" textLength="150" x="779.5" y="2013.0586">The transfer succeeded.</text><text fill="#000000" font-family="sans-serif" font-size="13" lengthAdjust="spacing" textLength="195" x="779.5" y="2028.3691">You can clear it in your ledgers</text><path d="M511,2046.1113 L511,2147.1113 L980,2147.1113 L980,2056.1113 L970,2046.1113 L511,2046.1113 " fill="#FEFFDD" style="stroke:#181818;stroke-width:0.5;"/><path d="M970,2046.1113 L970,2056.1113 L980,2056.1113 L970,2046.1113 " fill="#FEFFDD" style="stroke:#181818;stroke-width:0.5;"/><text fill="#000000" font-family="sans-serif" font-size="13" font-weight="bold" lengthAdjust="spacing" textLength="448" x="517" y="2063.6797">PATCH /fxTransfers/77c9d78d-c26a-4474-8b3c-99b96a814bfc</text><text fill="#000000" font-family="sans-serif" font-size="13" lengthAdjust="spacing" textLength="4" x="517" y="2078.9902">{</text><text fill="#000000" font-family="sans-serif" font-size="13" lengthAdjust="spacing" textLength="386" x="533" y="2094.3008">"completedTimestamp": "2021-08-25T14:17:08.227+01:00",</text><text fill="#000000" font-family="sans-serif" font-size="13" lengthAdjust="spacing" textLength="431" x="533" y="2109.6113">"fulfilment": "mhPUT9ZAwd-BXLfeSd7-YPh46rBWRNBiTCSWjpku90s",</text><text fill="#000000" font-family="sans-serif" font-size="13" lengthAdjust="spacing" textLength="186" x="533" y="2124.9219">"transferState": "COMMITTED"</text><text fill="#000000" font-family="sans-serif" font-size="13" lengthAdjust="spacing" textLength="4" x="517" y="2140.2324">}</text><line style="stroke:#181818;stroke-width:1.0;" x1="1362.5" x2="1404.5" y1="2174.2852" y2="2174.2852"/><line style="stroke:#181818;stroke-width:1.0;" x1="1404.5" x2="1404.5" y1="2174.2852" y2="2187.2852"/><line style="stroke:#181818;stroke-width:1.0;" x1="1363.5" x2="1404.5" y1="2187.2852" y2="2187.2852"/><polygon fill="#181818" points="1373.5,2183.2852,1363.5,2187.2852,1373.5,2191.2852,1369.5,2187.2852" style="stroke:#181818;stroke-width:1.0;"/><text fill="#000000" font-family="sans-serif" font-size="13" font-weight="bold" lengthAdjust="spacing" textLength="18" x="1369.5" y="2169.543">23</text><text fill="#000000" font-family="sans-serif" font-size="13" lengthAdjust="spacing" textLength="309" x="1391.5" y="2169.543">Let's just check: does this match the stuff I sent?</text><line style="stroke:#181818;stroke-width:1.0;" x1="1362.5" x2="1404.5" y1="2216.5957" y2="2216.5957"/><line style="stroke:#181818;stroke-width:1.0;" x1="1404.5" x2="1404.5" y1="2216.5957" y2="2229.5957"/><line style="stroke:#181818;stroke-width:1.0;" x1="1363.5" x2="1404.5" y1="2229.5957" y2="2229.5957"/><polygon fill="#181818" points="1373.5,2225.5957,1363.5,2229.5957,1373.5,2233.5957,1369.5,2229.5957" style="stroke:#181818;stroke-width:1.0;"/><text fill="#000000" font-family="sans-serif" font-size="13" font-weight="bold" lengthAdjust="spacing" textLength="18" x="1369.5" y="2211.8535">24</text><text fill="#000000" font-family="sans-serif" font-size="13" lengthAdjust="spacing" textLength="238" x="1391.5" y="2211.8535">It does. Great. I'll clear the conversion</text><line style="stroke:#181818;stroke-width:1.0;" x1="751.5" x2="761.5" y1="2258.9063" y2="2254.9063"/><line style="stroke:#181818;stroke-width:1.0;" x1="751.5" x2="761.5" y1="2258.9063" y2="2262.9063"/><line style="stroke:#181818;stroke-width:1.0;stroke-dasharray:2.0,2.0;" x1="750.5" x2="1356.5" y1="2258.9063" y2="2258.9063"/><text fill="#000000" font-family="sans-serif" font-size="13" font-weight="bold" lengthAdjust="spacing" textLength="18" x="767.5" y="2254.1641">25</text><text fill="#000000" font-family="sans-serif" font-size="13" lengthAdjust="spacing" textLength="72" x="789.5" y="2254.1641">200 Gotcha</text><path d="M624,2271.9063 L624,2357.9063 L866,2357.9063 L866,2281.9063 L856,2271.9063 L624,2271.9063 " fill="#FEFFDD" style="stroke:#181818;stroke-width:0.5;"/><path d="M856,2271.9063 L856,2281.9063 L866,2281.9063 L856,2271.9063 " fill="#FEFFDD" style="stroke:#181818;stroke-width:0.5;"/><text fill="#000000" font-family="sans-serif" font-size="13" lengthAdjust="spacing" textLength="109" x="630" y="2289.4746">Ledger positions:</text><text fill="#000000" font-family="sans-serif" font-size="13" lengthAdjust="spacing" textLength="201" x="630" y="2304.7852">PayerFSP has a debit of 300 BWP</text><text fill="#000000" font-family="sans-serif" font-size="13" lengthAdjust="spacing" textLength="200" x="630" y="2320.0957">FDH_FX has a credit of 300 BWP</text><text fill="#000000" font-family="sans-serif" font-size="13" lengthAdjust="spacing" textLength="210" x="630" y="2335.4063">FDH_FX has a debit of 48000 TZS</text><text fill="#000000" font-family="sans-serif" font-size="13" lengthAdjust="spacing" textLength="221" x="630" y="2350.7168">PayeeFSP has a credit of 48000 TZS</text><line style="stroke:#181818;stroke-width:1.0;" x1="280.5" x2="290.5" y1="2400.0801" y2="2396.0801"/><line style="stroke:#181818;stroke-width:1.0;" x1="280.5" x2="290.5" y1="2400.0801" y2="2404.0801"/><line style="stroke:#181818;stroke-width:1.0;" x1="279.5" x2="739.5" y1="2400.0801" y2="2400.0801"/><text fill="#000000" font-family="sans-serif" font-size="13" font-weight="bold" lengthAdjust="spacing" textLength="18" x="296.5" y="2387.6826">26</text><text fill="#000000" font-family="sans-serif" font-size="13" lengthAdjust="spacing" textLength="129" x="318.5" y="2380.0273">Transfer is complete</text><text fill="#000000" font-family="sans-serif" font-size="13" font-weight="bold" lengthAdjust="spacing" textLength="412" x="318.5" y="2395.3379">PUT /transfers/77c9d78d-c26a-4474-8b3c-99b96a814bfc</text><polygon fill="#181818" points="66.5,2455.3906,56.5,2459.3906,66.5,2463.3906,62.5,2459.3906" style="stroke:#181818;stroke-width:1.0;"/><line style="stroke:#181818;stroke-width:1.0;" x1="60.5" x2="273.5" y1="2459.3906" y2="2459.3906"/><text fill="#000000" font-family="sans-serif" font-size="13" font-weight="bold" lengthAdjust="spacing" textLength="18" x="72.5" y="2454.6484">27</text><text fill="#000000" font-family="sans-serif" font-size="13" lengthAdjust="spacing" textLength="168" x="94.5" y="2454.6484">Your transfer is successful</text><!--SRC=[rLXjRziu4lwkNy7w5iXUBl9AiYHBnhM5OoTDjadZitpRTX5WGKjKh4IMN99kcXxwtsz8wjKlQTAzm-6AegZ9cU7CSEQPXthn4qkMgpI94nAXbuZJDT5U_BH88XBS9pnSZ0d7IGexCKwPsCBHPvo591hbb8poB2CXp-bfcj_Nsena4Q4NcF5tU4bWlTEfLiTNnsB1z5rNDrpTTCKM9I59FXDQYd_4D6-kdoQqjhMvUPb4KKgQ9vKxcnwKwpjzME47GaThIaaMFeZju_UJSfqqrsU_1vNyQJ0v7ul5IV6hqcZja68d_h9IYwVZipzEFrHcBeFpOFnER5Xkt-kxZjsppCfKOzTnJAjdEo3a6zN-L8KrNERhZ0inspQCQfi6aFTwhrVla5CYKrDASqnl26-OyOeDS7kq49iioDSqb4gzNdjd9fN5ZbjhAV6jms5djkyiddESjavhvjvnDcMKeQQCQHIcmZo3osP9dat9fpLX_5nKUCUpl33iEp7SksFhjkaGtOl3I8_YlXk6Vi_ovtvRNUavdXcx7edrkMF7eEV6kc-wfex3daqypyUUFHTwYtn9PXHd38UyKcQS9jcDsFwqpZbHYptFyhq-zlI-4nBTDdfzi6qOUcZt7M9ueTct-ZBUJMkH7nB7Zsozv_YURlTyL_VSdg63Y_Ev0KLYEsPrbYpDao-hX69XGTQHOPcwuUcMCpFjWTaV67xNTNj_Cyo1IbsbI9wf6ERBPS9R-UxtGp_gUv4UMYxMRRjlwzwy5-e-vDd5dcdFur2eHeGJkamoo9DCNqpeywBbFwGLVm4KYv8omZVJhnTuDkcFV_MvFT7n7yT3u_tGl__wDMNhcnXkPvQvToV1CBuiYgJMFRkYbgMVzORnR7n6Wxl9xQ_yjyaqUfklrvTtum-pgKrkqtzWxothQ1fFU4hGb42-k41KL4QDrWnoW2xpMvpc-GgTVa33oJb3awlHTIPl4uq1K11LMMQehbG4cBr0mScxCSAojpGiu1br2lGLQDX1cA6XgStpBmLkINCTz9UBv6R1ZzCrGKX3Q8KfJy9aXQ53MtAWFZOri8V0XAQrv2gdrVIGme6fQGVoj772mXnSVK01eP-Ja9I7VYGfJ13jOEFKuKM0hYWEqyBfYq0xgCwL5Y4tAvf_Xd55EzjUdtwON6VLa98sO4bhcv1blYC5EtD0hhCon4tBOwisN6QzETXK29Q6rppFriivePhsycLzwvC5PW2jBxMngRzw5PY3IKh42jnkdD0bUW0qb0wXF4PyGL1Pxrf413Xynfo8YycWTH4LSGX1M3Wyd5m5C_HB_AKyYnqUQl-2y13gR3HiPm1URwuTAT6T3IeLTkyKQh3C4q2GxEQKhQHuFJfBcL3KAg4JYEwXb9B3iXHGrJnxM16n9mgyt66D6GDxAYnbj1WAzPdbc2Xq6vRB4viJgoE5lXNdDAVZTyuXtp-dEV_QvrI8KeXMwDJHlia24_UhLHSEpVKYYT7FJHhtGZ6nlsg1gKCfZSq1u3OwFqXJ96Rq78TtYEUYeBGNO369MnLa5GQtE63JhAZFgxT7YELGYWb3y1Td0gcAQfKJerjA8a0lg5XAGEYXgbi5LfkrKywvrzVPk_m89Hn5EM476U-MpfP6Bv9FwmHoyu321O6GC2I74WR8GX10OGrP1-1SA4likw79vX4G9H8xbSPaA6oWGHyrIHzqAyB5UMe-GhTjaPvstK7RLJVO2EOLWD9cjui6Bmkh2V2x0E0wEpn4ktgykbI1UllB17Pr1JdFg1F8Zz2Jla-BhCVhB68e1kXJbL0uhGI5_P6AZaHTT0RbS23B0jJIE4cN1Ev7vZybiOnHU0tWzSzsNBziufC4iqvjH3IE2OJC00OmTyF82NiE_EFEUxuT6zWd3ZQSlcdwVjZhMV4yCinU59h4dNlOYfmuZcqBEbT0uog5wencoH8Emak9IziKoEkQVQUWG5AjZ3lWa2YXCpq9JgQ_dOn_k8L5aYt3G6zog5cyupOUl-2YOqQoJUf48MXJQ1qcEoSK72H5O0EywseuvMXKbrqCNK8YQKZu4kIKFdHt2DJzKrpUS3OwUyBrgKdq0-bMYBcPyE7nrNIsBz_2CrNoa9DXU9Vbz-3w3NZVAEWb127Hgj7X345bv_CqkL4_Doz0DJF0xHFI4vXFAUrV2AKvhQUr_3dA8nca3t_Kx3WgTiQ4XJHPbTFZ_G8y4uU99fC2w1wpLb88FEgRVh9r618I5LSzbXsxjGV_czy2yH7WK86vt6LCOD5MM4zv0a2GmYseRV6TuNzmUj5KJIgrlwF6fYgVHvjI4D-n2gIQbPYBQGG8AncQc77tw5mq7n8ClGNhCFiOIMDbe-Q3KTwMAkaTRm3_ViVh2eJuDXJBAkDjTiUtA9twUj1WSwJ5vjIKt4lsy7-2G_6z12f9LnEON4JA_Vqa2tDHD8qtDBImg9zNdPsCg_vLR9Fg1Qpmo7Hrmz4jUsPuWvudyCZrVTsmvGluszQ0VmRCFvEecKybQZNx0hQr4Wz1mFxoLb-ZZuHjKAi9eJ34boXzX679MN-TuHkSP8oZa18GpDKBvK5ulNtKe-pgpt8hGS_KzxNTsgslM-qIQz8oXJpMdcQJ-BBLRTlSUITaM2LaF8TZWPPmvm9abwIu1e4YoYrWpgnaWzlvXjk1InTxJ7m5nOfjvHbC_7E4RoWHVP63b0IUmcQ37aXQK7tWa6H1amuDhG4wIr3hUNl0ZaGKw2RdACdcaEQengXT7ohRTw0CY_nK3-A4bMoOH4TeiPylAZYpoe7AlqSrdaKsBAlV81kWsYQQomMSwVy-l8_qumyNCGcYllvnih1TUln- -kuucOs2zxUhkxLliD90wL_5LaPNbvVdizcVu8TG8OzEegS_wXx7YkiCmEAea4XOjwK5zrMgm9kb10PLclCMD3HRghG93xs6mH4bmc-SDVWMYcc-t6jF_SYW4YEelrP7W3S_Yz_0qJRYh2iKn79uXSAXbNhr_2eQJDOhAcg- -Bxs8zu_wkbrLiIp0QZYKTNww5FpfFh01ZTj7YVUmOLLI85iQxahVbJPWzYstgIpPeOg0jQ5cA7H1MS90IMf33vJtwSaaGOciKbqd_mC-3_hpV8j8TC580q8TRiMur00zK1-kb2T8T5JOJ5Vnp40CF0z_hfMFbSVEhheZRZBhXeHAh-o7DglwVAvNlNynbEabNyHsOMy6BJAML9CNB6wFNIXjHB-b74hrPi3LnNi3wcs3ftj7zIrpwJfS-FaHwPyVNlbCwqzQLJHLI-8HwV8V-6HC3G77qK7yOPJnQi6gdg3-FqR]--></g></svg>