<?xml version="1.0" encoding="us-ascii" standalone="no"?><svg xmlns="http://www.w3.org/2000/svg" xmlns:xlink="http://www.w3.org/1999/xlink" contentStyleType="text/css" height="454px" preserveAspectRatio="none" style="width:963px;height:454px;background:#FFFFFF;" version="1.1" viewBox="0 0 963 454" width="963px" zoomAndPan="magnify"><defs/><g><text fill="#000000" font-family="sans-serif" font-size="14" font-weight="bold" lengthAdjust="spacing" textLength="359" x="298.25" y="28.5352">Remittance Transfer using Mojaloop FX APIs POC</text><text fill="#000000" font-family="sans-serif" font-size="14" font-weight="bold" lengthAdjust="spacing" textLength="370" x="292.75" y="45.0234">Payer DFSP requests conversion with SEND amount</text><rect fill="#ADD8E6" height="388.748" style="stroke:#181818;stroke-width:0.5;" width="97" x="292" y="59.9766"/><text fill="#000000" font-family="sans-serif" font-size="13" font-weight="bold" lengthAdjust="spacing" textLength="74" x="303.5" y="72.5449">Payer DFSP</text><rect fill="#DDDDDD" height="388.748" style="stroke:#181818;stroke-width:0.5;" width="94" x="717.5" y="59.9766"/><text fill="#000000" font-family="sans-serif" font-size="13" font-weight="bold" lengthAdjust="spacing" textLength="78" x="725.5" y="72.5449">FX provider</text><rect fill="#ADD8E6" height="388.748" style="stroke:#181818;stroke-width:0.5;" width="94" x="813.5" y="59.9766"/><text fill="#000000" font-family="sans-serif" font-size="13" font-weight="bold" lengthAdjust="spacing" textLength="76" x="822.5" y="72.5449">Payee DFSP</text><line style="stroke:#181818;stroke-width:0.5;stroke-dasharray:5.0,5.0;" x1="55" x2="55" y1="143.752" y2="369.2363"/><line style="stroke:#181818;stroke-width:0.5;stroke-dasharray:5.0,5.0;" x1="340" x2="340" y1="143.752" y2="369.2363"/><line style="stroke:#181818;stroke-width:0.5;stroke-dasharray:5.0,5.0;" x1="648.5" x2="648.5" y1="143.752" y2="369.2363"/><line style="stroke:#181818;stroke-width:0.5;stroke-dasharray:5.0,5.0;" x1="764.5" x2="764.5" y1="143.752" y2="369.2363"/><line style="stroke:#181818;stroke-width:0.5;stroke-dasharray:5.0,5.0;" x1="860.5" x2="860.5" y1="143.752" y2="369.2363"/><line style="stroke:#181818;stroke-width:0.5;stroke-dasharray:5.0,5.0;" x1="932.5" x2="932.5" y1="143.752" y2="369.2363"/><text fill="#000000" font-family="sans-serif" font-size="14" lengthAdjust="spacing" textLength="95" x="5" y="140.7988">$senderName</text><ellipse cx="55.5" cy="75.7637" fill="#E2E2F0" rx="8" ry="8" style="stroke:#181818;stroke-width:0.5;"/><path d="M55.5,83.7637 L55.5,110.7637 M42.5,91.7637 L68.5,91.7637 M55.5,110.7637 L42.5,125.7637 M55.5,110.7637 L68.5,125.7637 " fill="none" style="stroke:#181818;stroke-width:0.5;"/><text fill="#000000" font-family="sans-serif" font-size="14" lengthAdjust="spacing" textLength="95" x="5" y="381.7715">$senderName</text><ellipse cx="55.5" cy="393.2246" fill="#E2E2F0" rx="8" ry="8" style="stroke:#181818;stroke-width:0.5;"/><path d="M55.5,401.2246 L55.5,428.2246 M42.5,409.2246 L68.5,409.2246 M55.5,428.2246 L42.5,443.2246 M55.5,428.2246 L68.5,443.2246 " fill="none" style="stroke:#181818;stroke-width:0.5;"/><rect fill="#E2E2F0" height="30.4883" rx="2.5" ry="2.5" style="stroke:#181818;stroke-width:0.5;" width="89" x="296" y="112.2637"/><text fill="#000000" font-family="sans-serif" font-size="14" lengthAdjust="spacing" textLength="75" x="303" y="132.7988">Payer DFSP</text><rect fill="#E2E2F0" height="30.4883" rx="2.5" ry="2.5" style="stroke:#181818;stroke-width:0.5;" width="89" x="296" y="368.2363"/><text fill="#000000" font-family="sans-serif" font-size="14" lengthAdjust="spacing" textLength="75" x="303" y="388.7715">Payer DFSP</text><rect fill="#E2E2F0" height="30.4883" rx="2.5" ry="2.5" style="stroke:#181818;stroke-width:0.5;" width="126" x="585.5" y="112.2637"/><text fill="#000000" font-family="sans-serif" font-size="14" lengthAdjust="spacing" textLength="112" x="592.5" y="132.7988">Mojaloop Switch</text><rect fill="#E2E2F0" height="30.4883" rx="2.5" ry="2.5" style="stroke:#181818;stroke-width:0.5;" width="126" x="585.5" y="368.2363"/><text fill="#000000" font-family="sans-serif" font-size="14" lengthAdjust="spacing" textLength="112" x="592.5" y="388.7715">Mojaloop Switch</text><rect fill="#E2E2F0" height="46.9766" rx="2.5" ry="2.5" style="stroke:#181818;stroke-width:0.5;" width="86" x="721.5" y="95.7754"/><text fill="#000000" font-family="sans-serif" font-size="14" lengthAdjust="spacing" textLength="25" x="752" y="116.3105">FXP</text><text fill="#000000" font-family="sans-serif" font-size="14" lengthAdjust="spacing" textLength="72" x="728.5" y="132.7988">Connector</text><rect fill="#E2E2F0" height="46.9766" rx="2.5" ry="2.5" style="stroke:#181818;stroke-width:0.5;" width="86" x="721.5" y="368.2363"/><text fill="#000000" font-family="sans-serif" font-size="14" lengthAdjust="spacing" textLength="25" x="752" y="388.7715">FXP</text><text fill="#000000" font-family="sans-serif" font-size="14" lengthAdjust="spacing" textLength="72" x="728.5" y="405.2598">Connector</text><rect fill="#E2E2F0" height="63.4648" rx="2.5" ry="2.5" style="stroke:#181818;stroke-width:0.5;" width="86" x="817.5" y="79.2871"/><text fill="#000000" font-family="sans-serif" font-size="14" lengthAdjust="spacing" textLength="39" x="841" y="99.8223">Payee</text><text fill="#000000" font-family="sans-serif" font-size="14" lengthAdjust="spacing" textLength="64" x="828.5" y="116.3105">Mojaloop</text><text fill="#000000" font-family="sans-serif" font-size="14" lengthAdjust="spacing" textLength="72" x="824.5" y="132.7988">Connector</text><rect fill="#E2E2F0" height="63.4648" rx="2.5" ry="2.5" style="stroke:#181818;stroke-width:0.5;" width="86" x="817.5" y="368.2363"/><text fill="#000000" font-family="sans-serif" font-size="14" lengthAdjust="spacing" textLength="39" x="841" y="388.7715">Payee</text><text fill="#000000" font-family="sans-serif" font-size="14" lengthAdjust="spacing" textLength="64" x="828.5" y="405.2598">Mojaloop</text><text fill="#000000" font-family="sans-serif" font-size="14" lengthAdjust="spacing" textLength="72" x="824.5" y="421.748">Connector</text><text fill="#000000" font-family="sans-serif" font-size="14" lengthAdjust="spacing" textLength="32" x="913.5" y="140.7988">Yaro</text><ellipse cx="932.5" cy="75.7637" fill="#E2E2F0" rx="8" ry="8" style="stroke:#181818;stroke-width:0.5;"/><path d="M932.5,83.7637 L932.5,110.7637 M919.5,91.7637 L945.5,91.7637 M932.5,110.7637 L919.5,125.7637 M932.5,110.7637 L945.5,125.7637 " fill="none" style="stroke:#181818;stroke-width:0.5;"/><text fill="#000000" font-family="sans-serif" font-size="14" lengthAdjust="spacing" textLength="32" x="913.5" y="381.7715">Yaro</text><ellipse cx="932.5" cy="393.2246" fill="#E2E2F0" rx="8" ry="8" style="stroke:#181818;stroke-width:0.5;"/><path d="M932.5,401.2246 L932.5,428.2246 M919.5,409.2246 L945.5,409.2246 M932.5,428.2246 L919.5,443.2246 M932.5,428.2246 L945.5,443.2246 " fill="none" style="stroke:#181818;stroke-width:0.5;"/><rect fill="#EEEEEE" height="3" style="stroke:#EEEEEE;stroke-width:1.0;" width="956.5" x="0" y="174.4072"/><line style="stroke:#000000;stroke-width:1.0;" x1="0" x2="956.5" y1="174.4072" y2="174.4072"/><line style="stroke:#000000;stroke-width:1.0;" x1="0" x2="956.5" y1="177.4072" y2="177.4072"/><rect fill="#EEEEEE" height="23.3105" style="stroke:#000000;stroke-width:2.0;" width="157" x="399.75" y="163.752"/><text fill="#000000" font-family="sans-serif" font-size="13" font-weight="bold" lengthAdjust="spacing" textLength="139" x="405.75" y="180.3203">Sender Confirmation</text><polygon fill="#181818" points="66.5,275.6152,56.5,279.6152,66.5,283.6152,62.5,279.6152" style="stroke:#181818;stroke-width:1.0;"/><line style="stroke:#181818;stroke-width:1.0;" x1="60.5" x2="339.5" y1="279.6152" y2="279.6152"/><text fill="#000000" font-family="sans-serif" font-size="13" font-weight="bold" lengthAdjust="spacing" textLength="9" x="72.5" y="244.252">1</text><text fill="#000000" font-family="sans-serif" font-size="13" lengthAdjust="spacing" textLength="247" x="85.5" y="213.6309">Hi, $senderName: I can do the transfer.</text><text fill="#000000" font-family="sans-serif" font-size="13" lengthAdjust="spacing" textLength="248" x="85.5" y="228.9414">It'll cost you 55 BWP(10000 TZS) in fees</text><text fill="#000000" font-family="sans-serif" font-size="13" lengthAdjust="spacing" textLength="129" x="85.5" y="244.252">and Yaro will receive</text><text fill="#000000" font-family="sans-serif" font-size="13" lengthAdjust="spacing" textLength="71" x="85.5" y="259.5625">44000 TZS.</text><text fill="#000000" font-family="sans-serif" font-size="13" lengthAdjust="spacing" textLength="232" x="85.5" y="274.873">Let me know if you want to go ahead</text><polygon fill="#181818" points="328.5,304.9258,338.5,308.9258,328.5,312.9258,332.5,308.9258" style="stroke:#181818;stroke-width:1.0;"/><line style="stroke:#181818;stroke-width:1.0;" x1="55.5" x2="334.5" y1="308.9258" y2="308.9258"/><text fill="#000000" font-family="sans-serif" font-size="13" font-weight="bold" lengthAdjust="spacing" textLength="9" x="62.5" y="304.1836">2</text><text fill="#000000" font-family="sans-serif" font-size="13" lengthAdjust="spacing" textLength="172" x="75.5" y="304.1836">Great! Yes please, go ahead</text><line style="stroke:#181818;stroke-width:1.0;" x1="340.5" x2="382.5" y1="338.2363" y2="338.2363"/><line style="stroke:#181818;stroke-width:1.0;" x1="382.5" x2="382.5" y1="338.2363" y2="351.2363"/><line style="stroke:#181818;stroke-width:1.0;" x1="341.5" x2="382.5" y1="351.2363" y2="351.2363"/><polygon fill="#181818" points="351.5,347.2363,341.5,351.2363,351.5,355.2363,347.5,351.2363" style="stroke:#181818;stroke-width:1.0;"/><text fill="#000000" font-family="sans-serif" font-size="13" font-weight="bold" lengthAdjust="spacing" textLength="9" x="347.5" y="333.4941">3</text><text fill="#000000" font-family="sans-serif" font-size="13" lengthAdjust="spacing" textLength="281" x="360.5" y="333.4941">Payer has accepted the terms please proceed</text><!--SRC=[dLRRRjiu47tNLp3U0kbYoqBtIu0iu4HnxTP9l9QnJHO62feQnKnaqgMetBv-ATcIBJTReFleEJDdPWv7CpvwLx3LEcSPWnIT8YLBC8xUBLaAoHDJT1c38YpNI4Roee98-aWuXVHSI3WNd0DLGWvoyRIBBe2d8CUaK5Ta1ThUwxNM-FgiCbYHxsFJnvPVGH8ei4UGZVijaMBVFc1ontK8Nh8qpM4_KuCSLj3OtwnXJLv0dfTI0gSl5NpsTTBOOTy- -oTf_GV9P1HNnidsLnlHGM2BPC_hZN4G3xyDRbgQosIKn5SLOFj16FYUwzXMIxM7UfvbEwwddIApnQURjlehKN9LkRckQRQmJBJkEypP8J20Mfh6Mn5v1sgF9jm2kkppPGKMYIWbhOCSfulCwk0AyNTH6_SVacjazb-vb50axsJRrzxp3dqsHFi-bhcbeeBhnowOu5FuNaAXHjM4zq8xf3JmCltkdejTomCSPZJ5QHRub4QE7IsYRlWcpWkjp0yXmmlFpNISd-78yYrCgED264OaT1TLt5AiO2O9BmXLRN2X9EDt5Voz50esHYUqep0W8Guy2jWrdK1pcoQcRk216L8hi8EwtqEsDABWHQcB7IyAiUj4FWvznyIwnCN2r4FYUbQRgnxDY-SrawHYgEV8j2riXjZsPfPxOWKdPlJHzvq_JEja8rqR2ByOICLgnLH7xo2WKHg4AQQsJx3h1YuE5mx5aTRP9w7bBZ9QXQQWGAuOrphLycKWVwrRzR-YicUznLBMTFXf-ZeciqaGVuwKEy7asrdV_DgFdbvVywAyo_JhpBZ_S97qiyljaEnYXzVIjl7GwMUpU2YJXydzP_NtP9f-4MLv-H3VpAOktET_aV1BqJCCnLGEQ0fQBrLjLDHqZSf2Qu0knJt9XLYZmGtgJqO5cboVptdzcYZM2mN9ZSe5saqgqZjxYPABgnYH-jioIBMUKM-xVQjjs4EaG7tBM8ZdxTwgwNhejp6xMwgpl0I438JMH2f6sPheBxJZfyDZoz1yI5COHiUlBNfpFMhdn3ACupfRp0egTAalA07vo2WqIMyXrnV4E3x8sXydw5eIcc-B7YV6SPktPjJQhALurETAzdwiUd0pcVFsIDKSscHqAUenVqE2DpM0EMzQF6IExHrne_h-OTkqO1kaL8ANgmL8mpWzHKdzC4XpPKokjb_QgH5R-C- -TOA6x0FQUxmJD4AKS9GAf9Q0cf7_EESZTPpdUXGAXLv4YNwsIBktxltFzcdt_FsE64SPG37dHBVQlTjFJEVVMkRyhTFK9TCrZ_N5q94FNFzxO5bTzrCbjHBeJY2o198QVIr4h8Nu986e8tGB1LhdG0huiFEfrQgSDcEwr48JIc6jz7-QMYQzM9gmQbueG6hy2m00]--></g></svg>