<?xml version="1.0" encoding="UTF-8"?> <svg xmlns="http://www.w3.org/2000/svg" id="Layer_1" data-name="Layer 1" viewBox="0 0 411.8 158.2"><defs><style> .cls-1 { fill: #d00b67; } .cls-2 { fill: #211236; } </style></defs><path class="cls-2" d="M89.33,48.41c-2.52-4.52-6.96-6.87-12.66-6.87-4.43-.12-8.7,1.72-11.65,5.03v-1.51c0-.07,0-.13,0-.2,0-1.66-1.36-3.02-3.02-3.02s-3.02,1.36-3.02,3.02c0,.07,0,.13,0,.2v35.21c.11,1.58,1.43,2.82,3.01,2.82s2.91-1.24,3.01-2.82v-22.39c0-7.21,4.11-10.99,10.31-10.99s10.14,3.69,10.14,10.99v22.39c0,.07,0,.13,0,.2,0,1.66,1.36,3.02,3.02,3.02s3.02-1.36,3.02-3.02c0-.07,0-.13,0-.2v-23.05c0-6.55,4.28-10.32,10.31-10.32s10.14,3.69,10.14,10.99v22.39c0,.07,0,.13,0,.2,0,1.66,1.36,3.02,3.02,3.02s3.02-1.36,3.02-3.02c0-.07,0-.13,0-.2v-23.42c0-4.78-1.51-8.63-4.44-11.48-2.52-2.43-6.21-3.85-10.65-3.85-5.79,0-10.4,2.35-13.59,6.87"></path><path class="cls-2" d="M130.53,46.23c-4.19,4.2-5.03,10.04-5.03,16.44s.84,12.15,5.03,16.43c2.85,2.94,6.79,4.68,11.83,4.68s8.98-1.76,11.82-4.68c4.2-4.28,5.03-10.04,5.03-16.43s-.89-12.24-5.07-16.44c-2.84-2.93-6.79-4.68-11.82-4.68s-8.97,1.76-11.83,4.68M134.89,75.41c-3.11-3.11-3.35-8.13-3.35-12.71s.33-9.72,3.35-12.72c1.96-1.99,4.67-3.08,7.46-3.02,2.82-.06,5.55,1.03,7.54,3.02,3.03,3.02,3.27,8.03,3.27,12.72s-.25,9.64-3.27,12.71c-2,1.99-4.72,3.08-7.54,3.02-2.8.06-5.5-1.03-7.46-3.02"></path><path class="cls-2" d="M167.06,45.06v45.44c0,4.01-1.34,6.02-5.53,6.02h-.63c-1.4.07-2.51,1.24-2.51,2.64s1.11,2.57,2.51,2.64h1.72c7.21,0,10.48-4.78,10.48-11.06v-45.68c-.11-1.58-1.43-2.82-3.01-2.82s-2.91,1.24-3.01,2.82"></path><path class="cls-2" d="M183.51,45.54c-.46.51-.72,1.18-.72,1.86,0,1.53,1.26,2.78,2.78,2.78.64,0,1.27-.22,1.77-.63,2.11-2.01,4.65-2.84,8.7-2.84,7.63,0,10.56,3.11,10.56,9.06v3.93h-12.3c-9.22,0-14.33,4.61-14.33,11.9,0,3.27,1,6.37,3.11,8.39,2.85,2.76,5.95,3.77,11.65,3.77s8.63-1.18,11.9-4.44v.92c.1,1.58,1.43,2.82,3.01,2.82s2.91-1.24,3.01-2.82v-24.97c0-8.89-5.35-13.74-16.52-13.74-5.61,0-9.44.97-12.64,4.02M185.83,71.55c0-4.87,3.1-7.3,9.31-7.29h11.48v4.44c0,3.43-.67,5.78-2.09,7.13-2.68,2.43-5.7,2.76-9.14,2.76-6.62,0-9.56-2.26-9.56-7.04"></path><path class="cls-2" d="M243.94,46.23c-4.19,4.2-5.03,10.04-5.03,16.44s.84,12.15,5.03,16.43c2.85,2.94,6.79,4.68,11.83,4.68s8.97-1.76,11.82-4.68c4.19-4.28,5.03-10.04,5.03-16.43s-.84-12.24-5.03-16.44c-2.85-2.93-6.79-4.68-11.82-4.68s-8.97,1.76-11.83,4.68M248.3,75.41c-3.11-3.11-3.35-8.13-3.35-12.71s.33-9.72,3.35-12.72c1.96-1.99,4.66-3.09,7.46-3.02,2.82-.06,5.54,1.03,7.54,3.02,3.02,3.02,3.27,8.03,3.27,12.72s-.25,9.64-3.27,12.71c-2,1.99-4.72,3.08-7.54,3.02-2.79.06-5.5-1.03-7.46-3.02"></path><path class="cls-2" d="M283.34,46.23c-4.19,4.2-5.03,10.04-5.03,16.44s.84,12.15,5.03,16.43c2.85,2.94,6.79,4.68,11.82,4.68s8.97-1.76,11.82-4.68c4.2-4.28,5.03-10.04,5.03-16.43s-.84-12.24-5.03-16.44c-2.85-2.93-6.79-4.68-11.82-4.68s-8.97,1.76-11.82,4.68M287.7,75.41c-3.1-3.11-3.35-8.13-3.35-12.71s.34-9.72,3.35-12.72c1.97-1.99,4.67-3.08,7.46-3.02,2.82-.06,5.55,1.03,7.54,3.02,3.02,3.02,3.27,8.03,3.27,12.72s-.25,9.64-3.27,12.71c-2,1.99-4.72,3.08-7.54,3.02-2.79.06-5.5-1.03-7.46-3.02"></path><path class="cls-2" d="M325.94,46.9v-1.84c0-1.65-1.35-3-2.99-3.02-1.66,0-3.02,1.36-3.02,3.02v53.66c0,1.65,1.36,3.02,3.02,3.02s3.02-1.36,3.02-3.02v-20.29c3.44,4.28,7.13,5.35,11.65,5.35,4.28,0,7.88-1.43,10.04-3.61,4.1-4.19,5.03-10.89,5.03-17.52s-.92-13.4-5.03-17.52c-2.18-2.18-5.79-3.6-10.04-3.6-4.61,0-8.21,1.09-11.65,5.35M325.94,62.67c0-8.03,1.34-15.77,10.39-15.77s10.31,7.72,10.31,15.77-1.34,15.76-10.31,15.76-10.39-7.71-10.39-15.76"></path><path class="cls-2" d="M232.6,83.28c-7.21,0-10.48-4.68-10.48-10.99V26.61c0-.07,0-.13,0-.2,0-1.65,1.36-3.02,3.02-3.02s3.02,1.36,3.02,3.02c0,.07,0,.13,0,.2v45.45c0,4.01,1.34,6.02,5.53,6.02h.67c1.38.07,2.47,1.22,2.47,2.6s-1.1,2.53-2.47,2.6h-1.75Z"></path><path class="cls-1" d="M182.53,100.07h2.35c.29-.02.59.03.86.16.24.17.39.45.39.75s-.15.58-.39.75c-.27.13-.56.18-.86.16h-2.35v12.65c.03.37-.05.75-.21,1.08-.22.31-.58.5-.97.5s-.75-.19-.97-.5c-.17-.34-.24-.71-.21-1.08v-12.65h-1.1c-.3.02-.6-.03-.86-.16-.24-.17-.39-.45-.39-.75s.14-.58.39-.75c.27-.13.57-.18.86-.16h1.11v-2.91c-.04-1.12.34-2.21,1.06-3.07.76-.83,1.86-1.28,2.99-1.2h.42c.36-.03.72.04,1.05.19.29.17.45.49.43.83.02.33-.15.65-.43.82-.33.15-.69.22-1.05.19-1.41,0-2.11.77-2.11,2.32v2.83Z"></path><path class="cls-1" d="M193.79,114.06c1.08.03,2.12-.38,2.88-1.14.86-.86,1.3-2.5,1.3-4.91s-.43-4.01-1.3-4.88c-1.59-1.55-4.16-1.55-5.76,0-.86.86-1.3,2.49-1.3,4.88s.43,4.02,1.3,4.91c.76.76,1.8,1.18,2.88,1.14M193.79,99.88c1.71-.05,3.37.6,4.58,1.81.75.74,1.28,1.66,1.56,2.68.53,2.4.53,4.88,0,7.28-.28,1.01-.81,1.94-1.56,2.68-2.56,2.4-6.6,2.4-9.16,0-.75-.74-1.28-1.66-1.55-2.68-.54-2.4-.54-4.89,0-7.28.27-1.01.81-1.94,1.55-2.68,1.21-1.21,2.87-1.87,4.58-1.81"></path><path class="cls-1" d="M203.55,110.25v-8.7c-.03-.37.05-.75.21-1.08.21-.33.58-.53.97-.5.39-.04.77.16.97.5.16.34.24.71.21,1.08v8.32c-.08,1.14.28,2.28,1.02,3.16.78.75,1.84,1.12,2.92,1.03,1.08.06,2.14-.33,2.92-1.09.76-.87,1.14-2,1.06-3.14v-8.29c-.02-.37.05-.75.22-1.08.22-.31.59-.5.97-.5s.75.19.97.5c.16.34.23.71.21,1.08v13.01c.03.37-.04.75-.21,1.08-.22.31-.59.5-.97.5s-.75-.19-.97-.5c-.17-.34-.24-.71-.22-1.08v-.29c-1.12,1.28-2.76,2-4.46,1.95-1.52.08-3.01-.46-4.13-1.49-1.16-1.18-1.77-2.8-1.68-4.45"></path><path class="cls-1" d="M232.89,105.82v8.7c.02.37-.05.75-.21,1.08-.21.33-.58.53-.97.5-.39.04-.77-.16-.97-.5-.16-.34-.24-.71-.21-1.08v-8.3c.08-1.15-.28-2.28-1.02-3.17-.76-.75-1.81-1.14-2.88-1.08-1.08-.06-2.15.34-2.92,1.1-.76.87-1.14,2-1.06,3.15v8.32c.02.37-.05.75-.21,1.08-.22.31-.59.5-.97.5s-.75-.19-.97-.5c-.16-.34-.23-.71-.21-1.08v-13.01c-.03-.37.04-.75.21-1.08.22-.31.59-.5.97-.5s.75.19.97.5c.17.34.24.71.21,1.08v.29c1.13-1.28,2.76-1.99,4.46-1.94,1.52-.09,3.02.44,4.14,1.47,1.15,1.2,1.74,2.82,1.63,4.48"></path><path class="cls-1" d="M238.65,106.2c-.05.54-.08,1.15-.08,1.84s0,1.3.08,1.83c.06.55.17,1.1.33,1.63.14.49.36.96.67,1.37.31.38.71.68,1.17.88,1.12.45,2.38.45,3.5,0,.45-.19.85-.49,1.16-.88.31-.41.53-.88.67-1.37.17-.53.28-1.08.34-1.63.05-.54.08-1.15.08-1.83s0-1.34-.08-1.84c-.06-.55-.17-1.1-.34-1.63-.14-.48-.37-.94-.67-1.34-.31-.38-.71-.69-1.16-.88-1.12-.45-2.38-.45-3.5,0-.45.2-.85.5-1.17.88-.3.4-.53.86-.67,1.34-.17.53-.29,1.07-.36,1.63h.03ZM236.21,108.04c0-3.19.66-5.45,1.97-6.77,1.05-.97,2.46-1.48,3.89-1.39.85-.02,1.7.13,2.49.43.79.36,1.48.91,2.01,1.61v-7.51c-.03-.37.04-.75.21-1.08.22-.31.58-.5.97-.5s.75.19.97.5c.17.33.24.71.21,1.08v20.13c.03.37-.05.75-.21,1.08-.22.31-.59.5-.97.5s-.75-.19-.97-.5c-.16-.34-.24-.71-.21-1.08v-.48c-.52.71-1.21,1.28-2.01,1.65-.79.32-1.64.47-2.5.46-1.43.08-2.84-.42-3.89-1.39-1.31-1.3-1.96-3.55-1.97-6.74"></path><path class="cls-1" d="M254.26,111.48c0,1.82,1.22,2.74,3.67,2.74.68.01,1.35-.06,2.01-.22.57-.15,1.1-.45,1.52-.86.55-.54.82-1.46.82-2.76v-1.7h-4.56c-.91-.06-1.82.19-2.57.72-.6.51-.93,1.28-.89,2.07v.02ZM251.95,111.48c-.05-1.28.49-2.51,1.47-3.35,1.15-.88,2.57-1.33,4.02-1.24h4.82v-1.3c.08-1.01-.25-2.01-.93-2.76-.84-.68-1.91-1.01-2.98-.91-.67-.02-1.34.09-1.97.33-.61.26-1.16.63-1.64,1.08-.26.26-.61.41-.98.42-.27,0-.53-.1-.71-.29-.19-.2-.29-.47-.29-.74,0-.52.51-1.11,1.52-1.78,1.24-.73,2.66-1.09,4.09-1.04,2.05,0,3.61.45,4.68,1.34,1.11,1.01,1.69,2.48,1.59,3.97v9.37c.03.37-.05.75-.21,1.08-.22.31-.59.5-.97.5s-.75-.19-.97-.5c-.17-.34-.24-.71-.21-1.08v-.03c-.56.59-1.25,1.05-2.01,1.34-.83.27-1.7.4-2.58.38-.92.02-1.83-.1-2.72-.35-.69-.22-1.31-.6-1.82-1.11-.83-.9-1.25-2.1-1.18-3.32"></path><path class="cls-1" d="M271.35,101.89v9.76c0,1.55.7,2.32,2.11,2.32.36-.02.72.04,1.05.19.29.17.45.49.43.82.02.34-.15.65-.43.83-.33.15-.69.22-1.05.19h-.42c-1.13.07-2.23-.38-2.99-1.21-.72-.85-1.1-1.95-1.06-3.06v-9.84h-1.12c-.3.02-.59-.03-.86-.16-.24-.17-.39-.45-.39-.75s.15-.58.39-.75c.27-.13.56-.18.86-.16h1.12v-3.41c-.03-.37.05-.75.21-1.08.22-.31.59-.5.97-.5s.75.19.97.5c.16.34.23.71.21,1.08v3.41h2.35c.29-.02.59.03.86.16.24.17.39.45.39.75s-.15.58-.39.75c-.27.13-.56.18-.86.16h-2.35Z"></path><path class="cls-1" d="M277.81,95.24c-.62-.62-.62-1.65,0-2.27.3-.3.71-.47,1.13-.47.88,0,1.6.72,1.61,1.6,0,.43-.17.84-.47,1.13-.3.3-.71.47-1.13.47s-.83-.17-1.13-.47"></path><path class="cls-1" d="M280.12,101.53v13.01c.03.37-.05.75-.21,1.08-.22.31-.59.5-.97.5s-.75-.19-.97-.5c-.16-.34-.23-.71-.21-1.08v-13.01c-.03-.37.04-.75.21-1.08.22-.31.59-.5.97-.5s.75.19.97.5c.16.34.23.71.21,1.08h0Z"></path><path class="cls-1" d="M290.02,114.09c1.08.03,2.12-.38,2.88-1.14.86-.89,1.27-2.5,1.27-4.9s-.43-4.01-1.3-4.89c-1.59-1.55-4.17-1.55-5.76,0-.86.86-1.29,2.49-1.29,4.89s.43,4.01,1.29,4.9c.77.76,1.83,1.16,2.91,1.12v.03ZM290.02,99.88c1.71-.05,3.37.6,4.58,1.81.75.74,1.28,1.66,1.55,2.68.54,2.4.54,4.88,0,7.28-.27,1.01-.81,1.94-1.55,2.68-2.56,2.4-6.6,2.4-9.16,0-.74-.74-1.28-1.66-1.55-2.68-.53-2.4-.53-4.88,0-7.28.27-1.01.81-1.94,1.55-2.68,1.21-1.21,2.87-1.87,4.58-1.81"></path><path class="cls-1" d="M312.57,105.82v8.7c.02.37-.05.75-.21,1.08-.21.33-.58.53-.97.5-.39.04-.78-.16-.97-.5-.16-.34-.24-.71-.21-1.08v-8.3c.08-1.15-.28-2.28-1.02-3.17-.77-.75-1.81-1.14-2.88-1.08-1.08-.06-2.14.34-2.92,1.1-.76.86-1.14,2-1.06,3.15v8.32c.02.37-.05.75-.21,1.08-.22.31-.59.5-.97.5s-.75-.19-.97-.5c-.16-.34-.24-.71-.21-1.08v-13.01c-.03-.37.05-.75.21-1.08.22-.31.58-.5.97-.5s.75.19.97.5c.16.34.23.71.21,1.08v.29c1.13-1.28,2.77-1.99,4.47-1.94,1.51-.08,2.99.45,4.11,1.47,1.16,1.19,1.76,2.82,1.67,4.48"></path></svg> 