<?xml version="1.0" encoding="us-ascii" standalone="no"?><svg xmlns="http://www.w3.org/2000/svg" xmlns:xlink="http://www.w3.org/1999/xlink" contentStyleType="text/css" height="996px" preserveAspectRatio="none" style="width:1012px;height:996px;background:#FFFFFF;" version="1.1" viewBox="0 0 1012 996" width="1012px" zoomAndPan="magnify"><defs/><g><rect fill="#B0C4DE" height="984.4688" style="stroke:#181818;stroke-width:0.5;" width="298" x="299" y="6"/><text fill="#000000" font-family="sans-serif" font-size="13" font-weight="bold" lengthAdjust="spacing" textLength="79" x="406" y="19.4951">Payee DFSP</text><text fill="#000000" font-family="sans-serif" font-size="13" font-weight="bold" lengthAdjust="spacing" textLength="108" x="394" y="35.8467">Payment Manger</text><rect fill="#00008B" height="638.7344" style="stroke:#181818;stroke-width:1.0;" width="10" x="530.5" y="168.3672"/><line style="stroke:#181818;stroke-width:0.5;stroke-dasharray:5.0,5.0;" x1="172" x2="172" y1="75.3125" y2="954.8594"/><line style="stroke:#181818;stroke-width:0.5;stroke-dasharray:5.0,5.0;" x1="373" x2="373" y1="75.3125" y2="954.8594"/><line style="stroke:#181818;stroke-width:0.5;stroke-dasharray:5.0,5.0;" x1="535" x2="535" y1="75.3125" y2="954.8594"/><line style="stroke:#181818;stroke-width:0.5;stroke-dasharray:5.0,5.0;" x1="762" x2="762" y1="75.3125" y2="954.8594"/><rect fill="#8B0000" height="31.6094" rx="2.5" ry="2.5" style="stroke:#181818;stroke-width:0.5;" width="71" x="137" y="42.7031"/><text fill="#FFFFFF" font-family="sans-serif" font-size="14" lengthAdjust="spacing" textLength="57" x="144" y="64.2363">Mojaloop</text><rect fill="#8B0000" height="31.6094" rx="2.5" ry="2.5" style="stroke:#181818;stroke-width:0.5;" width="71" x="137" y="953.8594"/><text fill="#FFFFFF" font-family="sans-serif" font-size="14" lengthAdjust="spacing" textLength="57" x="144" y="975.3926">Mojaloop</text><rect fill="#BDB76B" height="31.6094" rx="2.5" ry="2.5" style="stroke:#181818;stroke-width:0.5;" width="141" x="303" y="42.7031"/><text fill="#FFFFFF" font-family="sans-serif" font-size="14" lengthAdjust="spacing" textLength="127" x="310" y="64.2363">Mojaloop Connector</text><rect fill="#BDB76B" height="31.6094" rx="2.5" ry="2.5" style="stroke:#181818;stroke-width:0.5;" width="141" x="303" y="953.8594"/><text fill="#FFFFFF" font-family="sans-serif" font-size="14" lengthAdjust="spacing" textLength="127" x="310" y="975.3926">Mojaloop Connector</text><rect fill="#00008B" height="31.6094" rx="2.5" ry="2.5" style="stroke:#181818;stroke-width:0.5;" width="115" x="478" y="42.7031"/><text fill="#FFFFFF" font-family="sans-serif" font-size="14" lengthAdjust="spacing" textLength="101" x="485" y="64.2363">Core Connector</text><rect fill="#00008B" height="31.6094" rx="2.5" ry="2.5" style="stroke:#181818;stroke-width:0.5;" width="115" x="478" y="953.8594"/><text fill="#FFFFFF" font-family="sans-serif" font-size="14" lengthAdjust="spacing" textLength="101" x="485" y="975.3926">Core Connector</text><rect fill="#006400" height="31.6094" rx="2.5" ry="2.5" style="stroke:#181818;stroke-width:0.5;" width="155" x="685" y="42.7031"/><text fill="#FFFFFF" font-family="sans-serif" font-size="14" lengthAdjust="spacing" textLength="141" x="692" y="64.2363">Core Banking Solution</text><rect fill="#006400" height="31.6094" rx="2.5" ry="2.5" style="stroke:#181818;stroke-width:0.5;" width="155" x="685" y="953.8594"/><text fill="#FFFFFF" font-family="sans-serif" font-size="14" lengthAdjust="spacing" textLength="141" x="692" y="975.3926">Core Banking Solution</text><rect fill="#00008B" height="638.7344" style="stroke:#181818;stroke-width:1.0;" width="10" x="530.5" y="168.3672"/><line style="stroke:#181818;stroke-width:1.0;" x1="371.5" x2="361.5" y1="107.6641" y2="103.6641"/><line style="stroke:#181818;stroke-width:1.0;" x1="371.5" x2="361.5" y1="107.6641" y2="111.6641"/><line style="stroke:#181818;stroke-width:1.0;" x1="172.5" x2="372.5" y1="107.6641" y2="107.6641"/><text fill="#000000" font-family="sans-serif" font-size="13" font-weight="bold" lengthAdjust="spacing" textLength="15" x="179.5" y="102.8076">[1]</text><text fill="#000000" font-family="sans-serif" font-size="13" font-weight="bold" lengthAdjust="spacing" textLength="36" x="198.5" y="102.8076">POST</text><text fill="#000000" font-family="sans-serif" font-size="13" lengthAdjust="spacing" textLength="43" x="238.5" y="102.8076">/quotes</text><line style="stroke:#181818;stroke-width:1.0;" x1="173.5" x2="183.5" y1="138.0156" y2="134.0156"/><line style="stroke:#181818;stroke-width:1.0;" x1="173.5" x2="183.5" y1="138.0156" y2="142.0156"/><line style="stroke:#181818;stroke-width:1.0;stroke-dasharray:2.0,2.0;" x1="172.5" x2="372.5" y1="138.0156" y2="138.0156"/><text fill="#000000" font-family="sans-serif" font-size="13" font-weight="bold" lengthAdjust="spacing" textLength="15" x="189.5" y="133.1592">[2]</text><text fill="#000000" font-family="sans-serif" font-size="13" lengthAdjust="spacing" textLength="119" x="208.5" y="133.1592">HTTP 202 Response</text><polygon fill="#181818" points="518.5,164.3672,528.5,168.3672,518.5,172.3672,522.5,168.3672" style="stroke:#181818;stroke-width:1.0;"/><line style="stroke:#181818;stroke-width:1.0;" x1="373.5" x2="524.5" y1="168.3672" y2="168.3672"/><text fill="#000000" font-family="sans-serif" font-size="13" font-weight="bold" lengthAdjust="spacing" textLength="15" x="380.5" y="163.5107">[3]</text><text fill="#000000" font-family="sans-serif" font-size="13" font-weight="bold" lengthAdjust="spacing" textLength="36" x="399.5" y="163.5107">POST</text><text fill="#000000" font-family="sans-serif" font-size="13" lengthAdjust="spacing" textLength="79" x="439.5" y="163.5107">/quoterequest</text><line style="stroke:#181818;stroke-width:1.0;" x1="540.5" x2="582.5" y1="198.7188" y2="198.7188"/><line style="stroke:#181818;stroke-width:1.0;" x1="582.5" x2="582.5" y1="198.7188" y2="211.7188"/><line style="stroke:#181818;stroke-width:1.0;" x1="541.5" x2="582.5" y1="211.7188" y2="211.7188"/><polygon fill="#181818" points="551.5,207.7188,541.5,211.7188,551.5,215.7188,547.5,211.7188" style="stroke:#181818;stroke-width:1.0;"/><text fill="#000000" font-family="sans-serif" font-size="13" font-weight="bold" lengthAdjust="spacing" textLength="15" x="547.5" y="193.8623">[4]</text><text fill="#000000" font-family="sans-serif" font-size="13" lengthAdjust="spacing" textLength="99" x="566.5" y="193.8623">Validate Identifier</text><path d="M410,184.8672 L410,210.8672 L525,210.8672 L525,194.8672 L515,184.8672 L410,184.8672 " fill="#FEFFDD" style="stroke:#181818;stroke-width:0.5;"/><path d="M515,184.8672 L515,194.8672 L525,194.8672 L515,184.8672 " fill="#FEFFDD" style="stroke:#181818;stroke-width:0.5;"/><text fill="#000000" font-family="sans-serif" font-size="13" lengthAdjust="spacing" textLength="94" x="416" y="203.3623">Validate request</text><line style="stroke:#181818;stroke-width:1.0;" x1="540.5" x2="582.5" y1="242.0703" y2="242.0703"/><line style="stroke:#181818;stroke-width:1.0;" x1="582.5" x2="582.5" y1="242.0703" y2="255.0703"/><line style="stroke:#181818;stroke-width:1.0;" x1="541.5" x2="582.5" y1="255.0703" y2="255.0703"/><polygon fill="#181818" points="551.5,251.0703,541.5,255.0703,551.5,259.0703,547.5,255.0703" style="stroke:#181818;stroke-width:1.0;"/><text fill="#000000" font-family="sans-serif" font-size="13" font-weight="bold" lengthAdjust="spacing" textLength="15" x="547.5" y="237.2139">[5]</text><text fill="#000000" font-family="sans-serif" font-size="13" lengthAdjust="spacing" textLength="149" x="566.5" y="237.2139">Extract account reference</text><path d="M407,228.2188 L407,254.2188 L525,254.2188 L525,238.2188 L515,228.2188 L407,228.2188 " fill="#FEFFDD" style="stroke:#181818;stroke-width:0.5;"/><path d="M515,228.2188 L515,238.2188 L525,238.2188 L515,228.2188 " fill="#FEFFDD" style="stroke:#181818;stroke-width:0.5;"/><text fill="#000000" font-family="sans-serif" font-size="13" lengthAdjust="spacing" textLength="97" x="413" y="246.7139">Validate account</text><line style="stroke:#181818;stroke-width:1.0;" x1="540.5" x2="582.5" y1="301.7734" y2="301.7734"/><line style="stroke:#181818;stroke-width:1.0;" x1="582.5" x2="582.5" y1="301.7734" y2="314.7734"/><line style="stroke:#181818;stroke-width:1.0;" x1="541.5" x2="582.5" y1="314.7734" y2="314.7734"/><polygon fill="#181818" points="551.5,310.7734,541.5,314.7734,551.5,318.7734,547.5,314.7734" style="stroke:#181818;stroke-width:1.0;"/><text fill="#000000" font-family="sans-serif" font-size="13" font-weight="bold" lengthAdjust="spacing" textLength="15" x="547.5" y="288.7412">[6]</text><text fill="#000000" font-family="sans-serif" font-size="13" lengthAdjust="spacing" textLength="122" x="566.5" y="280.5654">Validate account and</text><text fill="#000000" font-family="sans-serif" font-size="13" lengthAdjust="spacing" textLength="155" x="566.5" y="296.917">status to accept payments</text><polygon fill="#181818" points="750.5,352.3008,760.5,356.3008,750.5,360.3008,754.5,356.3008" style="stroke:#181818;stroke-width:1.0;"/><line style="stroke:#181818;stroke-width:1.0;" x1="540.5" x2="756.5" y1="356.3008" y2="356.3008"/><text fill="#000000" font-family="sans-serif" font-size="13" font-weight="bold" lengthAdjust="spacing" textLength="15" x="547.5" y="351.4443">[7]</text><text fill="#000000" font-family="sans-serif" font-size="13" font-weight="bold" lengthAdjust="spacing" textLength="26" x="566.5" y="351.4443">GET</text><text fill="#000000" font-family="sans-serif" font-size="13" lengthAdjust="spacing" textLength="96" x="596.5" y="351.4443">[account lookup]</text><path d="M767,327.7734 L767,369.7734 L935,369.7734 L935,337.7734 L925,327.7734 L767,327.7734 " fill="#FEFFDD" style="stroke:#181818;stroke-width:0.5;"/><path d="M925,327.7734 L925,337.7734 L935,337.7734 L925,327.7734 " fill="#FEFFDD" style="stroke:#181818;stroke-width:0.5;"/><text fill="#000000" font-family="sans-serif" font-size="13" lengthAdjust="spacing" textLength="130" x="773" y="346.2686">Replace with CBS API</text><text fill="#000000" font-family="sans-serif" font-size="13" lengthAdjust="spacing" textLength="147" x="773" y="362.6201">to validate payee account</text><polygon fill="#181818" points="551.5,393.8281,541.5,397.8281,551.5,401.8281,547.5,397.8281" style="stroke:#181818;stroke-width:1.0;"/><line style="stroke:#181818;stroke-width:1.0;stroke-dasharray:2.0,2.0;" x1="545.5" x2="761.5" y1="397.8281" y2="397.8281"/><text fill="#000000" font-family="sans-serif" font-size="13" font-weight="bold" lengthAdjust="spacing" textLength="15" x="557.5" y="392.9717">[8]</text><text fill="#000000" font-family="sans-serif" font-size="13" lengthAdjust="spacing" textLength="58" x="576.5" y="392.9717">Response</text><polygon fill="#181818" points="750.5,479.2344,760.5,483.2344,750.5,487.2344,754.5,483.2344" style="stroke:#181818;stroke-width:1.0;"/><line style="stroke:#181818;stroke-width:1.0;" x1="540.5" x2="756.5" y1="483.2344" y2="483.2344"/><text fill="#000000" font-family="sans-serif" font-size="13" font-weight="bold" lengthAdjust="spacing" textLength="15" x="547.5" y="478.3779">[9]</text><text fill="#000000" font-family="sans-serif" font-size="13" font-weight="bold" lengthAdjust="spacing" textLength="26" x="566.5" y="478.3779">GET</text><text fill="#000000" font-family="sans-serif" font-size="13" lengthAdjust="spacing" textLength="74" x="596.5" y="478.3779">[AML check]</text><path d="M319,435.3555 L319,461.3555 L525,461.3555 L525,445.3555 L515,435.3555 L319,435.3555 " fill="#FEFFDD" style="stroke:#181818;stroke-width:0.5;"/><path d="M515,435.3555 L515,445.3555 L525,445.3555 L515,435.3555 " fill="#FEFFDD" style="stroke:#181818;stroke-width:0.5;"/><text fill="#000000" font-family="sans-serif" font-size="13" lengthAdjust="spacing" textLength="185" x="325" y="453.8506">Verify that transfer can be made</text><path d="M767,410.8281 L767,485.8281 L1005,485.8281 L1005,420.8281 L995,410.8281 L767,410.8281 " fill="#FEFFDD" style="stroke:#181818;stroke-width:0.5;"/><path d="M995,410.8281 L995,420.8281 L1005,420.8281 L995,410.8281 " fill="#FEFFDD" style="stroke:#181818;stroke-width:0.5;"/><text fill="#000000" font-family="sans-serif" font-size="13" lengthAdjust="spacing" textLength="155" x="773" y="429.3232">If AML check can be made</text><text fill="#000000" font-family="sans-serif" font-size="13" lengthAdjust="spacing" textLength="129" x="773" y="445.6748">here then they should.</text><text fill="#000000" font-family="sans-serif" font-size="13" lengthAdjust="spacing" textLength="213" x="773" y="462.0264">Validate that the account can accept</text><text fill="#000000" font-family="sans-serif" font-size="13" lengthAdjust="spacing" textLength="134" x="773" y="478.3779">the transferred amount.</text><polygon fill="#181818" points="551.5,509.5859,541.5,513.5859,551.5,517.5859,547.5,513.5859" style="stroke:#181818;stroke-width:1.0;"/><line style="stroke:#181818;stroke-width:1.0;stroke-dasharray:2.0,2.0;" x1="545.5" x2="761.5" y1="513.5859" y2="513.5859"/><text fill="#000000" font-family="sans-serif" font-size="13" font-weight="bold" lengthAdjust="spacing" textLength="22" x="557.5" y="508.7295">[10]</text><text fill="#000000" font-family="sans-serif" font-size="13" lengthAdjust="spacing" textLength="58" x="583.5" y="508.7295">Response</text><line style="stroke:#181818;stroke-width:1.0;" x1="540.5" x2="582.5" y1="560.2891" y2="560.2891"/><line style="stroke:#181818;stroke-width:1.0;" x1="582.5" x2="582.5" y1="560.2891" y2="573.2891"/><line style="stroke:#181818;stroke-width:1.0;" x1="541.5" x2="582.5" y1="573.2891" y2="573.2891"/><polygon fill="#181818" points="551.5,569.2891,541.5,573.2891,551.5,577.2891,547.5,573.2891" style="stroke:#181818;stroke-width:1.0;"/><text fill="#000000" font-family="sans-serif" font-size="13" font-weight="bold" lengthAdjust="spacing" textLength="22" x="547.5" y="547.2568">[11]</text><text fill="#000000" font-family="sans-serif" font-size="13" lengthAdjust="spacing" textLength="173" x="573.5" y="539.0811">Review Regulatory Information</text><text fill="#000000" font-family="sans-serif" font-size="13" lengthAdjust="spacing" textLength="142" x="573.5" y="555.4326">provided by Payer DFSP</text><polygon fill="#181818" points="750.5,621.9922,760.5,625.9922,750.5,629.9922,754.5,625.9922" style="stroke:#181818;stroke-width:1.0;"/><line style="stroke:#181818;stroke-width:1.0;" x1="540.5" x2="756.5" y1="625.9922" y2="625.9922"/><text fill="#000000" font-family="sans-serif" font-size="13" font-weight="bold" lengthAdjust="spacing" textLength="22" x="547.5" y="621.1357">[12]</text><text fill="#000000" font-family="sans-serif" font-size="13" font-weight="bold" lengthAdjust="spacing" textLength="94" x="573.5" y="621.1357">Calculate Fees</text><path d="M369,594.4648 L369,620.4648 L525,620.4648 L525,604.4648 L515,594.4648 L369,594.4648 " fill="#FEFFDD" style="stroke:#181818;stroke-width:0.5;"/><path d="M515,594.4648 L515,604.4648 L525,604.4648 L515,594.4648 " fill="#FEFFDD" style="stroke:#181818;stroke-width:0.5;"/><text fill="#000000" font-family="sans-serif" font-size="13" lengthAdjust="spacing" textLength="135" x="375" y="612.96">Build the transfer terms</text><path d="M767,586.2891 L767,628.2891 L918,628.2891 L918,596.2891 L908,586.2891 L767,586.2891 " fill="#FEFFDD" style="stroke:#181818;stroke-width:0.5;"/><path d="M908,586.2891 L908,596.2891 L918,596.2891 L908,586.2891 " fill="#FEFFDD" style="stroke:#181818;stroke-width:0.5;"/><text fill="#000000" font-family="sans-serif" font-size="13" lengthAdjust="spacing" textLength="130" x="773" y="604.7842">Replace with CBS API</text><text fill="#000000" font-family="sans-serif" font-size="13" lengthAdjust="spacing" textLength="95" x="789" y="621.1357">to calculate fees</text><polygon fill="#181818" points="551.5,652.3438,541.5,656.3438,551.5,660.3438,547.5,656.3438" style="stroke:#181818;stroke-width:1.0;"/><line style="stroke:#181818;stroke-width:1.0;stroke-dasharray:2.0,2.0;" x1="545.5" x2="761.5" y1="656.3438" y2="656.3438"/><text fill="#000000" font-family="sans-serif" font-size="13" font-weight="bold" lengthAdjust="spacing" textLength="22" x="557.5" y="651.4873">[13]</text><text fill="#000000" font-family="sans-serif" font-size="13" lengthAdjust="spacing" textLength="58" x="583.5" y="651.4873">Response</text><line style="stroke:#181818;stroke-width:1.0;" x1="540.5" x2="582.5" y1="686.6953" y2="686.6953"/><line style="stroke:#181818;stroke-width:1.0;" x1="582.5" x2="582.5" y1="686.6953" y2="699.6953"/><line style="stroke:#181818;stroke-width:1.0;" x1="541.5" x2="582.5" y1="699.6953" y2="699.6953"/><polygon fill="#181818" points="551.5,695.6953,541.5,699.6953,551.5,703.6953,547.5,699.6953" style="stroke:#181818;stroke-width:1.0;"/><text fill="#000000" font-family="sans-serif" font-size="13" font-weight="bold" lengthAdjust="spacing" textLength="22" x="547.5" y="681.8389">[14]</text><text fill="#000000" font-family="sans-serif" font-size="13" lengthAdjust="spacing" textLength="135" x="573.5" y="681.8389">Build the transfer terms</text><polygon fill="#181818" points="750.5,742.3984,760.5,746.3984,750.5,750.3984,754.5,746.3984" style="stroke:#181818;stroke-width:1.0;"/><line style="stroke:#181818;stroke-width:1.0;" x1="540.5" x2="756.5" y1="746.3984" y2="746.3984"/><text fill="#000000" font-family="sans-serif" font-size="13" font-weight="bold" lengthAdjust="spacing" textLength="22" x="547.5" y="733.3662">[15]</text><text fill="#000000" font-family="sans-serif" font-size="13" lengthAdjust="spacing" textLength="142" x="573.5" y="725.1904">Obtain Unique Customer</text><text fill="#000000" font-family="sans-serif" font-size="13" lengthAdjust="spacing" textLength="58" x="573.5" y="741.542">Reference</text><path d="M353,717.8711 L353,743.8711 L525,743.8711 L525,727.8711 L515,717.8711 L353,717.8711 " fill="#FEFFDD" style="stroke:#181818;stroke-width:0.5;"/><path d="M515,717.8711 L515,727.8711 L525,727.8711 L515,717.8711 " fill="#FEFFDD" style="stroke:#181818;stroke-width:0.5;"/><text fill="#000000" font-family="sans-serif" font-size="13" lengthAdjust="spacing" textLength="151" x="359" y="736.3662">Add regulatory information</text><polygon fill="#181818" points="551.5,772.75,541.5,776.75,551.5,780.75,547.5,776.75" style="stroke:#181818;stroke-width:1.0;"/><line style="stroke:#181818;stroke-width:1.0;stroke-dasharray:2.0,2.0;" x1="545.5" x2="761.5" y1="776.75" y2="776.75"/><text fill="#000000" font-family="sans-serif" font-size="13" font-weight="bold" lengthAdjust="spacing" textLength="22" x="557.5" y="771.8936">[16]</text><text fill="#000000" font-family="sans-serif" font-size="13" lengthAdjust="spacing" textLength="58" x="583.5" y="771.8936">Response</text><polygon fill="#181818" points="384.5,803.1016,374.5,807.1016,384.5,811.1016,380.5,807.1016" style="stroke:#181818;stroke-width:1.0;"/><line style="stroke:#181818;stroke-width:1.0;stroke-dasharray:2.0,2.0;" x1="378.5" x2="534.5" y1="807.1016" y2="807.1016"/><text fill="#000000" font-family="sans-serif" font-size="13" font-weight="bold" lengthAdjust="spacing" textLength="22" x="390.5" y="802.2451">[17]</text><text fill="#000000" font-family="sans-serif" font-size="13" lengthAdjust="spacing" textLength="58" x="416.5" y="802.2451">Response</text><line style="stroke:#181818;stroke-width:1.0;" x1="173.5" x2="183.5" y1="837.4531" y2="833.4531"/><line style="stroke:#181818;stroke-width:1.0;" x1="173.5" x2="183.5" y1="837.4531" y2="841.4531"/><line style="stroke:#181818;stroke-width:1.0;" x1="172.5" x2="372.5" y1="837.4531" y2="837.4531"/><text fill="#000000" font-family="sans-serif" font-size="13" font-weight="bold" lengthAdjust="spacing" textLength="22" x="189.5" y="832.5967">[18]</text><text fill="#000000" font-family="sans-serif" font-size="13" font-weight="bold" lengthAdjust="spacing" textLength="26" x="215.5" y="832.5967">PUT</text><text fill="#000000" font-family="sans-serif" font-size="13" lengthAdjust="spacing" textLength="65" x="245.5" y="832.5967">/quotes/{Id}</text><line style="stroke:#181818;stroke-width:1.0;" x1="371.5" x2="361.5" y1="867.8047" y2="863.8047"/><line style="stroke:#181818;stroke-width:1.0;" x1="371.5" x2="361.5" y1="867.8047" y2="871.8047"/><line style="stroke:#181818;stroke-width:1.0;stroke-dasharray:2.0,2.0;" x1="172.5" x2="372.5" y1="867.8047" y2="867.8047"/><text fill="#000000" font-family="sans-serif" font-size="13" font-weight="bold" lengthAdjust="spacing" textLength="22" x="179.5" y="862.9482">[19]</text><text fill="#000000" font-family="sans-serif" font-size="13" lengthAdjust="spacing" textLength="119" x="205.5" y="862.9482">HTTP 200 Response</text><line style="stroke:#181818;stroke-width:1.0;" x1="172.5" x2="214.5" y1="911.0078" y2="911.0078"/><line style="stroke:#181818;stroke-width:1.0;" x1="214.5" x2="214.5" y1="911.0078" y2="924.0078"/><line style="stroke:#181818;stroke-width:1.0;" x1="173.5" x2="214.5" y1="924.0078" y2="924.0078"/><polygon fill="#181818" points="183.5,920.0078,173.5,924.0078,183.5,928.0078,179.5,924.0078" style="stroke:#181818;stroke-width:1.0;"/><text fill="#000000" font-family="sans-serif" font-size="13" font-weight="bold" lengthAdjust="spacing" textLength="22" x="179.5" y="906.1514">[20]</text><text fill="#000000" font-family="sans-serif" font-size="13" lengthAdjust="spacing" textLength="161" x="205.5" y="906.1514">Pass Quote to Payer DFSP</text><path d="M5,880.8047 L5,939.8047 L168,939.8047 L168,890.8047 L158,880.8047 L5,880.8047 " fill="#FEFFDD" style="stroke:#181818;stroke-width:0.5;"/><path d="M158,880.8047 L158,890.8047 L168,890.8047 L158,880.8047 " fill="#FEFFDD" style="stroke:#181818;stroke-width:0.5;"/><text fill="#000000" font-family="sans-serif" font-size="13" lengthAdjust="spacing" textLength="103" x="11" y="899.2998">Obtain consent to</text><text fill="#000000" font-family="sans-serif" font-size="13" lengthAdjust="spacing" textLength="142" x="11" y="915.6514">proceed with the transfer</text><text fill="#000000" font-family="sans-serif" font-size="13" lengthAdjust="spacing" textLength="19" x="11" y="932.0029">Via</text><text fill="#000000" font-family="sans-serif" font-size="13" font-weight="bold" lengthAdjust="spacing" textLength="36" x="34" y="932.0029">POST</text><text fill="#000000" font-family="sans-serif" font-size="13" lengthAdjust="spacing" textLength="54" x="74" y="932.0029">/transfers</text><!--SRC=[bLHBR-8m4BxxLupeeH8IfTjZjKA2zB5eYygIjfUs1vCCn8jZfxP35rNzxpjs20HATzL4oiFp-kQRH_UuxI_MsRbOE6mVTnaxXXGJoGs24quY_OStZFaAyU8g7WzJv7BCdKEZ-dE3cADo3JEUE6qiimkX2cvu3lHq8X45LmxU6C2LLYxIKXjupOH3ziwQ6gsH_isbraKBk8NuLRWaWwCBRXOJJDbK_u4MG8K6F9mdHTyU0eoucgDfmT6Dc6SkTeXo84kaY0VzGwILGWysH1f5LPIV6L-8VPj8KsAx-b44bK68WIe5miO-MWsu8YRc46jPEg5LPJo8A-DhuaynnakdLPbFqS0tkblVfxt7q-SMOwmYeDFhZQ9pQBV7j_5TkmtTbr8xj6mKTKXKwPp3ZxkxCPoTdi44RQ6LHI_lHHyD3RwKQ1sZKeabT-YJsUOIhOqUk1IfbrB5bHCpWOOfiWQ9CyUsujgRvy3BYJo0sidb7sSe37L5eaiYnU2Cmgi43xfQQnrsjQy5dBIUb7NSbHQSzkTOEAfSw0UxDHx4deBhIy_0OsrDFR0eY-UW5R0OtpOG_YTOI9uW4B5PA5P_F0m2YhAiOHIX1sl8NheBUn1tAk2RSXm6r1_TG99XidZUuGIDcAt0PTm1KQWiyGO9Lp15o7cAknpj9p2SmSPjqwgIPkZ7EqFb7okmcIvbUX946vAhmDcMRUzbpN151SbgO0PJuBbNEo79rxW8Xqk1h_IQbvBJWArWg6RQvDmF39MuC7efKeenNON9Ds7oz-cCk4oyFS8LegKTrs1pK0gPxa066eFS_fl5JzjWtGh99kAC8duvxKz1xIHsEtLSABXNWiOCej8wdPFcaveS6gL-cjACRNWKMnxP_w3vmU-4FRCvebM_NH5XcsoM3QsK-yOgwhuDqtUerzLwNwqNqcaZHhtFQZTZRYtyyYuyeOtYRdDQ4v1u1zI7fCQe8HAaVWY5QHB87WHlRBlwk57dlm00]--></g></svg>