<?xml version="1.0" encoding="us-ascii" standalone="no"?><svg xmlns="http://www.w3.org/2000/svg" xmlns:xlink="http://www.w3.org/1999/xlink" contentStyleType="text/css" height="804px" preserveAspectRatio="none" style="width:942px;height:804px;background:#FFFFFF;" version="1.1" viewBox="0 0 942 804" width="942px" zoomAndPan="magnify"><defs/><g><rect fill="#B0C4DE" height="792.8438" style="stroke:#181818;stroke-width:0.5;" width="323" x="238" y="6"/><text fill="#000000" font-family="sans-serif" font-size="13" font-weight="bold" lengthAdjust="spacing" textLength="79" x="357.5" y="19.4951">Payee DFSP</text><text fill="#000000" font-family="sans-serif" font-size="13" font-weight="bold" lengthAdjust="spacing" textLength="108" x="345.5" y="35.8467">Payment Manger</text><rect fill="#00008B" height="375.5703" style="stroke:#181818;stroke-width:1.0;" width="10" x="494.5" y="168.3672"/><rect fill="none" height="127.5938" style="stroke:#000000;stroke-width:1.5;" width="383" x="10" y="618.6406"/><line style="stroke:#181818;stroke-width:0.5;stroke-dasharray:5.0,5.0;" x1="55" x2="55" y1="75.3125" y2="763.2344"/><line style="stroke:#181818;stroke-width:0.5;stroke-dasharray:5.0,5.0;" x1="312" x2="312" y1="75.3125" y2="763.2344"/><line style="stroke:#181818;stroke-width:0.5;stroke-dasharray:5.0,5.0;" x1="499" x2="499" y1="75.3125" y2="763.2344"/><line style="stroke:#181818;stroke-width:0.5;stroke-dasharray:5.0,5.0;" x1="708" x2="708" y1="75.3125" y2="763.2344"/><rect fill="#8B0000" height="31.6094" rx="2.5" ry="2.5" style="stroke:#181818;stroke-width:0.5;" width="71" x="20" y="42.7031"/><text fill="#FFFFFF" font-family="sans-serif" font-size="14" lengthAdjust="spacing" textLength="57" x="27" y="64.2363">Mojaloop</text><rect fill="#8B0000" height="31.6094" rx="2.5" ry="2.5" style="stroke:#181818;stroke-width:0.5;" width="71" x="20" y="762.2344"/><text fill="#FFFFFF" font-family="sans-serif" font-size="14" lengthAdjust="spacing" textLength="57" x="27" y="783.7676">Mojaloop</text><rect fill="#BDB76B" height="31.6094" rx="2.5" ry="2.5" style="stroke:#181818;stroke-width:0.5;" width="141" x="242" y="42.7031"/><text fill="#FFFFFF" font-family="sans-serif" font-size="14" lengthAdjust="spacing" textLength="127" x="249" y="64.2363">Mojaloop Connector</text><rect fill="#BDB76B" height="31.6094" rx="2.5" ry="2.5" style="stroke:#181818;stroke-width:0.5;" width="141" x="242" y="762.2344"/><text fill="#FFFFFF" font-family="sans-serif" font-size="14" lengthAdjust="spacing" textLength="127" x="249" y="783.7676">Mojaloop Connector</text><rect fill="#00008B" height="31.6094" rx="2.5" ry="2.5" style="stroke:#181818;stroke-width:0.5;" width="115" x="442" y="42.7031"/><text fill="#FFFFFF" font-family="sans-serif" font-size="14" lengthAdjust="spacing" textLength="101" x="449" y="64.2363">Core Connector</text><rect fill="#00008B" height="31.6094" rx="2.5" ry="2.5" style="stroke:#181818;stroke-width:0.5;" width="115" x="442" y="762.2344"/><text fill="#FFFFFF" font-family="sans-serif" font-size="14" lengthAdjust="spacing" textLength="101" x="449" y="783.7676">Core Connector</text><rect fill="#006400" height="31.6094" rx="2.5" ry="2.5" style="stroke:#181818;stroke-width:0.5;" width="155" x="631" y="42.7031"/><text fill="#FFFFFF" font-family="sans-serif" font-size="14" lengthAdjust="spacing" textLength="141" x="638" y="64.2363">Core Banking Solution</text><rect fill="#006400" height="31.6094" rx="2.5" ry="2.5" style="stroke:#181818;stroke-width:0.5;" width="155" x="631" y="762.2344"/><text fill="#FFFFFF" font-family="sans-serif" font-size="14" lengthAdjust="spacing" textLength="141" x="638" y="783.7676">Core Banking Solution</text><rect fill="#00008B" height="375.5703" style="stroke:#181818;stroke-width:1.0;" width="10" x="494.5" y="168.3672"/><line style="stroke:#181818;stroke-width:1.0;" x1="310.5" x2="300.5" y1="107.6641" y2="103.6641"/><line style="stroke:#181818;stroke-width:1.0;" x1="310.5" x2="300.5" y1="107.6641" y2="111.6641"/><line style="stroke:#181818;stroke-width:1.0;" x1="55.5" x2="311.5" y1="107.6641" y2="107.6641"/><text fill="#000000" font-family="sans-serif" font-size="13" font-weight="bold" lengthAdjust="spacing" textLength="15" x="62.5" y="102.8076">[1]</text><text fill="#000000" font-family="sans-serif" font-size="13" font-weight="bold" lengthAdjust="spacing" textLength="26" x="81.5" y="102.8076">GET</text><text fill="#000000" font-family="sans-serif" font-size="13" lengthAdjust="spacing" textLength="105" x="111.5" y="102.8076">/parties/{Type}/{Id}</text><line style="stroke:#181818;stroke-width:1.0;" x1="56.5" x2="66.5" y1="138.0156" y2="134.0156"/><line style="stroke:#181818;stroke-width:1.0;" x1="56.5" x2="66.5" y1="138.0156" y2="142.0156"/><line style="stroke:#181818;stroke-width:1.0;stroke-dasharray:2.0,2.0;" x1="55.5" x2="311.5" y1="138.0156" y2="138.0156"/><text fill="#000000" font-family="sans-serif" font-size="13" font-weight="bold" lengthAdjust="spacing" textLength="15" x="72.5" y="133.1592">[2]</text><text fill="#000000" font-family="sans-serif" font-size="13" lengthAdjust="spacing" textLength="119" x="91.5" y="133.1592">HTTP 202 Response</text><polygon fill="#181818" points="482.5,164.3672,492.5,168.3672,482.5,172.3672,486.5,168.3672" style="stroke:#181818;stroke-width:1.0;"/><line style="stroke:#181818;stroke-width:1.0;" x1="312.5" x2="488.5" y1="168.3672" y2="168.3672"/><text fill="#000000" font-family="sans-serif" font-size="13" font-weight="bold" lengthAdjust="spacing" textLength="15" x="319.5" y="163.5107">[3]</text><text fill="#000000" font-family="sans-serif" font-size="13" font-weight="bold" lengthAdjust="spacing" textLength="26" x="338.5" y="163.5107">GET</text><text fill="#000000" font-family="sans-serif" font-size="13" lengthAdjust="spacing" textLength="105" x="368.5" y="163.5107">/parties/{Type}/{Id}</text><line style="stroke:#181818;stroke-width:1.0;" x1="504.5" x2="546.5" y1="198.7188" y2="198.7188"/><line style="stroke:#181818;stroke-width:1.0;" x1="546.5" x2="546.5" y1="198.7188" y2="211.7188"/><line style="stroke:#181818;stroke-width:1.0;" x1="505.5" x2="546.5" y1="211.7188" y2="211.7188"/><polygon fill="#181818" points="515.5,207.7188,505.5,211.7188,515.5,215.7188,511.5,211.7188" style="stroke:#181818;stroke-width:1.0;"/><text fill="#000000" font-family="sans-serif" font-size="13" font-weight="bold" lengthAdjust="spacing" textLength="15" x="511.5" y="193.8623">[4]</text><text fill="#000000" font-family="sans-serif" font-size="13" lengthAdjust="spacing" textLength="99" x="530.5" y="193.8623">Validate Identifier</text><path d="M374,184.8672 L374,210.8672 L489,210.8672 L489,194.8672 L479,184.8672 L374,184.8672 " fill="#FEFFDD" style="stroke:#181818;stroke-width:0.5;"/><path d="M479,184.8672 L479,194.8672 L489,194.8672 L479,184.8672 " fill="#FEFFDD" style="stroke:#181818;stroke-width:0.5;"/><text fill="#000000" font-family="sans-serif" font-size="13" lengthAdjust="spacing" textLength="94" x="380" y="203.3623">Validate request</text><line style="stroke:#181818;stroke-width:1.0;" x1="504.5" x2="546.5" y1="242.0703" y2="242.0703"/><line style="stroke:#181818;stroke-width:1.0;" x1="546.5" x2="546.5" y1="242.0703" y2="255.0703"/><line style="stroke:#181818;stroke-width:1.0;" x1="505.5" x2="546.5" y1="255.0703" y2="255.0703"/><polygon fill="#181818" points="515.5,251.0703,505.5,255.0703,515.5,259.0703,511.5,255.0703" style="stroke:#181818;stroke-width:1.0;"/><text fill="#000000" font-family="sans-serif" font-size="13" font-weight="bold" lengthAdjust="spacing" textLength="15" x="511.5" y="237.2139">[5]</text><text fill="#000000" font-family="sans-serif" font-size="13" lengthAdjust="spacing" textLength="149" x="530.5" y="237.2139">Extract account reference</text><polygon fill="#181818" points="696.5,303.7734,706.5,307.7734,696.5,311.7734,700.5,307.7734" style="stroke:#181818;stroke-width:1.0;"/><line style="stroke:#181818;stroke-width:1.0;" x1="504.5" x2="702.5" y1="307.7734" y2="307.7734"/><text fill="#000000" font-family="sans-serif" font-size="13" font-weight="bold" lengthAdjust="spacing" textLength="15" x="511.5" y="302.917">[6]</text><text fill="#000000" font-family="sans-serif" font-size="13" font-weight="bold" lengthAdjust="spacing" textLength="26" x="530.5" y="302.917">GET</text><text fill="#000000" font-family="sans-serif" font-size="13" lengthAdjust="spacing" textLength="96" x="560.5" y="302.917">[account lookup]</text><path d="M371,276.2461 L371,302.2461 L489,302.2461 L489,286.2461 L479,276.2461 L371,276.2461 " fill="#FEFFDD" style="stroke:#181818;stroke-width:0.5;"/><path d="M479,276.2461 L479,286.2461 L489,286.2461 L479,276.2461 " fill="#FEFFDD" style="stroke:#181818;stroke-width:0.5;"/><text fill="#000000" font-family="sans-serif" font-size="13" lengthAdjust="spacing" textLength="97" x="377" y="294.7412">Validate account</text><path d="M713,268.0703 L713,310.0703 L881,310.0703 L881,278.0703 L871,268.0703 L713,268.0703 " fill="#FEFFDD" style="stroke:#181818;stroke-width:0.5;"/><path d="M871,268.0703 L871,278.0703 L881,278.0703 L871,268.0703 " fill="#FEFFDD" style="stroke:#181818;stroke-width:0.5;"/><text fill="#000000" font-family="sans-serif" font-size="13" lengthAdjust="spacing" textLength="130" x="719" y="286.5654">Replace with CBS API</text><text fill="#000000" font-family="sans-serif" font-size="13" lengthAdjust="spacing" textLength="147" x="719" y="302.917">to validate payee account</text><polygon fill="#181818" points="515.5,334.125,505.5,338.125,515.5,342.125,511.5,338.125" style="stroke:#181818;stroke-width:1.0;"/><line style="stroke:#181818;stroke-width:1.0;stroke-dasharray:2.0,2.0;" x1="509.5" x2="707.5" y1="338.125" y2="338.125"/><text fill="#000000" font-family="sans-serif" font-size="13" font-weight="bold" lengthAdjust="spacing" textLength="15" x="521.5" y="333.2686">[7]</text><text fill="#000000" font-family="sans-serif" font-size="13" lengthAdjust="spacing" textLength="58" x="540.5" y="333.2686">Response</text><line style="stroke:#181818;stroke-width:1.0;" x1="504.5" x2="546.5" y1="384.8281" y2="384.8281"/><line style="stroke:#181818;stroke-width:1.0;" x1="546.5" x2="546.5" y1="384.8281" y2="397.8281"/><line style="stroke:#181818;stroke-width:1.0;" x1="505.5" x2="546.5" y1="397.8281" y2="397.8281"/><polygon fill="#181818" points="515.5,393.8281,505.5,397.8281,515.5,401.8281,511.5,397.8281" style="stroke:#181818;stroke-width:1.0;"/><text fill="#000000" font-family="sans-serif" font-size="13" font-weight="bold" lengthAdjust="spacing" textLength="15" x="511.5" y="371.7959">[8]</text><text fill="#000000" font-family="sans-serif" font-size="13" lengthAdjust="spacing" textLength="122" x="530.5" y="363.6201">Validate account and</text><text fill="#000000" font-family="sans-serif" font-size="13" lengthAdjust="spacing" textLength="155" x="530.5" y="379.9717">status to accept payments</text><polygon fill="#181818" points="696.5,479.2344,706.5,483.2344,696.5,487.2344,700.5,483.2344" style="stroke:#181818;stroke-width:1.0;"/><line style="stroke:#181818;stroke-width:1.0;" x1="504.5" x2="702.5" y1="483.2344" y2="483.2344"/><text fill="#000000" font-family="sans-serif" font-size="13" font-weight="bold" lengthAdjust="spacing" textLength="15" x="511.5" y="478.3779">[9]</text><text fill="#000000" font-family="sans-serif" font-size="13" font-weight="bold" lengthAdjust="spacing" textLength="26" x="530.5" y="478.3779">GET</text><text fill="#000000" font-family="sans-serif" font-size="13" lengthAdjust="spacing" textLength="106" x="560.5" y="478.3779">[client information]</text><path d="M310,410.8281 L310,485.8281 L489,485.8281 L489,420.8281 L479,410.8281 L310,410.8281 " fill="#FEFFDD" style="stroke:#181818;stroke-width:0.5;"/><path d="M479,410.8281 L479,420.8281 L489,420.8281 L479,410.8281 " fill="#FEFFDD" style="stroke:#181818;stroke-width:0.5;"/><text fill="#000000" font-family="sans-serif" font-size="13" lengthAdjust="spacing" textLength="125" x="316" y="429.3232">Retrieve Payee Name</text><text fill="#000000" font-family="sans-serif" font-size="13" lengthAdjust="spacing" textLength="129" x="324" y="445.6748">Minimum identification</text><text fill="#000000" font-family="sans-serif" font-size="13" lengthAdjust="spacing" textLength="141" x="324" y="462.0264">details of account holder</text><text fill="#000000" font-family="sans-serif" font-size="13" lengthAdjust="spacing" textLength="150" x="324" y="478.3779">for Payer to verify account</text><path d="M713,427.1797 L713,469.1797 L935,469.1797 L935,437.1797 L925,427.1797 L713,427.1797 " fill="#FEFFDD" style="stroke:#181818;stroke-width:0.5;"/><path d="M925,427.1797 L925,437.1797 L935,437.1797 L925,427.1797 " fill="#FEFFDD" style="stroke:#181818;stroke-width:0.5;"/><text fill="#000000" font-family="sans-serif" font-size="13" lengthAdjust="spacing" textLength="130" x="719" y="445.6748">Replace with CBS API</text><text fill="#000000" font-family="sans-serif" font-size="13" lengthAdjust="spacing" textLength="201" x="719" y="462.0264">to retrieve client details for account</text><polygon fill="#181818" points="515.5,509.5859,505.5,513.5859,515.5,517.5859,511.5,513.5859" style="stroke:#181818;stroke-width:1.0;"/><line style="stroke:#181818;stroke-width:1.0;stroke-dasharray:2.0,2.0;" x1="509.5" x2="707.5" y1="513.5859" y2="513.5859"/><text fill="#000000" font-family="sans-serif" font-size="13" font-weight="bold" lengthAdjust="spacing" textLength="22" x="521.5" y="508.7295">[10]</text><text fill="#000000" font-family="sans-serif" font-size="13" lengthAdjust="spacing" textLength="154" x="547.5" y="508.7295">Response [Payee's Name]</text><polygon fill="#181818" points="323.5,539.9375,313.5,543.9375,323.5,547.9375,319.5,543.9375" style="stroke:#181818;stroke-width:1.0;"/><line style="stroke:#181818;stroke-width:1.0;stroke-dasharray:2.0,2.0;" x1="317.5" x2="498.5" y1="543.9375" y2="543.9375"/><text fill="#000000" font-family="sans-serif" font-size="13" font-weight="bold" lengthAdjust="spacing" textLength="22" x="329.5" y="539.0811">[11]</text><text fill="#000000" font-family="sans-serif" font-size="13" lengthAdjust="spacing" textLength="58" x="355.5" y="539.0811">Response</text><line style="stroke:#181818;stroke-width:1.0;" x1="312.5" x2="354.5" y1="590.6406" y2="590.6406"/><line style="stroke:#181818;stroke-width:1.0;" x1="354.5" x2="354.5" y1="590.6406" y2="603.6406"/><line style="stroke:#181818;stroke-width:1.0;" x1="313.5" x2="354.5" y1="603.6406" y2="603.6406"/><polygon fill="#181818" points="323.5,599.6406,313.5,603.6406,323.5,607.6406,319.5,603.6406" style="stroke:#181818;stroke-width:1.0;"/><text fill="#000000" font-family="sans-serif" font-size="13" font-weight="bold" lengthAdjust="spacing" textLength="22" x="319.5" y="577.6084">[12]</text><text fill="#000000" font-family="sans-serif" font-size="13" lengthAdjust="spacing" textLength="147" x="345.5" y="569.4326">Add configured supported</text><text fill="#000000" font-family="sans-serif" font-size="13" lengthAdjust="spacing" textLength="121" x="349.5" y="585.7842">currency in response</text><path d="M10,618.6406 L71,618.6406 L71,626.9922 L61,636.9922 L10,636.9922 L10,618.6406 " fill="#EEEEEE" style="stroke:#000000;stroke-width:1.5;"/><rect fill="none" height="127.5938" style="stroke:#000000;stroke-width:1.5;" width="383" x="10" y="618.6406"/><text fill="#000000" font-family="sans-serif" font-size="13" font-weight="bold" lengthAdjust="spacing" textLength="16" x="25" y="633.1357">alt</text><text fill="#000000" font-family="sans-serif" font-size="11" font-weight="bold" lengthAdjust="spacing" textLength="122" x="86" y="632.0596">[If Success response]</text><line style="stroke:#181818;stroke-width:1.0;" x1="56.5" x2="66.5" y1="675.6953" y2="671.6953"/><line style="stroke:#181818;stroke-width:1.0;" x1="56.5" x2="66.5" y1="675.6953" y2="679.6953"/><line style="stroke:#181818;stroke-width:1.0;" x1="55.5" x2="311.5" y1="675.6953" y2="675.6953"/><text fill="#000000" font-family="sans-serif" font-size="13" font-weight="bold" lengthAdjust="spacing" textLength="22" x="72.5" y="662.6631">[13]</text><text fill="#000000" font-family="sans-serif" font-size="13" font-weight="bold" lengthAdjust="spacing" textLength="26" x="98.5" y="654.4873">PUT</text><text fill="#000000" font-family="sans-serif" font-size="13" lengthAdjust="spacing" textLength="105" x="128.5" y="654.4873">/parties/{Type}/{Id}</text><text fill="#000000" font-family="sans-serif" font-size="13" lengthAdjust="spacing" textLength="173" x="98.5" y="670.8389">(or /parties/{Type}/{Id}/{SubId})</text><line style="stroke:#000000;stroke-width:1.0;stroke-dasharray:2.0,2.0;" x1="10" x2="393" y1="684.6953" y2="684.6953"/><text fill="#000000" font-family="sans-serif" font-size="11" font-weight="bold" lengthAdjust="spacing" textLength="103" x="15" y="696.1143">[if Error response]</text><line style="stroke:#181818;stroke-width:1.0;" x1="56.5" x2="66.5" y1="738.2344" y2="734.2344"/><line style="stroke:#181818;stroke-width:1.0;" x1="56.5" x2="66.5" y1="738.2344" y2="742.2344"/><line style="stroke:#181818;stroke-width:1.0;" x1="55.5" x2="311.5" y1="738.2344" y2="738.2344"/><text fill="#000000" font-family="sans-serif" font-size="13" font-weight="bold" lengthAdjust="spacing" textLength="22" x="72.5" y="725.2021">[14]</text><text fill="#000000" font-family="sans-serif" font-size="13" font-weight="bold" lengthAdjust="spacing" textLength="26" x="98.5" y="717.0264">PUT</text><text fill="#000000" font-family="sans-serif" font-size="13" lengthAdjust="spacing" textLength="135" x="128.5" y="717.0264">/parties/{Type}/{Id}/error</text><text fill="#000000" font-family="sans-serif" font-size="13" lengthAdjust="spacing" textLength="203" x="102.5" y="733.3779">(or /parties/{Type}/{Id}/{SubId}/error)</text><!--SRC=[dLDDRzf04BtlhnYH0wqbv3J7g48ApaTHIuKmxINXiDXZsBBUTNVN90ZbltTsRJxIKAKjI1Zll9atxyrit8tyX_LUV5WuZBenOrt8CPFS83ZX9D9xUCAORn2lRzFnjR2PNgFPZBbpQDHH1i-SDfRPbL0LDxm4-dKY4nLN3hOCu5OhbsYf3JmkXKFsp8uHdP7-mQNMLGUuXVHHk6m9PzVSh2QOixb-WWv0qmZuJXuK_I-HCaTSBT1quEoBM2nTwX3bGDP8Z2VhGwALGjziO1eb3Sld9L-9ttCIJS9UufC4ceJ0WIe7weszpXfmHKui8DMoTaAh9dcGDibt1b4nnckdLLtEqS07-dO-plltvxCEOwmneDVlZv9BYAAxcsaKGHneqCRRwQR2vtWxp9_PAEaHhC5VmgVfT0mNvnSmGLjfPT77-ybRHMXuOiqTUda7TKcR-frBaVleC2V3HI7GCANfNMBXs25iy6UDrWLNV7nVuER96QAW7SbqJHOPBD2Wobh483sqTx_3qAnMTJKxITHY3aG1PFpyWMOumKho384yMGRFhyP3EdOQrhiALLYaLtK8t6jQtlltoeHTWvoI7fHrtDNMrwPph9olxDVIdf2MIU4NLgX2cvBxhPZ1iRu9EYDmtTut-CfBlyKm4agKTGcYTJyBgLueNJx7XRIWYtrRIorpcWy5YILKCa4v6b5i_jyvi-kj5R5ZzYH_OIFS1qrT6rJDl3cziDjxdtCyMiAmjJvybUUGQLM8HMqm1rjNbJOEymS5MMty3ct8J-gkhSAbWs41QKt3iFPmxkljBqaKZR_zwIhGID-Hf5EXU9lMStg-PoX9aIZWnXZ2_Zj9Z3wHDBn5rG3VUsSP-mK0]--></g></svg>