<?xml version="1.0" encoding="us-ascii" standalone="no"?><svg xmlns="http://www.w3.org/2000/svg" xmlns:xlink="http://www.w3.org/1999/xlink" contentStyleType="text/css" height="997px" preserveAspectRatio="none" style="width:1181px;height:997px;background:#FFFFFF;" version="1.1" viewBox="0 0 1181 997" width="1181px" zoomAndPan="magnify"><defs/><g><rect fill="#B0C4DE" height="985.5234" style="stroke:#181818;stroke-width:0.5;" width="366" x="394" y="6"/><text fill="#000000" font-family="sans-serif" font-size="13" font-weight="bold" lengthAdjust="spacing" textLength="79" x="535" y="19.4951">Payee DFSP</text><text fill="#000000" font-family="sans-serif" font-size="13" font-weight="bold" lengthAdjust="spacing" textLength="108" x="523" y="35.8467">Payment Manger</text><rect fill="#00008B" height="195.1641" style="stroke:#181818;stroke-width:1.0;" width="10" x="693.5" y="310.125"/><rect fill="#00008B" height="173.1094" style="stroke:#181818;stroke-width:1.0;" width="10" x="693.5" y="764.8047"/><line style="stroke:#181818;stroke-width:0.5;stroke-dasharray:5.0,5.0;" x1="172" x2="172" y1="75.3125" y2="955.9141"/><line style="stroke:#181818;stroke-width:0.5;stroke-dasharray:5.0,5.0;" x1="468" x2="468" y1="75.3125" y2="955.9141"/><line style="stroke:#181818;stroke-width:0.5;stroke-dasharray:5.0,5.0;" x1="698" x2="698" y1="75.3125" y2="955.9141"/><line style="stroke:#181818;stroke-width:0.5;stroke-dasharray:5.0,5.0;" x1="953" x2="953" y1="75.3125" y2="955.9141"/><rect fill="#8B0000" height="31.6094" rx="2.5" ry="2.5" style="stroke:#181818;stroke-width:0.5;" width="71" x="137" y="42.7031"/><text fill="#FFFFFF" font-family="sans-serif" font-size="14" lengthAdjust="spacing" textLength="57" x="144" y="64.2363">Mojaloop</text><rect fill="#8B0000" height="31.6094" rx="2.5" ry="2.5" style="stroke:#181818;stroke-width:0.5;" width="71" x="137" y="954.9141"/><text fill="#FFFFFF" font-family="sans-serif" font-size="14" lengthAdjust="spacing" textLength="57" x="144" y="976.4473">Mojaloop</text><rect fill="#BDB76B" height="31.6094" rx="2.5" ry="2.5" style="stroke:#181818;stroke-width:0.5;" width="141" x="398" y="42.7031"/><text fill="#FFFFFF" font-family="sans-serif" font-size="14" lengthAdjust="spacing" textLength="127" x="405" y="64.2363">Mojaloop Connector</text><rect fill="#BDB76B" height="31.6094" rx="2.5" ry="2.5" style="stroke:#181818;stroke-width:0.5;" width="141" x="398" y="954.9141"/><text fill="#FFFFFF" font-family="sans-serif" font-size="14" lengthAdjust="spacing" textLength="127" x="405" y="976.4473">Mojaloop Connector</text><rect fill="#00008B" height="31.6094" rx="2.5" ry="2.5" style="stroke:#181818;stroke-width:0.5;" width="115" x="641" y="42.7031"/><text fill="#FFFFFF" font-family="sans-serif" font-size="14" lengthAdjust="spacing" textLength="101" x="648" y="64.2363">Core Connector</text><rect fill="#00008B" height="31.6094" rx="2.5" ry="2.5" style="stroke:#181818;stroke-width:0.5;" width="115" x="641" y="954.9141"/><text fill="#FFFFFF" font-family="sans-serif" font-size="14" lengthAdjust="spacing" textLength="101" x="648" y="976.4473">Core Connector</text><rect fill="#006400" height="31.6094" rx="2.5" ry="2.5" style="stroke:#181818;stroke-width:0.5;" width="155" x="876" y="42.7031"/><text fill="#FFFFFF" font-family="sans-serif" font-size="14" lengthAdjust="spacing" textLength="141" x="883" y="64.2363">Core Banking Solution</text><rect fill="#006400" height="31.6094" rx="2.5" ry="2.5" style="stroke:#181818;stroke-width:0.5;" width="155" x="876" y="954.9141"/><text fill="#FFFFFF" font-family="sans-serif" font-size="14" lengthAdjust="spacing" textLength="141" x="883" y="976.4473">Core Banking Solution</text><rect fill="#00008B" height="195.1641" style="stroke:#181818;stroke-width:1.0;" width="10" x="693.5" y="310.125"/><rect fill="#00008B" height="173.1094" style="stroke:#181818;stroke-width:1.0;" width="10" x="693.5" y="764.8047"/><line style="stroke:#181818;stroke-width:1.0;" x1="172.5" x2="214.5" y1="120.5156" y2="120.5156"/><line style="stroke:#181818;stroke-width:1.0;" x1="214.5" x2="214.5" y1="120.5156" y2="133.5156"/><line style="stroke:#181818;stroke-width:1.0;" x1="173.5" x2="214.5" y1="133.5156" y2="133.5156"/><polygon fill="#181818" points="183.5,129.5156,173.5,133.5156,183.5,137.5156,179.5,133.5156" style="stroke:#181818;stroke-width:1.0;"/><text fill="#000000" font-family="sans-serif" font-size="13" font-weight="bold" lengthAdjust="spacing" textLength="15" x="179.5" y="115.6592">[1]</text><text fill="#000000" font-family="sans-serif" font-size="13" lengthAdjust="spacing" textLength="161" x="198.5" y="115.6592">Pass Quote to Payer DFSP</text><path d="M5,90.3125 L5,149.3125 L168,149.3125 L168,100.3125 L158,90.3125 L5,90.3125 " fill="#FEFFDD" style="stroke:#181818;stroke-width:0.5;"/><path d="M158,90.3125 L158,100.3125 L168,100.3125 L158,90.3125 " fill="#FEFFDD" style="stroke:#181818;stroke-width:0.5;"/><text fill="#000000" font-family="sans-serif" font-size="13" lengthAdjust="spacing" textLength="103" x="11" y="108.8076">Obtain consent to</text><text fill="#000000" font-family="sans-serif" font-size="13" lengthAdjust="spacing" textLength="142" x="11" y="125.1592">proceed with the transfer</text><text fill="#000000" font-family="sans-serif" font-size="13" lengthAdjust="spacing" textLength="19" x="11" y="141.5107">Via</text><text fill="#000000" font-family="sans-serif" font-size="13" font-weight="bold" lengthAdjust="spacing" textLength="36" x="34" y="141.5107">POST</text><text fill="#000000" font-family="sans-serif" font-size="13" lengthAdjust="spacing" textLength="54" x="74" y="141.5107">/transfers</text><line style="stroke:#181818;stroke-width:1.0;" x1="172.5" x2="214.5" y1="176.7188" y2="176.7188"/><line style="stroke:#181818;stroke-width:1.0;" x1="214.5" x2="214.5" y1="176.7188" y2="189.7188"/><line style="stroke:#181818;stroke-width:1.0;" x1="173.5" x2="214.5" y1="189.7188" y2="189.7188"/><polygon fill="#181818" points="183.5,185.7188,173.5,189.7188,183.5,193.7188,179.5,189.7188" style="stroke:#181818;stroke-width:1.0;"/><text fill="#000000" font-family="sans-serif" font-size="13" font-weight="bold" lengthAdjust="spacing" textLength="15" x="179.5" y="171.8623">[2]</text><text fill="#000000" font-family="sans-serif" font-size="13" lengthAdjust="spacing" textLength="163" x="198.5" y="171.8623">Perform liquidity(NDC)check</text><line style="stroke:#181818;stroke-width:1.0;" x1="172.5" x2="214.5" y1="220.0703" y2="220.0703"/><line style="stroke:#181818;stroke-width:1.0;" x1="214.5" x2="214.5" y1="220.0703" y2="233.0703"/><line style="stroke:#181818;stroke-width:1.0;" x1="173.5" x2="214.5" y1="233.0703" y2="233.0703"/><polygon fill="#181818" points="183.5,229.0703,173.5,233.0703,183.5,237.0703,179.5,233.0703" style="stroke:#181818;stroke-width:1.0;"/><text fill="#000000" font-family="sans-serif" font-size="13" font-weight="bold" lengthAdjust="spacing" textLength="15" x="179.5" y="215.2139">[3]</text><text fill="#000000" font-family="sans-serif" font-size="13" lengthAdjust="spacing" textLength="86" x="198.5" y="215.2139">Reserve Funds</text><polygon fill="#181818" points="456.5,259.4219,466.5,263.4219,456.5,267.4219,460.5,263.4219" style="stroke:#181818;stroke-width:1.0;"/><line style="stroke:#181818;stroke-width:1.0;" x1="172.5" x2="462.5" y1="263.4219" y2="263.4219"/><text fill="#000000" font-family="sans-serif" font-size="13" font-weight="bold" lengthAdjust="spacing" textLength="15" x="179.5" y="258.5654">[4]</text><text fill="#000000" font-family="sans-serif" font-size="13" font-weight="bold" lengthAdjust="spacing" textLength="36" x="198.5" y="258.5654">POST</text><text fill="#000000" font-family="sans-serif" font-size="13" lengthAdjust="spacing" textLength="54" x="238.5" y="258.5654">/transfers</text><polygon fill="#181818" points="681.5,306.125,691.5,310.125,681.5,314.125,685.5,310.125" style="stroke:#181818;stroke-width:1.0;"/><line style="stroke:#181818;stroke-width:1.0;" x1="468.5" x2="687.5" y1="310.125" y2="310.125"/><text fill="#000000" font-family="sans-serif" font-size="13" font-weight="bold" lengthAdjust="spacing" textLength="15" x="475.5" y="297.0928">[5]</text><text fill="#000000" font-family="sans-serif" font-size="13" lengthAdjust="spacing" textLength="151" x="494.5" y="288.917">Create &amp; Reserve Transfer</text><text fill="#000000" font-family="sans-serif" font-size="13" lengthAdjust="spacing" textLength="4" x="494.5" y="305.2686">&#160;</text><text fill="#000000" font-family="sans-serif" font-size="13" font-weight="bold" lengthAdjust="spacing" textLength="36" x="498.5" y="305.2686">POST</text><text fill="#000000" font-family="sans-serif" font-size="13" lengthAdjust="spacing" textLength="54" x="538.5" y="305.2686">/transfers</text><polygon fill="#181818" points="941.5,388.5313,951.5,392.5313,941.5,396.5313,945.5,392.5313" style="stroke:#181818;stroke-width:1.0;"/><line style="stroke:#181818;stroke-width:1.0;" x1="703.5" x2="947.5" y1="392.5313" y2="392.5313"/><text fill="#000000" font-family="sans-serif" font-size="13" font-weight="bold" lengthAdjust="spacing" textLength="15" x="710.5" y="387.6748">[6]</text><text fill="#000000" font-family="sans-serif" font-size="13" lengthAdjust="spacing" textLength="207" x="729.5" y="387.6748">Reserve transfer into payee account</text><path d="M958,323.125 L958,447.125 L1174,447.125 L1174,333.125 L1164,323.125 L958,323.125 " fill="#FEFFDD" style="stroke:#181818;stroke-width:0.5;"/><path d="M1164,323.125 L1164,333.125 L1174,333.125 L1164,323.125 " fill="#FEFFDD" style="stroke:#181818;stroke-width:0.5;"/><text fill="#000000" font-family="sans-serif" font-size="13" lengthAdjust="spacing" textLength="160" x="964" y="341.6201">The reserve transfer into the</text><text fill="#000000" font-family="sans-serif" font-size="13" lengthAdjust="spacing" textLength="170" x="964" y="357.9717">payee's account ensures that</text><text fill="#000000" font-family="sans-serif" font-size="13" lengthAdjust="spacing" textLength="191" x="964" y="374.3232">all necessary account validations</text><text fill="#000000" font-family="sans-serif" font-size="13" lengthAdjust="spacing" textLength="176" x="964" y="390.6748">are completed to confirm there</text><text fill="#000000" font-family="sans-serif" font-size="13" lengthAdjust="spacing" textLength="129" x="964" y="407.0264">are no impediments to</text><text fill="#000000" font-family="sans-serif" font-size="13" lengthAdjust="spacing" textLength="139" x="964" y="423.3779">successfully completing</text><text fill="#000000" font-family="sans-serif" font-size="13" lengthAdjust="spacing" textLength="69" x="964" y="439.7295">the transfer.</text><polygon fill="#181818" points="714.5,470.9375,704.5,474.9375,714.5,478.9375,710.5,474.9375" style="stroke:#181818;stroke-width:1.0;"/><line style="stroke:#181818;stroke-width:1.0;stroke-dasharray:2.0,2.0;" x1="708.5" x2="952.5" y1="474.9375" y2="474.9375"/><text fill="#000000" font-family="sans-serif" font-size="13" font-weight="bold" lengthAdjust="spacing" textLength="15" x="720.5" y="470.0811">[7]</text><text fill="#000000" font-family="sans-serif" font-size="13" lengthAdjust="spacing" textLength="174" x="739.5" y="470.0811">response (homeTransactionId)</text><polygon fill="#181818" points="479.5,501.2891,469.5,505.2891,479.5,509.2891,475.5,505.2891" style="stroke:#181818;stroke-width:1.0;"/><line style="stroke:#181818;stroke-width:1.0;stroke-dasharray:2.0,2.0;" x1="473.5" x2="697.5" y1="505.2891" y2="505.2891"/><text fill="#000000" font-family="sans-serif" font-size="13" font-weight="bold" lengthAdjust="spacing" textLength="15" x="485.5" y="500.4326">[8]</text><text fill="#000000" font-family="sans-serif" font-size="13" lengthAdjust="spacing" textLength="174" x="504.5" y="500.4326">response (homeTransactionId)</text><line style="stroke:#181818;stroke-width:1.0;" x1="468.5" x2="510.5" y1="535.6406" y2="535.6406"/><line style="stroke:#181818;stroke-width:1.0;" x1="510.5" x2="510.5" y1="535.6406" y2="548.6406"/><line style="stroke:#181818;stroke-width:1.0;" x1="469.5" x2="510.5" y1="548.6406" y2="548.6406"/><polygon fill="#181818" points="479.5,544.6406,469.5,548.6406,479.5,552.6406,475.5,548.6406" style="stroke:#181818;stroke-width:1.0;"/><text fill="#000000" font-family="sans-serif" font-size="13" font-weight="bold" lengthAdjust="spacing" textLength="15" x="475.5" y="530.7842">[9]</text><text fill="#000000" font-family="sans-serif" font-size="13" lengthAdjust="spacing" textLength="113" x="494.5" y="530.7842">Generate Fulfilment</text><polygon fill="#181818" points="183.5,591.3438,173.5,595.3438,183.5,599.3438,179.5,595.3438" style="stroke:#181818;stroke-width:1.0;"/><line style="stroke:#181818;stroke-width:1.0;" x1="177.5" x2="467.5" y1="595.3438" y2="595.3438"/><text fill="#000000" font-family="sans-serif" font-size="13" font-weight="bold" lengthAdjust="spacing" textLength="22" x="189.5" y="582.3115">[10]</text><text fill="#000000" font-family="sans-serif" font-size="13" font-weight="bold" lengthAdjust="spacing" textLength="26" x="215.5" y="574.1357">PUT</text><text fill="#000000" font-family="sans-serif" font-size="13" lengthAdjust="spacing" textLength="76" x="245.5" y="574.1357">/transfers/{id}</text><text fill="#000000" font-family="sans-serif" font-size="13" lengthAdjust="spacing" textLength="242" x="219.5" y="590.4873">(TransferStatus='RESERVED', fulfullment)</text><line style="stroke:#181818;stroke-width:1.0;" x1="172.5" x2="214.5" y1="625.6953" y2="625.6953"/><line style="stroke:#181818;stroke-width:1.0;" x1="214.5" x2="214.5" y1="625.6953" y2="638.6953"/><line style="stroke:#181818;stroke-width:1.0;" x1="173.5" x2="214.5" y1="638.6953" y2="638.6953"/><polygon fill="#181818" points="183.5,634.6953,173.5,638.6953,183.5,642.6953,179.5,638.6953" style="stroke:#181818;stroke-width:1.0;"/><text fill="#000000" font-family="sans-serif" font-size="13" font-weight="bold" lengthAdjust="spacing" textLength="22" x="179.5" y="620.8389">[11]</text><text fill="#000000" font-family="sans-serif" font-size="13" lengthAdjust="spacing" textLength="179" x="205.5" y="620.8389">Commit funds in DFSP ledgers</text><polygon fill="#181818" points="456.5,681.3984,466.5,685.3984,456.5,689.3984,460.5,685.3984" style="stroke:#181818;stroke-width:1.0;"/><line style="stroke:#181818;stroke-width:1.0;" x1="172.5" x2="462.5" y1="685.3984" y2="685.3984"/><text fill="#000000" font-family="sans-serif" font-size="13" font-weight="bold" lengthAdjust="spacing" textLength="22" x="179.5" y="672.3662">[12]</text><text fill="#000000" font-family="sans-serif" font-size="13" font-weight="bold" lengthAdjust="spacing" textLength="44" x="205.5" y="664.1904">PATCH</text><text fill="#000000" font-family="sans-serif" font-size="13" lengthAdjust="spacing" textLength="76" x="253.5" y="664.1904">/transfers/{id}</text><text fill="#000000" font-family="sans-serif" font-size="13" lengthAdjust="spacing" textLength="180" x="205.5" y="680.542">(TransferStatus='COMMITTED')</text><polygon fill="#181818" points="681.5,760.8047,691.5,764.8047,681.5,768.8047,685.5,764.8047" style="stroke:#181818;stroke-width:1.0;"/><line style="stroke:#181818;stroke-width:1.0;" x1="468.5" x2="687.5" y1="764.8047" y2="764.8047"/><text fill="#000000" font-family="sans-serif" font-size="13" font-weight="bold" lengthAdjust="spacing" textLength="22" x="475.5" y="735.4209">[13]</text><text fill="#000000" font-family="sans-serif" font-size="13" lengthAdjust="spacing" textLength="95" x="501.5" y="710.8936">Commit Transfer</text><text fill="#000000" font-family="sans-serif" font-size="13" lengthAdjust="spacing" textLength="4" x="501.5" y="727.2451">&#160;</text><text fill="#000000" font-family="sans-serif" font-size="13" font-weight="bold" lengthAdjust="spacing" textLength="44" x="505.5" y="727.2451">PATCH</text><text fill="#000000" font-family="sans-serif" font-size="13" lengthAdjust="spacing" textLength="76" x="553.5" y="727.2451">/transfers/{id}</text><text fill="#000000" font-family="sans-serif" font-size="13" lengthAdjust="spacing" textLength="180" x="501.5" y="743.5967">(TransferStatus='COMMITTED',</text><text fill="#000000" font-family="sans-serif" font-size="13" lengthAdjust="spacing" textLength="113" x="505.5" y="759.9482">homeTransactionId)</text><polygon fill="#181818" points="941.5,810.5078,951.5,814.5078,941.5,818.5078,945.5,814.5078" style="stroke:#181818;stroke-width:1.0;"/><line style="stroke:#181818;stroke-width:1.0;" x1="703.5" x2="947.5" y1="814.5078" y2="814.5078"/><text fill="#000000" font-family="sans-serif" font-size="13" font-weight="bold" lengthAdjust="spacing" textLength="22" x="710.5" y="809.6514">[14]</text><text fill="#000000" font-family="sans-serif" font-size="13" lengthAdjust="spacing" textLength="80" x="736.5" y="809.6514">Commit funds</text><path d="M958,777.8047 L958,836.8047 L1162,836.8047 L1162,787.8047 L1152,777.8047 L958,777.8047 " fill="#FEFFDD" style="stroke:#181818;stroke-width:0.5;"/><path d="M1152,777.8047 L1152,787.8047 L1162,787.8047 L1152,777.8047 " fill="#FEFFDD" style="stroke:#181818;stroke-width:0.5;"/><text fill="#000000" font-family="sans-serif" font-size="13" lengthAdjust="spacing" textLength="130" x="964" y="796.2998">Replace with CBS API</text><text fill="#000000" font-family="sans-serif" font-size="13" lengthAdjust="spacing" textLength="175" x="972" y="812.6514">to commit funds transfer funds</text><text fill="#000000" font-family="sans-serif" font-size="13" lengthAdjust="spacing" textLength="102" x="972" y="829.0029">to Payee account</text><line style="stroke:#181818;stroke-width:1.0;" x1="953.5" x2="995.5" y1="864.2109" y2="864.2109"/><line style="stroke:#181818;stroke-width:1.0;" x1="995.5" x2="995.5" y1="864.2109" y2="877.2109"/><line style="stroke:#181818;stroke-width:1.0;" x1="954.5" x2="995.5" y1="877.2109" y2="877.2109"/><polygon fill="#181818" points="964.5,873.2109,954.5,877.2109,964.5,881.2109,960.5,877.2109" style="stroke:#181818;stroke-width:1.0;"/><text fill="#000000" font-family="sans-serif" font-size="13" font-weight="bold" lengthAdjust="spacing" textLength="22" x="960.5" y="859.3545">[15]</text><text fill="#000000" font-family="sans-serif" font-size="13" lengthAdjust="spacing" textLength="138" x="986.5" y="859.3545">Release funds to Payee</text><polygon fill="#181818" points="714.5,903.5625,704.5,907.5625,714.5,911.5625,710.5,907.5625" style="stroke:#181818;stroke-width:1.0;"/><line style="stroke:#181818;stroke-width:1.0;stroke-dasharray:2.0,2.0;" x1="708.5" x2="952.5" y1="907.5625" y2="907.5625"/><text fill="#000000" font-family="sans-serif" font-size="13" font-weight="bold" lengthAdjust="spacing" textLength="22" x="720.5" y="902.7061">[16]</text><text fill="#000000" font-family="sans-serif" font-size="13" lengthAdjust="spacing" textLength="53" x="746.5" y="902.7061">response</text><polygon fill="#181818" points="479.5,933.9141,469.5,937.9141,479.5,941.9141,475.5,937.9141" style="stroke:#181818;stroke-width:1.0;"/><line style="stroke:#181818;stroke-width:1.0;stroke-dasharray:2.0,2.0;" x1="473.5" x2="697.5" y1="937.9141" y2="937.9141"/><text fill="#000000" font-family="sans-serif" font-size="13" font-weight="bold" lengthAdjust="spacing" textLength="22" x="485.5" y="933.0576">[17]</text><text fill="#000000" font-family="sans-serif" font-size="13" lengthAdjust="spacing" textLength="53" x="511.5" y="933.0576">response</text><!--SRC=[dLHTJzim57tthxWgqaeh6Dihsf30fGnj7LtJyJBsO9BRngjZPxO3gn3_VTSE2Gtjj6cfrBJsFVVZd6CVzOVXOOUTXyN5OV-8iJvac2fX4Rpq2kb_VCDKh157usHwcQ5GK-4zMZstGhi5sWsKIBsnZhcLrAMmeW3wzZALfT0U7XZ0s6ZFZJ8MxdFfaJsopOZUnFmGofYo1y91SYzzciFUIDZL33DsQtv13w1k1a8tDvf-5qZ8YT1Bj3tO-oINkKyyeZfJ5LB5dVc16wqnD1ihJNXTvMCkLl8bXXiQh1lFETI0M0Dr1jGRsqQT2KrCB24nglBIw1fybjJW2uke6HELDxegRj72M_hqtjsUV7lplSTOFV_XIVq-fhcTWo-LyQIEYIpOo0BJOKdXmhEhMo-aXjHe5rYXC5PQao9cG4boy3bX6zckfO3XS7gLp8T3E6gMNPmdf2GY09eceEq2xSBO0fJyMSbC-lN-vn4Vf3ccgmwWYP-XGtk7CAvqvZeH4twyitw8cV334qxxtAAWuLwrQHhJtUXTM8XWSg6y2p3EDsGAEpoaFKkUksgG83MHLKPdYJGr5R5Nysg3eKBUEN5dTy82gz4rXEwx5e_QLGIWRH4J2AM0J8JE2Rjke-w4afa8xeZTXrEKcg9Kw4aqIavQBYJnJKKiDX7QW2nAp6Gmluiw0xWg3SaNbLBh9aTm7srjwlwwAp3HSLXpJRsMmJYmdvi28z61IQCliq73NgtQNoFfbdZMe1KqG2zGemthuqejf0hzj_kDPKZOhrrTZnvazaYIxpVo9rxuohtlpywJyzdr-QX_03Ht63ra7Enq8ZT58Jt5aH59k7XswDXaoyPqBunvEkSVjhk06xtL1R-QJ2xdSsfZq7LlNR7hsVz9Uq3GRQh_sUsToL_OUeQb4YdMzqEucqwdbn4TlRU1Qps_Q4_oqpNK7fbjPpMdJQ4WkpmbQb1_yDzkh-tmrMy0]--></g></svg>