<?xml version="1.0" encoding="us-ascii" standalone="no"?><svg xmlns="http://www.w3.org/2000/svg" xmlns:xlink="http://www.w3.org/1999/xlink" contentStyleType="text/css" height="1180px" preserveAspectRatio="none" style="width:1137px;height:1180px;background:#FFFFFF;" version="1.1" viewBox="0 0 1137 1180" width="1137px" zoomAndPan="magnify"><defs/><g><rect fill="#B0C4DE" height="1168.7656" style="stroke:#181818;stroke-width:0.5;" width="366" x="383" y="6"/><text fill="#000000" font-family="sans-serif" font-size="13" font-weight="bold" lengthAdjust="spacing" textLength="79" x="524" y="19.4951">Payee DFSP</text><text fill="#000000" font-family="sans-serif" font-size="13" font-weight="bold" lengthAdjust="spacing" textLength="108" x="512" y="35.8467">Payment Manger</text><rect fill="#00008B" height="73.7031" style="stroke:#181818;stroke-width:1.0;" width="10" x="682.5" y="293.7734"/><rect fill="#00008B" height="500.5156" style="stroke:#181818;stroke-width:1.0;" width="10" x="682.5" y="610.6406"/><rect fill="none" height="443.8125" style="stroke:#000000;stroke-width:1.5;" width="1036.5" x="94" y="678.3438"/><line style="stroke:#181818;stroke-width:0.5;stroke-dasharray:5.0,5.0;" x1="172" x2="172" y1="75.3125" y2="1139.1563"/><line style="stroke:#181818;stroke-width:0.5;stroke-dasharray:5.0,5.0;" x1="457" x2="457" y1="75.3125" y2="1139.1563"/><line style="stroke:#181818;stroke-width:0.5;stroke-dasharray:5.0,5.0;" x1="687" x2="687" y1="75.3125" y2="1139.1563"/><line style="stroke:#181818;stroke-width:0.5;stroke-dasharray:5.0,5.0;" x1="868" x2="868" y1="75.3125" y2="1139.1563"/><rect fill="#8B0000" height="31.6094" rx="2.5" ry="2.5" style="stroke:#181818;stroke-width:0.5;" width="71" x="137" y="42.7031"/><text fill="#FFFFFF" font-family="sans-serif" font-size="14" lengthAdjust="spacing" textLength="57" x="144" y="64.2363">Mojaloop</text><rect fill="#8B0000" height="31.6094" rx="2.5" ry="2.5" style="stroke:#181818;stroke-width:0.5;" width="71" x="137" y="1138.1563"/><text fill="#FFFFFF" font-family="sans-serif" font-size="14" lengthAdjust="spacing" textLength="57" x="144" y="1159.6895">Mojaloop</text><rect fill="#BDB76B" height="31.6094" rx="2.5" ry="2.5" style="stroke:#181818;stroke-width:0.5;" width="141" x="387" y="42.7031"/><text fill="#FFFFFF" font-family="sans-serif" font-size="14" lengthAdjust="spacing" textLength="127" x="394" y="64.2363">Mojaloop Connector</text><rect fill="#BDB76B" height="31.6094" rx="2.5" ry="2.5" style="stroke:#181818;stroke-width:0.5;" width="141" x="387" y="1138.1563"/><text fill="#FFFFFF" font-family="sans-serif" font-size="14" lengthAdjust="spacing" textLength="127" x="394" y="1159.6895">Mojaloop Connector</text><rect fill="#00008B" height="31.6094" rx="2.5" ry="2.5" style="stroke:#181818;stroke-width:0.5;" width="115" x="630" y="42.7031"/><text fill="#FFFFFF" font-family="sans-serif" font-size="14" lengthAdjust="spacing" textLength="101" x="637" y="64.2363">Core Connector</text><rect fill="#00008B" height="31.6094" rx="2.5" ry="2.5" style="stroke:#181818;stroke-width:0.5;" width="115" x="630" y="1138.1563"/><text fill="#FFFFFF" font-family="sans-serif" font-size="14" lengthAdjust="spacing" textLength="101" x="637" y="1159.6895">Core Connector</text><rect fill="#006400" height="31.6094" rx="2.5" ry="2.5" style="stroke:#181818;stroke-width:0.5;" width="155" x="791" y="42.7031"/><text fill="#FFFFFF" font-family="sans-serif" font-size="14" lengthAdjust="spacing" textLength="141" x="798" y="64.2363">Core Banking Solution</text><rect fill="#006400" height="31.6094" rx="2.5" ry="2.5" style="stroke:#181818;stroke-width:0.5;" width="155" x="791" y="1138.1563"/><text fill="#FFFFFF" font-family="sans-serif" font-size="14" lengthAdjust="spacing" textLength="141" x="798" y="1159.6895">Core Banking Solution</text><rect fill="#00008B" height="73.7031" style="stroke:#181818;stroke-width:1.0;" width="10" x="682.5" y="293.7734"/><rect fill="#00008B" height="500.5156" style="stroke:#181818;stroke-width:1.0;" width="10" x="682.5" y="610.6406"/><line style="stroke:#181818;stroke-width:1.0;" x1="172.5" x2="214.5" y1="120.5156" y2="120.5156"/><line style="stroke:#181818;stroke-width:1.0;" x1="214.5" x2="214.5" y1="120.5156" y2="133.5156"/><line style="stroke:#181818;stroke-width:1.0;" x1="173.5" x2="214.5" y1="133.5156" y2="133.5156"/><polygon fill="#181818" points="183.5,129.5156,173.5,133.5156,183.5,137.5156,179.5,133.5156" style="stroke:#181818;stroke-width:1.0;"/><text fill="#000000" font-family="sans-serif" font-size="13" font-weight="bold" lengthAdjust="spacing" textLength="15" x="179.5" y="115.6592">[1]</text><text fill="#000000" font-family="sans-serif" font-size="13" lengthAdjust="spacing" textLength="122" x="198.5" y="115.6592">Pass Quote to Payer</text><path d="M5,90.3125 L5,149.3125 L168,149.3125 L168,100.3125 L158,90.3125 L5,90.3125 " fill="#FEFFDD" style="stroke:#181818;stroke-width:0.5;"/><path d="M158,90.3125 L158,100.3125 L168,100.3125 L158,90.3125 " fill="#FEFFDD" style="stroke:#181818;stroke-width:0.5;"/><text fill="#000000" font-family="sans-serif" font-size="13" lengthAdjust="spacing" textLength="103" x="11" y="108.8076">Obtain consent to</text><text fill="#000000" font-family="sans-serif" font-size="13" lengthAdjust="spacing" textLength="142" x="11" y="125.1592">proceed with the transfer</text><text fill="#000000" font-family="sans-serif" font-size="13" lengthAdjust="spacing" textLength="19" x="11" y="141.5107">Via</text><text fill="#000000" font-family="sans-serif" font-size="13" font-weight="bold" lengthAdjust="spacing" textLength="36" x="34" y="141.5107">POST</text><text fill="#000000" font-family="sans-serif" font-size="13" lengthAdjust="spacing" textLength="54" x="74" y="141.5107">/transfers</text><line style="stroke:#181818;stroke-width:1.0;" x1="172.5" x2="214.5" y1="176.7188" y2="176.7188"/><line style="stroke:#181818;stroke-width:1.0;" x1="214.5" x2="214.5" y1="176.7188" y2="189.7188"/><line style="stroke:#181818;stroke-width:1.0;" x1="173.5" x2="214.5" y1="189.7188" y2="189.7188"/><polygon fill="#181818" points="183.5,185.7188,173.5,189.7188,183.5,193.7188,179.5,189.7188" style="stroke:#181818;stroke-width:1.0;"/><text fill="#000000" font-family="sans-serif" font-size="13" font-weight="bold" lengthAdjust="spacing" textLength="15" x="179.5" y="171.8623">[2]</text><text fill="#000000" font-family="sans-serif" font-size="13" lengthAdjust="spacing" textLength="163" x="198.5" y="171.8623">Perform liquidity(NDC)check</text><line style="stroke:#181818;stroke-width:1.0;" x1="172.5" x2="214.5" y1="220.0703" y2="220.0703"/><line style="stroke:#181818;stroke-width:1.0;" x1="214.5" x2="214.5" y1="220.0703" y2="233.0703"/><line style="stroke:#181818;stroke-width:1.0;" x1="173.5" x2="214.5" y1="233.0703" y2="233.0703"/><polygon fill="#181818" points="183.5,229.0703,173.5,233.0703,183.5,237.0703,179.5,233.0703" style="stroke:#181818;stroke-width:1.0;"/><text fill="#000000" font-family="sans-serif" font-size="13" font-weight="bold" lengthAdjust="spacing" textLength="15" x="179.5" y="215.2139">[3]</text><text fill="#000000" font-family="sans-serif" font-size="13" lengthAdjust="spacing" textLength="86" x="198.5" y="215.2139">Reserve Funds</text><polygon fill="#181818" points="445.5,259.4219,455.5,263.4219,445.5,267.4219,449.5,263.4219" style="stroke:#181818;stroke-width:1.0;"/><line style="stroke:#181818;stroke-width:1.0;" x1="172.5" x2="451.5" y1="263.4219" y2="263.4219"/><text fill="#000000" font-family="sans-serif" font-size="13" font-weight="bold" lengthAdjust="spacing" textLength="15" x="179.5" y="258.5654">[4]</text><text fill="#000000" font-family="sans-serif" font-size="13" font-weight="bold" lengthAdjust="spacing" textLength="36" x="198.5" y="258.5654">POST</text><text fill="#000000" font-family="sans-serif" font-size="13" lengthAdjust="spacing" textLength="54" x="238.5" y="258.5654">/transfers</text><polygon fill="#181818" points="670.5,289.7734,680.5,293.7734,670.5,297.7734,674.5,293.7734" style="stroke:#181818;stroke-width:1.0;"/><line style="stroke:#181818;stroke-width:1.0;" x1="457.5" x2="676.5" y1="293.7734" y2="293.7734"/><text fill="#000000" font-family="sans-serif" font-size="13" font-weight="bold" lengthAdjust="spacing" textLength="15" x="464.5" y="288.917">[5]</text><text fill="#000000" font-family="sans-serif" font-size="13" font-weight="bold" lengthAdjust="spacing" textLength="36" x="483.5" y="288.917">POST</text><text fill="#000000" font-family="sans-serif" font-size="13" lengthAdjust="spacing" textLength="54" x="523.5" y="288.917">/transfers</text><line style="stroke:#181818;stroke-width:1.0;" x1="692.5" x2="734.5" y1="324.125" y2="324.125"/><line style="stroke:#181818;stroke-width:1.0;" x1="734.5" x2="734.5" y1="324.125" y2="337.125"/><line style="stroke:#181818;stroke-width:1.0;" x1="693.5" x2="734.5" y1="337.125" y2="337.125"/><polygon fill="#181818" points="703.5,333.125,693.5,337.125,703.5,341.125,699.5,337.125" style="stroke:#181818;stroke-width:1.0;"/><text fill="#000000" font-family="sans-serif" font-size="13" font-weight="bold" lengthAdjust="spacing" textLength="15" x="699.5" y="319.2686">[6]</text><text fill="#000000" font-family="sans-serif" font-size="13" lengthAdjust="spacing" textLength="86" x="718.5" y="319.2686">Validate Quote</text><polygon fill="#181818" points="468.5,363.4766,458.5,367.4766,468.5,371.4766,464.5,367.4766" style="stroke:#181818;stroke-width:1.0;"/><line style="stroke:#181818;stroke-width:1.0;stroke-dasharray:2.0,2.0;" x1="462.5" x2="686.5" y1="367.4766" y2="367.4766"/><text fill="#000000" font-family="sans-serif" font-size="13" font-weight="bold" lengthAdjust="spacing" textLength="15" x="474.5" y="362.6201">[7]</text><text fill="#000000" font-family="sans-serif" font-size="13" lengthAdjust="spacing" textLength="53" x="493.5" y="362.6201">response</text><line style="stroke:#181818;stroke-width:1.0;" x1="457.5" x2="499.5" y1="397.8281" y2="397.8281"/><line style="stroke:#181818;stroke-width:1.0;" x1="499.5" x2="499.5" y1="397.8281" y2="410.8281"/><line style="stroke:#181818;stroke-width:1.0;" x1="458.5" x2="499.5" y1="410.8281" y2="410.8281"/><polygon fill="#181818" points="468.5,406.8281,458.5,410.8281,468.5,414.8281,464.5,410.8281" style="stroke:#181818;stroke-width:1.0;"/><text fill="#000000" font-family="sans-serif" font-size="13" font-weight="bold" lengthAdjust="spacing" textLength="15" x="464.5" y="392.9717">[8]</text><text fill="#000000" font-family="sans-serif" font-size="13" lengthAdjust="spacing" textLength="113" x="483.5" y="392.9717">Generate Fulfilment</text><polygon fill="#181818" points="183.5,453.5313,173.5,457.5313,183.5,461.5313,179.5,457.5313" style="stroke:#181818;stroke-width:1.0;"/><line style="stroke:#181818;stroke-width:1.0;stroke-dasharray:2.0,2.0;" x1="177.5" x2="456.5" y1="457.5313" y2="457.5313"/><text fill="#000000" font-family="sans-serif" font-size="13" font-weight="bold" lengthAdjust="spacing" textLength="15" x="189.5" y="444.499">[9]</text><text fill="#000000" font-family="sans-serif" font-size="13" font-weight="bold" lengthAdjust="spacing" textLength="26" x="208.5" y="436.3232">PUT</text><text fill="#000000" font-family="sans-serif" font-size="13" lengthAdjust="spacing" textLength="76" x="238.5" y="436.3232">/transfers/{id}</text><text fill="#000000" font-family="sans-serif" font-size="13" lengthAdjust="spacing" textLength="242" x="208.5" y="452.6748">(TransferStatus='RESERVED', fulfullment)</text><line style="stroke:#181818;stroke-width:1.0;stroke-dasharray:2.0,2.0;" x1="172.5" x2="214.5" y1="487.8828" y2="487.8828"/><line style="stroke:#181818;stroke-width:1.0;stroke-dasharray:2.0,2.0;" x1="214.5" x2="214.5" y1="487.8828" y2="500.8828"/><line style="stroke:#181818;stroke-width:1.0;stroke-dasharray:2.0,2.0;" x1="173.5" x2="214.5" y1="500.8828" y2="500.8828"/><polygon fill="#181818" points="183.5,496.8828,173.5,500.8828,183.5,504.8828,179.5,500.8828" style="stroke:#181818;stroke-width:1.0;"/><text fill="#000000" font-family="sans-serif" font-size="13" font-weight="bold" lengthAdjust="spacing" textLength="22" x="179.5" y="483.0264">[10]</text><text fill="#000000" font-family="sans-serif" font-size="13" lengthAdjust="spacing" textLength="179" x="205.5" y="483.0264">Commit funds in DFSP ledgers</text><polygon fill="#181818" points="445.5,543.5859,455.5,547.5859,445.5,551.5859,449.5,547.5859" style="stroke:#181818;stroke-width:1.0;"/><line style="stroke:#181818;stroke-width:1.0;" x1="172.5" x2="451.5" y1="547.5859" y2="547.5859"/><text fill="#000000" font-family="sans-serif" font-size="13" font-weight="bold" lengthAdjust="spacing" textLength="22" x="179.5" y="534.5537">[11]</text><text fill="#000000" font-family="sans-serif" font-size="13" font-weight="bold" lengthAdjust="spacing" textLength="44" x="205.5" y="526.3779">PATCH</text><text fill="#000000" font-family="sans-serif" font-size="13" lengthAdjust="spacing" textLength="76" x="253.5" y="526.3779">/transfers/{id}</text><text fill="#000000" font-family="sans-serif" font-size="13" lengthAdjust="spacing" textLength="180" x="205.5" y="542.7295">(TransferStatus='COMMITTED')</text><polygon fill="#181818" points="670.5,606.6406,680.5,610.6406,670.5,614.6406,674.5,610.6406" style="stroke:#181818;stroke-width:1.0;"/><line style="stroke:#181818;stroke-width:1.0;" x1="457.5" x2="676.5" y1="610.6406" y2="610.6406"/><text fill="#000000" font-family="sans-serif" font-size="13" font-weight="bold" lengthAdjust="spacing" textLength="22" x="464.5" y="589.4326">[12]</text><text fill="#000000" font-family="sans-serif" font-size="13" lengthAdjust="spacing" textLength="95" x="490.5" y="573.0811">Commit Transfer</text><text fill="#000000" font-family="sans-serif" font-size="13" lengthAdjust="spacing" textLength="4" x="490.5" y="589.4326">&#160;</text><text fill="#000000" font-family="sans-serif" font-size="13" font-weight="bold" lengthAdjust="spacing" textLength="44" x="494.5" y="589.4326">PATCH</text><text fill="#000000" font-family="sans-serif" font-size="13" lengthAdjust="spacing" textLength="76" x="542.5" y="589.4326">/transfers/{id}</text><text fill="#000000" font-family="sans-serif" font-size="13" lengthAdjust="spacing" textLength="180" x="490.5" y="605.7842">(TransferStatus='COMMITTED')</text><polygon fill="#181818" points="856.5,656.3438,866.5,660.3438,856.5,664.3438,860.5,660.3438" style="stroke:#181818;stroke-width:1.0;"/><line style="stroke:#181818;stroke-width:1.0;" x1="692.5" x2="862.5" y1="660.3438" y2="660.3438"/><text fill="#000000" font-family="sans-serif" font-size="13" font-weight="bold" lengthAdjust="spacing" textLength="22" x="699.5" y="647.3115">[13]</text><text fill="#000000" font-family="sans-serif" font-size="13" lengthAdjust="spacing" textLength="122" x="725.5" y="639.1357">Perform AML checks</text><text fill="#000000" font-family="sans-serif" font-size="13" lengthAdjust="spacing" textLength="103" x="725.5" y="655.4873">and transfer funds</text><path d="M873,623.6406 L873,665.6406 L1024,665.6406 L1024,633.6406 L1014,623.6406 L873,623.6406 " fill="#FEFFDD" style="stroke:#181818;stroke-width:0.5;"/><path d="M1014,623.6406 L1014,633.6406 L1024,633.6406 L1014,623.6406 " fill="#FEFFDD" style="stroke:#181818;stroke-width:0.5;"/><text fill="#000000" font-family="sans-serif" font-size="13" lengthAdjust="spacing" textLength="130" x="879" y="642.1357">Replace with CBS API</text><text fill="#000000" font-family="sans-serif" font-size="13" lengthAdjust="spacing" textLength="93" x="879" y="658.4873">to transfer funds</text><path d="M94,678.3438 L155,678.3438 L155,686.6953 L145,696.6953 L94,696.6953 L94,678.3438 " fill="#EEEEEE" style="stroke:#000000;stroke-width:1.5;"/><rect fill="none" height="443.8125" style="stroke:#000000;stroke-width:1.5;" width="1036.5" x="94" y="678.3438"/><text fill="#000000" font-family="sans-serif" font-size="13" font-weight="bold" lengthAdjust="spacing" textLength="16" x="109" y="692.8389">alt</text><text fill="#000000" font-family="sans-serif" font-size="11" font-weight="bold" lengthAdjust="spacing" textLength="124" x="170" y="691.7627">[if (AML checks pass)]</text><line style="stroke:#181818;stroke-width:1.0;" x1="868.5" x2="910.5" y1="719.0469" y2="719.0469"/><line style="stroke:#181818;stroke-width:1.0;" x1="910.5" x2="910.5" y1="719.0469" y2="732.0469"/><line style="stroke:#181818;stroke-width:1.0;" x1="869.5" x2="910.5" y1="732.0469" y2="732.0469"/><polygon fill="#181818" points="879.5,728.0469,869.5,732.0469,879.5,736.0469,875.5,732.0469" style="stroke:#181818;stroke-width:1.0;"/><text fill="#000000" font-family="sans-serif" font-size="13" font-weight="bold" lengthAdjust="spacing" textLength="22" x="875.5" y="714.1904">[14]</text><text fill="#000000" font-family="sans-serif" font-size="13" lengthAdjust="spacing" textLength="138" x="901.5" y="714.1904">Release funds to Payee</text><polygon fill="#181818" points="703.5,758.3984,693.5,762.3984,703.5,766.3984,699.5,762.3984" style="stroke:#181818;stroke-width:1.0;"/><line style="stroke:#181818;stroke-width:1.0;stroke-dasharray:2.0,2.0;" x1="697.5" x2="867.5" y1="762.3984" y2="762.3984"/><text fill="#000000" font-family="sans-serif" font-size="13" font-weight="bold" lengthAdjust="spacing" textLength="22" x="709.5" y="757.542">[15]</text><text fill="#000000" font-family="sans-serif" font-size="13" lengthAdjust="spacing" textLength="53" x="735.5" y="757.542">response</text><polygon fill="#181818" points="468.5,788.75,458.5,792.75,468.5,796.75,464.5,792.75" style="stroke:#181818;stroke-width:1.0;"/><line style="stroke:#181818;stroke-width:1.0;stroke-dasharray:2.0,2.0;" x1="462.5" x2="681.5" y1="792.75" y2="792.75"/><text fill="#000000" font-family="sans-serif" font-size="13" font-weight="bold" lengthAdjust="spacing" textLength="22" x="474.5" y="787.8936">[16]</text><text fill="#000000" font-family="sans-serif" font-size="13" lengthAdjust="spacing" textLength="53" x="500.5" y="787.8936">response</text><line style="stroke:#000000;stroke-width:1.0;stroke-dasharray:2.0,2.0;" x1="94" x2="1130.5" y1="801.75" y2="801.75"/><text fill="#000000" font-family="sans-serif" font-size="11" font-weight="bold" lengthAdjust="spacing" textLength="113" x="99" y="813.1689">[if (AML checks fail)]</text><line style="stroke:#181818;stroke-width:1.0;" x1="868.5" x2="910.5" y1="855.2891" y2="855.2891"/><line style="stroke:#181818;stroke-width:1.0;" x1="910.5" x2="910.5" y1="855.2891" y2="868.2891"/><line style="stroke:#181818;stroke-width:1.0;" x1="869.5" x2="910.5" y1="868.2891" y2="868.2891"/><polygon fill="#181818" points="879.5,864.2891,869.5,868.2891,879.5,872.2891,875.5,868.2891" style="stroke:#181818;stroke-width:1.0;"/><text fill="#000000" font-family="sans-serif" font-size="13" font-weight="bold" lengthAdjust="spacing" textLength="22" x="875.5" y="842.2568">[17]</text><text fill="#000000" font-family="sans-serif" font-size="13" lengthAdjust="spacing" textLength="213" x="901.5" y="834.0811">Compensation action for AML failure.</text><text fill="#000000" font-family="sans-serif" font-size="13" lengthAdjust="spacing" textLength="129" x="905.5" y="850.4326">Return error response.</text><polygon fill="#181818" points="703.5,894.6406,693.5,898.6406,703.5,902.6406,699.5,898.6406" style="stroke:#181818;stroke-width:1.0;"/><line style="stroke:#181818;stroke-width:1.0;stroke-dasharray:2.0,2.0;" x1="697.5" x2="867.5" y1="898.6406" y2="898.6406"/><text fill="#000000" font-family="sans-serif" font-size="13" font-weight="bold" lengthAdjust="spacing" textLength="22" x="709.5" y="893.7842">[18]</text><text fill="#000000" font-family="sans-serif" font-size="13" lengthAdjust="spacing" textLength="53" x="735.5" y="893.7842">response</text><polygon fill="#181818" points="468.5,924.9922,458.5,928.9922,468.5,932.9922,464.5,928.9922" style="stroke:#181818;stroke-width:1.0;"/><line style="stroke:#181818;stroke-width:1.0;stroke-dasharray:2.0,2.0;" x1="462.5" x2="681.5" y1="928.9922" y2="928.9922"/><text fill="#000000" font-family="sans-serif" font-size="13" font-weight="bold" lengthAdjust="spacing" textLength="22" x="474.5" y="924.1357">[19]</text><text fill="#000000" font-family="sans-serif" font-size="13" lengthAdjust="spacing" textLength="53" x="500.5" y="924.1357">response</text><rect fill="#FEFFDD" height="138" style="stroke:#181818;stroke-width:0.5;" width="348" x="104" y="941.9922"/><text fill="#000000" font-family="sans-serif" font-size="13" lengthAdjust="spacing" textLength="340" x="108" y="959.4873">Payee DFSP AML error checks (and other errors) result in:</text><text fill="#000000" font-family="sans-serif" font-size="13" lengthAdjust="spacing" textLength="4" x="108" y="975.8389">&#160;</text><text fill="#000000" font-family="sans-serif" font-size="13" font-weight="bold" lengthAdjust="spacing" textLength="126" x="108" y="992.1904">Reconciliation Error</text><text fill="#000000" font-family="sans-serif" font-size="13" lengthAdjust="spacing" textLength="123" x="120" y="1008.542">Payer has sent funds</text><text fill="#000000" font-family="sans-serif" font-size="13" lengthAdjust="spacing" textLength="162" x="120" y="1024.8936">Payer DFSP has sent funds</text><text fill="#000000" font-family="sans-serif" font-size="13" lengthAdjust="spacing" textLength="322" x="120" y="1041.2451">Hub considers that the Payee DFSP has received funds</text><text fill="#000000" font-family="sans-serif" font-size="13" lengthAdjust="spacing" textLength="241" x="120" y="1057.5967">Payee DFSP has rejected the transaction</text><text fill="#000000" font-family="sans-serif" font-size="13" lengthAdjust="spacing" textLength="170" x="120" y="1073.9482">Payee has not received funds</text><polygon fill="#181818" points="468.5,1107.1563,458.5,1111.1563,468.5,1115.1563,464.5,1111.1563" style="stroke:#181818;stroke-width:1.0;"/><line style="stroke:#181818;stroke-width:1.0;" x1="462.5" x2="686.5" y1="1111.1563" y2="1111.1563"/><text fill="#000000" font-family="sans-serif" font-size="13" font-weight="bold" lengthAdjust="spacing" textLength="22" x="474.5" y="1106.2998">[20]</text><text fill="#000000" font-family="sans-serif" font-size="13" lengthAdjust="spacing" textLength="173" x="500.5" y="1106.2998">Innitiate Compensation Action</text><path d="M697,1090.8047 L697,1116.8047 L808,1116.8047 L808,1100.8047 L798,1090.8047 L697,1090.8047 " fill="#FEFFDD" style="stroke:#181818;stroke-width:0.5;"/><path d="M798,1090.8047 L798,1100.8047 L808,1100.8047 L798,1090.8047 " fill="#FEFFDD" style="stroke:#181818;stroke-width:0.5;"/><text fill="#000000" font-family="sans-serif" font-size="13" lengthAdjust="spacing" textLength="90" x="703" y="1109.2998">Refund Transfer</text><!--SRC=[dLLDSzem4BthL-oG0n_JXFQQQJC31f9CGqCnpQNfGTWBLX0IbUMacKp-UrSI1anyI6jc-93UxbkzVLgwpOvxs6dbONwnq-mobg-4sd33rq3lLYHYmvM55s008wrifAKsy9G9Y-oL7K8QO_t0fTQR1l0SuYTXamnE1joiffYokVu33G2Oy6T468pYoRsYxskao35NIpGDEBaHoyp65b7sPO74M9iV8gqK9bORppIE0ilNZA_4SKoa3HxXemX2WET0bGBLLXlNvuh4M4AiPM65LY6y7uVmIuEe6EE5rQfOpz709terFiylVdxyrM0iA71w4JxFwUHv3jyBRH6izZeOfjmlYGlBRkUM2mM9LhcJX11iOtI2c0B5Ps0p2ZDSvGiAknCSEft9RJphTA1RBkV-C2ubdGQWv8TT0MWMsgn1Yj-5I8LzRdqRHEqamsHL2IZnKypHF2AC2fNc5SGuEg_bTvXnT7eHrU-31_34YaTEvuwYWpwudMWRUiUbI1t2grLk1Lg3-SPfv5TJF4YsOtUmIrHetFgea0iXdStA_Vq1gSGVrGgxBo9zXNlLccrNOijjaNzfJeVnS7et73G_m88o5jAdR1-giiyRwVLQM0AIRa1DTMwdBgTBfr6TaBrPTFM-EgBRyVXwDgD2sXMrjvGb_5xzTzftDQaVx-tK6z-0Dr5EcJaviAGB0lWWxtFZRdT8FyMDv0a6QxiRrPjS-mtoVKrunTTSMX0BQ1tmRkXg1JqerxQyAKhaEMwxiBrn23jKqArYftgJeQGiHuGBBkGn8RLWWohdRb9u_UY31FBwE7nXy8mKei9iOHIWCRHPCftzUrrcDppS2FHB- -7gMGF5jkIMQuscCMB2UjvswGedfZhtqVwjqvaY3Q54I15ECdHW-iE0yFYv1HaDGZ-dzZtQxNdwUi1LCVSJJgHk6jYCMp_N3ifsSGOJ58yq-Duahu0UQAGJQ3SOW-HLk4EIJ7KfoLDUGRPpjLFuMYbXXJV-OJjx-znxAs-Tx5BkBjvRknxFADfaVm40]--></g></svg>