<?xml version="1.0" encoding="us-ascii" standalone="no"?><svg xmlns="http://www.w3.org/2000/svg" xmlns:xlink="http://www.w3.org/1999/xlink" contentStyleType="text/css" height="1103px" preserveAspectRatio="none" style="width:1204px;height:1103px;background:#FFFFFF;" version="1.1" viewBox="0 0 1204 1103" width="1204px" zoomAndPan="magnify"><defs/><g><rect fill="#B0C4DE" height="1091.0078" style="stroke:#181818;stroke-width:0.5;" width="371" x="445" y="6"/><text fill="#000000" font-family="sans-serif" font-size="13" font-weight="bold" lengthAdjust="spacing" textLength="79" x="588.5" y="19.4951">Payee DFSP</text><text fill="#000000" font-family="sans-serif" font-size="13" font-weight="bold" lengthAdjust="spacing" textLength="108" x="576.5" y="35.8467">Payment Manger</text><rect fill="#00008B" height="156.7578" style="stroke:#181818;stroke-width:1.0;" width="10" x="749.5" y="293.7734"/><rect fill="#00008B" height="134.4063" style="stroke:#181818;stroke-width:1.0;" width="10" x="749.5" y="719.0469"/><rect fill="#00008B" height="73.7031" style="stroke:#181818;stroke-width:1.0;" width="10" x="749.5" y="962.6953"/><rect fill="none" height="445.4609" style="stroke:#000000;stroke-width:1.5;" width="1070.5" x="127" y="598.9375"/><line style="stroke:#181818;stroke-width:0.5;stroke-dasharray:5.0,5.0;" x1="172" x2="172" y1="75.3125" y2="1061.3984"/><line style="stroke:#181818;stroke-width:0.5;stroke-dasharray:5.0,5.0;" x1="519" x2="519" y1="75.3125" y2="1061.3984"/><line style="stroke:#181818;stroke-width:0.5;stroke-dasharray:5.0,5.0;" x1="754" x2="754" y1="75.3125" y2="1061.3984"/><line style="stroke:#181818;stroke-width:0.5;stroke-dasharray:5.0,5.0;" x1="989" x2="989" y1="75.3125" y2="1061.3984"/><rect fill="#8B0000" height="31.6094" rx="2.5" ry="2.5" style="stroke:#181818;stroke-width:0.5;" width="71" x="137" y="42.7031"/><text fill="#FFFFFF" font-family="sans-serif" font-size="14" lengthAdjust="spacing" textLength="57" x="144" y="64.2363">Mojaloop</text><rect fill="#8B0000" height="31.6094" rx="2.5" ry="2.5" style="stroke:#181818;stroke-width:0.5;" width="71" x="137" y="1060.3984"/><text fill="#FFFFFF" font-family="sans-serif" font-size="14" lengthAdjust="spacing" textLength="57" x="144" y="1081.9316">Mojaloop</text><rect fill="#BDB76B" height="31.6094" rx="2.5" ry="2.5" style="stroke:#181818;stroke-width:0.5;" width="141" x="449" y="42.7031"/><text fill="#FFFFFF" font-family="sans-serif" font-size="14" lengthAdjust="spacing" textLength="127" x="456" y="64.2363">Mojaloop Connector</text><rect fill="#BDB76B" height="31.6094" rx="2.5" ry="2.5" style="stroke:#181818;stroke-width:0.5;" width="141" x="449" y="1060.3984"/><text fill="#FFFFFF" font-family="sans-serif" font-size="14" lengthAdjust="spacing" textLength="127" x="456" y="1081.9316">Mojaloop Connector</text><rect fill="#00008B" height="31.6094" rx="2.5" ry="2.5" style="stroke:#181818;stroke-width:0.5;" width="115" x="697" y="42.7031"/><text fill="#FFFFFF" font-family="sans-serif" font-size="14" lengthAdjust="spacing" textLength="101" x="704" y="64.2363">Core Connector</text><rect fill="#00008B" height="31.6094" rx="2.5" ry="2.5" style="stroke:#181818;stroke-width:0.5;" width="115" x="697" y="1060.3984"/><text fill="#FFFFFF" font-family="sans-serif" font-size="14" lengthAdjust="spacing" textLength="101" x="704" y="1081.9316">Core Connector</text><rect fill="#006400" height="31.6094" rx="2.5" ry="2.5" style="stroke:#181818;stroke-width:0.5;" width="155" x="912" y="42.7031"/><text fill="#FFFFFF" font-family="sans-serif" font-size="14" lengthAdjust="spacing" textLength="141" x="919" y="64.2363">Core Banking Solution</text><rect fill="#006400" height="31.6094" rx="2.5" ry="2.5" style="stroke:#181818;stroke-width:0.5;" width="155" x="912" y="1060.3984"/><text fill="#FFFFFF" font-family="sans-serif" font-size="14" lengthAdjust="spacing" textLength="141" x="919" y="1081.9316">Core Banking Solution</text><rect fill="#00008B" height="156.7578" style="stroke:#181818;stroke-width:1.0;" width="10" x="749.5" y="293.7734"/><rect fill="#00008B" height="134.4063" style="stroke:#181818;stroke-width:1.0;" width="10" x="749.5" y="719.0469"/><rect fill="#00008B" height="73.7031" style="stroke:#181818;stroke-width:1.0;" width="10" x="749.5" y="962.6953"/><line style="stroke:#181818;stroke-width:1.0;" x1="172.5" x2="214.5" y1="120.5156" y2="120.5156"/><line style="stroke:#181818;stroke-width:1.0;" x1="214.5" x2="214.5" y1="120.5156" y2="133.5156"/><line style="stroke:#181818;stroke-width:1.0;" x1="173.5" x2="214.5" y1="133.5156" y2="133.5156"/><polygon fill="#181818" points="183.5,129.5156,173.5,133.5156,183.5,137.5156,179.5,133.5156" style="stroke:#181818;stroke-width:1.0;"/><text fill="#000000" font-family="sans-serif" font-size="13" font-weight="bold" lengthAdjust="spacing" textLength="15" x="179.5" y="115.6592">[1]</text><text fill="#000000" font-family="sans-serif" font-size="13" lengthAdjust="spacing" textLength="122" x="198.5" y="115.6592">Pass Quote to Payer</text><path d="M5,90.3125 L5,149.3125 L168,149.3125 L168,100.3125 L158,90.3125 L5,90.3125 " fill="#FEFFDD" style="stroke:#181818;stroke-width:0.5;"/><path d="M158,90.3125 L158,100.3125 L168,100.3125 L158,90.3125 " fill="#FEFFDD" style="stroke:#181818;stroke-width:0.5;"/><text fill="#000000" font-family="sans-serif" font-size="13" lengthAdjust="spacing" textLength="103" x="11" y="108.8076">Obtain consent to</text><text fill="#000000" font-family="sans-serif" font-size="13" lengthAdjust="spacing" textLength="142" x="11" y="125.1592">proceed with the transfer</text><text fill="#000000" font-family="sans-serif" font-size="13" lengthAdjust="spacing" textLength="19" x="11" y="141.5107">Via</text><text fill="#000000" font-family="sans-serif" font-size="13" font-weight="bold" lengthAdjust="spacing" textLength="36" x="34" y="141.5107">POST</text><text fill="#000000" font-family="sans-serif" font-size="13" lengthAdjust="spacing" textLength="54" x="74" y="141.5107">/transfers</text><line style="stroke:#181818;stroke-width:1.0;" x1="172.5" x2="214.5" y1="176.7188" y2="176.7188"/><line style="stroke:#181818;stroke-width:1.0;" x1="214.5" x2="214.5" y1="176.7188" y2="189.7188"/><line style="stroke:#181818;stroke-width:1.0;" x1="173.5" x2="214.5" y1="189.7188" y2="189.7188"/><polygon fill="#181818" points="183.5,185.7188,173.5,189.7188,183.5,193.7188,179.5,189.7188" style="stroke:#181818;stroke-width:1.0;"/><text fill="#000000" font-family="sans-serif" font-size="13" font-weight="bold" lengthAdjust="spacing" textLength="15" x="179.5" y="171.8623">[2]</text><text fill="#000000" font-family="sans-serif" font-size="13" lengthAdjust="spacing" textLength="163" x="198.5" y="171.8623">Perform liquidity(NDC)check</text><line style="stroke:#181818;stroke-width:1.0;" x1="172.5" x2="214.5" y1="220.0703" y2="220.0703"/><line style="stroke:#181818;stroke-width:1.0;" x1="214.5" x2="214.5" y1="220.0703" y2="233.0703"/><line style="stroke:#181818;stroke-width:1.0;" x1="173.5" x2="214.5" y1="233.0703" y2="233.0703"/><polygon fill="#181818" points="183.5,229.0703,173.5,233.0703,183.5,237.0703,179.5,233.0703" style="stroke:#181818;stroke-width:1.0;"/><text fill="#000000" font-family="sans-serif" font-size="13" font-weight="bold" lengthAdjust="spacing" textLength="15" x="179.5" y="215.2139">[3]</text><text fill="#000000" font-family="sans-serif" font-size="13" lengthAdjust="spacing" textLength="86" x="198.5" y="215.2139">Reserve Funds</text><polygon fill="#181818" points="507.5,259.4219,517.5,263.4219,507.5,267.4219,511.5,263.4219" style="stroke:#181818;stroke-width:1.0;"/><line style="stroke:#181818;stroke-width:1.0;" x1="172.5" x2="513.5" y1="263.4219" y2="263.4219"/><text fill="#000000" font-family="sans-serif" font-size="13" font-weight="bold" lengthAdjust="spacing" textLength="15" x="179.5" y="258.5654">[4]</text><text fill="#000000" font-family="sans-serif" font-size="13" font-weight="bold" lengthAdjust="spacing" textLength="36" x="198.5" y="258.5654">POST</text><text fill="#000000" font-family="sans-serif" font-size="13" lengthAdjust="spacing" textLength="54" x="238.5" y="258.5654">/transfers</text><polygon fill="#181818" points="737.5,289.7734,747.5,293.7734,737.5,297.7734,741.5,293.7734" style="stroke:#181818;stroke-width:1.0;"/><line style="stroke:#181818;stroke-width:1.0;" x1="519.5" x2="743.5" y1="293.7734" y2="293.7734"/><text fill="#000000" font-family="sans-serif" font-size="13" font-weight="bold" lengthAdjust="spacing" textLength="15" x="526.5" y="288.917">[5]</text><text fill="#000000" font-family="sans-serif" font-size="13" font-weight="bold" lengthAdjust="spacing" textLength="36" x="545.5" y="288.917">POST</text><text fill="#000000" font-family="sans-serif" font-size="13" lengthAdjust="spacing" textLength="54" x="585.5" y="288.917">/transfers</text><polygon fill="#181818" points="977.5,339.4766,987.5,343.4766,977.5,347.4766,981.5,343.4766" style="stroke:#181818;stroke-width:1.0;"/><line style="stroke:#181818;stroke-width:1.0;" x1="759.5" x2="983.5" y1="343.4766" y2="343.4766"/><text fill="#000000" font-family="sans-serif" font-size="13" font-weight="bold" lengthAdjust="spacing" textLength="15" x="766.5" y="330.4443">[6]</text><text fill="#000000" font-family="sans-serif" font-size="13" lengthAdjust="spacing" textLength="122" x="785.5" y="322.2686">Perform AML checks</text><text fill="#000000" font-family="sans-serif" font-size="13" lengthAdjust="spacing" textLength="103" x="785.5" y="338.6201">and transfer funds</text><path d="M994,306.7734 L994,348.7734 L1145,348.7734 L1145,316.7734 L1135,306.7734 L994,306.7734 " fill="#FEFFDD" style="stroke:#181818;stroke-width:0.5;"/><path d="M1135,306.7734 L1135,316.7734 L1145,316.7734 L1135,306.7734 " fill="#FEFFDD" style="stroke:#181818;stroke-width:0.5;"/><text fill="#000000" font-family="sans-serif" font-size="13" lengthAdjust="spacing" textLength="130" x="1000" y="325.2686">Replace with CBS API</text><text fill="#000000" font-family="sans-serif" font-size="13" lengthAdjust="spacing" textLength="93" x="1000" y="341.6201">to transfer funds</text><line style="stroke:#181818;stroke-width:1.0;" x1="989.5" x2="1031.5" y1="376.8281" y2="376.8281"/><line style="stroke:#181818;stroke-width:1.0;" x1="1031.5" x2="1031.5" y1="376.8281" y2="389.8281"/><line style="stroke:#181818;stroke-width:1.0;" x1="990.5" x2="1031.5" y1="389.8281" y2="389.8281"/><polygon fill="#181818" points="1000.5,385.8281,990.5,389.8281,1000.5,393.8281,996.5,389.8281" style="stroke:#181818;stroke-width:1.0;"/><text fill="#000000" font-family="sans-serif" font-size="13" font-weight="bold" lengthAdjust="spacing" textLength="15" x="996.5" y="371.9717">[7]</text><text fill="#000000" font-family="sans-serif" font-size="13" lengthAdjust="spacing" textLength="152" x="1015.5" y="371.9717">Release of funds to Payee</text><polygon fill="#181818" points="770.5,416.1797,760.5,420.1797,770.5,424.1797,766.5,420.1797" style="stroke:#181818;stroke-width:1.0;"/><line style="stroke:#181818;stroke-width:1.0;stroke-dasharray:2.0,2.0;" x1="764.5" x2="988.5" y1="420.1797" y2="420.1797"/><text fill="#000000" font-family="sans-serif" font-size="13" font-weight="bold" lengthAdjust="spacing" textLength="15" x="776.5" y="415.3232">[8]</text><text fill="#000000" font-family="sans-serif" font-size="13" lengthAdjust="spacing" textLength="53" x="795.5" y="415.3232">response</text><text fill="#000000" font-family="sans-serif" font-size="13" font-weight="bold" lengthAdjust="spacing" textLength="130" x="852.5" y="415.3232">(homeTransactionId)</text><polygon fill="#181818" points="530.5,446.5313,520.5,450.5313,530.5,454.5313,526.5,450.5313" style="stroke:#181818;stroke-width:1.0;"/><line style="stroke:#181818;stroke-width:1.0;stroke-dasharray:2.0,2.0;" x1="524.5" x2="753.5" y1="450.5313" y2="450.5313"/><text fill="#000000" font-family="sans-serif" font-size="13" font-weight="bold" lengthAdjust="spacing" textLength="15" x="536.5" y="445.6748">[9]</text><text fill="#000000" font-family="sans-serif" font-size="13" lengthAdjust="spacing" textLength="53" x="555.5" y="445.6748">response</text><text fill="#000000" font-family="sans-serif" font-size="13" font-weight="bold" lengthAdjust="spacing" textLength="130" x="612.5" y="445.6748">(homeTransactionId)</text><line style="stroke:#181818;stroke-width:1.0;" x1="519.5" x2="561.5" y1="480.8828" y2="480.8828"/><line style="stroke:#181818;stroke-width:1.0;" x1="561.5" x2="561.5" y1="480.8828" y2="493.8828"/><line style="stroke:#181818;stroke-width:1.0;" x1="520.5" x2="561.5" y1="493.8828" y2="493.8828"/><polygon fill="#181818" points="530.5,489.8828,520.5,493.8828,530.5,497.8828,526.5,493.8828" style="stroke:#181818;stroke-width:1.0;"/><text fill="#000000" font-family="sans-serif" font-size="13" font-weight="bold" lengthAdjust="spacing" textLength="22" x="526.5" y="476.0264">[10]</text><text fill="#000000" font-family="sans-serif" font-size="13" lengthAdjust="spacing" textLength="113" x="552.5" y="476.0264">Generate Fulfilment</text><polygon fill="#181818" points="183.5,536.5859,173.5,540.5859,183.5,544.5859,179.5,540.5859" style="stroke:#181818;stroke-width:1.0;"/><line style="stroke:#181818;stroke-width:1.0;stroke-dasharray:2.0,2.0;" x1="177.5" x2="518.5" y1="540.5859" y2="540.5859"/><text fill="#000000" font-family="sans-serif" font-size="13" font-weight="bold" lengthAdjust="spacing" textLength="22" x="189.5" y="527.5537">[11]</text><text fill="#000000" font-family="sans-serif" font-size="13" font-weight="bold" lengthAdjust="spacing" textLength="26" x="215.5" y="519.3779">PUT</text><text fill="#000000" font-family="sans-serif" font-size="13" lengthAdjust="spacing" textLength="76" x="245.5" y="519.3779">/transfers/{id}</text><text fill="#000000" font-family="sans-serif" font-size="13" lengthAdjust="spacing" textLength="242" x="215.5" y="535.7295">(TransferStatus='RESERVED', fulfullment)</text><line style="stroke:#181818;stroke-width:1.0;" x1="172.5" x2="214.5" y1="570.9375" y2="570.9375"/><line style="stroke:#181818;stroke-width:1.0;" x1="214.5" x2="214.5" y1="570.9375" y2="583.9375"/><line style="stroke:#181818;stroke-width:1.0;" x1="173.5" x2="214.5" y1="583.9375" y2="583.9375"/><polygon fill="#181818" points="183.5,579.9375,173.5,583.9375,183.5,587.9375,179.5,583.9375" style="stroke:#181818;stroke-width:1.0;"/><text fill="#000000" font-family="sans-serif" font-size="13" font-weight="bold" lengthAdjust="spacing" textLength="22" x="179.5" y="566.0811">[12]</text><text fill="#000000" font-family="sans-serif" font-size="13" lengthAdjust="spacing" textLength="179" x="205.5" y="566.0811">Commit funds in DFSP ledgers</text><path d="M127,598.9375 L188,598.9375 L188,607.2891 L178,617.2891 L127,617.2891 L127,598.9375 " fill="#EEEEEE" style="stroke:#000000;stroke-width:1.5;"/><rect fill="none" height="445.4609" style="stroke:#000000;stroke-width:1.5;" width="1070.5" x="127" y="598.9375"/><text fill="#000000" font-family="sans-serif" font-size="13" font-weight="bold" lengthAdjust="spacing" textLength="16" x="142" y="613.4326">alt</text><text fill="#000000" font-family="sans-serif" font-size="11" font-weight="bold" lengthAdjust="spacing" textLength="186" x="203" y="612.3564">[if (Transfer status == 'ABORTED')]</text><polygon fill="#181818" points="507.5,651.9922,517.5,655.9922,507.5,659.9922,511.5,655.9922" style="stroke:#181818;stroke-width:1.0;"/><line style="stroke:#181818;stroke-width:1.0;" x1="172.5" x2="513.5" y1="655.9922" y2="655.9922"/><text fill="#000000" font-family="sans-serif" font-size="13" font-weight="bold" lengthAdjust="spacing" textLength="22" x="179.5" y="642.96">[13]</text><text fill="#000000" font-family="sans-serif" font-size="13" font-weight="bold" lengthAdjust="spacing" textLength="44" x="205.5" y="634.7842">PATCH</text><text fill="#000000" font-family="sans-serif" font-size="13" lengthAdjust="spacing" textLength="76" x="253.5" y="634.7842">/transfers/{id}</text><text fill="#000000" font-family="sans-serif" font-size="13" lengthAdjust="spacing" textLength="283" x="205.5" y="651.1357">(TransferStatus='ABORTED', homeTransactionId)</text><polygon fill="#181818" points="737.5,715.0469,747.5,719.0469,737.5,723.0469,741.5,719.0469" style="stroke:#181818;stroke-width:1.0;"/><line style="stroke:#181818;stroke-width:1.0;" x1="519.5" x2="743.5" y1="719.0469" y2="719.0469"/><text fill="#000000" font-family="sans-serif" font-size="13" font-weight="bold" lengthAdjust="spacing" textLength="22" x="526.5" y="697.8389">[14]</text><text fill="#000000" font-family="sans-serif" font-size="13" lengthAdjust="spacing" textLength="81" x="552.5" y="681.4873">Abort Transfer</text><text fill="#000000" font-family="sans-serif" font-size="13" lengthAdjust="spacing" textLength="4" x="552.5" y="697.8389">&#160;</text><text fill="#000000" font-family="sans-serif" font-size="13" font-weight="bold" lengthAdjust="spacing" textLength="44" x="556.5" y="697.8389">PATCH</text><text fill="#000000" font-family="sans-serif" font-size="13" lengthAdjust="spacing" textLength="76" x="604.5" y="697.8389">/transfers/{id}</text><text fill="#000000" font-family="sans-serif" font-size="13" lengthAdjust="spacing" textLength="166" x="556.5" y="714.1904">(TransferStatus='ABORTED')</text><polygon fill="#181818" points="977.5,745.3984,987.5,749.3984,977.5,753.3984,981.5,749.3984" style="stroke:#181818;stroke-width:1.0;"/><line style="stroke:#181818;stroke-width:1.0;" x1="759.5" x2="983.5" y1="749.3984" y2="749.3984"/><text fill="#000000" font-family="sans-serif" font-size="13" font-weight="bold" lengthAdjust="spacing" textLength="22" x="766.5" y="744.542">[15]</text><text fill="#000000" font-family="sans-serif" font-size="13" lengthAdjust="spacing" textLength="81" x="792.5" y="744.542">Abort Transfer</text><line style="stroke:#181818;stroke-width:1.0;" x1="989.5" x2="1031.5" y1="779.75" y2="779.75"/><line style="stroke:#181818;stroke-width:1.0;" x1="1031.5" x2="1031.5" y1="779.75" y2="792.75"/><line style="stroke:#181818;stroke-width:1.0;" x1="990.5" x2="1031.5" y1="792.75" y2="792.75"/><polygon fill="#181818" points="1000.5,788.75,990.5,792.75,1000.5,796.75,996.5,792.75" style="stroke:#181818;stroke-width:1.0;"/><text fill="#000000" font-family="sans-serif" font-size="13" font-weight="bold" lengthAdjust="spacing" textLength="22" x="996.5" y="774.8936">[16]</text><text fill="#000000" font-family="sans-serif" font-size="13" lengthAdjust="spacing" textLength="163" x="1022.5" y="774.8936">Compensate action for abort</text><polygon fill="#181818" points="770.5,819.1016,760.5,823.1016,770.5,827.1016,766.5,823.1016" style="stroke:#181818;stroke-width:1.0;"/><line style="stroke:#181818;stroke-width:1.0;stroke-dasharray:2.0,2.0;" x1="764.5" x2="988.5" y1="823.1016" y2="823.1016"/><text fill="#000000" font-family="sans-serif" font-size="13" font-weight="bold" lengthAdjust="spacing" textLength="22" x="776.5" y="818.2451">[17]</text><text fill="#000000" font-family="sans-serif" font-size="13" lengthAdjust="spacing" textLength="53" x="802.5" y="818.2451">response</text><polygon fill="#181818" points="530.5,849.4531,520.5,853.4531,530.5,857.4531,526.5,853.4531" style="stroke:#181818;stroke-width:1.0;"/><line style="stroke:#181818;stroke-width:1.0;stroke-dasharray:2.0,2.0;" x1="524.5" x2="753.5" y1="853.4531" y2="853.4531"/><text fill="#000000" font-family="sans-serif" font-size="13" font-weight="bold" lengthAdjust="spacing" textLength="22" x="536.5" y="848.5967">[18]</text><text fill="#000000" font-family="sans-serif" font-size="13" lengthAdjust="spacing" textLength="53" x="562.5" y="848.5967">response</text><line style="stroke:#000000;stroke-width:1.0;stroke-dasharray:2.0,2.0;" x1="127" x2="1197.5" y1="862.4531" y2="862.4531"/><text fill="#000000" font-family="sans-serif" font-size="11" font-weight="bold" lengthAdjust="spacing" textLength="202" x="132" y="873.8721">[if (Transfer status == 'COMMITTED')]</text><polygon fill="#181818" points="507.5,911.9922,517.5,915.9922,507.5,919.9922,511.5,915.9922" style="stroke:#181818;stroke-width:1.0;"/><line style="stroke:#181818;stroke-width:1.0;" x1="172.5" x2="513.5" y1="915.9922" y2="915.9922"/><text fill="#000000" font-family="sans-serif" font-size="13" font-weight="bold" lengthAdjust="spacing" textLength="22" x="179.5" y="902.96">[19]</text><text fill="#000000" font-family="sans-serif" font-size="13" font-weight="bold" lengthAdjust="spacing" textLength="44" x="205.5" y="894.7842">PATCH</text><text fill="#000000" font-family="sans-serif" font-size="13" lengthAdjust="spacing" textLength="76" x="253.5" y="894.7842">/transfers/{id}</text><text fill="#000000" font-family="sans-serif" font-size="13" lengthAdjust="spacing" textLength="297" x="205.5" y="911.1357">(TransferStatus='COMMITTED', homeTransactionId)</text><polygon fill="#181818" points="737.5,958.6953,747.5,962.6953,737.5,966.6953,741.5,962.6953" style="stroke:#181818;stroke-width:1.0;"/><line style="stroke:#181818;stroke-width:1.0;" x1="519.5" x2="743.5" y1="962.6953" y2="962.6953"/><text fill="#000000" font-family="sans-serif" font-size="13" font-weight="bold" lengthAdjust="spacing" textLength="22" x="526.5" y="949.6631">[20]</text><text fill="#000000" font-family="sans-serif" font-size="13" font-weight="bold" lengthAdjust="spacing" textLength="44" x="552.5" y="941.4873">PATCH</text><text fill="#000000" font-family="sans-serif" font-size="13" lengthAdjust="spacing" textLength="76" x="600.5" y="941.4873">/transfers/{id}</text><text fill="#000000" font-family="sans-serif" font-size="13" lengthAdjust="spacing" textLength="180" x="552.5" y="957.8389">(TransferStatus='COMMITTED')</text><line style="stroke:#181818;stroke-width:1.0;" x1="759.5" x2="801.5" y1="993.0469" y2="993.0469"/><line style="stroke:#181818;stroke-width:1.0;" x1="801.5" x2="801.5" y1="993.0469" y2="1006.0469"/><line style="stroke:#181818;stroke-width:1.0;" x1="760.5" x2="801.5" y1="1006.0469" y2="1006.0469"/><polygon fill="#181818" points="770.5,1002.0469,760.5,1006.0469,770.5,1010.0469,766.5,1006.0469" style="stroke:#181818;stroke-width:1.0;"/><text fill="#000000" font-family="sans-serif" font-size="13" font-weight="bold" lengthAdjust="spacing" textLength="22" x="766.5" y="988.1904">[21]</text><text fill="#000000" font-family="sans-serif" font-size="13" lengthAdjust="spacing" textLength="62" x="792.5" y="988.1904">Do nothing</text><polygon fill="#181818" points="530.5,1032.3984,520.5,1036.3984,530.5,1040.3984,526.5,1036.3984" style="stroke:#181818;stroke-width:1.0;"/><line style="stroke:#181818;stroke-width:1.0;stroke-dasharray:2.0,2.0;" x1="524.5" x2="753.5" y1="1036.3984" y2="1036.3984"/><text fill="#000000" font-family="sans-serif" font-size="13" font-weight="bold" lengthAdjust="spacing" textLength="22" x="536.5" y="1031.542">[22]</text><text fill="#000000" font-family="sans-serif" font-size="13" lengthAdjust="spacing" textLength="53" x="562.5" y="1031.542">response</text><!--SRC=[hLHDSzem4BthL-oG0u59XlQQQJ838gIPneNQD9Uc1s6liOejkRASZydaltTbOmYfcT9ERGORQT- -tRTF3BfzTx7JdOjLY_tkWB5Y9LKkZCY0lgqCPIwKXMTW01EjBDUfDl2GI8liXRqEwNZwXqYrpZiW2WWUf0qJE1eBi_8nOWlz21q0c8adH1XFWjcTelSC2Ua9jKJJWQCRkKniO17JKLeYCRRc1wwLmj1gKp5vl6Rvb8YLV8lXsk2RUCwX1bGSg2AWsbfn8w58Z2K4EYsjrAg6Zu8QVcKG5MEYj5gLsG8DlAUxys5nyUtTzmvZjGAd5_NpZ3el2lXIQejWTQM3OShzIZ6sRBgmGYe8jIgS91J1SgD3n0W8du1D26Q4AcA2tKe1_Vvi6ipxVHWqoqNLZ4j9tG0q_B0f04siJGQf_5dAIDgduyzZtWiJ35SxW2RUnmBDFSAaL56n4-7nirP-5-FnqmlUlWzLW0Yjl1VKD-Ulvk1sk8EEWcsbG-y6gleAk5E2ccjIGRofgPBGEEFKwNtCKn5YhPeRrd1sNMsGf2tmHZBtNXSn2jPL-9YYA11qNCStOyDjODsgmI9tSwEUZnETuTpHk3QrkevwTDZMpTN27HGTuIkPDhew-1KgD6vzKgQnJDq1QlQteoFnl-vgFtYMqGkfU3nVhmHMsB8ux_gNmQL_Updkdb2NANsgbBrMHt2TPTAkrI2tkcDCzesMpV15Qa76i261ecA1ytFe3aTJVquylJOh3UVyus7rDcbEu7VnTWmuN6XZeO7VgVqqjBUNfWSRPnnWt5tEDtuYzNAaQYb3NJ6GoK4uo1v3jHjdZq4m9K_j4vzFFUzw_X_atoRwum3-CM_l8BKf_rYxavlGF_JVwQGYndu1]--></g></svg>