<?xml version="1.0" encoding="us-ascii" standalone="no"?><svg xmlns="http://www.w3.org/2000/svg" xmlns:xlink="http://www.w3.org/1999/xlink" contentStyleType="text/css" height="1425px" preserveAspectRatio="none" style="width:1072px;height:1425px;background:#FFFFFF;" version="1.1" viewBox="0 0 1072 1425" width="1072px" zoomAndPan="magnify"><defs/><g><rect fill="#B0C4DE" height="1413.5" style="stroke:#181818;stroke-width:0.5;" width="425" x="314" y="6"/><text fill="#000000" font-family="sans-serif" font-size="13" font-weight="bold" lengthAdjust="spacing" textLength="76" x="484.5" y="19.4951">Payer DFSP</text><text fill="#000000" font-family="sans-serif" font-size="13" font-weight="bold" lengthAdjust="spacing" textLength="108" x="472.5" y="35.8467">Payment Manger</text><rect fill="#00008B" height="1096.7656" style="stroke:#181818;stroke-width:1.0;" width="10" x="370.5" y="209.4219"/><line style="stroke:#181818;stroke-width:0.5;stroke-dasharray:5.0,5.0;" x1="162" x2="162" y1="75.3125" y2="1383.8906"/><line style="stroke:#181818;stroke-width:0.5;stroke-dasharray:5.0,5.0;" x1="375" x2="375" y1="75.3125" y2="1383.8906"/><line style="stroke:#181818;stroke-width:0.5;stroke-dasharray:5.0,5.0;" x1="664" x2="664" y1="75.3125" y2="1383.8906"/><line style="stroke:#181818;stroke-width:0.5;stroke-dasharray:5.0,5.0;" x1="889" x2="889" y1="75.3125" y2="1383.8906"/><rect fill="#006400" height="31.6094" rx="2.5" ry="2.5" style="stroke:#181818;stroke-width:0.5;" width="155" x="85" y="42.7031"/><text fill="#FFFFFF" font-family="sans-serif" font-size="14" lengthAdjust="spacing" textLength="141" x="92" y="64.2363">Core Banking Solution</text><rect fill="#006400" height="31.6094" rx="2.5" ry="2.5" style="stroke:#181818;stroke-width:0.5;" width="155" x="85" y="1382.8906"/><text fill="#FFFFFF" font-family="sans-serif" font-size="14" lengthAdjust="spacing" textLength="141" x="92" y="1404.4238">Core Banking Solution</text><rect fill="#00008B" height="31.6094" rx="2.5" ry="2.5" style="stroke:#181818;stroke-width:0.5;" width="115" x="318" y="42.7031"/><text fill="#FFFFFF" font-family="sans-serif" font-size="14" lengthAdjust="spacing" textLength="101" x="325" y="64.2363">Core Connector</text><rect fill="#00008B" height="31.6094" rx="2.5" ry="2.5" style="stroke:#181818;stroke-width:0.5;" width="115" x="318" y="1382.8906"/><text fill="#FFFFFF" font-family="sans-serif" font-size="14" lengthAdjust="spacing" textLength="101" x="325" y="1404.4238">Core Connector</text><rect fill="#BDB76B" height="31.6094" rx="2.5" ry="2.5" style="stroke:#181818;stroke-width:0.5;" width="141" x="594" y="42.7031"/><text fill="#FFFFFF" font-family="sans-serif" font-size="14" lengthAdjust="spacing" textLength="127" x="601" y="64.2363">Mojaloop Connector</text><rect fill="#BDB76B" height="31.6094" rx="2.5" ry="2.5" style="stroke:#181818;stroke-width:0.5;" width="141" x="594" y="1382.8906"/><text fill="#FFFFFF" font-family="sans-serif" font-size="14" lengthAdjust="spacing" textLength="127" x="601" y="1404.4238">Mojaloop Connector</text><rect fill="#8B0000" height="31.6094" rx="2.5" ry="2.5" style="stroke:#181818;stroke-width:0.5;" width="71" x="854" y="42.7031"/><text fill="#FFFFFF" font-family="sans-serif" font-size="14" lengthAdjust="spacing" textLength="57" x="861" y="64.2363">Mojaloop</text><rect fill="#8B0000" height="31.6094" rx="2.5" ry="2.5" style="stroke:#181818;stroke-width:0.5;" width="71" x="854" y="1382.8906"/><text fill="#FFFFFF" font-family="sans-serif" font-size="14" lengthAdjust="spacing" textLength="57" x="861" y="1404.4238">Mojaloop</text><rect fill="#00008B" height="1096.7656" style="stroke:#181818;stroke-width:1.0;" width="10" x="370.5" y="209.4219"/><path d="M96,90.3125 L96,181.3125 L370,181.3125 L370,100.3125 L360,90.3125 L96,90.3125 " fill="#FEFFDD" style="stroke:#181818;stroke-width:0.5;"/><path d="M360,90.3125 L360,100.3125 L370,100.3125 L360,90.3125 " fill="#FEFFDD" style="stroke:#181818;stroke-width:0.5;"/><text fill="#000000" font-family="sans-serif" font-size="13" lengthAdjust="spacing" textLength="188" x="102" y="108.8076">If not already supported by CBS,</text><text fill="#000000" font-family="sans-serif" font-size="13" lengthAdjust="spacing" textLength="253" x="102" y="125.1592">this API to be defined by System Integrator.</text><text fill="#000000" font-family="sans-serif" font-size="13" lengthAdjust="spacing" textLength="209" x="110" y="141.5107">- include Scheme data requirements</text><text fill="#000000" font-family="sans-serif" font-size="13" lengthAdjust="spacing" textLength="171" x="110" y="157.8623">- align with Comesa use case</text><text fill="#000000" font-family="sans-serif" font-size="13" lengthAdjust="spacing" textLength="232" x="110" y="174.2139">- include Payer Regulatory requirements</text><polygon fill="#181818" points="358.5,205.4219,368.5,209.4219,358.5,213.4219,362.5,209.4219" style="stroke:#181818;stroke-width:1.0;"/><line style="stroke:#181818;stroke-width:1.0;" x1="162.5" x2="364.5" y1="209.4219" y2="209.4219"/><text fill="#000000" font-family="sans-serif" font-size="13" font-weight="bold" lengthAdjust="spacing" textLength="15" x="169.5" y="204.5654">[1]</text><text fill="#000000" font-family="sans-serif" font-size="13" font-weight="bold" lengthAdjust="spacing" textLength="36" x="188.5" y="204.5654">POST</text><text fill="#000000" font-family="sans-serif" font-size="13" lengthAdjust="spacing" textLength="71" x="228.5" y="204.5654">/sendMoney</text><polygon fill="#181818" points="652.5,271.4766,662.5,275.4766,652.5,279.4766,656.5,275.4766" style="stroke:#181818;stroke-width:1.0;"/><line style="stroke:#181818;stroke-width:1.0;" x1="380.5" x2="658.5" y1="275.4766" y2="275.4766"/><text fill="#000000" font-family="sans-serif" font-size="13" font-weight="bold" lengthAdjust="spacing" textLength="15" x="387.5" y="254.2686">[2]</text><text fill="#000000" font-family="sans-serif" font-size="13" font-weight="bold" lengthAdjust="spacing" textLength="36" x="406.5" y="237.917">POST</text><text fill="#000000" font-family="sans-serif" font-size="13" lengthAdjust="spacing" textLength="54" x="446.5" y="237.917">/transfers</text><text fill="#000000" font-family="sans-serif" font-size="13" lengthAdjust="spacing" textLength="160" x="406.5" y="254.2686">(AUTO_ACCEPT_PARTY =</text><text fill="#000000" font-family="sans-serif" font-size="13" font-weight="bold" lengthAdjust="spacing" textLength="25" x="570.5" y="254.2686">true</text><text fill="#000000" font-family="sans-serif" font-size="13" lengthAdjust="spacing" textLength="4" x="595.5" y="254.2686">,</text><text fill="#000000" font-family="sans-serif" font-size="13" lengthAdjust="spacing" textLength="167" x="406.5" y="270.6201">AUTO_ACCEPT_QUOTES =</text><text fill="#000000" font-family="sans-serif" font-size="13" font-weight="bold" lengthAdjust="spacing" textLength="30" x="577.5" y="270.6201">false</text><text fill="#000000" font-family="sans-serif" font-size="13" lengthAdjust="spacing" textLength="4" x="607.5" y="270.6201">)</text><path d="M102,222.4219 L102,281.4219 L365,281.4219 L365,232.4219 L355,222.4219 L102,222.4219 " fill="#FEFFDD" style="stroke:#181818;stroke-width:0.5;"/><path d="M355,222.4219 L355,232.4219 L365,232.4219 L355,222.4219 " fill="#FEFFDD" style="stroke:#181818;stroke-width:0.5;"/><text fill="#000000" font-family="sans-serif" font-size="13" lengthAdjust="spacing" textLength="238" x="108" y="240.917">Include Payer Regulatory requirements in</text><text fill="#000000" font-family="sans-serif" font-size="13" lengthAdjust="spacing" textLength="110" x="120" y="257.2686">1. Quote extension</text><text fill="#000000" font-family="sans-serif" font-size="13" lengthAdjust="spacing" textLength="121" x="120" y="273.6201">2. Transfer extension</text><line style="stroke:#181818;stroke-width:1.0;" x1="887.5" x2="877.5" y1="308.8281" y2="304.8281"/><line style="stroke:#181818;stroke-width:1.0;" x1="887.5" x2="877.5" y1="308.8281" y2="312.8281"/><line style="stroke:#181818;stroke-width:1.0;" x1="664.5" x2="888.5" y1="308.8281" y2="308.8281"/><text fill="#000000" font-family="sans-serif" font-size="13" font-weight="bold" lengthAdjust="spacing" textLength="15" x="671.5" y="303.9717">[3]</text><text fill="#000000" font-family="sans-serif" font-size="13" font-weight="bold" lengthAdjust="spacing" textLength="26" x="690.5" y="303.9717">GET</text><text fill="#000000" font-family="sans-serif" font-size="13" lengthAdjust="spacing" textLength="152" x="720.5" y="303.9717">/parties/{Type}/{ID}/{SubId}</text><line style="stroke:#181818;stroke-width:1.0;" x1="665.5" x2="675.5" y1="339.1797" y2="335.1797"/><line style="stroke:#181818;stroke-width:1.0;" x1="665.5" x2="675.5" y1="339.1797" y2="343.1797"/><line style="stroke:#181818;stroke-width:1.0;stroke-dasharray:2.0,2.0;" x1="664.5" x2="888.5" y1="339.1797" y2="339.1797"/><text fill="#000000" font-family="sans-serif" font-size="13" font-weight="bold" lengthAdjust="spacing" textLength="15" x="681.5" y="334.3232">[4]</text><text fill="#000000" font-family="sans-serif" font-size="13" lengthAdjust="spacing" textLength="114" x="700.5" y="334.3232">HTTP 202 response</text><line style="stroke:#181818;stroke-width:1.0;" x1="889.5" x2="931.5" y1="385.8828" y2="385.8828"/><line style="stroke:#181818;stroke-width:1.0;" x1="931.5" x2="931.5" y1="385.8828" y2="398.8828"/><line style="stroke:#181818;stroke-width:1.0;" x1="890.5" x2="931.5" y1="398.8828" y2="398.8828"/><polygon fill="#181818" points="900.5,394.8828,890.5,398.8828,900.5,402.8828,896.5,398.8828" style="stroke:#181818;stroke-width:1.0;"/><text fill="#000000" font-family="sans-serif" font-size="13" font-weight="bold" lengthAdjust="spacing" textLength="15" x="896.5" y="372.8506">[5]</text><text fill="#000000" font-family="sans-serif" font-size="13" lengthAdjust="spacing" textLength="139" x="915.5" y="364.6748">Determine Payee DFSP</text><text fill="#000000" font-family="sans-serif" font-size="13" lengthAdjust="spacing" textLength="70" x="919.5" y="381.0264">using oracle</text><line style="stroke:#181818;stroke-width:1.0;" x1="889.5" x2="931.5" y1="461.9375" y2="461.9375"/><line style="stroke:#181818;stroke-width:1.0;" x1="931.5" x2="931.5" y1="461.9375" y2="474.9375"/><line style="stroke:#181818;stroke-width:1.0;" x1="890.5" x2="931.5" y1="474.9375" y2="474.9375"/><polygon fill="#181818" points="900.5,470.9375,890.5,474.9375,900.5,478.9375,896.5,474.9375" style="stroke:#181818;stroke-width:1.0;"/><text fill="#000000" font-family="sans-serif" font-size="13" font-weight="bold" lengthAdjust="spacing" textLength="15" x="896.5" y="440.7295">[6]</text><text fill="#000000" font-family="sans-serif" font-size="13" lengthAdjust="spacing" textLength="150" x="915.5" y="424.3779">Lookup Payee Information</text><text fill="#000000" font-family="sans-serif" font-size="13" lengthAdjust="spacing" textLength="105" x="919.5" y="440.7295">from Payee DFSP</text><text fill="#000000" font-family="sans-serif" font-size="13" lengthAdjust="spacing" textLength="31" x="919.5" y="457.0811">using</text><text fill="#000000" font-family="sans-serif" font-size="13" font-weight="bold" lengthAdjust="spacing" textLength="26" x="954.5" y="457.0811">GET</text><text fill="#000000" font-family="sans-serif" font-size="13" lengthAdjust="spacing" textLength="43" x="984.5" y="457.0811">/parties</text><line style="stroke:#181818;stroke-width:1.0;" x1="665.5" x2="675.5" y1="505.2891" y2="501.2891"/><line style="stroke:#181818;stroke-width:1.0;" x1="665.5" x2="675.5" y1="505.2891" y2="509.2891"/><line style="stroke:#181818;stroke-width:1.0;" x1="664.5" x2="888.5" y1="505.2891" y2="505.2891"/><text fill="#000000" font-family="sans-serif" font-size="13" font-weight="bold" lengthAdjust="spacing" textLength="15" x="681.5" y="500.4326">[7]</text><text fill="#000000" font-family="sans-serif" font-size="13" font-weight="bold" lengthAdjust="spacing" textLength="26" x="700.5" y="500.4326">PUT</text><text fill="#000000" font-family="sans-serif" font-size="13" lengthAdjust="spacing" textLength="152" x="730.5" y="500.4326">/parties/{Type}/{ID}/{SubId}</text><line style="stroke:#181818;stroke-width:1.0;" x1="887.5" x2="877.5" y1="535.6406" y2="531.6406"/><line style="stroke:#181818;stroke-width:1.0;" x1="887.5" x2="877.5" y1="535.6406" y2="539.6406"/><line style="stroke:#181818;stroke-width:1.0;stroke-dasharray:2.0,2.0;" x1="664.5" x2="888.5" y1="535.6406" y2="535.6406"/><text fill="#000000" font-family="sans-serif" font-size="13" font-weight="bold" lengthAdjust="spacing" textLength="15" x="671.5" y="530.7842">[8]</text><text fill="#000000" font-family="sans-serif" font-size="13" lengthAdjust="spacing" textLength="119" x="690.5" y="530.7842">HTTP 200 Response</text><rect fill="#FEFFDD" height="40" style="stroke:#181818;stroke-width:0.5;" width="161" x="498" y="548.6406"/><text fill="#000000" font-family="sans-serif" font-size="13" lengthAdjust="spacing" textLength="76" x="502" y="566.1357">Accept Party</text><text fill="#000000" font-family="sans-serif" font-size="13" lengthAdjust="spacing" textLength="153" x="502" y="582.4873">Need Currency Conversion</text><line style="stroke:#181818;stroke-width:1.0;" x1="887.5" x2="877.5" y1="616.6953" y2="612.6953"/><line style="stroke:#181818;stroke-width:1.0;" x1="887.5" x2="877.5" y1="616.6953" y2="620.6953"/><line style="stroke:#181818;stroke-width:1.0;" x1="664.5" x2="888.5" y1="616.6953" y2="616.6953"/><text fill="#000000" font-family="sans-serif" font-size="13" font-weight="bold" lengthAdjust="spacing" textLength="15" x="671.5" y="611.8389">[9]</text><text fill="#000000" font-family="sans-serif" font-size="13" font-weight="bold" lengthAdjust="spacing" textLength="36" x="690.5" y="611.8389">POST</text><text fill="#000000" font-family="sans-serif" font-size="13" lengthAdjust="spacing" textLength="53" x="730.5" y="611.8389">/fxquotes</text><line style="stroke:#181818;stroke-width:1.0;" x1="665.5" x2="675.5" y1="647.0469" y2="643.0469"/><line style="stroke:#181818;stroke-width:1.0;" x1="665.5" x2="675.5" y1="647.0469" y2="651.0469"/><line style="stroke:#181818;stroke-width:1.0;stroke-dasharray:2.0,2.0;" x1="664.5" x2="888.5" y1="647.0469" y2="647.0469"/><text fill="#000000" font-family="sans-serif" font-size="13" font-weight="bold" lengthAdjust="spacing" textLength="22" x="681.5" y="642.1904">[10]</text><text fill="#000000" font-family="sans-serif" font-size="13" lengthAdjust="spacing" textLength="114" x="707.5" y="642.1904">HTTP 202 response</text><line style="stroke:#181818;stroke-width:1.0;" x1="889.5" x2="931.5" y1="693.75" y2="693.75"/><line style="stroke:#181818;stroke-width:1.0;" x1="931.5" x2="931.5" y1="693.75" y2="706.75"/><line style="stroke:#181818;stroke-width:1.0;" x1="890.5" x2="931.5" y1="706.75" y2="706.75"/><polygon fill="#181818" points="900.5,702.75,890.5,706.75,900.5,710.75,896.5,706.75" style="stroke:#181818;stroke-width:1.0;"/><text fill="#000000" font-family="sans-serif" font-size="13" font-weight="bold" lengthAdjust="spacing" textLength="22" x="896.5" y="680.7178">[11]</text><text fill="#000000" font-family="sans-serif" font-size="13" lengthAdjust="spacing" textLength="127" x="922.5" y="672.542">Pass on quote to FXP</text><text fill="#000000" font-family="sans-serif" font-size="13" lengthAdjust="spacing" textLength="31" x="926.5" y="688.8936">using</text><text fill="#000000" font-family="sans-serif" font-size="13" font-weight="bold" lengthAdjust="spacing" textLength="36" x="961.5" y="688.8936">POST</text><text fill="#000000" font-family="sans-serif" font-size="13" lengthAdjust="spacing" textLength="53" x="1001.5" y="688.8936">/fxquotes</text><line style="stroke:#181818;stroke-width:1.0;" x1="665.5" x2="675.5" y1="737.1016" y2="733.1016"/><line style="stroke:#181818;stroke-width:1.0;" x1="665.5" x2="675.5" y1="737.1016" y2="741.1016"/><line style="stroke:#181818;stroke-width:1.0;" x1="664.5" x2="888.5" y1="737.1016" y2="737.1016"/><text fill="#000000" font-family="sans-serif" font-size="13" font-weight="bold" lengthAdjust="spacing" textLength="22" x="681.5" y="732.2451">[12]</text><text fill="#000000" font-family="sans-serif" font-size="13" font-weight="bold" lengthAdjust="spacing" textLength="26" x="707.5" y="732.2451">PUT</text><text fill="#000000" font-family="sans-serif" font-size="13" lengthAdjust="spacing" textLength="75" x="737.5" y="732.2451">/fxquotes/{Id}</text><line style="stroke:#181818;stroke-width:1.0;" x1="887.5" x2="877.5" y1="767.4531" y2="763.4531"/><line style="stroke:#181818;stroke-width:1.0;" x1="887.5" x2="877.5" y1="767.4531" y2="771.4531"/><line style="stroke:#181818;stroke-width:1.0;stroke-dasharray:2.0,2.0;" x1="664.5" x2="888.5" y1="767.4531" y2="767.4531"/><text fill="#000000" font-family="sans-serif" font-size="13" font-weight="bold" lengthAdjust="spacing" textLength="22" x="671.5" y="762.5967">[13]</text><text fill="#000000" font-family="sans-serif" font-size="13" lengthAdjust="spacing" textLength="119" x="697.5" y="762.5967">HTTP 200 Response</text><polygon fill="#181818" points="391.5,826.5078,381.5,830.5078,391.5,834.5078,387.5,830.5078" style="stroke:#181818;stroke-width:1.0;"/><line style="stroke:#181818;stroke-width:1.0;stroke-dasharray:2.0,2.0;" x1="385.5" x2="663.5" y1="830.5078" y2="830.5078"/><text fill="#000000" font-family="sans-serif" font-size="13" font-weight="bold" lengthAdjust="spacing" textLength="22" x="397.5" y="809.2998">[14]</text><text fill="#000000" font-family="sans-serif" font-size="13" lengthAdjust="spacing" textLength="58" x="423.5" y="792.9482">Response</text><text fill="#000000" font-family="sans-serif" font-size="13" lengthAdjust="spacing" textLength="142" x="423.5" y="809.2998">Do you accept this rate?</text><text fill="#000000" font-family="sans-serif" font-size="13" lengthAdjust="spacing" textLength="128" x="427.5" y="825.6514">It expires in 5 minutes</text><line style="stroke:#181818;stroke-width:1.0;" x1="380.5" x2="422.5" y1="890.0625" y2="890.0625"/><line style="stroke:#181818;stroke-width:1.0;" x1="422.5" x2="422.5" y1="890.0625" y2="903.0625"/><line style="stroke:#181818;stroke-width:1.0;" x1="381.5" x2="422.5" y1="903.0625" y2="903.0625"/><polygon fill="#181818" points="391.5,899.0625,381.5,903.0625,391.5,907.0625,387.5,903.0625" style="stroke:#181818;stroke-width:1.0;"/><text fill="#000000" font-family="sans-serif" font-size="13" font-weight="bold" lengthAdjust="spacing" textLength="22" x="387.5" y="877.0303">[15]</text><text fill="#000000" font-family="sans-serif" font-size="13" lengthAdjust="spacing" textLength="176" x="413.5" y="868.8545">Check that the conversion rate</text><text fill="#000000" font-family="sans-serif" font-size="13" lengthAdjust="spacing" textLength="147" x="413.5" y="885.2061">and terms are acceptable</text><path d="M151,843.5078 L151,918.5078 L365,918.5078 L365,853.5078 L355,843.5078 L151,843.5078 " fill="#FEFFDD" style="stroke:#181818;stroke-width:0.5;"/><path d="M355,843.5078 L355,853.5078 L365,853.5078 L355,843.5078 " fill="#FEFFDD" style="stroke:#181818;stroke-width:0.5;"/><text fill="#000000" font-family="sans-serif" font-size="13" font-weight="bold" lengthAdjust="spacing" textLength="57" x="157" y="862.0029">Validate:</text><text fill="#000000" font-family="sans-serif" font-size="13" lengthAdjust="spacing" textLength="189" x="161" y="878.3545">--&gt; transfer amount and currency</text><text fill="#000000" font-family="sans-serif" font-size="13" lengthAdjust="spacing" textLength="107" x="161" y="894.7061">--&gt; conversion rate</text><text fill="#000000" font-family="sans-serif" font-size="13" lengthAdjust="spacing" textLength="44" x="161" y="911.0576">--&gt; FXP</text><polygon fill="#181818" points="652.5,942.2656,662.5,946.2656,652.5,950.2656,656.5,946.2656" style="stroke:#181818;stroke-width:1.0;"/><line style="stroke:#181818;stroke-width:1.0;" x1="380.5" x2="658.5" y1="946.2656" y2="946.2656"/><text fill="#000000" font-family="sans-serif" font-size="13" font-weight="bold" lengthAdjust="spacing" textLength="22" x="387.5" y="941.4092">[16]</text><text fill="#000000" font-family="sans-serif" font-size="13" font-weight="bold" lengthAdjust="spacing" textLength="26" x="413.5" y="941.4092">PUT</text><text fill="#000000" font-family="sans-serif" font-size="13" lengthAdjust="spacing" textLength="171" x="443.5" y="941.4092">/transfers {"acceptConverion":</text><text fill="#000000" font-family="sans-serif" font-size="13" font-weight="bold" lengthAdjust="spacing" textLength="25" x="618.5" y="941.4092">true</text><text fill="#000000" font-family="sans-serif" font-size="13" lengthAdjust="spacing" textLength="4" x="643.5" y="941.4092">}</text><line style="stroke:#181818;stroke-width:1.0;" x1="887.5" x2="877.5" y1="976.6172" y2="972.6172"/><line style="stroke:#181818;stroke-width:1.0;" x1="887.5" x2="877.5" y1="976.6172" y2="980.6172"/><line style="stroke:#181818;stroke-width:1.0;" x1="664.5" x2="888.5" y1="976.6172" y2="976.6172"/><text fill="#000000" font-family="sans-serif" font-size="13" font-weight="bold" lengthAdjust="spacing" textLength="22" x="671.5" y="971.7607">[17]</text><text fill="#000000" font-family="sans-serif" font-size="13" font-weight="bold" lengthAdjust="spacing" textLength="36" x="697.5" y="971.7607">POST</text><text fill="#000000" font-family="sans-serif" font-size="13" lengthAdjust="spacing" textLength="43" x="737.5" y="971.7607">/quotes</text><line style="stroke:#181818;stroke-width:1.0;" x1="665.5" x2="675.5" y1="1006.9688" y2="1002.9688"/><line style="stroke:#181818;stroke-width:1.0;" x1="665.5" x2="675.5" y1="1006.9688" y2="1010.9688"/><line style="stroke:#181818;stroke-width:1.0;stroke-dasharray:2.0,2.0;" x1="664.5" x2="888.5" y1="1006.9688" y2="1006.9688"/><text fill="#000000" font-family="sans-serif" font-size="13" font-weight="bold" lengthAdjust="spacing" textLength="22" x="681.5" y="1002.1123">[18]</text><text fill="#000000" font-family="sans-serif" font-size="13" lengthAdjust="spacing" textLength="114" x="707.5" y="1002.1123">HTTP 202 response</text><line style="stroke:#181818;stroke-width:1.0;" x1="889.5" x2="931.5" y1="1070.0234" y2="1070.0234"/><line style="stroke:#181818;stroke-width:1.0;" x1="931.5" x2="931.5" y1="1070.0234" y2="1083.0234"/><line style="stroke:#181818;stroke-width:1.0;" x1="890.5" x2="931.5" y1="1083.0234" y2="1083.0234"/><polygon fill="#181818" points="900.5,1079.0234,890.5,1083.0234,900.5,1087.0234,896.5,1083.0234" style="stroke:#181818;stroke-width:1.0;"/><text fill="#000000" font-family="sans-serif" font-size="13" font-weight="bold" lengthAdjust="spacing" textLength="22" x="896.5" y="1048.8154">[19]</text><text fill="#000000" font-family="sans-serif" font-size="13" lengthAdjust="spacing" textLength="99" x="922.5" y="1032.4639">Pass on quote to</text><text fill="#000000" font-family="sans-serif" font-size="13" lengthAdjust="spacing" textLength="111" x="922.5" y="1048.8154">Payee DFSP using</text><text fill="#000000" font-family="sans-serif" font-size="13" font-weight="bold" lengthAdjust="spacing" textLength="36" x="922.5" y="1065.167">POST</text><text fill="#000000" font-family="sans-serif" font-size="13" lengthAdjust="spacing" textLength="43" x="962.5" y="1065.167">/quotes</text><line style="stroke:#181818;stroke-width:1.0;" x1="665.5" x2="675.5" y1="1113.375" y2="1109.375"/><line style="stroke:#181818;stroke-width:1.0;" x1="665.5" x2="675.5" y1="1113.375" y2="1117.375"/><line style="stroke:#181818;stroke-width:1.0;" x1="664.5" x2="888.5" y1="1113.375" y2="1113.375"/><text fill="#000000" font-family="sans-serif" font-size="13" font-weight="bold" lengthAdjust="spacing" textLength="22" x="681.5" y="1108.5186">[20]</text><text fill="#000000" font-family="sans-serif" font-size="13" font-weight="bold" lengthAdjust="spacing" textLength="26" x="707.5" y="1108.5186">PUT</text><text fill="#000000" font-family="sans-serif" font-size="13" lengthAdjust="spacing" textLength="65" x="737.5" y="1108.5186">/quotes/{Id}</text><line style="stroke:#181818;stroke-width:1.0;" x1="887.5" x2="877.5" y1="1143.7266" y2="1139.7266"/><line style="stroke:#181818;stroke-width:1.0;" x1="887.5" x2="877.5" y1="1143.7266" y2="1147.7266"/><line style="stroke:#181818;stroke-width:1.0;stroke-dasharray:2.0,2.0;" x1="664.5" x2="888.5" y1="1143.7266" y2="1143.7266"/><text fill="#000000" font-family="sans-serif" font-size="13" font-weight="bold" lengthAdjust="spacing" textLength="22" x="671.5" y="1138.8701">[21]</text><text fill="#000000" font-family="sans-serif" font-size="13" lengthAdjust="spacing" textLength="119" x="697.5" y="1138.8701">HTTP 200 Response</text><polygon fill="#181818" points="391.5,1170.0781,381.5,1174.0781,391.5,1178.0781,387.5,1174.0781" style="stroke:#181818;stroke-width:1.0;"/><line style="stroke:#181818;stroke-width:1.0;stroke-dasharray:2.0,2.0;" x1="385.5" x2="663.5" y1="1174.0781" y2="1174.0781"/><text fill="#000000" font-family="sans-serif" font-size="13" font-weight="bold" lengthAdjust="spacing" textLength="22" x="397.5" y="1169.2217">[22]</text><text fill="#000000" font-family="sans-serif" font-size="13" lengthAdjust="spacing" textLength="58" x="423.5" y="1169.2217">Response</text><line style="stroke:#181818;stroke-width:1.0;stroke-dasharray:2.0,2.0;" x1="380.5" x2="422.5" y1="1241.8086" y2="1241.8086"/><line style="stroke:#181818;stroke-width:1.0;stroke-dasharray:2.0,2.0;" x1="422.5" x2="422.5" y1="1241.8086" y2="1254.8086"/><line style="stroke:#181818;stroke-width:1.0;stroke-dasharray:2.0,2.0;" x1="381.5" x2="422.5" y1="1254.8086" y2="1254.8086"/><polygon fill="#181818" points="391.5,1250.8086,381.5,1254.8086,391.5,1258.8086,387.5,1254.8086" style="stroke:#181818;stroke-width:1.0;"/><text fill="#000000" font-family="sans-serif" font-size="13" font-weight="bold" lengthAdjust="spacing" textLength="22" x="387.5" y="1228.7764">[23]</text><text fill="#000000" font-family="sans-serif" font-size="13" lengthAdjust="spacing" textLength="158" x="413.5" y="1220.6006">Check that the terms of the</text><text fill="#000000" font-family="sans-serif" font-size="13" lengthAdjust="spacing" textLength="179" x="417.5" y="1236.9521">transfer align with expectations</text><path d="M125,1187.0781 L125,1278.0781 L365,1278.0781 L365,1197.0781 L355,1187.0781 L125,1187.0781 " fill="#FEFFDD" style="stroke:#181818;stroke-width:0.5;"/><path d="M355,1187.0781 L355,1197.0781 L365,1197.0781 L355,1187.0781 " fill="#FEFFDD" style="stroke:#181818;stroke-width:0.5;"/><text fill="#000000" font-family="sans-serif" font-size="13" font-weight="bold" lengthAdjust="spacing" textLength="57" x="131" y="1205.5732">Validate:</text><text fill="#000000" font-family="sans-serif" font-size="13" lengthAdjust="spacing" textLength="189" x="135" y="1221.9248">--&gt; transfer amount and currency</text><text fill="#000000" font-family="sans-serif" font-size="13" lengthAdjust="spacing" textLength="44" x="135" y="1238.2764">--&gt; fees</text><text fill="#000000" font-family="sans-serif" font-size="13" lengthAdjust="spacing" textLength="94" x="135" y="1254.6279">--&gt; payee DFSP</text><text fill="#000000" font-family="sans-serif" font-size="13" lengthAdjust="spacing" textLength="215" x="135" y="1270.9795">--&gt; regulatory requirements for Payee</text><polygon fill="#181818" points="173.5,1302.1875,163.5,1306.1875,173.5,1310.1875,169.5,1306.1875" style="stroke:#181818;stroke-width:1.0;"/><line style="stroke:#181818;stroke-width:1.0;stroke-dasharray:2.0,2.0;" x1="167.5" x2="374.5" y1="1306.1875" y2="1306.1875"/><text fill="#000000" font-family="sans-serif" font-size="13" font-weight="bold" lengthAdjust="spacing" textLength="22" x="179.5" y="1301.3311">[24]</text><text fill="#000000" font-family="sans-serif" font-size="13" lengthAdjust="spacing" textLength="58" x="205.5" y="1301.3311">Response</text><line style="stroke:#181818;stroke-width:1.0;" x1="162.5" x2="204.5" y1="1352.8906" y2="1352.8906"/><line style="stroke:#181818;stroke-width:1.0;" x1="204.5" x2="204.5" y1="1352.8906" y2="1365.8906"/><line style="stroke:#181818;stroke-width:1.0;" x1="163.5" x2="204.5" y1="1365.8906" y2="1365.8906"/><polygon fill="#181818" points="173.5,1361.8906,163.5,1365.8906,173.5,1369.8906,169.5,1365.8906" style="stroke:#181818;stroke-width:1.0;"/><text fill="#000000" font-family="sans-serif" font-size="13" font-weight="bold" lengthAdjust="spacing" textLength="22" x="169.5" y="1339.8584">[25]</text><text fill="#000000" font-family="sans-serif" font-size="13" lengthAdjust="spacing" textLength="173" x="195.5" y="1331.6826">Obtain consent from Payer on</text><text fill="#000000" font-family="sans-serif" font-size="13" lengthAdjust="spacing" textLength="119" x="199.5" y="1348.0342">Fees and Payee Info</text><path d="M5,1322.6875 L5,1364.6875 L158,1364.6875 L158,1332.6875 L148,1322.6875 L5,1322.6875 " fill="#FEFFDD" style="stroke:#181818;stroke-width:0.5;"/><path d="M148,1322.6875 L148,1332.6875 L158,1332.6875 L148,1322.6875 " fill="#FEFFDD" style="stroke:#181818;stroke-width:0.5;"/><text fill="#000000" font-family="sans-serif" font-size="13" lengthAdjust="spacing" textLength="126" x="11" y="1341.1826">Obtain Payer consent</text><text fill="#000000" font-family="sans-serif" font-size="13" lengthAdjust="spacing" textLength="132" x="11" y="1357.5342">on fees and Payee info</text><!--SRC=[hLNlRzis4Fskl-BWVkXcr74QO5-2rOCZ9vsnUd4ZfLZH30KjdspD4gcIL1iXoF- -H_smPTT1Msms84ZatV7klNV7uVE- -tc3lPzNBVQV3ptFR1AP2oqomjCcKP8BQUc1FA8h9QslKgNfopgnx3rYhMlKyvLckX0I8LOKgBImYP8z4eRyYu2UJOJUlDRCqbkeU-eHqLoKh6bo5Spl9DupHfIPa2lMFNhs9bcjRM2PqukquADd-KfAZgpIzI4-rOSSiv-fVqIgL7xWC_Dhbp_MOfDuB9U4tBoZdfLzy2MnqRhskU6bvud2Abba2zJn4l_UhulHXzE_UvudbMLAERR82ybCOy8AYLIpM9PaYZnNsZBEAnqwBnp0TfqO6i-dP1Kjc9OS9xAs24fZEQEfjBpI0icVm9neG8cCqcB954Hhpk0Yh23Dduf4iqFJD6OYJLQIaFiQzMTi11M6AH9uq46acfCRNXMfEwZS3-SGSfLvo7amylrpwlVdrq7OxzFGO7Ec99S4M2ARV1P0mFSxdFZ-O3JRyx5QI1EpDdGdVnhVXjSVnxv_EGy_piStuNjw1LEh2-xtNy2Wk__szZgy32g3MAG65Z_l8FUctrCCIgwAVtb2RmldolUMfO5cg-Mp4mgRxBexMmHcA6PKwy5LzFgoAgYI3flXGrZc_3Xyc4xm28h5TFderSO3k3aGVW_3EPsTdY4daojfkDtV1fsmPPr10rKTt3GAg7FzfRI8qgzztYYrAVB6OIfZfJFXsX1-iLRPiKY7kMzZjbpTVhCoOD41ewdi5C0tbUbTDynSDuoZY7EBPBGjyVadG-P-eJNBg7GT-XcAGD8ER7qCx5O-yVqdnvpvOMZdmXW2dPMxwxUhlxg0F1N_099s6s1y1mZLlckPTWMIdYWgLK6YngCQ0EXl_WrRDBNGNGwrLahzXQ24mkNYkiY5yTSSRU0Zd2EwUGjR5G8H1AJg56H8O5ZMPuW5HBDh548nxp0TC3Zu7FU26mM34RLjII9J1OQWYnGr_BGs1-Urom1osoCOBfsMlpte-8TUdLBDjxigphVj_lWKu_yNtzM5qtH2G_kTVEgO0zh_4-aEaQFyrKofkFe0_JiETiCRUi3TLJMqwR1umE6t6NGMCKDOzMk-XQB-rayCJ4oJUe1qxe6gcekWK-2IEzE_kIYSmVN22WWvSaR8Q3kED5NZwShbuzBSpQuzeJRkjKSR1EjWDTvtJPphDiD_0G00]--></g></svg>