<?xml version="1.0" encoding="us-ascii" standalone="no"?><svg xmlns="http://www.w3.org/2000/svg" xmlns:xlink="http://www.w3.org/1999/xlink" contentStyleType="text/css" height="1212px" preserveAspectRatio="none" style="width:1003px;height:1212px;background:#FFFFFF;" version="1.1" viewBox="0 0 1003 1212" width="1003px" zoomAndPan="magnify"><defs/><g><rect fill="#B0C4DE" height="1200.4141" style="stroke:#181818;stroke-width:0.5;" width="274" x="431" y="6"/><text fill="#000000" font-family="sans-serif" font-size="13" font-weight="bold" lengthAdjust="spacing" textLength="76" x="526" y="19.4951">Payer DFSP</text><text fill="#000000" font-family="sans-serif" font-size="13" font-weight="bold" lengthAdjust="spacing" textLength="108" x="514" y="35.8467">Payment Manger</text><rect fill="#00008B" height="882.207" style="stroke:#181818;stroke-width:1.0;" width="10" x="487.5" y="270.5977"/><rect fill="none" height="61.7031" style="stroke:#000000;stroke-width:1.5;" width="338" x="64" y="152.0156"/><rect fill="none" height="54.7031" style="stroke:#000000;stroke-width:1.5;" width="496" x="64" y="313.125"/><rect fill="none" height="106.8906" style="stroke:#000000;stroke-width:1.5;" width="512" x="48" y="1016.5625"/><line style="stroke:#181818;stroke-width:0.5;stroke-dasharray:5.0,5.0;" x1="283" x2="283" y1="75.3125" y2="1170.8047"/><line style="stroke:#181818;stroke-width:0.5;stroke-dasharray:5.0,5.0;" x1="492" x2="492" y1="75.3125" y2="1170.8047"/><line style="stroke:#181818;stroke-width:0.5;stroke-dasharray:5.0,5.0;" x1="630" x2="630" y1="75.3125" y2="1170.8047"/><line style="stroke:#181818;stroke-width:0.5;stroke-dasharray:5.0,5.0;" x1="799" x2="799" y1="75.3125" y2="1170.8047"/><rect fill="#006400" height="31.6094" rx="2.5" ry="2.5" style="stroke:#181818;stroke-width:0.5;" width="155" x="206" y="42.7031"/><text fill="#FFFFFF" font-family="sans-serif" font-size="14" lengthAdjust="spacing" textLength="141" x="213" y="64.2363">Core Banking Solution</text><rect fill="#006400" height="31.6094" rx="2.5" ry="2.5" style="stroke:#181818;stroke-width:0.5;" width="155" x="206" y="1169.8047"/><text fill="#FFFFFF" font-family="sans-serif" font-size="14" lengthAdjust="spacing" textLength="141" x="213" y="1191.3379">Core Banking Solution</text><rect fill="#00008B" height="31.6094" rx="2.5" ry="2.5" style="stroke:#181818;stroke-width:0.5;" width="115" x="435" y="42.7031"/><text fill="#FFFFFF" font-family="sans-serif" font-size="14" lengthAdjust="spacing" textLength="101" x="442" y="64.2363">Core Connector</text><rect fill="#00008B" height="31.6094" rx="2.5" ry="2.5" style="stroke:#181818;stroke-width:0.5;" width="115" x="435" y="1169.8047"/><text fill="#FFFFFF" font-family="sans-serif" font-size="14" lengthAdjust="spacing" textLength="101" x="442" y="1191.3379">Core Connector</text><rect fill="#BDB76B" height="31.6094" rx="2.5" ry="2.5" style="stroke:#181818;stroke-width:0.5;" width="141" x="560" y="42.7031"/><text fill="#FFFFFF" font-family="sans-serif" font-size="14" lengthAdjust="spacing" textLength="127" x="567" y="64.2363">Mojaloop Connector</text><rect fill="#BDB76B" height="31.6094" rx="2.5" ry="2.5" style="stroke:#181818;stroke-width:0.5;" width="141" x="560" y="1169.8047"/><text fill="#FFFFFF" font-family="sans-serif" font-size="14" lengthAdjust="spacing" textLength="127" x="567" y="1191.3379">Mojaloop Connector</text><rect fill="#8B0000" height="31.6094" rx="2.5" ry="2.5" style="stroke:#181818;stroke-width:0.5;" width="71" x="764" y="42.7031"/><text fill="#FFFFFF" font-family="sans-serif" font-size="14" lengthAdjust="spacing" textLength="57" x="771" y="64.2363">Mojaloop</text><rect fill="#8B0000" height="31.6094" rx="2.5" ry="2.5" style="stroke:#181818;stroke-width:0.5;" width="71" x="764" y="1169.8047"/><text fill="#FFFFFF" font-family="sans-serif" font-size="14" lengthAdjust="spacing" textLength="57" x="771" y="1191.3379">Mojaloop</text><rect fill="#00008B" height="882.207" style="stroke:#181818;stroke-width:1.0;" width="10" x="487.5" y="270.5977"/><line style="stroke:#181818;stroke-width:1.0;" x1="283.5" x2="325.5" y1="124.0156" y2="124.0156"/><line style="stroke:#181818;stroke-width:1.0;" x1="325.5" x2="325.5" y1="124.0156" y2="137.0156"/><line style="stroke:#181818;stroke-width:1.0;" x1="284.5" x2="325.5" y1="137.0156" y2="137.0156"/><polygon fill="#181818" points="294.5,133.0156,284.5,137.0156,294.5,141.0156,290.5,137.0156" style="stroke:#181818;stroke-width:1.0;"/><text fill="#000000" font-family="sans-serif" font-size="13" font-weight="bold" lengthAdjust="spacing" textLength="15" x="290.5" y="110.9834">[1]</text><text fill="#000000" font-family="sans-serif" font-size="13" lengthAdjust="spacing" textLength="155" x="309.5" y="102.8076">Obtain consent from Payer</text><text fill="#000000" font-family="sans-serif" font-size="13" lengthAdjust="spacing" textLength="137" x="313.5" y="119.1592">on Fees and Payee Info</text><path d="M125,93.8125 L125,135.8125 L278,135.8125 L278,103.8125 L268,93.8125 L125,93.8125 " fill="#FEFFDD" style="stroke:#181818;stroke-width:0.5;"/><path d="M268,93.8125 L268,103.8125 L278,103.8125 L268,93.8125 " fill="#FEFFDD" style="stroke:#181818;stroke-width:0.5;"/><text fill="#000000" font-family="sans-serif" font-size="13" lengthAdjust="spacing" textLength="126" x="131" y="112.3076">Obtain Payer consent</text><text fill="#000000" font-family="sans-serif" font-size="13" lengthAdjust="spacing" textLength="132" x="131" y="128.6592">on fees and Payee info</text><path d="M64,152.0156 L125,152.0156 L125,160.3672 L115,170.3672 L64,170.3672 L64,152.0156 " fill="#EEEEEE" style="stroke:#000000;stroke-width:1.5;"/><rect fill="none" height="61.7031" style="stroke:#000000;stroke-width:1.5;" width="338" x="64" y="152.0156"/><text fill="#000000" font-family="sans-serif" font-size="13" font-weight="bold" lengthAdjust="spacing" textLength="16" x="79" y="166.5107">alt</text><text fill="#000000" font-family="sans-serif" font-size="11" font-weight="bold" lengthAdjust="spacing" textLength="226" x="140" y="165.4346">[Option to reserve funds prior to API call]</text><line style="stroke:#181818;stroke-width:1.0;" x1="283.5" x2="325.5" y1="192.7188" y2="192.7188"/><line style="stroke:#181818;stroke-width:1.0;" x1="325.5" x2="325.5" y1="192.7188" y2="205.7188"/><line style="stroke:#181818;stroke-width:1.0;" x1="284.5" x2="325.5" y1="205.7188" y2="205.7188"/><polygon fill="#181818" points="294.5,201.7188,284.5,205.7188,294.5,209.7188,290.5,205.7188" style="stroke:#181818;stroke-width:1.0;"/><text fill="#000000" font-family="sans-serif" font-size="13" font-weight="bold" lengthAdjust="spacing" textLength="15" x="290.5" y="187.8623">[2]</text><text fill="#000000" font-family="sans-serif" font-size="13" lengthAdjust="spacing" textLength="81" x="309.5" y="187.8623">Reserve funds</text><path d="M74,178.8672 L74,204.8672 L278,204.8672 L278,188.8672 L268,178.8672 L74,178.8672 " fill="#FEFFDD" style="stroke:#181818;stroke-width:0.5;"/><path d="M268,178.8672 L268,188.8672 L278,188.8672 L268,178.8672 " fill="#FEFFDD" style="stroke:#181818;stroke-width:0.5;"/><text fill="#000000" font-family="sans-serif" font-size="13" lengthAdjust="spacing" textLength="183" x="80" y="197.3623">Reserve funds in Payer account</text><polygon fill="#181818" points="475.5,266.5977,485.5,270.5977,475.5,274.5977,479.5,270.5977" style="stroke:#181818;stroke-width:1.0;"/><line style="stroke:#181818;stroke-width:1.0;" x1="283.5" x2="481.5" y1="270.5977" y2="270.5977"/><text fill="#000000" font-family="sans-serif" font-size="13" font-weight="bold" lengthAdjust="spacing" textLength="15" x="290.5" y="265.7412">[3]</text><text fill="#000000" font-family="sans-serif" font-size="13" font-weight="bold" lengthAdjust="spacing" textLength="26" x="309.5" y="265.7412">PUT</text><text fill="#000000" font-family="sans-serif" font-size="13" lengthAdjust="spacing" textLength="136" x="339.5" y="265.7412">/sendmoney/{transferId}</text><path d="M5,225.7188 L5,300.7188 L279,300.7188 L279,235.7188 L269,225.7188 L5,225.7188 " fill="#FEFFDD" style="stroke:#181818;stroke-width:0.5;"/><path d="M269,225.7188 L269,235.7188 L279,235.7188 L269,225.7188 " fill="#FEFFDD" style="stroke:#181818;stroke-width:0.5;"/><text fill="#000000" font-family="sans-serif" font-size="13" lengthAdjust="spacing" textLength="188" x="11" y="244.2139">If not already supported by CBS,</text><text fill="#000000" font-family="sans-serif" font-size="13" lengthAdjust="spacing" textLength="253" x="11" y="260.5654">this API to be defined by System Integrator.</text><text fill="#000000" font-family="sans-serif" font-size="13" lengthAdjust="spacing" textLength="188" x="19" y="276.917">- need a reference to the transfer</text><text fill="#000000" font-family="sans-serif" font-size="13" lengthAdjust="spacing" textLength="144" x="19" y="293.2686">- and consent from payer</text><path d="M64,313.125 L125,313.125 L125,321.4766 L115,331.4766 L64,331.4766 L64,313.125 " fill="#EEEEEE" style="stroke:#000000;stroke-width:1.5;"/><rect fill="none" height="54.7031" style="stroke:#000000;stroke-width:1.5;" width="496" x="64" y="313.125"/><text fill="#000000" font-family="sans-serif" font-size="13" font-weight="bold" lengthAdjust="spacing" textLength="16" x="79" y="327.6201">alt</text><text fill="#000000" font-family="sans-serif" font-size="11" font-weight="bold" lengthAdjust="spacing" textLength="233" x="140" y="326.5439">[Option to reserve funds from integration]</text><polygon fill="#181818" points="294.5,352.8281,284.5,356.8281,294.5,360.8281,290.5,356.8281" style="stroke:#181818;stroke-width:1.0;"/><line style="stroke:#181818;stroke-width:1.0;" x1="288.5" x2="486.5" y1="356.8281" y2="356.8281"/><text fill="#000000" font-family="sans-serif" font-size="13" font-weight="bold" lengthAdjust="spacing" textLength="15" x="300.5" y="351.9717">[4]</text><text fill="#000000" font-family="sans-serif" font-size="13" lengthAdjust="spacing" textLength="81" x="319.5" y="351.9717">Reserve funds</text><path d="M74,336.4766 L74,362.4766 L278,362.4766 L278,346.4766 L268,336.4766 L74,336.4766 " fill="#FEFFDD" style="stroke:#181818;stroke-width:0.5;"/><path d="M268,336.4766 L268,346.4766 L278,346.4766 L268,336.4766 " fill="#FEFFDD" style="stroke:#181818;stroke-width:0.5;"/><text fill="#000000" font-family="sans-serif" font-size="13" lengthAdjust="spacing" textLength="183" x="80" y="354.9717">Reserve funds in Payer account</text><polygon fill="#181818" points="618.5,393.1797,628.5,397.1797,618.5,401.1797,622.5,397.1797" style="stroke:#181818;stroke-width:1.0;"/><line style="stroke:#181818;stroke-width:1.0;" x1="497.5" x2="624.5" y1="397.1797" y2="397.1797"/><text fill="#000000" font-family="sans-serif" font-size="13" font-weight="bold" lengthAdjust="spacing" textLength="15" x="504.5" y="392.3232">[5]</text><text fill="#000000" font-family="sans-serif" font-size="13" font-weight="bold" lengthAdjust="spacing" textLength="26" x="523.5" y="392.3232">PUT</text><text fill="#000000" font-family="sans-serif" font-size="13" lengthAdjust="spacing" textLength="54" x="553.5" y="392.3232">/transfers</text><polygon fill="#181818" points="787.5,423.5313,797.5,427.5313,787.5,431.5313,791.5,427.5313" style="stroke:#181818;stroke-width:1.0;"/><line style="stroke:#181818;stroke-width:1.0;" x1="630.5" x2="793.5" y1="427.5313" y2="427.5313"/><text fill="#000000" font-family="sans-serif" font-size="13" font-weight="bold" lengthAdjust="spacing" textLength="15" x="637.5" y="422.6748">[6]</text><text fill="#000000" font-family="sans-serif" font-size="13" font-weight="bold" lengthAdjust="spacing" textLength="36" x="656.5" y="422.6748">POST</text><text fill="#000000" font-family="sans-serif" font-size="13" lengthAdjust="spacing" textLength="64" x="696.5" y="422.6748">/fxtransfers</text><polygon fill="#181818" points="641.5,453.8828,631.5,457.8828,641.5,461.8828,637.5,457.8828" style="stroke:#181818;stroke-width:1.0;"/><line style="stroke:#181818;stroke-width:1.0;stroke-dasharray:2.0,2.0;" x1="635.5" x2="798.5" y1="457.8828" y2="457.8828"/><text fill="#000000" font-family="sans-serif" font-size="13" font-weight="bold" lengthAdjust="spacing" textLength="15" x="647.5" y="453.0264">[7]</text><text fill="#000000" font-family="sans-serif" font-size="13" lengthAdjust="spacing" textLength="114" x="666.5" y="453.0264">HTTP 202 response</text><line style="stroke:#181818;stroke-width:1.0;" x1="799.5" x2="841.5" y1="504.5859" y2="504.5859"/><line style="stroke:#181818;stroke-width:1.0;" x1="841.5" x2="841.5" y1="504.5859" y2="517.5859"/><line style="stroke:#181818;stroke-width:1.0;" x1="800.5" x2="841.5" y1="517.5859" y2="517.5859"/><polygon fill="#181818" points="810.5,513.5859,800.5,517.5859,810.5,521.5859,806.5,517.5859" style="stroke:#181818;stroke-width:1.0;"/><text fill="#000000" font-family="sans-serif" font-size="13" font-weight="bold" lengthAdjust="spacing" textLength="15" x="806.5" y="491.5537">[8]</text><text fill="#000000" font-family="sans-serif" font-size="13" lengthAdjust="spacing" textLength="123" x="825.5" y="483.3779">Reserve Payer DFSP</text><text fill="#000000" font-family="sans-serif" font-size="13" lengthAdjust="spacing" textLength="142" x="825.5" y="499.7295">funds in source currency</text><line style="stroke:#181818;stroke-width:1.0;" x1="799.5" x2="841.5" y1="580.6406" y2="580.6406"/><line style="stroke:#181818;stroke-width:1.0;" x1="841.5" x2="841.5" y1="580.6406" y2="593.6406"/><line style="stroke:#181818;stroke-width:1.0;" x1="800.5" x2="841.5" y1="593.6406" y2="593.6406"/><polygon fill="#181818" points="810.5,589.6406,800.5,593.6406,810.5,597.6406,806.5,593.6406" style="stroke:#181818;stroke-width:1.0;"/><text fill="#000000" font-family="sans-serif" font-size="13" font-weight="bold" lengthAdjust="spacing" textLength="15" x="806.5" y="559.4326">[9]</text><text fill="#000000" font-family="sans-serif" font-size="13" lengthAdjust="spacing" textLength="110" x="825.5" y="543.0811">Pass on transfer to</text><text fill="#000000" font-family="sans-serif" font-size="13" lengthAdjust="spacing" textLength="59" x="825.5" y="559.4326">FXP using</text><text fill="#000000" font-family="sans-serif" font-size="13" font-weight="bold" lengthAdjust="spacing" textLength="36" x="825.5" y="575.7842">POST</text><text fill="#000000" font-family="sans-serif" font-size="13" lengthAdjust="spacing" textLength="64" x="865.5" y="575.7842">/fxtransfers</text><polygon fill="#181818" points="641.5,619.9922,631.5,623.9922,641.5,627.9922,637.5,623.9922" style="stroke:#181818;stroke-width:1.0;"/><line style="stroke:#181818;stroke-width:1.0;" x1="635.5" x2="798.5" y1="623.9922" y2="623.9922"/><text fill="#000000" font-family="sans-serif" font-size="13" font-weight="bold" lengthAdjust="spacing" textLength="22" x="647.5" y="619.1357">[10]</text><text fill="#000000" font-family="sans-serif" font-size="13" font-weight="bold" lengthAdjust="spacing" textLength="26" x="673.5" y="619.1357">PUT</text><text fill="#000000" font-family="sans-serif" font-size="13" lengthAdjust="spacing" textLength="86" x="703.5" y="619.1357">/fxtransfers/{Id}</text><polygon fill="#181818" points="787.5,650.3438,797.5,654.3438,787.5,658.3438,791.5,654.3438" style="stroke:#181818;stroke-width:1.0;"/><line style="stroke:#181818;stroke-width:1.0;stroke-dasharray:2.0,2.0;" x1="630.5" x2="793.5" y1="654.3438" y2="654.3438"/><text fill="#000000" font-family="sans-serif" font-size="13" font-weight="bold" lengthAdjust="spacing" textLength="22" x="637.5" y="649.4873">[11]</text><text fill="#000000" font-family="sans-serif" font-size="13" lengthAdjust="spacing" textLength="119" x="663.5" y="649.4873">HTTP 200 Response</text><polygon fill="#181818" points="787.5,680.6953,797.5,684.6953,787.5,688.6953,791.5,684.6953" style="stroke:#181818;stroke-width:1.0;"/><line style="stroke:#181818;stroke-width:1.0;" x1="630.5" x2="793.5" y1="684.6953" y2="684.6953"/><text fill="#000000" font-family="sans-serif" font-size="13" font-weight="bold" lengthAdjust="spacing" textLength="22" x="637.5" y="679.8389">[12]</text><text fill="#000000" font-family="sans-serif" font-size="13" font-weight="bold" lengthAdjust="spacing" textLength="36" x="663.5" y="679.8389">POST</text><text fill="#000000" font-family="sans-serif" font-size="13" lengthAdjust="spacing" textLength="54" x="703.5" y="679.8389">/transfers</text><polygon fill="#181818" points="641.5,711.0469,631.5,715.0469,641.5,719.0469,637.5,715.0469" style="stroke:#181818;stroke-width:1.0;"/><line style="stroke:#181818;stroke-width:1.0;stroke-dasharray:2.0,2.0;" x1="635.5" x2="798.5" y1="715.0469" y2="715.0469"/><text fill="#000000" font-family="sans-serif" font-size="13" font-weight="bold" lengthAdjust="spacing" textLength="22" x="647.5" y="710.1904">[13]</text><text fill="#000000" font-family="sans-serif" font-size="13" lengthAdjust="spacing" textLength="114" x="673.5" y="710.1904">HTTP 202 response</text><line style="stroke:#181818;stroke-width:1.0;" x1="799.5" x2="841.5" y1="761.75" y2="761.75"/><line style="stroke:#181818;stroke-width:1.0;" x1="841.5" x2="841.5" y1="761.75" y2="774.75"/><line style="stroke:#181818;stroke-width:1.0;" x1="800.5" x2="841.5" y1="774.75" y2="774.75"/><polygon fill="#181818" points="810.5,770.75,800.5,774.75,810.5,778.75,806.5,774.75" style="stroke:#181818;stroke-width:1.0;"/><text fill="#000000" font-family="sans-serif" font-size="13" font-weight="bold" lengthAdjust="spacing" textLength="22" x="806.5" y="748.7178">[14]</text><text fill="#000000" font-family="sans-serif" font-size="13" lengthAdjust="spacing" textLength="109" x="832.5" y="740.542">Reserve FPX funds</text><text fill="#000000" font-family="sans-serif" font-size="13" lengthAdjust="spacing" textLength="101" x="832.5" y="756.8936">in target currency</text><line style="stroke:#181818;stroke-width:1.0;" x1="799.5" x2="841.5" y1="837.8047" y2="837.8047"/><line style="stroke:#181818;stroke-width:1.0;" x1="841.5" x2="841.5" y1="837.8047" y2="850.8047"/><line style="stroke:#181818;stroke-width:1.0;" x1="800.5" x2="841.5" y1="850.8047" y2="850.8047"/><polygon fill="#181818" points="810.5,846.8047,800.5,850.8047,810.5,854.8047,806.5,850.8047" style="stroke:#181818;stroke-width:1.0;"/><text fill="#000000" font-family="sans-serif" font-size="13" font-weight="bold" lengthAdjust="spacing" textLength="22" x="806.5" y="816.5967">[15]</text><text fill="#000000" font-family="sans-serif" font-size="13" lengthAdjust="spacing" textLength="110" x="832.5" y="800.2451">Pass on transfer to</text><text fill="#000000" font-family="sans-serif" font-size="13" lengthAdjust="spacing" textLength="111" x="832.5" y="816.5967">Payee DFSP using</text><text fill="#000000" font-family="sans-serif" font-size="13" lengthAdjust="spacing" textLength="4" x="832.5" y="832.9482">&#160;</text><text fill="#000000" font-family="sans-serif" font-size="13" font-weight="bold" lengthAdjust="spacing" textLength="36" x="836.5" y="832.9482">POST</text><text fill="#000000" font-family="sans-serif" font-size="13" lengthAdjust="spacing" textLength="54" x="876.5" y="832.9482">/transfers</text><line style="stroke:#181818;stroke-width:1.0;" x1="799.5" x2="841.5" y1="897.5078" y2="897.5078"/><line style="stroke:#181818;stroke-width:1.0;" x1="841.5" x2="841.5" y1="897.5078" y2="910.5078"/><line style="stroke:#181818;stroke-width:1.0;" x1="800.5" x2="841.5" y1="910.5078" y2="910.5078"/><polygon fill="#181818" points="810.5,906.5078,800.5,910.5078,810.5,914.5078,806.5,910.5078" style="stroke:#181818;stroke-width:1.0;"/><text fill="#000000" font-family="sans-serif" font-size="13" font-weight="bold" lengthAdjust="spacing" textLength="22" x="806.5" y="884.4756">[16]</text><text fill="#000000" font-family="sans-serif" font-size="13" lengthAdjust="spacing" textLength="126" x="832.5" y="876.2998">Commit Payer DFSP,</text><text fill="#000000" font-family="sans-serif" font-size="13" lengthAdjust="spacing" textLength="164" x="832.5" y="892.6514">FPX and Payee DFSP funds</text><polygon fill="#181818" points="641.5,936.8594,631.5,940.8594,641.5,944.8594,637.5,940.8594" style="stroke:#181818;stroke-width:1.0;"/><line style="stroke:#181818;stroke-width:1.0;" x1="635.5" x2="798.5" y1="940.8594" y2="940.8594"/><text fill="#000000" font-family="sans-serif" font-size="13" font-weight="bold" lengthAdjust="spacing" textLength="22" x="647.5" y="936.0029">[17]</text><text fill="#000000" font-family="sans-serif" font-size="13" font-weight="bold" lengthAdjust="spacing" textLength="26" x="673.5" y="936.0029">PUT</text><text fill="#000000" font-family="sans-serif" font-size="13" lengthAdjust="spacing" textLength="76" x="703.5" y="936.0029">/transfers/{Id}</text><polygon fill="#181818" points="787.5,967.2109,797.5,971.2109,787.5,975.2109,791.5,971.2109" style="stroke:#181818;stroke-width:1.0;"/><line style="stroke:#181818;stroke-width:1.0;stroke-dasharray:2.0,2.0;" x1="630.5" x2="793.5" y1="971.2109" y2="971.2109"/><text fill="#000000" font-family="sans-serif" font-size="13" font-weight="bold" lengthAdjust="spacing" textLength="22" x="637.5" y="966.3545">[18]</text><text fill="#000000" font-family="sans-serif" font-size="13" lengthAdjust="spacing" textLength="119" x="663.5" y="966.3545">HTTP 200 Response</text><polygon fill="#181818" points="508.5,997.5625,498.5,1001.5625,508.5,1005.5625,504.5,1001.5625" style="stroke:#181818;stroke-width:1.0;"/><line style="stroke:#181818;stroke-width:1.0;stroke-dasharray:2.0,2.0;" x1="502.5" x2="629.5" y1="1001.5625" y2="1001.5625"/><text fill="#000000" font-family="sans-serif" font-size="13" font-weight="bold" lengthAdjust="spacing" textLength="22" x="514.5" y="996.7061">[19]</text><text fill="#000000" font-family="sans-serif" font-size="13" lengthAdjust="spacing" textLength="53" x="540.5" y="996.7061">response</text><path d="M48,1016.5625 L109,1016.5625 L109,1024.9141 L99,1034.9141 L48,1034.9141 L48,1016.5625 " fill="#EEEEEE" style="stroke:#000000;stroke-width:1.5;"/><rect fill="none" height="106.8906" style="stroke:#000000;stroke-width:1.5;" width="512" x="48" y="1016.5625"/><text fill="#000000" font-family="sans-serif" font-size="13" font-weight="bold" lengthAdjust="spacing" textLength="16" x="63" y="1031.0576">alt</text><text fill="#000000" font-family="sans-serif" font-size="11" font-weight="bold" lengthAdjust="spacing" textLength="193" x="124" y="1029.9814">[if (transferStatus== 'COMMITTED')]</text><polygon fill="#181818" points="294.5,1056.2656,284.5,1060.2656,294.5,1064.2656,290.5,1060.2656" style="stroke:#181818;stroke-width:1.0;"/><line style="stroke:#181818;stroke-width:1.0;" x1="288.5" x2="486.5" y1="1060.2656" y2="1060.2656"/><text fill="#000000" font-family="sans-serif" font-size="13" font-weight="bold" lengthAdjust="spacing" textLength="22" x="300.5" y="1055.4092">[20]</text><text fill="#000000" font-family="sans-serif" font-size="13" lengthAdjust="spacing" textLength="92" x="326.5" y="1055.4092">Finalise transfer</text><path d="M63,1039.9141 L63,1065.9141 L278,1065.9141 L278,1049.9141 L268,1039.9141 L63,1039.9141 " fill="#FEFFDD" style="stroke:#181818;stroke-width:0.5;"/><path d="M268,1039.9141 L268,1049.9141 L278,1049.9141 L268,1039.9141 " fill="#FEFFDD" style="stroke:#181818;stroke-width:0.5;"/><text fill="#000000" font-family="sans-serif" font-size="13" lengthAdjust="spacing" textLength="194" x="69" y="1058.4092">Finalise transfer in Payer account</text><line style="stroke:#000000;stroke-width:1.0;stroke-dasharray:2.0,2.0;" x1="48" x2="560" y1="1072.2656" y2="1072.2656"/><text fill="#000000" font-family="sans-serif" font-size="11" font-weight="bold" lengthAdjust="spacing" textLength="32" x="53" y="1083.6846">[else]</text><polygon fill="#181818" points="294.5,1108.4531,284.5,1112.4531,294.5,1116.4531,290.5,1112.4531" style="stroke:#181818;stroke-width:1.0;"/><line style="stroke:#181818;stroke-width:1.0;" x1="288.5" x2="486.5" y1="1112.4531" y2="1112.4531"/><text fill="#000000" font-family="sans-serif" font-size="13" font-weight="bold" lengthAdjust="spacing" textLength="22" x="300.5" y="1107.5967">[21]</text><text fill="#000000" font-family="sans-serif" font-size="13" lengthAdjust="spacing" textLength="97" x="326.5" y="1107.5967">Rollback transfer</text><path d="M58,1092.1016 L58,1118.1016 L278,1118.1016 L278,1102.1016 L268,1092.1016 L58,1092.1016 " fill="#FEFFDD" style="stroke:#181818;stroke-width:0.5;"/><path d="M268,1092.1016 L268,1102.1016 L278,1102.1016 L268,1092.1016 " fill="#FEFFDD" style="stroke:#181818;stroke-width:0.5;"/><text fill="#000000" font-family="sans-serif" font-size="13" lengthAdjust="spacing" textLength="199" x="64" y="1110.5967">Rollback transfer in Payer account</text><polygon fill="#181818" points="294.5,1148.8047,284.5,1152.8047,294.5,1156.8047,290.5,1152.8047" style="stroke:#181818;stroke-width:1.0;"/><line style="stroke:#181818;stroke-width:1.0;stroke-dasharray:2.0,2.0;" x1="288.5" x2="491.5" y1="1152.8047" y2="1152.8047"/><text fill="#000000" font-family="sans-serif" font-size="13" font-weight="bold" lengthAdjust="spacing" textLength="22" x="300.5" y="1147.9482">[22]</text><text fill="#000000" font-family="sans-serif" font-size="13" lengthAdjust="spacing" textLength="53" x="326.5" y="1147.9482">response</text><!--SRC=[hLHHRzem47xthpZH1pPKHjV7QgsqfcD36o9gc5HfxC4a5_08vyXssgAg_ttd148oMALg2rA8xBlllk-ximVTddz4l_M8Sh7N7GXXLufoQUGQ-ErKh7993fv000mrkK1dsi33KZaKpxpM3Ee4sY1SIsA81KGwAvpIr05f8RYEuEH6cjLdWqXYhX-X0m2XtA21cs4KpeY_ryWeOqaBD1qu-QOMInSvnEmwA_1ehK0JOUoqgOe4K1Kv5Z_MlsIcTVv7pZYeKhukvKe9f0IOcpYQMSP73yh5oohd5XCXPE4q5UivwtZFlyw7-TMFivyT8LXo_ufV5p2PEwa8OatM2qoDNbVAPmIQO8XeGN9bluOmebGBqWuXmzInZ6rwvTKEXDSvDMsdAf_gDVXq8JC7azot09m6WnRDFK9QK68XDuhRoCiVmn74CiiQT6-RaIqchHseESaurWMvVMN-sEaFBg3N2xzFUpqOCF5ahGatWoTd9DaKpIXvRbKOfHu1P6PG9XkmHPvhuv2xil4pTEfrkwMo9M-cFqT8C5LKHKGRwt3D3ZfS6CajViVX07qWv0397d19f1XzgblotvO6REEybQqsvLvWmzBOgNl9T8EWCMalEbt2g2qZZX11y9zzPhnnq-QTA2l4cFUgYItt9r4Pa3xM8I2gxNw5yMKw3U7yxDnhoBqFk-qQPKTjVt9XHZLFgml3xiQ5yJPl3h93QQsVszftjcj6mxiG2kllZ1aTPLdZj7Gs0WPFVf1OxRxKLigPPrn9-OiR_-x5CBpRjcf6R8AJPe7kjIPK9xWqjFI2xuOZ70_00hrUAzTenwatb0djRuKIingoepw-tiNgNDU- -F5NARpP0KLEki9UNa8tc8p7e-dqqqttxNxkXufafkp-zBLc_s3tfVdFECw_6eTAPzbSnglZu0UxBnykyBXRu5fjWerRu3S0]--></g></svg>