<?xml version="1.0" encoding="us-ascii" standalone="no"?><svg xmlns="http://www.w3.org/2000/svg" xmlns:xlink="http://www.w3.org/1999/xlink" contentStyleType="text/css" height="501px" preserveAspectRatio="none" style="width:1461px;height:501px;background:#FFFFFF;" version="1.1" viewBox="0 0 1461 501" width="1461px" zoomAndPan="magnify"><defs/><g><text fill="#000000" font-family="sans-serif" font-size="14" font-weight="bold" lengthAdjust="spacing" textLength="388" x="532.5" y="28.5352">Cross Currency Payment using Mojaloop FX APIs POC</text><text fill="#000000" font-family="sans-serif" font-size="14" font-weight="bold" lengthAdjust="spacing" textLength="391" x="531" y="45.0234">Payer DFSP requests conversion with RECEIVE amount</text><rect fill="#ADD8E6" height="435.6797" style="stroke:#181818;stroke-width:0.5;" width="425.5" x="304.5" y="59.9766"/><text fill="#000000" font-family="sans-serif" font-size="13" font-weight="bold" lengthAdjust="spacing" textLength="74" x="480.25" y="72.5449">Payer DFSP</text><rect fill="#FFFFE0" height="435.6797" style="stroke:#181818;stroke-width:0.5;" width="124" x="868" y="59.9766"/><text fill="#000000" font-family="sans-serif" font-size="13" font-weight="bold" lengthAdjust="spacing" textLength="118" x="871" y="72.5449">Discovery Service</text><rect fill="#DDDDDD" height="435.6797" style="stroke:#181818;stroke-width:0.5;" width="222" x="994" y="59.9766"/><text fill="#000000" font-family="sans-serif" font-size="13" font-weight="bold" lengthAdjust="spacing" textLength="78" x="1066" y="72.5449">FX provider</text><rect fill="#ADD8E6" height="435.6797" style="stroke:#181818;stroke-width:0.5;" width="187" x="1218" y="59.9766"/><text fill="#000000" font-family="sans-serif" font-size="13" font-weight="bold" lengthAdjust="spacing" textLength="76" x="1273.5" y="72.5449">Payee DFSP</text><line style="stroke:#181818;stroke-width:0.5;stroke-dasharray:5.0,5.0;" x1="28" x2="28" y1="143.752" y2="416.168"/><line style="stroke:#181818;stroke-width:0.5;stroke-dasharray:5.0,5.0;" x1="348.5" x2="348.5" y1="143.752" y2="416.168"/><line style="stroke:#181818;stroke-width:0.5;stroke-dasharray:5.0,5.0;" x1="683" x2="683" y1="143.752" y2="416.168"/><line style="stroke:#181818;stroke-width:0.5;stroke-dasharray:5.0,5.0;" x1="799" x2="799" y1="143.752" y2="416.168"/><line style="stroke:#181818;stroke-width:0.5;stroke-dasharray:5.0,5.0;" x1="929.5" x2="929.5" y1="143.752" y2="416.168"/><line style="stroke:#181818;stroke-width:0.5;stroke-dasharray:5.0,5.0;" x1="1041" x2="1041" y1="143.752" y2="416.168"/><line style="stroke:#181818;stroke-width:0.5;stroke-dasharray:5.0,5.0;" x1="1153" x2="1153" y1="143.752" y2="416.168"/><line style="stroke:#181818;stroke-width:0.5;stroke-dasharray:5.0,5.0;" x1="1265" x2="1265" y1="143.752" y2="416.168"/><line style="stroke:#181818;stroke-width:0.5;stroke-dasharray:5.0,5.0;" x1="1359" x2="1359" y1="143.752" y2="416.168"/><line style="stroke:#181818;stroke-width:0.5;stroke-dasharray:5.0,5.0;" x1="1430" x2="1430" y1="143.752" y2="416.168"/><text fill="#000000" font-family="sans-serif" font-size="14" lengthAdjust="spacing" textLength="40" x="5" y="140.7988">Keeya</text><ellipse cx="28" cy="75.7637" fill="#E2E2F0" rx="8" ry="8" style="stroke:#181818;stroke-width:0.5;"/><path d="M28,83.7637 L28,110.7637 M15,91.7637 L41,91.7637 M28,110.7637 L15,125.7637 M28,110.7637 L41,125.7637 " fill="none" style="stroke:#181818;stroke-width:0.5;"/><text fill="#000000" font-family="sans-serif" font-size="14" lengthAdjust="spacing" textLength="40" x="5" y="428.7031">Keeya</text><ellipse cx="28" cy="440.1563" fill="#E2E2F0" rx="8" ry="8" style="stroke:#181818;stroke-width:0.5;"/><path d="M28,448.1563 L28,475.1563 M15,456.1563 L41,456.1563 M28,475.1563 L15,490.1563 M28,475.1563 L41,490.1563 " fill="none" style="stroke:#181818;stroke-width:0.5;"/><rect fill="#E2E2F0" height="30.4883" rx="2.5" ry="2.5" style="stroke:#181818;stroke-width:0.5;" width="81" x="308.5" y="112.2637"/><text fill="#000000" font-family="sans-serif" font-size="14" lengthAdjust="spacing" textLength="67" x="315.5" y="132.7988">Payer CBS</text><rect fill="#E2E2F0" height="30.4883" rx="2.5" ry="2.5" style="stroke:#181818;stroke-width:0.5;" width="81" x="308.5" y="415.168"/><text fill="#000000" font-family="sans-serif" font-size="14" lengthAdjust="spacing" textLength="67" x="315.5" y="435.7031">Payer CBS</text><rect fill="#E2E2F0" height="63.4648" rx="2.5" ry="2.5" style="stroke:#181818;stroke-width:0.5;" width="86" x="640" y="79.2871"/><text fill="#000000" font-family="sans-serif" font-size="14" lengthAdjust="spacing" textLength="37" x="664.5" y="99.8223">Payer</text><text fill="#000000" font-family="sans-serif" font-size="14" lengthAdjust="spacing" textLength="64" x="651" y="116.3105">Mojaloop</text><text fill="#000000" font-family="sans-serif" font-size="14" lengthAdjust="spacing" textLength="72" x="647" y="132.7988">Connector</text><rect fill="#E2E2F0" height="63.4648" rx="2.5" ry="2.5" style="stroke:#181818;stroke-width:0.5;" width="86" x="640" y="415.168"/><text fill="#000000" font-family="sans-serif" font-size="14" lengthAdjust="spacing" textLength="37" x="664.5" y="435.7031">Payer</text><text fill="#000000" font-family="sans-serif" font-size="14" lengthAdjust="spacing" textLength="64" x="651" y="452.1914">Mojaloop</text><text fill="#000000" font-family="sans-serif" font-size="14" lengthAdjust="spacing" textLength="72" x="647" y="468.6797">Connector</text><rect fill="#E2E2F0" height="30.4883" rx="2.5" ry="2.5" style="stroke:#181818;stroke-width:0.5;" width="126" x="736" y="112.2637"/><text fill="#000000" font-family="sans-serif" font-size="14" lengthAdjust="spacing" textLength="112" x="743" y="132.7988">Mojaloop Switch</text><rect fill="#E2E2F0" height="30.4883" rx="2.5" ry="2.5" style="stroke:#181818;stroke-width:0.5;" width="126" x="736" y="415.168"/><text fill="#000000" font-family="sans-serif" font-size="14" lengthAdjust="spacing" textLength="112" x="743" y="435.7031">Mojaloop Switch</text><rect fill="#E2E2F0" height="30.4883" rx="2.5" ry="2.5" style="stroke:#181818;stroke-width:0.5;" width="87" x="886.5" y="112.2637"/><text fill="#000000" font-family="sans-serif" font-size="14" lengthAdjust="spacing" textLength="73" x="893.5" y="132.7988">ALS Oracle</text><rect fill="#E2E2F0" height="30.4883" rx="2.5" ry="2.5" style="stroke:#181818;stroke-width:0.5;" width="87" x="886.5" y="415.168"/><text fill="#000000" font-family="sans-serif" font-size="14" lengthAdjust="spacing" textLength="73" x="893.5" y="435.7031">ALS Oracle</text><rect fill="#E2E2F0" height="46.9766" rx="2.5" ry="2.5" style="stroke:#181818;stroke-width:0.5;" width="86" x="998" y="95.7754"/><text fill="#000000" font-family="sans-serif" font-size="14" lengthAdjust="spacing" textLength="25" x="1028.5" y="116.3105">FXP</text><text fill="#000000" font-family="sans-serif" font-size="14" lengthAdjust="spacing" textLength="72" x="1005" y="132.7988">Connector</text><rect fill="#E2E2F0" height="46.9766" rx="2.5" ry="2.5" style="stroke:#181818;stroke-width:0.5;" width="86" x="998" y="415.168"/><text fill="#000000" font-family="sans-serif" font-size="14" lengthAdjust="spacing" textLength="25" x="1028.5" y="435.7031">FXP</text><text fill="#000000" font-family="sans-serif" font-size="14" lengthAdjust="spacing" textLength="72" x="1005" y="452.1914">Connector</text><rect fill="#E2E2F0" height="30.4883" rx="2.5" ry="2.5" style="stroke:#181818;stroke-width:0.5;" width="118" x="1094" y="112.2637"/><text fill="#000000" font-family="sans-serif" font-size="14" lengthAdjust="spacing" textLength="104" x="1101" y="132.7988">Backend FX API</text><rect fill="#E2E2F0" height="30.4883" rx="2.5" ry="2.5" style="stroke:#181818;stroke-width:0.5;" width="118" x="1094" y="415.168"/><text fill="#000000" font-family="sans-serif" font-size="14" lengthAdjust="spacing" textLength="104" x="1101" y="435.7031">Backend FX API</text><rect fill="#E2E2F0" height="63.4648" rx="2.5" ry="2.5" style="stroke:#181818;stroke-width:0.5;" width="86" x="1222" y="79.2871"/><text fill="#000000" font-family="sans-serif" font-size="14" lengthAdjust="spacing" textLength="39" x="1245.5" y="99.8223">Payee</text><text fill="#000000" font-family="sans-serif" font-size="14" lengthAdjust="spacing" textLength="64" x="1233" y="116.3105">Mojaloop</text><text fill="#000000" font-family="sans-serif" font-size="14" lengthAdjust="spacing" textLength="72" x="1229" y="132.7988">Connector</text><rect fill="#E2E2F0" height="63.4648" rx="2.5" ry="2.5" style="stroke:#181818;stroke-width:0.5;" width="86" x="1222" y="415.168"/><text fill="#000000" font-family="sans-serif" font-size="14" lengthAdjust="spacing" textLength="39" x="1245.5" y="435.7031">Payee</text><text fill="#000000" font-family="sans-serif" font-size="14" lengthAdjust="spacing" textLength="64" x="1233" y="452.1914">Mojaloop</text><text fill="#000000" font-family="sans-serif" font-size="14" lengthAdjust="spacing" textLength="72" x="1229" y="468.6797">Connector</text><rect fill="#E2E2F0" height="30.4883" rx="2.5" ry="2.5" style="stroke:#181818;stroke-width:0.5;" width="83" x="1318" y="112.2637"/><text fill="#000000" font-family="sans-serif" font-size="14" lengthAdjust="spacing" textLength="69" x="1325" y="132.7988">Payee CBS</text><rect fill="#E2E2F0" height="30.4883" rx="2.5" ry="2.5" style="stroke:#181818;stroke-width:0.5;" width="83" x="1318" y="415.168"/><text fill="#000000" font-family="sans-serif" font-size="14" lengthAdjust="spacing" textLength="69" x="1325" y="435.7031">Payee CBS</text><text fill="#000000" font-family="sans-serif" font-size="14" lengthAdjust="spacing" textLength="32" x="1411" y="140.7988">Yaro</text><ellipse cx="1430" cy="75.7637" fill="#E2E2F0" rx="8" ry="8" style="stroke:#181818;stroke-width:0.5;"/><path d="M1430,83.7637 L1430,110.7637 M1417,91.7637 L1443,91.7637 M1430,110.7637 L1417,125.7637 M1430,110.7637 L1443,125.7637 " fill="none" style="stroke:#181818;stroke-width:0.5;"/><text fill="#000000" font-family="sans-serif" font-size="14" lengthAdjust="spacing" textLength="32" x="1411" y="428.7031">Yaro</text><ellipse cx="1430" cy="440.1563" fill="#E2E2F0" rx="8" ry="8" style="stroke:#181818;stroke-width:0.5;"/><path d="M1430,448.1563 L1430,475.1563 M1417,456.1563 L1443,456.1563 M1430,475.1563 L1417,490.1563 M1430,475.1563 L1443,490.1563 " fill="none" style="stroke:#181818;stroke-width:0.5;"/><rect fill="#EEEEEE" height="3" style="stroke:#EEEEEE;stroke-width:1.0;" width="1454" x="0" y="174.4072"/><line style="stroke:#000000;stroke-width:1.0;" x1="0" x2="1454" y1="174.4072" y2="174.4072"/><line style="stroke:#000000;stroke-width:1.0;" x1="0" x2="1454" y1="177.4072" y2="177.4072"/><rect fill="#EEEEEE" height="23.3105" style="stroke:#000000;stroke-width:2.0;" width="157" x="648.5" y="163.752"/><text fill="#000000" font-family="sans-serif" font-size="13" font-weight="bold" lengthAdjust="spacing" textLength="139" x="654.5" y="180.3203">Sender Confirmation</text><polygon fill="#181818" points="360,229.6836,350,233.6836,360,237.6836,356,233.6836" style="stroke:#181818;stroke-width:1.0;"/><line style="stroke:#181818;stroke-width:1.0;" x1="354" x2="682" y1="233.6836" y2="233.6836"/><text fill="#000000" font-family="sans-serif" font-size="13" font-weight="bold" lengthAdjust="spacing" textLength="9" x="366" y="221.2861">1</text><text fill="#000000" font-family="sans-serif" font-size="13" lengthAdjust="spacing" textLength="202" x="379" y="213.6309">Here's the quote for the transfer</text><text fill="#000000" font-family="sans-serif" font-size="13" lengthAdjust="spacing" textLength="297" x="379" y="228.9414">It expires at 2021-08-25T14:17:09.663+01:00</text><polygon fill="#181818" points="39,335.5469,29,339.5469,39,343.5469,35,339.5469" style="stroke:#181818;stroke-width:1.0;"/><line style="stroke:#181818;stroke-width:1.0;" x1="33" x2="348" y1="339.5469" y2="339.5469"/><text fill="#000000" font-family="sans-serif" font-size="13" font-weight="bold" lengthAdjust="spacing" textLength="9" x="45" y="296.5283">2</text><text fill="#000000" font-family="sans-serif" font-size="13" lengthAdjust="spacing" textLength="197" x="58" y="258.252">Hi, Keeya: I can do the transfer.</text><text fill="#000000" font-family="sans-serif" font-size="13" lengthAdjust="spacing" textLength="173" x="58" y="273.5625">It'll cost you 55 BWP in fees</text><text fill="#000000" font-family="sans-serif" font-size="13" lengthAdjust="spacing" textLength="284" x="58" y="288.873">330 BWP will be deducted from your account,</text><text fill="#000000" font-family="sans-serif" font-size="13" lengthAdjust="spacing" textLength="129" x="58" y="304.1836">and Yaro will receive</text><text fill="#000000" font-family="sans-serif" font-size="13" lengthAdjust="spacing" textLength="71" x="58" y="319.4941">50000 TZS.</text><text fill="#000000" font-family="sans-serif" font-size="13" lengthAdjust="spacing" textLength="232" x="58" y="334.8047">Let me know if you want to go ahead</text><polygon fill="#181818" points="337,364.8574,347,368.8574,337,372.8574,341,368.8574" style="stroke:#181818;stroke-width:1.0;"/><line style="stroke:#181818;stroke-width:1.0;stroke-dasharray:2.0,2.0;" x1="28" x2="343" y1="368.8574" y2="368.8574"/><text fill="#000000" font-family="sans-serif" font-size="13" font-weight="bold" lengthAdjust="spacing" textLength="9" x="35" y="364.1152">3</text><text fill="#000000" font-family="sans-serif" font-size="13" lengthAdjust="spacing" textLength="172" x="48" y="364.1152">Great! Yes please, go ahead</text><polygon fill="#181818" points="671,394.168,681,398.168,671,402.168,675,398.168" style="stroke:#181818;stroke-width:1.0;"/><line style="stroke:#181818;stroke-width:1.0;stroke-dasharray:2.0,2.0;" x1="349" x2="677" y1="398.168" y2="398.168"/><text fill="#000000" font-family="sans-serif" font-size="13" font-weight="bold" lengthAdjust="spacing" textLength="9" x="356" y="393.4258">4</text><text fill="#000000" font-family="sans-serif" font-size="13" lengthAdjust="spacing" textLength="281" x="369" y="393.4258">Payer has accepted the terms please proceed</text><!--SRC=[VLJRKk9047sVhsXPgtnOiGWtbIgiug8hjQYKeNPrYvSnTCYiOIREJ4J-Vdi2WO2iUKkVFdqvtTD7nqRCarY40gVGXf371jdHiOcKjhtK-aBEOhnv6XMmI4pHNmWRH7sqNCH56iefwdi-HpAMVY8kUOdC6WCKxrlWcMlbx0bVekwbMgCCbWxe_XxbTYpQnt_yZV-DFnhqdN6q_jimTX0i8FhE7_ZzUmTLc-SNvyr6lLRrDhm2scXurLgzGKwNbGt-k2g_CrUfjCwjKQ5lcnQpfkfhc-LwXhRWd0FXHzAB76XybUeW8zLgkyWu8pkakMMjtBSHQxKS6VylbrMMnplPYd8s6YN6c1KsHkXfPGniK99kZXGiDJHvk5D_UQnK0ZTFq1aD38mUUXEP2Gzz4XWqlgLeh850IHgm4Ke2hKO4ZzUzwy6lQ-1PROm7Lcae5HQa1Dn0nsClwcCzoYnY2RuDnIootJX500QGS6r5819EHQtzUbq_OsT_z7FGQoBpuYUofwH4Lq56wtkCgW1ApDWERzFjQhipPzzZgnBxmWIAMbo2Z_fT19XN-ennh1RxDNI6FZne7iJhHeV-DcaMZnHDj7gdjqHLVMgKNjn-sMJQz-houDL5NKqdzrfRz_9bR-A0n0SrnY_Kgnuax0m5tL0swVFP5w_0IfGguwbLCfs_e6QitIPftNe0PGo5ddFhrgdTPgplbQ_oQRTkKUE90HiXlANA8eGKtlrPpQK9tUW75l0Z4HeDS0lLIjKhLoxArSROgxUyyrRbygpPh7slUArAXULnorSThtKhJg6mf2qOGC0bJDLEWZENuIIEQUkDXQLAuQi7jtVcX8GGqKpafwUzvxWGbE45OOhJDB1qdaEjvYwR1Xu4Zd4waPnKthsl6MrjeIG7BjZkVQLcXdHoYFagrG94c3MqSAEr2cOAU8HyoZfUkJ237ngvFO9d4ZY9aHiytNfk5IrVzRtMwfb2H0EdiZ5ndMHYefxdRFSK0iGf-mS0]--></g></svg>