<?xml version="1.0" encoding="us-ascii" standalone="no"?><svg xmlns="http://www.w3.org/2000/svg" xmlns:xlink="http://www.w3.org/1999/xlink" contentStyleType="text/css" height="622px" preserveAspectRatio="none" style="width:1374px;height:622px;background:#FFFFFF;" version="1.1" viewBox="0 0 1374 622" width="1374px" zoomAndPan="magnify"><defs/><g><text fill="#000000" font-family="sans-serif" font-size="14" font-weight="bold" lengthAdjust="spacing" textLength="388" x="489.25" y="28.5352">Cross Currency Payment using Mojaloop FX APIs POC</text><text fill="#000000" font-family="sans-serif" font-size="14" font-weight="bold" lengthAdjust="spacing" textLength="391" x="487.75" y="45.0234">Payer DFSP requests conversion with RECEIVE amount</text><rect fill="#ADD8E6" height="556.6113" style="stroke:#181818;stroke-width:0.5;" width="185" x="57" y="59.9766"/><text fill="#000000" font-family="sans-serif" font-size="13" font-weight="bold" lengthAdjust="spacing" textLength="74" x="112.5" y="72.5449">Payer DFSP</text><rect fill="#FFFFE0" height="556.6113" style="stroke:#181818;stroke-width:0.5;" width="124" x="781.5" y="59.9766"/><text fill="#000000" font-family="sans-serif" font-size="13" font-weight="bold" lengthAdjust="spacing" textLength="118" x="784.5" y="72.5449">Discovery Service</text><rect fill="#DDDDDD" height="556.6113" style="stroke:#181818;stroke-width:0.5;" width="222" x="907.5" y="59.9766"/><text fill="#000000" font-family="sans-serif" font-size="13" font-weight="bold" lengthAdjust="spacing" textLength="78" x="979.5" y="72.5449">FX provider</text><rect fill="#ADD8E6" height="556.6113" style="stroke:#181818;stroke-width:0.5;" width="187" x="1131.5" y="59.9766"/><text fill="#000000" font-family="sans-serif" font-size="13" font-weight="bold" lengthAdjust="spacing" textLength="76" x="1187" y="72.5449">Payee DFSP</text><rect fill="#FFFFFF" height="294.416" style="stroke:#181818;stroke-width:1.0;" width="10" x="588" y="233.6836"/><rect fill="#FFFFFF" height="29.3105" style="stroke:#181818;stroke-width:1.0;" width="10" x="838.5" y="292.3047"/><line style="stroke:#181818;stroke-width:0.5;stroke-dasharray:5.0,5.0;" x1="28" x2="28" y1="143.752" y2="537.0996"/><line style="stroke:#181818;stroke-width:0.5;stroke-dasharray:5.0,5.0;" x1="101" x2="101" y1="143.752" y2="537.0996"/><line style="stroke:#181818;stroke-width:0.5;stroke-dasharray:5.0,5.0;" x1="195" x2="195" y1="143.752" y2="537.0996"/><line style="stroke:#181818;stroke-width:0.5;stroke-dasharray:5.0,5.0;" x1="593" x2="593" y1="143.752" y2="537.0996"/><line style="stroke:#181818;stroke-width:0.5;stroke-dasharray:5.0,5.0;" x1="843" x2="843" y1="143.752" y2="537.0996"/><line style="stroke:#181818;stroke-width:0.5;stroke-dasharray:5.0,5.0;" x1="954.5" x2="954.5" y1="143.752" y2="537.0996"/><line style="stroke:#181818;stroke-width:0.5;stroke-dasharray:5.0,5.0;" x1="1066.5" x2="1066.5" y1="143.752" y2="537.0996"/><line style="stroke:#181818;stroke-width:0.5;stroke-dasharray:5.0,5.0;" x1="1178.5" x2="1178.5" y1="143.752" y2="537.0996"/><line style="stroke:#181818;stroke-width:0.5;stroke-dasharray:5.0,5.0;" x1="1272.5" x2="1272.5" y1="143.752" y2="537.0996"/><line style="stroke:#181818;stroke-width:0.5;stroke-dasharray:5.0,5.0;" x1="1343.5" x2="1343.5" y1="143.752" y2="537.0996"/><text fill="#000000" font-family="sans-serif" font-size="14" lengthAdjust="spacing" textLength="40" x="5" y="140.7988">Keeya</text><ellipse cx="28" cy="75.7637" fill="#E2E2F0" rx="8" ry="8" style="stroke:#181818;stroke-width:0.5;"/><path d="M28,83.7637 L28,110.7637 M15,91.7637 L41,91.7637 M28,110.7637 L15,125.7637 M28,110.7637 L41,125.7637 " fill="none" style="stroke:#181818;stroke-width:0.5;"/><text fill="#000000" font-family="sans-serif" font-size="14" lengthAdjust="spacing" textLength="40" x="5" y="549.6348">Keeya</text><ellipse cx="28" cy="561.0879" fill="#E2E2F0" rx="8" ry="8" style="stroke:#181818;stroke-width:0.5;"/><path d="M28,569.0879 L28,596.0879 M15,577.0879 L41,577.0879 M28,596.0879 L15,611.0879 M28,596.0879 L41,611.0879 " fill="none" style="stroke:#181818;stroke-width:0.5;"/><rect fill="#E2E2F0" height="30.4883" rx="2.5" ry="2.5" style="stroke:#181818;stroke-width:0.5;" width="81" x="61" y="112.2637"/><text fill="#000000" font-family="sans-serif" font-size="14" lengthAdjust="spacing" textLength="67" x="68" y="132.7988">Payer CBS</text><rect fill="#E2E2F0" height="30.4883" rx="2.5" ry="2.5" style="stroke:#181818;stroke-width:0.5;" width="81" x="61" y="536.0996"/><text fill="#000000" font-family="sans-serif" font-size="14" lengthAdjust="spacing" textLength="67" x="68" y="556.6348">Payer CBS</text><rect fill="#E2E2F0" height="63.4648" rx="2.5" ry="2.5" style="stroke:#181818;stroke-width:0.5;" width="86" x="152" y="79.2871"/><text fill="#000000" font-family="sans-serif" font-size="14" lengthAdjust="spacing" textLength="37" x="176.5" y="99.8223">Payer</text><text fill="#000000" font-family="sans-serif" font-size="14" lengthAdjust="spacing" textLength="64" x="163" y="116.3105">Mojaloop</text><text fill="#000000" font-family="sans-serif" font-size="14" lengthAdjust="spacing" textLength="72" x="159" y="132.7988">Connector</text><rect fill="#E2E2F0" height="63.4648" rx="2.5" ry="2.5" style="stroke:#181818;stroke-width:0.5;" width="86" x="152" y="536.0996"/><text fill="#000000" font-family="sans-serif" font-size="14" lengthAdjust="spacing" textLength="37" x="176.5" y="556.6348">Payer</text><text fill="#000000" font-family="sans-serif" font-size="14" lengthAdjust="spacing" textLength="64" x="163" y="573.123">Mojaloop</text><text fill="#000000" font-family="sans-serif" font-size="14" lengthAdjust="spacing" textLength="72" x="159" y="589.6113">Connector</text><rect fill="#E2E2F0" height="30.4883" rx="2.5" ry="2.5" style="stroke:#181818;stroke-width:0.5;" width="126" x="530" y="112.2637"/><text fill="#000000" font-family="sans-serif" font-size="14" lengthAdjust="spacing" textLength="112" x="537" y="132.7988">Mojaloop Switch</text><rect fill="#E2E2F0" height="30.4883" rx="2.5" ry="2.5" style="stroke:#181818;stroke-width:0.5;" width="126" x="530" y="536.0996"/><text fill="#000000" font-family="sans-serif" font-size="14" lengthAdjust="spacing" textLength="112" x="537" y="556.6348">Mojaloop Switch</text><rect fill="#E2E2F0" height="30.4883" rx="2.5" ry="2.5" style="stroke:#181818;stroke-width:0.5;" width="87" x="800" y="112.2637"/><text fill="#000000" font-family="sans-serif" font-size="14" lengthAdjust="spacing" textLength="73" x="807" y="132.7988">ALS Oracle</text><rect fill="#E2E2F0" height="30.4883" rx="2.5" ry="2.5" style="stroke:#181818;stroke-width:0.5;" width="87" x="800" y="536.0996"/><text fill="#000000" font-family="sans-serif" font-size="14" lengthAdjust="spacing" textLength="73" x="807" y="556.6348">ALS Oracle</text><rect fill="#E2E2F0" height="46.9766" rx="2.5" ry="2.5" style="stroke:#181818;stroke-width:0.5;" width="86" x="911.5" y="95.7754"/><text fill="#000000" font-family="sans-serif" font-size="14" lengthAdjust="spacing" textLength="25" x="942" y="116.3105">FXP</text><text fill="#000000" font-family="sans-serif" font-size="14" lengthAdjust="spacing" textLength="72" x="918.5" y="132.7988">Connector</text><rect fill="#E2E2F0" height="46.9766" rx="2.5" ry="2.5" style="stroke:#181818;stroke-width:0.5;" width="86" x="911.5" y="536.0996"/><text fill="#000000" font-family="sans-serif" font-size="14" lengthAdjust="spacing" textLength="25" x="942" y="556.6348">FXP</text><text fill="#000000" font-family="sans-serif" font-size="14" lengthAdjust="spacing" textLength="72" x="918.5" y="573.123">Connector</text><rect fill="#E2E2F0" height="30.4883" rx="2.5" ry="2.5" style="stroke:#181818;stroke-width:0.5;" width="118" x="1007.5" y="112.2637"/><text fill="#000000" font-family="sans-serif" font-size="14" lengthAdjust="spacing" textLength="104" x="1014.5" y="132.7988">Backend FX API</text><rect fill="#E2E2F0" height="30.4883" rx="2.5" ry="2.5" style="stroke:#181818;stroke-width:0.5;" width="118" x="1007.5" y="536.0996"/><text fill="#000000" font-family="sans-serif" font-size="14" lengthAdjust="spacing" textLength="104" x="1014.5" y="556.6348">Backend FX API</text><rect fill="#E2E2F0" height="63.4648" rx="2.5" ry="2.5" style="stroke:#181818;stroke-width:0.5;" width="86" x="1135.5" y="79.2871"/><text fill="#000000" font-family="sans-serif" font-size="14" lengthAdjust="spacing" textLength="39" x="1159" y="99.8223">Payee</text><text fill="#000000" font-family="sans-serif" font-size="14" lengthAdjust="spacing" textLength="64" x="1146.5" y="116.3105">Mojaloop</text><text fill="#000000" font-family="sans-serif" font-size="14" lengthAdjust="spacing" textLength="72" x="1142.5" y="132.7988">Connector</text><rect fill="#E2E2F0" height="63.4648" rx="2.5" ry="2.5" style="stroke:#181818;stroke-width:0.5;" width="86" x="1135.5" y="536.0996"/><text fill="#000000" font-family="sans-serif" font-size="14" lengthAdjust="spacing" textLength="39" x="1159" y="556.6348">Payee</text><text fill="#000000" font-family="sans-serif" font-size="14" lengthAdjust="spacing" textLength="64" x="1146.5" y="573.123">Mojaloop</text><text fill="#000000" font-family="sans-serif" font-size="14" lengthAdjust="spacing" textLength="72" x="1142.5" y="589.6113">Connector</text><rect fill="#E2E2F0" height="30.4883" rx="2.5" ry="2.5" style="stroke:#181818;stroke-width:0.5;" width="83" x="1231.5" y="112.2637"/><text fill="#000000" font-family="sans-serif" font-size="14" lengthAdjust="spacing" textLength="69" x="1238.5" y="132.7988">Payee CBS</text><rect fill="#E2E2F0" height="30.4883" rx="2.5" ry="2.5" style="stroke:#181818;stroke-width:0.5;" width="83" x="1231.5" y="536.0996"/><text fill="#000000" font-family="sans-serif" font-size="14" lengthAdjust="spacing" textLength="69" x="1238.5" y="556.6348">Payee CBS</text><text fill="#000000" font-family="sans-serif" font-size="14" lengthAdjust="spacing" textLength="32" x="1324.5" y="140.7988">Yaro</text><ellipse cx="1343.5" cy="75.7637" fill="#E2E2F0" rx="8" ry="8" style="stroke:#181818;stroke-width:0.5;"/><path d="M1343.5,83.7637 L1343.5,110.7637 M1330.5,91.7637 L1356.5,91.7637 M1343.5,110.7637 L1330.5,125.7637 M1343.5,110.7637 L1356.5,125.7637 " fill="none" style="stroke:#181818;stroke-width:0.5;"/><text fill="#000000" font-family="sans-serif" font-size="14" lengthAdjust="spacing" textLength="32" x="1324.5" y="549.6348">Yaro</text><ellipse cx="1343.5" cy="561.0879" fill="#E2E2F0" rx="8" ry="8" style="stroke:#181818;stroke-width:0.5;"/><path d="M1343.5,569.0879 L1343.5,596.0879 M1330.5,577.0879 L1356.5,577.0879 M1343.5,596.0879 L1330.5,611.0879 M1343.5,596.0879 L1356.5,611.0879 " fill="none" style="stroke:#181818;stroke-width:0.5;"/><rect fill="#FFFFFF" height="294.416" style="stroke:#181818;stroke-width:1.0;" width="10" x="588" y="233.6836"/><rect fill="#FFFFFF" height="29.3105" style="stroke:#181818;stroke-width:1.0;" width="10" x="838.5" y="292.3047"/><rect fill="#EEEEEE" height="3" style="stroke:#EEEEEE;stroke-width:1.0;" width="1367.5" x="0" y="174.4072"/><line style="stroke:#000000;stroke-width:1.0;" x1="0" x2="1367.5" y1="174.4072" y2="174.4072"/><line style="stroke:#000000;stroke-width:1.0;" x1="0" x2="1367.5" y1="177.4072" y2="177.4072"/><rect fill="#EEEEEE" height="23.3105" style="stroke:#000000;stroke-width:2.0;" width="130" x="618.75" y="163.752"/><text fill="#000000" font-family="sans-serif" font-size="13" font-weight="bold" lengthAdjust="spacing" textLength="112" x="624.75" y="180.3203">Get FX providers</text><line style="stroke:#181818;stroke-width:1.0;" x1="586" x2="576" y1="233.6836" y2="229.6836"/><line style="stroke:#181818;stroke-width:1.0;" x1="586" x2="576" y1="233.6836" y2="237.6836"/><line style="stroke:#181818;stroke-width:1.0;" x1="195" x2="587" y1="233.6836" y2="233.6836"/><text fill="#000000" font-family="sans-serif" font-size="13" font-weight="bold" lengthAdjust="spacing" textLength="9" x="202" y="221.2861">1</text><text fill="#000000" font-family="sans-serif" font-size="13" lengthAdjust="spacing" textLength="194" x="215" y="213.6309">What FXPs do you know about?</text><text fill="#000000" font-family="sans-serif" font-size="13" font-weight="bold" lengthAdjust="spacing" textLength="124" x="215" y="228.9414">GET /services/FXP</text><line style="stroke:#181818;stroke-width:1.0;" x1="196" x2="206" y1="262.9941" y2="258.9941"/><line style="stroke:#181818;stroke-width:1.0;" x1="196" x2="206" y1="262.9941" y2="266.9941"/><line style="stroke:#181818;stroke-width:1.0;stroke-dasharray:2.0,2.0;" x1="195" x2="587" y1="262.9941" y2="262.9941"/><text fill="#000000" font-family="sans-serif" font-size="13" font-weight="bold" lengthAdjust="spacing" textLength="9" x="212" y="258.252">2</text><text fill="#000000" font-family="sans-serif" font-size="13" lengthAdjust="spacing" textLength="145" x="225" y="258.252">202 I'll get back to you</text><polygon fill="#181818" points="826.5,288.3047,836.5,292.3047,826.5,296.3047,830.5,292.3047" style="stroke:#181818;stroke-width:1.0;"/><line style="stroke:#181818;stroke-width:1.0;" x1="598" x2="832.5" y1="292.3047" y2="292.3047"/><text fill="#000000" font-family="sans-serif" font-size="13" font-weight="bold" lengthAdjust="spacing" textLength="9" x="605" y="287.5625">3</text><text fill="#000000" font-family="sans-serif" font-size="13" lengthAdjust="spacing" textLength="194" x="618" y="287.5625">What FXPs do you know about?</text><polygon fill="#181818" points="609,317.6152,599,321.6152,609,325.6152,605,321.6152" style="stroke:#181818;stroke-width:1.0;"/><line style="stroke:#181818;stroke-width:1.0;stroke-dasharray:2.0,2.0;" x1="603" x2="842.5" y1="321.6152" y2="321.6152"/><text fill="#000000" font-family="sans-serif" font-size="13" font-weight="bold" lengthAdjust="spacing" textLength="9" x="615" y="316.873">4</text><text fill="#000000" font-family="sans-serif" font-size="13" lengthAdjust="spacing" textLength="46" x="628" y="316.873">FDH FX</text><line style="stroke:#181818;stroke-width:1.0;" x1="201" x2="211" y1="350.9258" y2="346.9258"/><line style="stroke:#181818;stroke-width:1.0;" x1="201" x2="211" y1="350.9258" y2="354.9258"/><line style="stroke:#181818;stroke-width:1.0;" x1="200" x2="587" y1="350.9258" y2="350.9258"/><text fill="#000000" font-family="sans-serif" font-size="13" font-weight="bold" lengthAdjust="spacing" textLength="9" x="217" y="346.1836">5</text><text fill="#000000" font-family="sans-serif" font-size="13" lengthAdjust="spacing" textLength="218" x="230" y="346.1836">Here are the available FXPs:FDH FX</text><path d="M525,363.9258 L525,449.9258 L661,449.9258 L661,373.9258 L651,363.9258 L525,363.9258 " fill="#FEFFDD" style="stroke:#181818;stroke-width:0.5;"/><path d="M651,363.9258 L651,373.9258 L661,373.9258 L651,363.9258 " fill="#FEFFDD" style="stroke:#181818;stroke-width:0.5;"/><text fill="#000000" font-family="sans-serif" font-size="13" lengthAdjust="spacing" textLength="115" x="531" y="381.4941">PUT /services/FXP</text><text fill="#000000" font-family="sans-serif" font-size="13" lengthAdjust="spacing" textLength="4" x="531" y="396.8047">&#160;</text><text fill="#000000" font-family="sans-serif" font-size="13" lengthAdjust="spacing" textLength="101" x="531" y="412.1152">"fxpProviders": [</text><text fill="#000000" font-family="sans-serif" font-size="13" lengthAdjust="spacing" textLength="59" x="531" y="427.4258">"FDH_FX"</text><text fill="#000000" font-family="sans-serif" font-size="13" lengthAdjust="spacing" textLength="4" x="531" y="442.7363">]</text><line style="stroke:#181818;stroke-width:1.0;" x1="586" x2="576" y1="476.7891" y2="472.7891"/><line style="stroke:#181818;stroke-width:1.0;" x1="586" x2="576" y1="476.7891" y2="480.7891"/><line style="stroke:#181818;stroke-width:1.0;stroke-dasharray:2.0,2.0;" x1="200" x2="587" y1="476.7891" y2="476.7891"/><text fill="#000000" font-family="sans-serif" font-size="13" font-weight="bold" lengthAdjust="spacing" textLength="9" x="207" y="472.0469">6</text><text fill="#000000" font-family="sans-serif" font-size="13" lengthAdjust="spacing" textLength="72" x="220" y="472.0469">200 Gotcha</text><line style="stroke:#181818;stroke-width:1.0;" x1="200" x2="242" y1="506.0996" y2="506.0996"/><line style="stroke:#181818;stroke-width:1.0;" x1="242" x2="242" y1="506.0996" y2="519.0996"/><line style="stroke:#181818;stroke-width:1.0;" x1="201" x2="242" y1="519.0996" y2="519.0996"/><polygon fill="#181818" points="211,515.0996,201,519.0996,211,523.0996,207,519.0996" style="stroke:#181818;stroke-width:1.0;"/><text fill="#000000" font-family="sans-serif" font-size="13" font-weight="bold" lengthAdjust="spacing" textLength="9" x="207" y="501.3574">7</text><text fill="#000000" font-family="sans-serif" font-size="13" lengthAdjust="spacing" textLength="361" x="220" y="501.3574">I need to get a quote for the transfer from the Payee DFSP</text><!--SRC=[VLHjJnf14Fw-lsAuDcbBOlH0j3N1HZbHKbyk7gtQsZJBCSZMOnTtzr3-VMSN3WwAabp8pZClppmpkvNtHep6cHW8x4CJ1Zmpo2hlpL1fsyfj8kH3XktRk8GDHH-JPs7JOOIMYwmSXhAF-fAFa8p1DyGf3yYiCKKnMG9tN2jd7_CfwbQkDSfqwe3ZcxYmOzdU_Pai_Dj9t8cSCPwV5X4h29OGVP5qakZIGRMz_S_xUutTUYrSn9NGHYEirNSRvFHbPu5Vp-WVZLGkhNDhxD1lMHPzKxjpc-Nw0Mt9kG06B-FMq84cKRbEVL2zlefqVR13zfPHC_TbndgzGBglrRBAycobMbdEHYDWZ5bXCuIMLiR00YNfHaZ9SaEJXmlrbsTAZQ5z2qTnnq1yrRgNNdY8I63G-9IZiGPI9Md0HYW9j1f3k3vfdNH-d03tt1XFhT8Gb1Oa06xWA6GzzJ8VfSyOmBjpyJ2qnrcE00nWpBKLgHXp8ZNtQnqdFjgVwB3HwruMvEzbIqc9Ze4FYq96B80ACxOIj-XsjjtUEGdPZ68aJAgenIaag2SYnOBf7MQPUbxdS7IUm9NcQJPlz3nP5lNvID6nLXEwIyJglqRfngtJ9jEwrp5F7rtMsNGAhxbrhPw_4niatgWnlg5URMF0ob3G3MLHlfXz-HMOYL9ZFBTAvgCUQiQQJJYbtIy9Ow3PP56uTNYOX0StG-x0s41VmLJby2ZLC_2UoktNUrcjdfvqOTlCPcEsoR5QTQN5X5jqOwo80NmiltQL9bYTuoUMX5jK8WeFQZirw7p8Cd1ti4SoWlMbM8MQ4GFMnqL2MY8AEwIvlabioS1j07rKYNffHsSKKSxdO9VGqJX3ZS3fiqFwdz0JotjqKrs98b8gYd7hw3gZ8KByVQrxviq1FH9neMPm0BzcLihoftqR-CDlFocNa9MxUrskoCkLEBbsu5JHJU65G7vOr05qG2B5a7nEIWvFkICye3rmFLdDfHaG-O5M8szPRYTZ_m00]--></g></svg>