<?xml version="1.0" encoding="us-ascii" standalone="no"?><svg xmlns="http://www.w3.org/2000/svg" xmlns:xlink="http://www.w3.org/1999/xlink" contentStyleType="text/css" height="799px" preserveAspectRatio="none" style="width:1501px;height:799px;background:#FFFFFF;" version="1.1" viewBox="0 0 1501 799" width="1501px" zoomAndPan="magnify"><defs/><g><text fill="#000000" font-family="sans-serif" font-size="14" font-weight="bold" lengthAdjust="spacing" textLength="359" x="567.25" y="28.5352">Remittance Transfer using Mojaloop FX APIs POC</text><text fill="#000000" font-family="sans-serif" font-size="14" font-weight="bold" lengthAdjust="spacing" textLength="370" x="561.75" y="45.0234">Payer DFSP requests conversion with SEND amount</text><rect fill="#ADD8E6" height="733.543" style="stroke:#181818;stroke-width:0.5;" width="97" x="347" y="59.9766"/><text fill="#000000" font-family="sans-serif" font-size="13" font-weight="bold" lengthAdjust="spacing" textLength="74" x="358.5" y="72.5449">Payer DFSP</text><rect fill="#DDDDDD" height="733.543" style="stroke:#181818;stroke-width:0.5;" width="94" x="924.5" y="59.9766"/><text fill="#000000" font-family="sans-serif" font-size="13" font-weight="bold" lengthAdjust="spacing" textLength="78" x="932.5" y="72.5449">FX provider</text><rect fill="#ADD8E6" height="733.543" style="stroke:#181818;stroke-width:0.5;" width="94" x="1020.5" y="59.9766"/><text fill="#000000" font-family="sans-serif" font-size="13" font-weight="bold" lengthAdjust="spacing" textLength="76" x="1029.5" y="72.5449">Payee DFSP</text><rect fill="#FFFFFF" height="117.9316" style="stroke:#181818;stroke-width:1.0;" width="10" x="390.5" y="190.373"/><rect fill="#FFFFFF" height="112.9316" style="stroke:#181818;stroke-width:1.0;" width="10" x="390.5" y="592.0996"/><rect fill="#FFFFFF" height="152.2422" style="stroke:#181818;stroke-width:1.0;" width="10" x="699.5" y="278.3047"/><rect fill="#FFFFFF" height="139.9316" style="stroke:#181818;stroke-width:1.0;" width="10" x="699.5" y="482.168"/><rect fill="#FFFFFF" height="116.9316" style="stroke:#181818;stroke-width:1.0;" width="10" x="1062.5" y="395.2363"/><line style="stroke:#181818;stroke-width:0.5;stroke-dasharray:5.0,5.0;" x1="55" x2="55" y1="143.752" y2="714.0313"/><line style="stroke:#181818;stroke-width:0.5;stroke-dasharray:5.0,5.0;" x1="395" x2="395" y1="143.752" y2="714.0313"/><line style="stroke:#181818;stroke-width:0.5;stroke-dasharray:5.0,5.0;" x1="704.5" x2="704.5" y1="143.752" y2="714.0313"/><line style="stroke:#181818;stroke-width:0.5;stroke-dasharray:5.0,5.0;" x1="971.5" x2="971.5" y1="143.752" y2="714.0313"/><line style="stroke:#181818;stroke-width:0.5;stroke-dasharray:5.0,5.0;" x1="1067.5" x2="1067.5" y1="143.752" y2="714.0313"/><line style="stroke:#181818;stroke-width:0.5;stroke-dasharray:5.0,5.0;" x1="1470.5" x2="1470.5" y1="143.752" y2="714.0313"/><text fill="#000000" font-family="sans-serif" font-size="14" lengthAdjust="spacing" textLength="95" x="5" y="140.7988">$senderName</text><ellipse cx="55.5" cy="75.7637" fill="#E2E2F0" rx="8" ry="8" style="stroke:#181818;stroke-width:0.5;"/><path d="M55.5,83.7637 L55.5,110.7637 M42.5,91.7637 L68.5,91.7637 M55.5,110.7637 L42.5,125.7637 M55.5,110.7637 L68.5,125.7637 " fill="none" style="stroke:#181818;stroke-width:0.5;"/><text fill="#000000" font-family="sans-serif" font-size="14" lengthAdjust="spacing" textLength="95" x="5" y="726.5664">$senderName</text><ellipse cx="55.5" cy="738.0195" fill="#E2E2F0" rx="8" ry="8" style="stroke:#181818;stroke-width:0.5;"/><path d="M55.5,746.0195 L55.5,773.0195 M42.5,754.0195 L68.5,754.0195 M55.5,773.0195 L42.5,788.0195 M55.5,773.0195 L68.5,788.0195 " fill="none" style="stroke:#181818;stroke-width:0.5;"/><rect fill="#E2E2F0" height="30.4883" rx="2.5" ry="2.5" style="stroke:#181818;stroke-width:0.5;" width="89" x="351" y="112.2637"/><text fill="#000000" font-family="sans-serif" font-size="14" lengthAdjust="spacing" textLength="75" x="358" y="132.7988">Payer DFSP</text><rect fill="#E2E2F0" height="30.4883" rx="2.5" ry="2.5" style="stroke:#181818;stroke-width:0.5;" width="89" x="351" y="713.0313"/><text fill="#000000" font-family="sans-serif" font-size="14" lengthAdjust="spacing" textLength="75" x="358" y="733.5664">Payer DFSP</text><rect fill="#E2E2F0" height="30.4883" rx="2.5" ry="2.5" style="stroke:#181818;stroke-width:0.5;" width="126" x="641.5" y="112.2637"/><text fill="#000000" font-family="sans-serif" font-size="14" lengthAdjust="spacing" textLength="112" x="648.5" y="132.7988">Mojaloop Switch</text><rect fill="#E2E2F0" height="30.4883" rx="2.5" ry="2.5" style="stroke:#181818;stroke-width:0.5;" width="126" x="641.5" y="713.0313"/><text fill="#000000" font-family="sans-serif" font-size="14" lengthAdjust="spacing" textLength="112" x="648.5" y="733.5664">Mojaloop Switch</text><rect fill="#E2E2F0" height="46.9766" rx="2.5" ry="2.5" style="stroke:#181818;stroke-width:0.5;" width="86" x="928.5" y="95.7754"/><text fill="#000000" font-family="sans-serif" font-size="14" lengthAdjust="spacing" textLength="25" x="959" y="116.3105">FXP</text><text fill="#000000" font-family="sans-serif" font-size="14" lengthAdjust="spacing" textLength="72" x="935.5" y="132.7988">Connector</text><rect fill="#E2E2F0" height="46.9766" rx="2.5" ry="2.5" style="stroke:#181818;stroke-width:0.5;" width="86" x="928.5" y="713.0313"/><text fill="#000000" font-family="sans-serif" font-size="14" lengthAdjust="spacing" textLength="25" x="959" y="733.5664">FXP</text><text fill="#000000" font-family="sans-serif" font-size="14" lengthAdjust="spacing" textLength="72" x="935.5" y="750.0547">Connector</text><rect fill="#E2E2F0" height="63.4648" rx="2.5" ry="2.5" style="stroke:#181818;stroke-width:0.5;" width="86" x="1024.5" y="79.2871"/><text fill="#000000" font-family="sans-serif" font-size="14" lengthAdjust="spacing" textLength="39" x="1048" y="99.8223">Payee</text><text fill="#000000" font-family="sans-serif" font-size="14" lengthAdjust="spacing" textLength="64" x="1035.5" y="116.3105">Mojaloop</text><text fill="#000000" font-family="sans-serif" font-size="14" lengthAdjust="spacing" textLength="72" x="1031.5" y="132.7988">Connector</text><rect fill="#E2E2F0" height="63.4648" rx="2.5" ry="2.5" style="stroke:#181818;stroke-width:0.5;" width="86" x="1024.5" y="713.0313"/><text fill="#000000" font-family="sans-serif" font-size="14" lengthAdjust="spacing" textLength="39" x="1048" y="733.5664">Payee</text><text fill="#000000" font-family="sans-serif" font-size="14" lengthAdjust="spacing" textLength="64" x="1035.5" y="750.0547">Mojaloop</text><text fill="#000000" font-family="sans-serif" font-size="14" lengthAdjust="spacing" textLength="72" x="1031.5" y="766.543">Connector</text><text fill="#000000" font-family="sans-serif" font-size="14" lengthAdjust="spacing" textLength="32" x="1451.5" y="140.7988">Yaro</text><ellipse cx="1470.5" cy="75.7637" fill="#E2E2F0" rx="8" ry="8" style="stroke:#181818;stroke-width:0.5;"/><path d="M1470.5,83.7637 L1470.5,110.7637 M1457.5,91.7637 L1483.5,91.7637 M1470.5,110.7637 L1457.5,125.7637 M1470.5,110.7637 L1483.5,125.7637 " fill="none" style="stroke:#181818;stroke-width:0.5;"/><text fill="#000000" font-family="sans-serif" font-size="14" lengthAdjust="spacing" textLength="32" x="1451.5" y="726.5664">Yaro</text><ellipse cx="1470.5" cy="738.0195" fill="#E2E2F0" rx="8" ry="8" style="stroke:#181818;stroke-width:0.5;"/><path d="M1470.5,746.0195 L1470.5,773.0195 M1457.5,754.0195 L1483.5,754.0195 M1470.5,773.0195 L1457.5,788.0195 M1470.5,773.0195 L1483.5,788.0195 " fill="none" style="stroke:#181818;stroke-width:0.5;"/><rect fill="#FFFFFF" height="117.9316" style="stroke:#181818;stroke-width:1.0;" width="10" x="390.5" y="190.373"/><rect fill="#FFFFFF" height="112.9316" style="stroke:#181818;stroke-width:1.0;" width="10" x="390.5" y="592.0996"/><rect fill="#FFFFFF" height="152.2422" style="stroke:#181818;stroke-width:1.0;" width="10" x="699.5" y="278.3047"/><rect fill="#FFFFFF" height="139.9316" style="stroke:#181818;stroke-width:1.0;" width="10" x="699.5" y="482.168"/><rect fill="#FFFFFF" height="116.9316" style="stroke:#181818;stroke-width:1.0;" width="10" x="1062.5" y="395.2363"/><polygon fill="#181818" points="378.5,186.373,388.5,190.373,378.5,194.373,382.5,190.373" style="stroke:#181818;stroke-width:1.0;"/><line style="stroke:#181818;stroke-width:1.0;" x1="55.5" x2="384.5" y1="190.373" y2="190.373"/><text fill="#000000" font-family="sans-serif" font-size="13" font-weight="bold" lengthAdjust="spacing" textLength="9" x="62.5" y="177.9756">1</text><text fill="#000000" font-family="sans-serif" font-size="13" lengthAdjust="spacing" textLength="117" x="75.5" y="170.3203">I'd like to pay Yaro</text><text fill="#000000" font-family="sans-serif" font-size="13" lengthAdjust="spacing" textLength="101" x="75.5" y="185.6309">300 BWP, please</text><rect fill="#EEEEEE" height="3" style="stroke:#EEEEEE;stroke-width:1.0;" width="1494.5" x="0" y="219.0283"/><line style="stroke:#000000;stroke-width:1.0;" x1="0" x2="1494.5" y1="219.0283" y2="219.0283"/><line style="stroke:#000000;stroke-width:1.0;" x1="0" x2="1494.5" y1="222.0283" y2="222.0283"/><rect fill="#EEEEEE" height="23.3105" style="stroke:#000000;stroke-width:2.0;" width="128" x="683.25" y="208.373"/><text fill="#000000" font-family="sans-serif" font-size="13" font-weight="bold" lengthAdjust="spacing" textLength="110" x="689.25" y="224.9414">Discovery Phase</text><line style="stroke:#181818;stroke-width:1.0;" x1="697.5" x2="687.5" y1="278.3047" y2="274.3047"/><line style="stroke:#181818;stroke-width:1.0;" x1="697.5" x2="687.5" y1="278.3047" y2="282.3047"/><line style="stroke:#181818;stroke-width:1.0;" x1="400.5" x2="698.5" y1="278.3047" y2="278.3047"/><text fill="#000000" font-family="sans-serif" font-size="13" font-weight="bold" lengthAdjust="spacing" textLength="9" x="407.5" y="265.9072">2</text><text fill="#000000" font-family="sans-serif" font-size="13" lengthAdjust="spacing" textLength="267" x="420.5" y="258.252">I want to send to MSISDN 2551234567890</text><text fill="#000000" font-family="sans-serif" font-size="13" font-weight="bold" lengthAdjust="spacing" textLength="266" x="420.5" y="273.5625">GET /parties/MSISDN/2551234567890</text><line style="stroke:#181818;stroke-width:1.0;" x1="709.5" x2="751.5" y1="352.9258" y2="352.9258"/><line style="stroke:#181818;stroke-width:1.0;" x1="751.5" x2="751.5" y1="352.9258" y2="365.9258"/><line style="stroke:#181818;stroke-width:1.0;" x1="710.5" x2="751.5" y1="365.9258" y2="365.9258"/><polygon fill="#181818" points="720.5,361.9258,710.5,365.9258,720.5,369.9258,716.5,365.9258" style="stroke:#181818;stroke-width:1.0;"/><text fill="#000000" font-family="sans-serif" font-size="13" font-weight="bold" lengthAdjust="spacing" textLength="9" x="716.5" y="340.5283">3</text><text fill="#000000" font-family="sans-serif" font-size="13" lengthAdjust="spacing" textLength="230" x="729.5" y="332.873">Who owns MSISDN 2551234567890?</text><text fill="#000000" font-family="sans-serif" font-size="13" lengthAdjust="spacing" textLength="79" x="729.5" y="348.1836">It's PayeeFSP</text><line style="stroke:#181818;stroke-width:1.0;" x1="1060.5" x2="1050.5" y1="395.2363" y2="391.2363"/><line style="stroke:#181818;stroke-width:1.0;" x1="1060.5" x2="1050.5" y1="395.2363" y2="399.2363"/><line style="stroke:#181818;stroke-width:1.0;" x1="709.5" x2="1061.5" y1="395.2363" y2="395.2363"/><text fill="#000000" font-family="sans-serif" font-size="13" font-weight="bold" lengthAdjust="spacing" textLength="9" x="716.5" y="390.4941">4</text><text fill="#000000" font-family="sans-serif" font-size="13" lengthAdjust="spacing" textLength="241" x="729.5" y="390.4941">Do you own MSISDN 2551234567890?</text><line style="stroke:#181818;stroke-width:1.0;" x1="1072.5" x2="1114.5" y1="429.5469" y2="429.5469"/><line style="stroke:#181818;stroke-width:1.0;" x1="1114.5" x2="1114.5" y1="429.5469" y2="442.5469"/><line style="stroke:#181818;stroke-width:1.0;" x1="1067.5" x2="1114.5" y1="442.5469" y2="442.5469"/><polygon fill="#181818" points="1077.5,438.5469,1067.5,442.5469,1077.5,446.5469,1073.5,442.5469" style="stroke:#181818;stroke-width:1.0;"/><text fill="#000000" font-family="sans-serif" font-size="13" font-weight="bold" lengthAdjust="spacing" textLength="9" x="1079.5" y="424.8047">5</text><text fill="#000000" font-family="sans-serif" font-size="13" lengthAdjust="spacing" textLength="366" x="1092.5" y="424.8047">Check Sanction list status &amp; trigger a refresh of the status</text><line style="stroke:#181818;stroke-width:1.0;" x1="710.5" x2="720.5" y1="482.168" y2="478.168"/><line style="stroke:#181818;stroke-width:1.0;" x1="710.5" x2="720.5" y1="482.168" y2="486.168"/><line style="stroke:#181818;stroke-width:1.0;" x1="709.5" x2="1061.5" y1="482.168" y2="482.168"/><text fill="#000000" font-family="sans-serif" font-size="13" font-weight="bold" lengthAdjust="spacing" textLength="9" x="726.5" y="469.7705">6</text><text fill="#000000" font-family="sans-serif" font-size="13" lengthAdjust="spacing" textLength="223" x="739.5" y="462.1152">Yes, it's Yaro. He can receive in TZS</text><text fill="#000000" font-family="sans-serif" font-size="13" font-weight="bold" lengthAdjust="spacing" textLength="266" x="739.5" y="477.4258">PUT /parties/MSISDN/2551234567890</text><path d="M945,525.168 L945,550.168 L1189,550.168 L1189,535.168 L1179,525.168 L945,525.168 " fill="#FEFFDD" style="stroke:#181818;stroke-width:0.5;"/><path d="M1179,525.168 L1179,535.168 L1189,535.168 L1179,525.168 " fill="#FEFFDD" style="stroke:#181818;stroke-width:0.5;"/><text fill="#000000" font-family="sans-serif" font-size="13" lengthAdjust="spacing" textLength="223" x="951" y="542.7363">Payee Info with Encrypted KYC Data</text><line style="stroke:#181818;stroke-width:1.0;" x1="401.5" x2="411.5" y1="592.0996" y2="588.0996"/><line style="stroke:#181818;stroke-width:1.0;" x1="401.5" x2="411.5" y1="592.0996" y2="596.0996"/><line style="stroke:#181818;stroke-width:1.0;" x1="400.5" x2="698.5" y1="592.0996" y2="592.0996"/><text fill="#000000" font-family="sans-serif" font-size="13" font-weight="bold" lengthAdjust="spacing" textLength="9" x="417.5" y="579.7021">7</text><text fill="#000000" font-family="sans-serif" font-size="13" lengthAdjust="spacing" textLength="223" x="430.5" y="572.0469">Yes, it's Yaro. He can receive in TZS</text><text fill="#000000" font-family="sans-serif" font-size="13" font-weight="bold" lengthAdjust="spacing" textLength="266" x="430.5" y="587.3574">PUT /parties/MSISDN/2551234567890</text><polygon fill="#181818" points="66.5,662.7207,56.5,666.7207,66.5,670.7207,62.5,666.7207" style="stroke:#181818;stroke-width:1.0;"/><line style="stroke:#181818;stroke-width:1.0;" x1="60.5" x2="389.5" y1="666.7207" y2="666.7207"/><text fill="#000000" font-family="sans-serif" font-size="13" font-weight="bold" lengthAdjust="spacing" textLength="9" x="72.5" y="654.3232">8</text><text fill="#000000" font-family="sans-serif" font-size="13" lengthAdjust="spacing" textLength="294" x="85.5" y="646.668">Hi, $senderName: The number belongs to Yaro</text><text fill="#000000" font-family="sans-serif" font-size="13" lengthAdjust="spacing" textLength="232" x="85.5" y="661.9785">Let me know if you want to go ahead</text><polygon fill="#181818" points="378.5,692.0313,388.5,696.0313,378.5,700.0313,382.5,696.0313" style="stroke:#181818;stroke-width:1.0;"/><line style="stroke:#181818;stroke-width:1.0;" x1="55.5" x2="384.5" y1="696.0313" y2="696.0313"/><text fill="#000000" font-family="sans-serif" font-size="13" font-weight="bold" lengthAdjust="spacing" textLength="9" x="62.5" y="691.2891">9</text><text fill="#000000" font-family="sans-serif" font-size="13" lengthAdjust="spacing" textLength="257" x="75.5" y="691.2891">Payer has accepted the party information</text><!--SRC=[jLTRKzj657xNhrZSJ6afQYHPaYLFeMCi79nmSP7RG4idirwjR0LPwwpMWDF9V-_PbILBnaacdIaFOCxbEvSz-vtrteiycI_I94veX8wGu4kgxRsO9H4D7nD1PW4LE4b14-CqboeSFU2CqAZFEEspBAD4C3v8sUF6EwTPHFavpiKbdbEGjrgLDBWwaGBJTrtTS7NJbIfE2KqUA2_DRp5dTVaWuHkiRUL54aKfhKSgDTiPbFATEIpmYlB-adEQaPLKdxmTbN9Qbu__32lxGJWQ1b8uMlzNUJGqTAs9dnQ5S12SlHlSL30NuJ0CBgN2SZjUntNijcLMK3MjuvXMstR0o3Sg_NLHLc_EbfcGPhPj69MQXz3tZQwzqT01LQqfhGNcKofgCDvQ0MdtPrAPXsp9YN9gjvkQiNAM6dVZLPW_2mwQyUTY2IPmseXMxxtZRDiKG7KRqrX34PR1OUS9owxfXoNDnL1EUCkpF48wJWpdxjYwRJfKzs8IwL7SSGdnsvO_yPlkXP_ZcR7hqLYVE7OCVcwi-wPhwfYqRUfvFlRiYVIRiJaTSvpbc8ZAEHSyoQPI_M7912s4RS_olGxsz8v3g6uRxGvW6uPEx8v33O-O7QkZwjr6Ytn27J-ozRRZUxhTzbtTSzk63YbE9WOCYUsOLImrcgTFYuHZYQ3coB1CtV1qoncRTjViT0t_PzTj_sIOtQ9rbIFzHaV2vlD4DFhTwH0_wdYHJYmNwxRTiNLlqYQw3trsiMVQavX8ruWAokT91drIxOif_xPgnN_oYf-0nQAahF3LzSTpF1vrWjU-i4SwVdVICzxs_CUF7zDyEOtXTCQPUtyQzkABzP1iVC-kk6NfP-rUF0xEU7W_UlzQ_36wZjwmvVBYFhWPNzlqVVeRzjxaBKqJYKWfkgRGBo4P5PLLesKEFK0Nx3rE6LkWmGtgZOOv6btrxp9rcYW0Ga6yw7AEDfEAWBDdA3oz311MTql3afvHQys-aWrR2EUePseJzhJcBGNNGj-T9zEPE4cN524DeGNc8Y790iCDRTY1Us1gW8S0GjCQTbNInVPGng6fQVigMf3aX46gAnHI_f0GMWQzfIbi46r_AshlF4HN79DqdVHvgErNSHKYz6R1sGEiAzvwdlNWPdINLKjAOO18QqAeCT_HWfqze7TPMU8sSc1jWCkkrnTRKOAbuQLWsN8-eLpJUgP-79ZTuNw4qkIU8i4Wv0er_EwoPppUN5Q7Q95I3CjPEpf2cnQFPY13HqSocUG12ofFBO20no54H8-o9eWd1qF-NM-P-igvomuENfsEqKlL1fg_BCGlwpO71njyEEYz94O_r9yKUyMhu4SjD7K83SK2Xw3XVfeYkIyccDpBw2ksrFOWaoJM8bfF6Dnalczd3B77BD-LvgztsL3ivwYsU9NRSM1r0mKjNNTwrdfZVI7tmDABjdqjTp2KKL5_Ha4NmhLMt90ckK2vm6APe-y1CvbEuJPXkC4nf_aCiHY96LrRr1i07PMGClGjpGzHekgiJyVFw8mYWZEq5g8aGyqtYpp5qUzVFSNFLv_1Ba0fZONC4_e4LmFL0PNW7_LR_hIaU3MCXbdCMjsQeguShnOKbAqYVEjmfn7DX4o5IyDwjjlcSRuOHXiZDG6jokJJnherfvpCOF3xASvpm2Pgi_LPf99PB-cQVIRlRNVx8jSC5i2xBCFfxc9X6yBLVBeiKBQKSVceRGIedhhRHSwhPsx3VlFwtNP8yGxuyadSQjX-sdADOFQkufE4Yrd36nxEsr7kLqJMpkUgazBwbzECyDL2m0YzkUsZ00jylFiqykLYmJWOhaSLPWa0_YhFiHpW5lfR-NnI_2gd4QwR_3AY1bEINJMLYifbFiKYV9v97KBTs6yYBmi8m42l66msl8kkh3Nl_F-tjKwHN-0ji-AjBwGjzxFS2pspYywIGrHxAtJH67Yfs5PeGbEMJND9USrlR7VPET0XVBZFu6iWP2CfjzmlKuRmZEAet7MeU4h0SaAO4AfEHvAVklFGZsgMj7y1]--></g></svg>