<?xml version="1.0" encoding="us-ascii" standalone="no"?><svg xmlns="http://www.w3.org/2000/svg" xmlns:xlink="http://www.w3.org/1999/xlink" contentStyleType="text/css" height="1113px" preserveAspectRatio="none" style="width:2039px;height:1113px;background:#FFFFFF;" version="1.1" viewBox="0 0 2039 1113" width="2039px" zoomAndPan="magnify"><defs/><g><text fill="#000000" font-family="sans-serif" font-size="14" font-weight="bold" lengthAdjust="spacing" textLength="388" x="821.5" y="28.5352">Cross Currency Payment using Mojaloop FX APIs POC</text><text fill="#000000" font-family="sans-serif" font-size="14" font-weight="bold" lengthAdjust="spacing" textLength="391" x="820" y="45.0234">Payer DFSP requests conversion with RECEIVE amount</text><rect fill="#ADD8E6" height="1047.7539" style="stroke:#181818;stroke-width:0.5;" width="296.5" x="255.5" y="59.9766"/><text fill="#000000" font-family="sans-serif" font-size="13" font-weight="bold" lengthAdjust="spacing" textLength="74" x="366.75" y="72.5449">Payer DFSP</text><rect fill="#FFFFE0" height="1047.7539" style="stroke:#181818;stroke-width:0.5;" width="124" x="1137.5" y="59.9766"/><text fill="#000000" font-family="sans-serif" font-size="13" font-weight="bold" lengthAdjust="spacing" textLength="118" x="1140.5" y="72.5449">Discovery Service</text><rect fill="#DDDDDD" height="1047.7539" style="stroke:#181818;stroke-width:0.5;" width="222" x="1263.5" y="59.9766"/><text fill="#000000" font-family="sans-serif" font-size="13" font-weight="bold" lengthAdjust="spacing" textLength="78" x="1335.5" y="72.5449">FX provider</text><rect fill="#ADD8E6" height="1047.7539" style="stroke:#181818;stroke-width:0.5;" width="495.5" x="1487.5" y="59.9766"/><text fill="#000000" font-family="sans-serif" font-size="13" font-weight="bold" lengthAdjust="spacing" textLength="76" x="1697.25" y="72.5449">Payee DFSP</text><rect fill="#FFFFFF" height="117.2422" style="stroke:#181818;stroke-width:1.0;" width="10" x="500" y="219.6836"/><rect fill="#FFFFFF" height="111.2422" style="stroke:#181818;stroke-width:1.0;" width="10" x="500" y="908"/><rect fill="#FFFFFF" height="247.4844" style="stroke:#181818;stroke-width:1.0;" width="10" x="908" y="307.6152"/><rect fill="#FFFFFF" height="322.2793" style="stroke:#181818;stroke-width:1.0;" width="10" x="908" y="615.0313"/><rect fill="#FFFFFF" height="29.3105" style="stroke:#181818;stroke-width:1.0;" width="10" x="1194.5" y="366.2363"/><rect fill="#FFFFFF" height="438.5215" style="stroke:#181818;stroke-width:1.0;" width="10" x="1529.5" y="424.8574"/><line style="stroke:#181818;stroke-width:0.5;stroke-dasharray:5.0,5.0;" x1="28" x2="28" y1="143.752" y2="1028.2422"/><line style="stroke:#181818;stroke-width:0.5;stroke-dasharray:5.0,5.0;" x1="299.5" x2="299.5" y1="143.752" y2="1028.2422"/><line style="stroke:#181818;stroke-width:0.5;stroke-dasharray:5.0,5.0;" x1="505" x2="505" y1="143.752" y2="1028.2422"/><line style="stroke:#181818;stroke-width:0.5;stroke-dasharray:5.0,5.0;" x1="913" x2="913" y1="143.752" y2="1028.2422"/><line style="stroke:#181818;stroke-width:0.5;stroke-dasharray:5.0,5.0;" x1="1199" x2="1199" y1="143.752" y2="1028.2422"/><line style="stroke:#181818;stroke-width:0.5;stroke-dasharray:5.0,5.0;" x1="1310.5" x2="1310.5" y1="143.752" y2="1028.2422"/><line style="stroke:#181818;stroke-width:0.5;stroke-dasharray:5.0,5.0;" x1="1422.5" x2="1422.5" y1="143.752" y2="1028.2422"/><line style="stroke:#181818;stroke-width:0.5;stroke-dasharray:5.0,5.0;" x1="1534.5" x2="1534.5" y1="143.752" y2="1028.2422"/><line style="stroke:#181818;stroke-width:0.5;stroke-dasharray:5.0,5.0;" x1="1937" x2="1937" y1="143.752" y2="1028.2422"/><line style="stroke:#181818;stroke-width:0.5;stroke-dasharray:5.0,5.0;" x1="2008" x2="2008" y1="143.752" y2="1028.2422"/><text fill="#000000" font-family="sans-serif" font-size="14" lengthAdjust="spacing" textLength="40" x="5" y="140.7988">Keeya</text><ellipse cx="28" cy="75.7637" fill="#E2E2F0" rx="8" ry="8" style="stroke:#181818;stroke-width:0.5;"/><path d="M28,83.7637 L28,110.7637 M15,91.7637 L41,91.7637 M28,110.7637 L15,125.7637 M28,110.7637 L41,125.7637 " fill="none" style="stroke:#181818;stroke-width:0.5;"/><text fill="#000000" font-family="sans-serif" font-size="14" lengthAdjust="spacing" textLength="40" x="5" y="1040.7773">Keeya</text><ellipse cx="28" cy="1052.2305" fill="#E2E2F0" rx="8" ry="8" style="stroke:#181818;stroke-width:0.5;"/><path d="M28,1060.2305 L28,1087.2305 M15,1068.2305 L41,1068.2305 M28,1087.2305 L15,1102.2305 M28,1087.2305 L41,1102.2305 " fill="none" style="stroke:#181818;stroke-width:0.5;"/><rect fill="#E2E2F0" height="30.4883" rx="2.5" ry="2.5" style="stroke:#181818;stroke-width:0.5;" width="81" x="259.5" y="112.2637"/><text fill="#000000" font-family="sans-serif" font-size="14" lengthAdjust="spacing" textLength="67" x="266.5" y="132.7988">Payer CBS</text><rect fill="#E2E2F0" height="30.4883" rx="2.5" ry="2.5" style="stroke:#181818;stroke-width:0.5;" width="81" x="259.5" y="1027.2422"/><text fill="#000000" font-family="sans-serif" font-size="14" lengthAdjust="spacing" textLength="67" x="266.5" y="1047.7773">Payer CBS</text><rect fill="#E2E2F0" height="63.4648" rx="2.5" ry="2.5" style="stroke:#181818;stroke-width:0.5;" width="86" x="462" y="79.2871"/><text fill="#000000" font-family="sans-serif" font-size="14" lengthAdjust="spacing" textLength="37" x="486.5" y="99.8223">Payer</text><text fill="#000000" font-family="sans-serif" font-size="14" lengthAdjust="spacing" textLength="64" x="473" y="116.3105">Mojaloop</text><text fill="#000000" font-family="sans-serif" font-size="14" lengthAdjust="spacing" textLength="72" x="469" y="132.7988">Connector</text><rect fill="#E2E2F0" height="63.4648" rx="2.5" ry="2.5" style="stroke:#181818;stroke-width:0.5;" width="86" x="462" y="1027.2422"/><text fill="#000000" font-family="sans-serif" font-size="14" lengthAdjust="spacing" textLength="37" x="486.5" y="1047.7773">Payer</text><text fill="#000000" font-family="sans-serif" font-size="14" lengthAdjust="spacing" textLength="64" x="473" y="1064.2656">Mojaloop</text><text fill="#000000" font-family="sans-serif" font-size="14" lengthAdjust="spacing" textLength="72" x="469" y="1080.7539">Connector</text><rect fill="#E2E2F0" height="30.4883" rx="2.5" ry="2.5" style="stroke:#181818;stroke-width:0.5;" width="126" x="850" y="112.2637"/><text fill="#000000" font-family="sans-serif" font-size="14" lengthAdjust="spacing" textLength="112" x="857" y="132.7988">Mojaloop Switch</text><rect fill="#E2E2F0" height="30.4883" rx="2.5" ry="2.5" style="stroke:#181818;stroke-width:0.5;" width="126" x="850" y="1027.2422"/><text fill="#000000" font-family="sans-serif" font-size="14" lengthAdjust="spacing" textLength="112" x="857" y="1047.7773">Mojaloop Switch</text><rect fill="#E2E2F0" height="30.4883" rx="2.5" ry="2.5" style="stroke:#181818;stroke-width:0.5;" width="87" x="1156" y="112.2637"/><text fill="#000000" font-family="sans-serif" font-size="14" lengthAdjust="spacing" textLength="73" x="1163" y="132.7988">ALS Oracle</text><rect fill="#E2E2F0" height="30.4883" rx="2.5" ry="2.5" style="stroke:#181818;stroke-width:0.5;" width="87" x="1156" y="1027.2422"/><text fill="#000000" font-family="sans-serif" font-size="14" lengthAdjust="spacing" textLength="73" x="1163" y="1047.7773">ALS Oracle</text><rect fill="#E2E2F0" height="46.9766" rx="2.5" ry="2.5" style="stroke:#181818;stroke-width:0.5;" width="86" x="1267.5" y="95.7754"/><text fill="#000000" font-family="sans-serif" font-size="14" lengthAdjust="spacing" textLength="25" x="1298" y="116.3105">FXP</text><text fill="#000000" font-family="sans-serif" font-size="14" lengthAdjust="spacing" textLength="72" x="1274.5" y="132.7988">Connector</text><rect fill="#E2E2F0" height="46.9766" rx="2.5" ry="2.5" style="stroke:#181818;stroke-width:0.5;" width="86" x="1267.5" y="1027.2422"/><text fill="#000000" font-family="sans-serif" font-size="14" lengthAdjust="spacing" textLength="25" x="1298" y="1047.7773">FXP</text><text fill="#000000" font-family="sans-serif" font-size="14" lengthAdjust="spacing" textLength="72" x="1274.5" y="1064.2656">Connector</text><rect fill="#E2E2F0" height="30.4883" rx="2.5" ry="2.5" style="stroke:#181818;stroke-width:0.5;" width="118" x="1363.5" y="112.2637"/><text fill="#000000" font-family="sans-serif" font-size="14" lengthAdjust="spacing" textLength="104" x="1370.5" y="132.7988">Backend FX API</text><rect fill="#E2E2F0" height="30.4883" rx="2.5" ry="2.5" style="stroke:#181818;stroke-width:0.5;" width="118" x="1363.5" y="1027.2422"/><text fill="#000000" font-family="sans-serif" font-size="14" lengthAdjust="spacing" textLength="104" x="1370.5" y="1047.7773">Backend FX API</text><rect fill="#E2E2F0" height="63.4648" rx="2.5" ry="2.5" style="stroke:#181818;stroke-width:0.5;" width="86" x="1491.5" y="79.2871"/><text fill="#000000" font-family="sans-serif" font-size="14" lengthAdjust="spacing" textLength="39" x="1515" y="99.8223">Payee</text><text fill="#000000" font-family="sans-serif" font-size="14" lengthAdjust="spacing" textLength="64" x="1502.5" y="116.3105">Mojaloop</text><text fill="#000000" font-family="sans-serif" font-size="14" lengthAdjust="spacing" textLength="72" x="1498.5" y="132.7988">Connector</text><rect fill="#E2E2F0" height="63.4648" rx="2.5" ry="2.5" style="stroke:#181818;stroke-width:0.5;" width="86" x="1491.5" y="1027.2422"/><text fill="#000000" font-family="sans-serif" font-size="14" lengthAdjust="spacing" textLength="39" x="1515" y="1047.7773">Payee</text><text fill="#000000" font-family="sans-serif" font-size="14" lengthAdjust="spacing" textLength="64" x="1502.5" y="1064.2656">Mojaloop</text><text fill="#000000" font-family="sans-serif" font-size="14" lengthAdjust="spacing" textLength="72" x="1498.5" y="1080.7539">Connector</text><rect fill="#E2E2F0" height="30.4883" rx="2.5" ry="2.5" style="stroke:#181818;stroke-width:0.5;" width="83" x="1896" y="112.2637"/><text fill="#000000" font-family="sans-serif" font-size="14" lengthAdjust="spacing" textLength="69" x="1903" y="132.7988">Payee CBS</text><rect fill="#E2E2F0" height="30.4883" rx="2.5" ry="2.5" style="stroke:#181818;stroke-width:0.5;" width="83" x="1896" y="1027.2422"/><text fill="#000000" font-family="sans-serif" font-size="14" lengthAdjust="spacing" textLength="69" x="1903" y="1047.7773">Payee CBS</text><text fill="#000000" font-family="sans-serif" font-size="14" lengthAdjust="spacing" textLength="32" x="1989" y="140.7988">Yaro</text><ellipse cx="2008" cy="75.7637" fill="#E2E2F0" rx="8" ry="8" style="stroke:#181818;stroke-width:0.5;"/><path d="M2008,83.7637 L2008,110.7637 M1995,91.7637 L2021,91.7637 M2008,110.7637 L1995,125.7637 M2008,110.7637 L2021,125.7637 " fill="none" style="stroke:#181818;stroke-width:0.5;"/><text fill="#000000" font-family="sans-serif" font-size="14" lengthAdjust="spacing" textLength="32" x="1989" y="1040.7773">Yaro</text><ellipse cx="2008" cy="1052.2305" fill="#E2E2F0" rx="8" ry="8" style="stroke:#181818;stroke-width:0.5;"/><path d="M2008,1060.2305 L2008,1087.2305 M1995,1068.2305 L2021,1068.2305 M2008,1087.2305 L1995,1102.2305 M2008,1087.2305 L2021,1102.2305 " fill="none" style="stroke:#181818;stroke-width:0.5;"/><rect fill="#FFFFFF" height="117.2422" style="stroke:#181818;stroke-width:1.0;" width="10" x="500" y="219.6836"/><rect fill="#FFFFFF" height="111.2422" style="stroke:#181818;stroke-width:1.0;" width="10" x="500" y="908"/><rect fill="#FFFFFF" height="247.4844" style="stroke:#181818;stroke-width:1.0;" width="10" x="908" y="307.6152"/><rect fill="#FFFFFF" height="322.2793" style="stroke:#181818;stroke-width:1.0;" width="10" x="908" y="615.0313"/><rect fill="#FFFFFF" height="29.3105" style="stroke:#181818;stroke-width:1.0;" width="10" x="1194.5" y="366.2363"/><rect fill="#FFFFFF" height="438.5215" style="stroke:#181818;stroke-width:1.0;" width="10" x="1529.5" y="424.8574"/><polygon fill="#181818" points="288,186.373,298,190.373,288,194.373,292,190.373" style="stroke:#181818;stroke-width:1.0;"/><line style="stroke:#181818;stroke-width:1.0;" x1="28" x2="294" y1="190.373" y2="190.373"/><text fill="#000000" font-family="sans-serif" font-size="13" font-weight="bold" lengthAdjust="spacing" textLength="9" x="35" y="177.9756">1</text><text fill="#000000" font-family="sans-serif" font-size="13" lengthAdjust="spacing" textLength="117" x="48" y="170.3203">I'd like to pay Yaro</text><text fill="#000000" font-family="sans-serif" font-size="13" lengthAdjust="spacing" textLength="235" x="48" y="185.6309">50000 TZS for his latest book, please</text><polygon fill="#181818" points="488,215.6836,498,219.6836,488,223.6836,492,219.6836" style="stroke:#181818;stroke-width:1.0;"/><line style="stroke:#181818;stroke-width:1.0;" x1="300" x2="494" y1="219.6836" y2="219.6836"/><text fill="#000000" font-family="sans-serif" font-size="13" font-weight="bold" lengthAdjust="spacing" textLength="9" x="307" y="214.9414">2</text><text fill="#000000" font-family="sans-serif" font-size="13" lengthAdjust="spacing" textLength="168" x="320" y="214.9414">Initiate remittance transfer</text><rect fill="#EEEEEE" height="3" style="stroke:#EEEEEE;stroke-width:1.0;" width="2032" x="0" y="248.3389"/><line style="stroke:#000000;stroke-width:1.0;" x1="0" x2="2032" y1="248.3389" y2="248.3389"/><line style="stroke:#000000;stroke-width:1.0;" x1="0" x2="2032" y1="251.3389" y2="251.3389"/><rect fill="#EEEEEE" height="23.3105" style="stroke:#000000;stroke-width:2.0;" width="128" x="952" y="237.6836"/><text fill="#000000" font-family="sans-serif" font-size="13" font-weight="bold" lengthAdjust="spacing" textLength="110" x="958" y="254.252">Discovery Phase</text><line style="stroke:#181818;stroke-width:1.0;" x1="906" x2="896" y1="307.6152" y2="303.6152"/><line style="stroke:#181818;stroke-width:1.0;" x1="906" x2="896" y1="307.6152" y2="311.6152"/><line style="stroke:#181818;stroke-width:1.0;" x1="510" x2="907" y1="307.6152" y2="307.6152"/><text fill="#000000" font-family="sans-serif" font-size="13" font-weight="bold" lengthAdjust="spacing" textLength="9" x="517" y="295.2178">3</text><text fill="#000000" font-family="sans-serif" font-size="13" lengthAdjust="spacing" textLength="267" x="530" y="287.5625">I want to send to MSISDN 2551234567890</text><text fill="#000000" font-family="sans-serif" font-size="13" font-weight="bold" lengthAdjust="spacing" textLength="266" x="530" y="302.873">GET /parties/MSISDN/2551234567890</text><line style="stroke:#181818;stroke-width:1.0;" x1="506" x2="516" y1="336.9258" y2="332.9258"/><line style="stroke:#181818;stroke-width:1.0;" x1="506" x2="516" y1="336.9258" y2="340.9258"/><line style="stroke:#181818;stroke-width:1.0;stroke-dasharray:2.0,2.0;" x1="505" x2="907" y1="336.9258" y2="336.9258"/><text fill="#000000" font-family="sans-serif" font-size="13" font-weight="bold" lengthAdjust="spacing" textLength="9" x="522" y="332.1836">4</text><text fill="#000000" font-family="sans-serif" font-size="13" lengthAdjust="spacing" textLength="145" x="535" y="332.1836">202 I'll get back to you</text><polygon fill="#181818" points="1182.5,362.2363,1192.5,366.2363,1182.5,370.2363,1186.5,366.2363" style="stroke:#181818;stroke-width:1.0;"/><line style="stroke:#181818;stroke-width:1.0;" x1="918" x2="1188.5" y1="366.2363" y2="366.2363"/><text fill="#000000" font-family="sans-serif" font-size="13" font-weight="bold" lengthAdjust="spacing" textLength="9" x="925" y="361.4941">5</text><text fill="#000000" font-family="sans-serif" font-size="13" lengthAdjust="spacing" textLength="230" x="938" y="361.4941">Who owns MSISDN 2551234567890?</text><polygon fill="#181818" points="929,391.5469,919,395.5469,929,399.5469,925,395.5469" style="stroke:#181818;stroke-width:1.0;"/><line style="stroke:#181818;stroke-width:1.0;stroke-dasharray:2.0,2.0;" x1="923" x2="1198.5" y1="395.5469" y2="395.5469"/><text fill="#000000" font-family="sans-serif" font-size="13" font-weight="bold" lengthAdjust="spacing" textLength="9" x="935" y="390.8047">6</text><text fill="#000000" font-family="sans-serif" font-size="13" lengthAdjust="spacing" textLength="79" x="948" y="390.8047">It's PayeeFSP</text><line style="stroke:#181818;stroke-width:1.0;" x1="1527.5" x2="1517.5" y1="424.8574" y2="420.8574"/><line style="stroke:#181818;stroke-width:1.0;" x1="1527.5" x2="1517.5" y1="424.8574" y2="428.8574"/><line style="stroke:#181818;stroke-width:1.0;" x1="918" x2="1528.5" y1="424.8574" y2="424.8574"/><text fill="#000000" font-family="sans-serif" font-size="13" font-weight="bold" lengthAdjust="spacing" textLength="9" x="925" y="420.1152">7</text><text fill="#000000" font-family="sans-serif" font-size="13" lengthAdjust="spacing" textLength="241" x="938" y="420.1152">Do you own MSISDN 2551234567890?</text><line style="stroke:#181818;stroke-width:1.0;" x1="919" x2="929" y1="454.168" y2="450.168"/><line style="stroke:#181818;stroke-width:1.0;" x1="919" x2="929" y1="454.168" y2="458.168"/><line style="stroke:#181818;stroke-width:1.0;stroke-dasharray:2.0,2.0;" x1="918" x2="1528.5" y1="454.168" y2="454.168"/><text fill="#000000" font-family="sans-serif" font-size="13" font-weight="bold" lengthAdjust="spacing" textLength="9" x="935" y="449.4258">8</text><text fill="#000000" font-family="sans-serif" font-size="13" lengthAdjust="spacing" textLength="145" x="948" y="449.4258">202 I'll get back to you</text><line style="stroke:#181818;stroke-width:1.0;" x1="1539.5" x2="1581.5" y1="483.4785" y2="483.4785"/><line style="stroke:#181818;stroke-width:1.0;" x1="1581.5" x2="1581.5" y1="483.4785" y2="496.4785"/><line style="stroke:#181818;stroke-width:1.0;" x1="1540.5" x2="1581.5" y1="496.4785" y2="496.4785"/><polygon fill="#181818" points="1550.5,492.4785,1540.5,496.4785,1550.5,500.4785,1546.5,496.4785" style="stroke:#181818;stroke-width:1.0;"/><text fill="#000000" font-family="sans-serif" font-size="13" font-weight="bold" lengthAdjust="spacing" textLength="9" x="1546.5" y="478.7363">9</text><text fill="#000000" font-family="sans-serif" font-size="13" lengthAdjust="spacing" textLength="366" x="1559.5" y="478.7363">Check Sanction list status &amp; trigger a refresh of the status</text><polygon fill="#181818" points="1925.5,521.7891,1935.5,525.7891,1925.5,529.7891,1929.5,525.7891" style="stroke:#181818;stroke-width:1.0;"/><line style="stroke:#181818;stroke-width:1.0;" x1="1539.5" x2="1931.5" y1="525.7891" y2="525.7891"/><text fill="#000000" font-family="sans-serif" font-size="13" font-weight="bold" lengthAdjust="spacing" textLength="18" x="1546.5" y="521.0469">10</text><text fill="#000000" font-family="sans-serif" font-size="13" lengthAdjust="spacing" textLength="233" x="1568.5" y="521.0469">Check account and get currency type</text><polygon fill="#181818" points="1550.5,551.0996,1540.5,555.0996,1550.5,559.0996,1546.5,555.0996" style="stroke:#181818;stroke-width:1.0;"/><line style="stroke:#181818;stroke-width:1.0;stroke-dasharray:2.0,2.0;" x1="1544.5" x2="1936.5" y1="555.0996" y2="555.0996"/><text fill="#000000" font-family="sans-serif" font-size="13" font-weight="bold" lengthAdjust="spacing" textLength="18" x="1556.5" y="550.3574">11</text><text fill="#000000" font-family="sans-serif" font-size="13" lengthAdjust="spacing" textLength="39" x="1578.5" y="550.3574">Result</text><line style="stroke:#181818;stroke-width:1.0;" x1="919" x2="929" y1="615.0313" y2="611.0313"/><line style="stroke:#181818;stroke-width:1.0;" x1="919" x2="929" y1="615.0313" y2="619.0313"/><line style="stroke:#181818;stroke-width:1.0;" x1="918" x2="1528.5" y1="615.0313" y2="615.0313"/><text fill="#000000" font-family="sans-serif" font-size="13" font-weight="bold" lengthAdjust="spacing" textLength="18" x="935" y="594.9785">12</text><text fill="#000000" font-family="sans-serif" font-size="13" lengthAdjust="spacing" textLength="227" x="957" y="579.668">Yes, it's Yaro. He can receive in TZS,</text><text fill="#000000" font-family="sans-serif" font-size="13" lengthAdjust="spacing" textLength="171" x="961" y="594.9785">and I can convert from BWP</text><text fill="#000000" font-family="sans-serif" font-size="13" font-weight="bold" lengthAdjust="spacing" textLength="266" x="957" y="610.2891">PUT /parties/MSISDN/2551234567890</text><path d="M1390,628.0313 L1390,837.0313 L1679,837.0313 L1679,638.0313 L1669,628.0313 L1390,628.0313 " fill="#FEFFDD" style="stroke:#181818;stroke-width:0.5;"/><path d="M1669,628.0313 L1669,638.0313 L1679,638.0313 L1669,628.0313 " fill="#FEFFDD" style="stroke:#181818;stroke-width:0.5;"/><text fill="#000000" font-family="sans-serif" font-size="13" lengthAdjust="spacing" textLength="78" x="1396" y="645.5996">PUT /parties</text><text fill="#000000" font-family="sans-serif" font-size="13" lengthAdjust="spacing" textLength="4" x="1396" y="660.9102">&#160;</text><text fill="#000000" font-family="sans-serif" font-size="13" lengthAdjust="spacing" textLength="54" x="1396" y="676.2207">"party": {</text><text fill="#000000" font-family="sans-serif" font-size="13" lengthAdjust="spacing" textLength="91" x="1396" y="691.5313">"partyIdInfo": {</text><text fill="#000000" font-family="sans-serif" font-size="13" lengthAdjust="spacing" textLength="155" x="1396" y="706.8418">"partyIdType": "MSISDN",</text><text fill="#000000" font-family="sans-serif" font-size="13" lengthAdjust="spacing" textLength="221" x="1396" y="722.1523">"partyIdentifier": "2551234567890"</text><text fill="#000000" font-family="sans-serif" font-size="13" lengthAdjust="spacing" textLength="8" x="1396" y="737.4629">},</text><text fill="#000000" font-family="sans-serif" font-size="13" lengthAdjust="spacing" textLength="94" x="1396" y="752.7734">"name": "Yaro",</text><text fill="#000000" font-family="sans-serif" font-size="13" lengthAdjust="spacing" textLength="149" x="1396" y="768.084">"supportedCurrencies":[</text><text fill="#000000" font-family="sans-serif" font-size="13" lengthAdjust="spacing" textLength="33" x="1396" y="783.3945">"TZS"</text><text fill="#000000" font-family="sans-serif" font-size="13" lengthAdjust="spacing" textLength="8" x="1396" y="798.7051">],</text><text fill="#000000" font-family="sans-serif" font-size="13" lengthAdjust="spacing" textLength="268" x="1396" y="814.0156">"kycInformation": "&lt;Encrypted KYC Data&gt;"</text><text fill="#000000" font-family="sans-serif" font-size="13" lengthAdjust="spacing" textLength="4" x="1396" y="829.3262">}</text><line style="stroke:#181818;stroke-width:1.0;" x1="1532.5" x2="1522.5" y1="863.3789" y2="859.3789"/><line style="stroke:#181818;stroke-width:1.0;" x1="1532.5" x2="1522.5" y1="863.3789" y2="867.3789"/><line style="stroke:#181818;stroke-width:1.0;stroke-dasharray:2.0,2.0;" x1="918" x2="1533.5" y1="863.3789" y2="863.3789"/><text fill="#000000" font-family="sans-serif" font-size="13" font-weight="bold" lengthAdjust="spacing" textLength="18" x="925" y="858.6367">13</text><text fill="#000000" font-family="sans-serif" font-size="13" lengthAdjust="spacing" textLength="72" x="947" y="858.6367">200 Gotcha</text><line style="stroke:#181818;stroke-width:1.0;" x1="511" x2="521" y1="908" y2="904"/><line style="stroke:#181818;stroke-width:1.0;" x1="511" x2="521" y1="908" y2="912"/><line style="stroke:#181818;stroke-width:1.0;" x1="510" x2="907" y1="908" y2="908"/><text fill="#000000" font-family="sans-serif" font-size="13" font-weight="bold" lengthAdjust="spacing" textLength="18" x="527" y="895.6025">14</text><text fill="#000000" font-family="sans-serif" font-size="13" lengthAdjust="spacing" textLength="223" x="549" y="887.9473">Yes, it's Yaro. He can receive in TZS</text><text fill="#000000" font-family="sans-serif" font-size="13" font-weight="bold" lengthAdjust="spacing" textLength="266" x="549" y="903.2578">PUT /parties/MSISDN/2551234567890</text><line style="stroke:#181818;stroke-width:1.0;" x1="911" x2="901" y1="937.3105" y2="933.3105"/><line style="stroke:#181818;stroke-width:1.0;" x1="911" x2="901" y1="937.3105" y2="941.3105"/><line style="stroke:#181818;stroke-width:1.0;stroke-dasharray:2.0,2.0;" x1="510" x2="912" y1="937.3105" y2="937.3105"/><text fill="#000000" font-family="sans-serif" font-size="13" font-weight="bold" lengthAdjust="spacing" textLength="18" x="517" y="932.5684">15</text><text fill="#000000" font-family="sans-serif" font-size="13" lengthAdjust="spacing" textLength="72" x="539" y="932.5684">200 Gotcha</text><line style="stroke:#181818;stroke-width:1.0;" x1="510" x2="552" y1="997.2422" y2="997.2422"/><line style="stroke:#181818;stroke-width:1.0;" x1="552" x2="552" y1="997.2422" y2="1010.2422"/><line style="stroke:#181818;stroke-width:1.0;" x1="511" x2="552" y1="1010.2422" y2="1010.2422"/><polygon fill="#181818" points="521,1006.2422,511,1010.2422,521,1014.2422,517,1010.2422" style="stroke:#181818;stroke-width:1.0;"/><text fill="#000000" font-family="sans-serif" font-size="13" font-weight="bold" lengthAdjust="spacing" textLength="18" x="517" y="977.1895">16</text><text fill="#000000" font-family="sans-serif" font-size="13" lengthAdjust="spacing" textLength="266" x="539" y="961.8789">I will need to perform currency conversion</text><text fill="#000000" font-family="sans-serif" font-size="13" lengthAdjust="spacing" textLength="343" x="543" y="977.1895">but first I need to calculate how much currency I need.</text><text fill="#000000" font-family="sans-serif" font-size="13" lengthAdjust="spacing" textLength="358" x="543" y="992.5">Let me find a currency conversion provider before I start.</text><!--SRC=[fLPjJ-D64FxkNp6ufz8Ytk8GhesQL133rJhkBiAqTxJfXyKPuotEhhkxXejEzzyxkxOJ9mHeLQG8xRm-E_FChBTUQJuhSfvodC80KfPhzBPUwKmgCofDpCLjZkUVnYrTngSOFt2JP24QnlEs6uefglTiXYJqtoBEcKzYXGdo-wNYcYbfvGMRengLIg58vbPn-d7SoB4jl_ezNjYVn-CejC9nVLfuh6YmfL7luYWEtrjLSFpwXzV7lQDkq5dujRIzNYVe7lN8wCV3XVwoWdyoawKmrgntI7_BjEWkTLJB35EtQ5h6ZIBzN8mogzInB5NYdBhTLSsLSxQQuwLNPRwCsEqscgkdSXbfMBwIhLtENi_tFCzmaoECbDGQ5begtGmfMAcfy_1E_iLoAGiu_mGduqZ3-CDe8bpX8QG2WyA_IzH6Go85DLXpAO2eaS7bsUWi-kqCcCFciSH81NwB83um3ISTxqP-hblf8lhmpGM_pSnfNYA01r0mPNZ22qQWQhlHQUoytOaE6wqceW4_4ICf15e4pYtiU8G2AB7dhVWjRbknsnd77Q-267ATIBhY769Kzpp11karvhbyMCTmSX731yMIlBxeHRnCwk9HHGibxscM2DMZYzB4hSCcqRhLAKlkRDIgEurLBLtBvsPYGuatrXYVgLwmqM6bAMYRiaZVzBwz1QgY11uhZHJbx0QLvvrqzePDI_lHzXHoVeTW96MRmuhtH6mQpBMraLBIZ6l8cI664XHvjmj5ZemsLPDcRnXs-X09RZXP4Pjdt1WcQ3QDOaAd16imW6Nhnnbvms1WxyJlhGkHAIJSmxZJZ-31reC0MvRR__LYQM-PYTZPUNDs1GUkXAWFAl51ssPdPncV-BV5K_YklQQt1WIlnE-zkBD7gUaAmM40qNQUWrqUDzH_ctqkIs-BaF3Kcs8RCBaDYP3zZva4-I3q9fm_Bo5OxjAFKjbBccqDhNNR3cqDRUnX6FH3bz-6Vo4wyUdf2uR1NbNRbov8XZOhZ38aNKmjD7OLvPmwhmqpfOPlAIQ_lQNzmQZHgKATWKp1P5XRk20DVPjGB4aSkHXrrEPE6dgPUO7F86_Yx5MuBb6NkTdG3kglJMllU8rw5xYhRvli-_0BGi84r4BWOetgknFXy4NEhDh41b8bPx3wn5hoZNzzaNnFtqf8Wcn7eLe30EredfFuzZJt-_2bTOocaKZb8-4LrP24VfNPtrrHqYjaiojhq0ReEwkljR6mowI_lbrgfIwBWhvZS5eNW43w_JygtMe9gw1_rdvtyyJYLJDcMMJ3_tGc4ZKlA1IylHv1o0mRra3SehE5eUxQhw37DNBxqGQidiR7eTeX747-q_W7D1s7y4RIayKs3NnG3-N_ODY_94vxoJmpr9t5K3y3spwyThEw1Ks5ezaNY6wj5gXiSvQpkFpue4cuAOdxND7WHmkFXEL9QHy2oEG3pCeaMpfNLllaUK7pJH-eAQTki4tH5oyst20XeARQrQ7ClkVz0m00]--></g></svg>