<?xml version="1.0" encoding="us-ascii" standalone="no"?><svg xmlns="http://www.w3.org/2000/svg" xmlns:xlink="http://www.w3.org/1999/xlink" contentStyleType="text/css" height="739px" preserveAspectRatio="none" style="width:1500px;height:739px;background:#FFFFFF;" version="1.1" viewBox="0 0 1500 739" width="1500px" zoomAndPan="magnify"><defs/><g><text fill="#000000" font-family="sans-serif" font-size="14" font-weight="bold" lengthAdjust="spacing" textLength="359" x="566.75" y="28.5352">Remittance Transfer using Mojaloop FX APIs POC</text><text fill="#000000" font-family="sans-serif" font-size="14" font-weight="bold" lengthAdjust="spacing" textLength="370" x="561.25" y="45.0234">Payer DFSP requests conversion with SEND amount</text><rect fill="#ADD8E6" height="673.543" style="stroke:#181818;stroke-width:0.5;" width="97" x="342" y="59.9766"/><text fill="#000000" font-family="sans-serif" font-size="13" font-weight="bold" lengthAdjust="spacing" textLength="74" x="353.5" y="72.5449">Payer DFSP</text><rect fill="#DDDDDD" height="673.543" style="stroke:#181818;stroke-width:0.5;" width="94" x="923.5" y="59.9766"/><text fill="#000000" font-family="sans-serif" font-size="13" font-weight="bold" lengthAdjust="spacing" textLength="78" x="931.5" y="72.5449">FX provider</text><rect fill="#ADD8E6" height="673.543" style="stroke:#181818;stroke-width:0.5;" width="94" x="1019.5" y="59.9766"/><text fill="#000000" font-family="sans-serif" font-size="13" font-weight="bold" lengthAdjust="spacing" textLength="76" x="1028.5" y="72.5449">Payee DFSP</text><rect fill="#FFFFFF" height="371.7266" style="stroke:#181818;stroke-width:1.0;" width="10" x="385.5" y="190.373"/><rect fill="#FFFFFF" height="122.2422" style="stroke:#181818;stroke-width:1.0;" width="10" x="698.5" y="278.3047"/><rect fill="#FFFFFF" height="109.9316" style="stroke:#181818;stroke-width:1.0;" width="10" x="698.5" y="452.168"/><rect fill="#FFFFFF" height="116.9316" style="stroke:#181818;stroke-width:1.0;" width="10" x="1061.5" y="365.2363"/><line style="stroke:#181818;stroke-width:0.5;stroke-dasharray:5.0,5.0;" x1="55" x2="55" y1="143.752" y2="654.0313"/><line style="stroke:#181818;stroke-width:0.5;stroke-dasharray:5.0,5.0;" x1="390" x2="390" y1="143.752" y2="654.0313"/><line style="stroke:#181818;stroke-width:0.5;stroke-dasharray:5.0,5.0;" x1="703.5" x2="703.5" y1="143.752" y2="654.0313"/><line style="stroke:#181818;stroke-width:0.5;stroke-dasharray:5.0,5.0;" x1="970.5" x2="970.5" y1="143.752" y2="654.0313"/><line style="stroke:#181818;stroke-width:0.5;stroke-dasharray:5.0,5.0;" x1="1066.5" x2="1066.5" y1="143.752" y2="654.0313"/><line style="stroke:#181818;stroke-width:0.5;stroke-dasharray:5.0,5.0;" x1="1469.5" x2="1469.5" y1="143.752" y2="654.0313"/><text fill="#000000" font-family="sans-serif" font-size="14" lengthAdjust="spacing" textLength="95" x="5" y="140.7988">$senderName</text><ellipse cx="55.5" cy="75.7637" fill="#E2E2F0" rx="8" ry="8" style="stroke:#181818;stroke-width:0.5;"/><path d="M55.5,83.7637 L55.5,110.7637 M42.5,91.7637 L68.5,91.7637 M55.5,110.7637 L42.5,125.7637 M55.5,110.7637 L68.5,125.7637 " fill="none" style="stroke:#181818;stroke-width:0.5;"/><text fill="#000000" font-family="sans-serif" font-size="14" lengthAdjust="spacing" textLength="95" x="5" y="666.5664">$senderName</text><ellipse cx="55.5" cy="678.0195" fill="#E2E2F0" rx="8" ry="8" style="stroke:#181818;stroke-width:0.5;"/><path d="M55.5,686.0195 L55.5,713.0195 M42.5,694.0195 L68.5,694.0195 M55.5,713.0195 L42.5,728.0195 M55.5,713.0195 L68.5,728.0195 " fill="none" style="stroke:#181818;stroke-width:0.5;"/><rect fill="#E2E2F0" height="30.4883" rx="2.5" ry="2.5" style="stroke:#181818;stroke-width:0.5;" width="89" x="346" y="112.2637"/><text fill="#000000" font-family="sans-serif" font-size="14" lengthAdjust="spacing" textLength="75" x="353" y="132.7988">Payer DFSP</text><rect fill="#E2E2F0" height="30.4883" rx="2.5" ry="2.5" style="stroke:#181818;stroke-width:0.5;" width="89" x="346" y="653.0313"/><text fill="#000000" font-family="sans-serif" font-size="14" lengthAdjust="spacing" textLength="75" x="353" y="673.5664">Payer DFSP</text><rect fill="#E2E2F0" height="30.4883" rx="2.5" ry="2.5" style="stroke:#181818;stroke-width:0.5;" width="126" x="640.5" y="112.2637"/><text fill="#000000" font-family="sans-serif" font-size="14" lengthAdjust="spacing" textLength="112" x="647.5" y="132.7988">Mojaloop Switch</text><rect fill="#E2E2F0" height="30.4883" rx="2.5" ry="2.5" style="stroke:#181818;stroke-width:0.5;" width="126" x="640.5" y="653.0313"/><text fill="#000000" font-family="sans-serif" font-size="14" lengthAdjust="spacing" textLength="112" x="647.5" y="673.5664">Mojaloop Switch</text><rect fill="#E2E2F0" height="46.9766" rx="2.5" ry="2.5" style="stroke:#181818;stroke-width:0.5;" width="86" x="927.5" y="95.7754"/><text fill="#000000" font-family="sans-serif" font-size="14" lengthAdjust="spacing" textLength="25" x="958" y="116.3105">FXP</text><text fill="#000000" font-family="sans-serif" font-size="14" lengthAdjust="spacing" textLength="72" x="934.5" y="132.7988">Connector</text><rect fill="#E2E2F0" height="46.9766" rx="2.5" ry="2.5" style="stroke:#181818;stroke-width:0.5;" width="86" x="927.5" y="653.0313"/><text fill="#000000" font-family="sans-serif" font-size="14" lengthAdjust="spacing" textLength="25" x="958" y="673.5664">FXP</text><text fill="#000000" font-family="sans-serif" font-size="14" lengthAdjust="spacing" textLength="72" x="934.5" y="690.0547">Connector</text><rect fill="#E2E2F0" height="63.4648" rx="2.5" ry="2.5" style="stroke:#181818;stroke-width:0.5;" width="86" x="1023.5" y="79.2871"/><text fill="#000000" font-family="sans-serif" font-size="14" lengthAdjust="spacing" textLength="39" x="1047" y="99.8223">Payee</text><text fill="#000000" font-family="sans-serif" font-size="14" lengthAdjust="spacing" textLength="64" x="1034.5" y="116.3105">Mojaloop</text><text fill="#000000" font-family="sans-serif" font-size="14" lengthAdjust="spacing" textLength="72" x="1030.5" y="132.7988">Connector</text><rect fill="#E2E2F0" height="63.4648" rx="2.5" ry="2.5" style="stroke:#181818;stroke-width:0.5;" width="86" x="1023.5" y="653.0313"/><text fill="#000000" font-family="sans-serif" font-size="14" lengthAdjust="spacing" textLength="39" x="1047" y="673.5664">Payee</text><text fill="#000000" font-family="sans-serif" font-size="14" lengthAdjust="spacing" textLength="64" x="1034.5" y="690.0547">Mojaloop</text><text fill="#000000" font-family="sans-serif" font-size="14" lengthAdjust="spacing" textLength="72" x="1030.5" y="706.543">Connector</text><text fill="#000000" font-family="sans-serif" font-size="14" lengthAdjust="spacing" textLength="32" x="1450.5" y="140.7988">Yaro</text><ellipse cx="1469.5" cy="75.7637" fill="#E2E2F0" rx="8" ry="8" style="stroke:#181818;stroke-width:0.5;"/><path d="M1469.5,83.7637 L1469.5,110.7637 M1456.5,91.7637 L1482.5,91.7637 M1469.5,110.7637 L1456.5,125.7637 M1469.5,110.7637 L1482.5,125.7637 " fill="none" style="stroke:#181818;stroke-width:0.5;"/><text fill="#000000" font-family="sans-serif" font-size="14" lengthAdjust="spacing" textLength="32" x="1450.5" y="666.5664">Yaro</text><ellipse cx="1469.5" cy="678.0195" fill="#E2E2F0" rx="8" ry="8" style="stroke:#181818;stroke-width:0.5;"/><path d="M1469.5,686.0195 L1469.5,713.0195 M1456.5,694.0195 L1482.5,694.0195 M1469.5,713.0195 L1456.5,728.0195 M1469.5,713.0195 L1482.5,728.0195 " fill="none" style="stroke:#181818;stroke-width:0.5;"/><rect fill="#FFFFFF" height="371.7266" style="stroke:#181818;stroke-width:1.0;" width="10" x="385.5" y="190.373"/><rect fill="#FFFFFF" height="122.2422" style="stroke:#181818;stroke-width:1.0;" width="10" x="698.5" y="278.3047"/><rect fill="#FFFFFF" height="109.9316" style="stroke:#181818;stroke-width:1.0;" width="10" x="698.5" y="452.168"/><rect fill="#FFFFFF" height="116.9316" style="stroke:#181818;stroke-width:1.0;" width="10" x="1061.5" y="365.2363"/><polygon fill="#181818" points="373.5,186.373,383.5,190.373,373.5,194.373,377.5,190.373" style="stroke:#181818;stroke-width:1.0;"/><line style="stroke:#181818;stroke-width:1.0;" x1="55.5" x2="379.5" y1="190.373" y2="190.373"/><text fill="#000000" font-family="sans-serif" font-size="13" font-weight="bold" lengthAdjust="spacing" textLength="9" x="62.5" y="177.9756">1</text><text fill="#000000" font-family="sans-serif" font-size="13" lengthAdjust="spacing" textLength="117" x="75.5" y="170.3203">I'd like to pay Yaro</text><text fill="#000000" font-family="sans-serif" font-size="13" lengthAdjust="spacing" textLength="101" x="75.5" y="185.6309">300 BWP, please</text><rect fill="#EEEEEE" height="3" style="stroke:#EEEEEE;stroke-width:1.0;" width="1493.5" x="0" y="219.0283"/><line style="stroke:#000000;stroke-width:1.0;" x1="0" x2="1493.5" y1="219.0283" y2="219.0283"/><line style="stroke:#000000;stroke-width:1.0;" x1="0" x2="1493.5" y1="222.0283" y2="222.0283"/><rect fill="#EEEEEE" height="23.3105" style="stroke:#000000;stroke-width:2.0;" width="128" x="682.75" y="208.373"/><text fill="#000000" font-family="sans-serif" font-size="13" font-weight="bold" lengthAdjust="spacing" textLength="110" x="688.75" y="224.9414">Discovery Phase</text><line style="stroke:#181818;stroke-width:1.0;" x1="696.5" x2="686.5" y1="278.3047" y2="274.3047"/><line style="stroke:#181818;stroke-width:1.0;" x1="696.5" x2="686.5" y1="278.3047" y2="282.3047"/><line style="stroke:#181818;stroke-width:1.0;" x1="395.5" x2="697.5" y1="278.3047" y2="278.3047"/><text fill="#000000" font-family="sans-serif" font-size="13" font-weight="bold" lengthAdjust="spacing" textLength="9" x="402.5" y="265.9072">2</text><text fill="#000000" font-family="sans-serif" font-size="13" lengthAdjust="spacing" textLength="267" x="415.5" y="258.252">I want to send to MSISDN 2551234567890</text><text fill="#000000" font-family="sans-serif" font-size="13" font-weight="bold" lengthAdjust="spacing" textLength="266" x="415.5" y="273.5625">GET /parties/MSISDN/2551234567890</text><line style="stroke:#181818;stroke-width:1.0;" x1="708.5" x2="750.5" y1="322.9258" y2="322.9258"/><line style="stroke:#181818;stroke-width:1.0;" x1="750.5" x2="750.5" y1="322.9258" y2="335.9258"/><line style="stroke:#181818;stroke-width:1.0;" x1="709.5" x2="750.5" y1="335.9258" y2="335.9258"/><polygon fill="#181818" points="719.5,331.9258,709.5,335.9258,719.5,339.9258,715.5,335.9258" style="stroke:#181818;stroke-width:1.0;"/><text fill="#000000" font-family="sans-serif" font-size="13" font-weight="bold" lengthAdjust="spacing" textLength="9" x="715.5" y="310.5283">3</text><text fill="#000000" font-family="sans-serif" font-size="13" lengthAdjust="spacing" textLength="230" x="728.5" y="302.873">Who owns MSISDN 2551234567890?</text><text fill="#000000" font-family="sans-serif" font-size="13" lengthAdjust="spacing" textLength="79" x="728.5" y="318.1836">It's PayeeFSP</text><line style="stroke:#181818;stroke-width:1.0;" x1="1059.5" x2="1049.5" y1="365.2363" y2="361.2363"/><line style="stroke:#181818;stroke-width:1.0;" x1="1059.5" x2="1049.5" y1="365.2363" y2="369.2363"/><line style="stroke:#181818;stroke-width:1.0;" x1="708.5" x2="1060.5" y1="365.2363" y2="365.2363"/><text fill="#000000" font-family="sans-serif" font-size="13" font-weight="bold" lengthAdjust="spacing" textLength="9" x="715.5" y="360.4941">4</text><text fill="#000000" font-family="sans-serif" font-size="13" lengthAdjust="spacing" textLength="241" x="728.5" y="360.4941">Do you own MSISDN 2551234567890?</text><line style="stroke:#181818;stroke-width:1.0;" x1="1071.5" x2="1113.5" y1="399.5469" y2="399.5469"/><line style="stroke:#181818;stroke-width:1.0;" x1="1113.5" x2="1113.5" y1="399.5469" y2="412.5469"/><line style="stroke:#181818;stroke-width:1.0;" x1="1066.5" x2="1113.5" y1="412.5469" y2="412.5469"/><polygon fill="#181818" points="1076.5,408.5469,1066.5,412.5469,1076.5,416.5469,1072.5,412.5469" style="stroke:#181818;stroke-width:1.0;"/><text fill="#000000" font-family="sans-serif" font-size="13" font-weight="bold" lengthAdjust="spacing" textLength="9" x="1078.5" y="394.8047">5</text><text fill="#000000" font-family="sans-serif" font-size="13" lengthAdjust="spacing" textLength="366" x="1091.5" y="394.8047">Check Sanction list status &amp; trigger a refresh of the status</text><line style="stroke:#181818;stroke-width:1.0;" x1="709.5" x2="719.5" y1="452.168" y2="448.168"/><line style="stroke:#181818;stroke-width:1.0;" x1="709.5" x2="719.5" y1="452.168" y2="456.168"/><line style="stroke:#181818;stroke-width:1.0;" x1="708.5" x2="1060.5" y1="452.168" y2="452.168"/><text fill="#000000" font-family="sans-serif" font-size="13" font-weight="bold" lengthAdjust="spacing" textLength="9" x="725.5" y="439.7705">6</text><text fill="#000000" font-family="sans-serif" font-size="13" lengthAdjust="spacing" textLength="223" x="738.5" y="432.1152">Yes, it's Yaro. He can receive in TZS</text><text fill="#000000" font-family="sans-serif" font-size="13" font-weight="bold" lengthAdjust="spacing" textLength="266" x="738.5" y="447.4258">PUT /parties/MSISDN/2551234567890</text><path d="M944,495.168 L944,520.168 L1188,520.168 L1188,505.168 L1178,495.168 L944,495.168 " fill="#FEFFDD" style="stroke:#181818;stroke-width:0.5;"/><path d="M1178,495.168 L1178,505.168 L1188,505.168 L1178,495.168 " fill="#FEFFDD" style="stroke:#181818;stroke-width:0.5;"/><text fill="#000000" font-family="sans-serif" font-size="13" lengthAdjust="spacing" textLength="223" x="950" y="512.7363">Payee Info with Encrypted KYC Data</text><line style="stroke:#181818;stroke-width:1.0;" x1="391.5" x2="401.5" y1="562.0996" y2="558.0996"/><line style="stroke:#181818;stroke-width:1.0;" x1="391.5" x2="401.5" y1="562.0996" y2="566.0996"/><line style="stroke:#181818;stroke-width:1.0;" x1="390.5" x2="702.5" y1="562.0996" y2="562.0996"/><text fill="#000000" font-family="sans-serif" font-size="13" font-weight="bold" lengthAdjust="spacing" textLength="9" x="407.5" y="549.7021">7</text><text fill="#000000" font-family="sans-serif" font-size="13" lengthAdjust="spacing" textLength="223" x="420.5" y="542.0469">Yes, it's Yaro. He can receive in TZS</text><text fill="#000000" font-family="sans-serif" font-size="13" font-weight="bold" lengthAdjust="spacing" textLength="266" x="420.5" y="557.3574">PUT /parties/MSISDN/2551234567890</text><polygon fill="#181818" points="66.5,602.7207,56.5,606.7207,66.5,610.7207,62.5,606.7207" style="stroke:#181818;stroke-width:1.0;"/><line style="stroke:#181818;stroke-width:1.0;" x1="60.5" x2="389.5" y1="606.7207" y2="606.7207"/><text fill="#000000" font-family="sans-serif" font-size="13" font-weight="bold" lengthAdjust="spacing" textLength="9" x="72.5" y="594.3232">8</text><text fill="#000000" font-family="sans-serif" font-size="13" lengthAdjust="spacing" textLength="294" x="85.5" y="586.668">Hi, $senderName: The number belongs to Yaro</text><text fill="#000000" font-family="sans-serif" font-size="13" lengthAdjust="spacing" textLength="232" x="85.5" y="601.9785">Let me know if you want to go ahead</text><polygon fill="#181818" points="378.5,632.0313,388.5,636.0313,378.5,640.0313,382.5,636.0313" style="stroke:#181818;stroke-width:1.0;"/><line style="stroke:#181818;stroke-width:1.0;" x1="55.5" x2="384.5" y1="636.0313" y2="636.0313"/><text fill="#000000" font-family="sans-serif" font-size="13" font-weight="bold" lengthAdjust="spacing" textLength="9" x="62.5" y="631.2891">9</text><text fill="#000000" font-family="sans-serif" font-size="13" lengthAdjust="spacing" textLength="257" x="75.5" y="631.2891">Payer has accepted the party information</text><!--SRC=[jLTjSzf64FwkNt6ccRfrhKOIaf2OsXsCJ4pY5shHncxToHod4oWMEd8wsIQT_FVkdP0Gc2IJpjGVRBpxxBDxU_joxBt8a_aYJUA4HkW82LvGRU_5B8be-9W8CWkem4aAcXYdkLJXw05dX4PznccVPHabWl51oXxNrZdD8ihFSIukyPo2lDMgfS7LYHIOlklgXgkRhbHnIcZoG7a5lyMSDUM3XA-vjfKNIHIbjEcfqcn7KCbtnh30Iyhx1USq8qkfFdaxgkIqAH__6TRuGJWQ1b8uMlrNMsnew4eJForAuI0uUpUugMakmc4ON4g5vNQyZklORSkigHfQnp6jjkq0o3Tg_NLvhDwS5PcGCDisZ5hDGyZxMjTUQ-Y0gjHKQ87vb8e6ZRTIGDZzcLJc8IiuKKRjzgPch8obnbrRbV1dpa4p_fmlmGHEDxmrS-yusvYIg8anZHKLOHbSTfwmx9f-A6WkXhB2Mvxb4T9nOhXtnzPjqw6w5vD8Z-AEIuZVjlo9lsbUsZcU6RiUZVM9OyTWvyQwRxgcZadRffxdOy-UIBiPczCnnrcEYQYDSy6JR2hL7mecQ2biUvRlTR2dTnn2TTjeTu3RC7HYTnngUCJiM1rrtcsso2VKyIDRRpk-fzjjtzKzjste4E9aOa2Hs8vP-rAbUVgqI3YM3AgE3ClK3K-tdB5fTyrEr_1_TjtsJuRPBLDN6z9lD2HiFa_4Hhux7U977I_IYULYtROxjkvDsaJt8Sykzanx4XDf6b51-Jp984ygVJ7bttPQyP-iuYUOOb5IdV3LzSTpF1vrWjU-i4SwVdVICzxs_CUF7zEycCPmE-FClJyDU_75gaZMjcTNtBBqitOl7WTdFBmVlNyj_XXTHszOKLpS1pVZQvk-Jt_3tfkyfMaY4Ib5rnJo9UH4HTMfKP533j05UuzJnXPeS8Dwes6EHbVzkqpT9WfWe21UPZb7wqf5CBDdA3oz311MlQLXEPvHQpLzvJHi8PoZdgbDsDDgRYcw5lhkF9dEn4bQK8GqX1QOYuGa2mmTke43yy3KW0y1XQPjuEgWo-sXmA6fQVlAMv3aX46eInHI_f0GMZczfIbi46r_osllF4HN79Dq5VHvgEtNVXKZv6R1sGEiAzvw7lNWPdINrKjASO18swHGPRuZ1JjpGE-oweZRp86r9gwotbnivH4i3HU2PSLyGhcczKpzE32xm_q8fSazHOA1ooNQiBlBditnpMLrY1OfnR2SjQCZj4xnQ0OoT7GaWqaUiA3orW9mU1o2H_GepmJ-P678lwijqrmvTzd1mQlJCNgfqa3pbwNuPHDpSB3cXulUIsBqG_D9iLU-2dxKGbC7rt1Oc25ek9-cIEwB2IRtqlkI5TeUH9B4caJA4D_E66AFMRuhib_lig7Opr5Zrogpuy3g1efDckwqRAJ3-aAuWQMNcVfQk02KNb5_Ha4NGYUhSP0ckK2vmAB8qVV0cKodq40OcZRcD9yX5YCneok45j5c4YMbT7rByqEKg7Cs2-9dT4OHmHbQ2L6IeSrdYhouqUzVlRZFdpw3yOzI6WiP9-G9kW4r2PNW7_LR_hIaU3cCXbdCMjs6egaSBnSKbAtIVUjm9uXcGeR29R0PxJOypXV3Q0rI5T2g8P_MwDQSSZA3Mk-dEC-1cwXbrcUH2cQrbnluJBPgTxjt6u05Z5gMuNJtOM41GZS-NPOiMyguUiTkEAXVjzk7dDSlsmty-i6xRP3Y7VJLAxYrWVsqPHf1xLt59maNimrhU2jlUxbV4dbsFbUPbEXVJZF2bmi19VJcjey2BF3nxjl8YyM2SG2kIXLg2GZ-gkwnAk0M-blPV58ZLLOZj9ly_g4AKywtkYhLz9RnbBllUIHD2jMntpIlB1W01dh5O9dXYg3HhH15ENV-_sxLlZIjp7fQVIbOSslGg7NGCxleB3b4ZIT25urXDfLB2areoh9fBiVUvXUrk-mSHY9ykC_Wsn_49iTkjLQc3E4PnL6rub3vWe2TX30XLDsG782gxo4dTJrf_m80]--></g></svg>