<?xml version="1.0" encoding="us-ascii" standalone="no"?><svg xmlns="http://www.w3.org/2000/svg" xmlns:xlink="http://www.w3.org/1999/xlink" contentStyleType="text/css" height="921px" preserveAspectRatio="none" style="width:729px;height:921px;background:#FFFFFF;" version="1.1" viewBox="0 0 729 921" width="729px" zoomAndPan="magnify"><defs/><g><rect fill="#B0C4DE" height="909.3828" style="stroke:#181818;stroke-width:0.5;" width="300" x="163" y="6"/><text fill="#000000" font-family="sans-serif" font-size="13" font-weight="bold" lengthAdjust="spacing" textLength="174" x="226" y="19.4951">Foreign Exchange Provider</text><text fill="#000000" font-family="sans-serif" font-size="13" font-weight="bold" lengthAdjust="spacing" textLength="108" x="258" y="35.8467">Payment Manger</text><rect fill="#00008B" height="210.4609" style="stroke:#181818;stroke-width:1.0;" width="10" x="396.5" y="168.3672"/><rect fill="#00008B" height="199.9453" style="stroke:#181818;stroke-width:1.0;" width="10" x="396.5" y="578.2891"/><rect fill="none" height="468.9453" style="stroke:#000000;stroke-width:1.5;" width="712" x="10" y="393.8281"/><rect fill="none" height="155.5938" style="stroke:#000000;stroke-width:1.5;" width="378" x="334" y="593.2891"/><line style="stroke:#181818;stroke-width:0.5;stroke-dasharray:5.0,5.0;" x1="55" x2="55" y1="75.3125" y2="879.7734"/><line style="stroke:#181818;stroke-width:0.5;stroke-dasharray:5.0,5.0;" x1="237" x2="237" y1="75.3125" y2="879.7734"/><line style="stroke:#181818;stroke-width:0.5;stroke-dasharray:5.0,5.0;" x1="401" x2="401" y1="75.3125" y2="879.7734"/><line style="stroke:#181818;stroke-width:0.5;stroke-dasharray:5.0,5.0;" x1="624" x2="624" y1="75.3125" y2="879.7734"/><rect fill="#8B0000" height="31.6094" rx="2.5" ry="2.5" style="stroke:#181818;stroke-width:0.5;" width="71" x="20" y="42.7031"/><text fill="#FFFFFF" font-family="sans-serif" font-size="14" lengthAdjust="spacing" textLength="57" x="27" y="64.2363">Mojaloop</text><rect fill="#8B0000" height="31.6094" rx="2.5" ry="2.5" style="stroke:#181818;stroke-width:0.5;" width="71" x="20" y="878.7734"/><text fill="#FFFFFF" font-family="sans-serif" font-size="14" lengthAdjust="spacing" textLength="57" x="27" y="900.3066">Mojaloop</text><rect fill="#BDB76B" height="31.6094" rx="2.5" ry="2.5" style="stroke:#181818;stroke-width:0.5;" width="141" x="167" y="42.7031"/><text fill="#FFFFFF" font-family="sans-serif" font-size="14" lengthAdjust="spacing" textLength="127" x="174" y="64.2363">Mojaloop Connector</text><rect fill="#BDB76B" height="31.6094" rx="2.5" ry="2.5" style="stroke:#181818;stroke-width:0.5;" width="141" x="167" y="878.7734"/><text fill="#FFFFFF" font-family="sans-serif" font-size="14" lengthAdjust="spacing" textLength="127" x="174" y="900.3066">Mojaloop Connector</text><rect fill="#00008B" height="31.6094" rx="2.5" ry="2.5" style="stroke:#181818;stroke-width:0.5;" width="115" x="344" y="42.7031"/><text fill="#FFFFFF" font-family="sans-serif" font-size="14" lengthAdjust="spacing" textLength="101" x="351" y="64.2363">Core Connector</text><rect fill="#00008B" height="31.6094" rx="2.5" ry="2.5" style="stroke:#181818;stroke-width:0.5;" width="115" x="344" y="878.7734"/><text fill="#FFFFFF" font-family="sans-serif" font-size="14" lengthAdjust="spacing" textLength="101" x="351" y="900.3066">Core Connector</text><rect fill="#006400" height="31.6094" rx="2.5" ry="2.5" style="stroke:#181818;stroke-width:0.5;" width="155" x="547" y="42.7031"/><text fill="#FFFFFF" font-family="sans-serif" font-size="14" lengthAdjust="spacing" textLength="141" x="554" y="64.2363">Core Banking Solution</text><rect fill="#006400" height="31.6094" rx="2.5" ry="2.5" style="stroke:#181818;stroke-width:0.5;" width="155" x="547" y="878.7734"/><text fill="#FFFFFF" font-family="sans-serif" font-size="14" lengthAdjust="spacing" textLength="141" x="554" y="900.3066">Core Banking Solution</text><rect fill="#00008B" height="210.4609" style="stroke:#181818;stroke-width:1.0;" width="10" x="396.5" y="168.3672"/><rect fill="#00008B" height="199.9453" style="stroke:#181818;stroke-width:1.0;" width="10" x="396.5" y="578.2891"/><line style="stroke:#181818;stroke-width:1.0;" x1="235.5" x2="225.5" y1="107.6641" y2="103.6641"/><line style="stroke:#181818;stroke-width:1.0;" x1="235.5" x2="225.5" y1="107.6641" y2="111.6641"/><line style="stroke:#181818;stroke-width:1.0;" x1="55.5" x2="236.5" y1="107.6641" y2="107.6641"/><text fill="#000000" font-family="sans-serif" font-size="13" font-weight="bold" lengthAdjust="spacing" textLength="15" x="62.5" y="102.8076">[1]</text><text fill="#000000" font-family="sans-serif" font-size="13" font-weight="bold" lengthAdjust="spacing" textLength="36" x="81.5" y="102.8076">POST</text><text fill="#000000" font-family="sans-serif" font-size="13" lengthAdjust="spacing" textLength="60" x="121.5" y="102.8076">/fxTransfer</text><line style="stroke:#181818;stroke-width:1.0;" x1="56.5" x2="66.5" y1="138.0156" y2="134.0156"/><line style="stroke:#181818;stroke-width:1.0;" x1="56.5" x2="66.5" y1="138.0156" y2="142.0156"/><line style="stroke:#181818;stroke-width:1.0;stroke-dasharray:2.0,2.0;" x1="55.5" x2="236.5" y1="138.0156" y2="138.0156"/><text fill="#000000" font-family="sans-serif" font-size="13" font-weight="bold" lengthAdjust="spacing" textLength="15" x="72.5" y="133.1592">[2]</text><text fill="#000000" font-family="sans-serif" font-size="13" lengthAdjust="spacing" textLength="119" x="91.5" y="133.1592">HTTP 202 Response</text><polygon fill="#181818" points="384.5,164.3672,394.5,168.3672,384.5,172.3672,388.5,168.3672" style="stroke:#181818;stroke-width:1.0;"/><line style="stroke:#181818;stroke-width:1.0;" x1="237.5" x2="390.5" y1="168.3672" y2="168.3672"/><text fill="#000000" font-family="sans-serif" font-size="13" font-weight="bold" lengthAdjust="spacing" textLength="15" x="244.5" y="163.5107">[3]</text><text fill="#000000" font-family="sans-serif" font-size="13" font-weight="bold" lengthAdjust="spacing" textLength="36" x="263.5" y="163.5107">POST</text><text fill="#000000" font-family="sans-serif" font-size="13" lengthAdjust="spacing" textLength="60" x="303.5" y="163.5107">/fxTransfer</text><line style="stroke:#181818;stroke-width:1.0;" x1="406.5" x2="448.5" y1="198.7188" y2="198.7188"/><line style="stroke:#181818;stroke-width:1.0;" x1="448.5" x2="448.5" y1="198.7188" y2="211.7188"/><line style="stroke:#181818;stroke-width:1.0;" x1="407.5" x2="448.5" y1="211.7188" y2="211.7188"/><polygon fill="#181818" points="417.5,207.7188,407.5,211.7188,417.5,215.7188,413.5,211.7188" style="stroke:#181818;stroke-width:1.0;"/><text fill="#000000" font-family="sans-serif" font-size="13" font-weight="bold" lengthAdjust="spacing" textLength="15" x="413.5" y="193.8623">[4]</text><text fill="#000000" font-family="sans-serif" font-size="13" lengthAdjust="spacing" textLength="163" x="432.5" y="193.8623">Validate associated fxQuote</text><polygon fill="#181818" points="612.5,254.4219,622.5,258.4219,612.5,262.4219,616.5,258.4219" style="stroke:#181818;stroke-width:1.0;"/><line style="stroke:#181818;stroke-width:1.0;" x1="406.5" x2="618.5" y1="258.4219" y2="258.4219"/><text fill="#000000" font-family="sans-serif" font-size="13" font-weight="bold" lengthAdjust="spacing" textLength="15" x="413.5" y="245.3896">[5]</text><text fill="#000000" font-family="sans-serif" font-size="13" lengthAdjust="spacing" textLength="164" x="432.5" y="237.2139">Reserve funds for conversion</text><text fill="#000000" font-family="sans-serif" font-size="13" lengthAdjust="spacing" textLength="80" x="432.5" y="253.5654">at quoted rate</text><polygon fill="#181818" points="417.5,284.7734,407.5,288.7734,417.5,292.7734,413.5,288.7734" style="stroke:#181818;stroke-width:1.0;"/><line style="stroke:#181818;stroke-width:1.0;stroke-dasharray:2.0,2.0;" x1="411.5" x2="623.5" y1="288.7734" y2="288.7734"/><text fill="#000000" font-family="sans-serif" font-size="13" font-weight="bold" lengthAdjust="spacing" textLength="15" x="423.5" y="283.917">[6]</text><text fill="#000000" font-family="sans-serif" font-size="13" lengthAdjust="spacing" textLength="58" x="442.5" y="283.917">Response</text><line style="stroke:#181818;stroke-width:1.0;" x1="406.5" x2="448.5" y1="335.4766" y2="335.4766"/><line style="stroke:#181818;stroke-width:1.0;" x1="448.5" x2="448.5" y1="335.4766" y2="348.4766"/><line style="stroke:#181818;stroke-width:1.0;" x1="407.5" x2="448.5" y1="348.4766" y2="348.4766"/><polygon fill="#181818" points="417.5,344.4766,407.5,348.4766,417.5,352.4766,413.5,348.4766" style="stroke:#181818;stroke-width:1.0;"/><text fill="#000000" font-family="sans-serif" font-size="13" font-weight="bold" lengthAdjust="spacing" textLength="15" x="413.5" y="322.4443">[7]</text><text fill="#000000" font-family="sans-serif" font-size="13" lengthAdjust="spacing" textLength="116" x="432.5" y="314.2686">Configure terms and</text><text fill="#000000" font-family="sans-serif" font-size="13" lengthAdjust="spacing" textLength="118" x="436.5" y="330.6201">expiry time for quote</text><polygon fill="#181818" points="248.5,374.8281,238.5,378.8281,248.5,382.8281,244.5,378.8281" style="stroke:#181818;stroke-width:1.0;"/><line style="stroke:#181818;stroke-width:1.0;stroke-dasharray:2.0,2.0;" x1="242.5" x2="400.5" y1="378.8281" y2="378.8281"/><text fill="#000000" font-family="sans-serif" font-size="13" font-weight="bold" lengthAdjust="spacing" textLength="15" x="254.5" y="373.9717">[8]</text><text fill="#000000" font-family="sans-serif" font-size="13" lengthAdjust="spacing" textLength="58" x="273.5" y="373.9717">Response</text><path d="M10,393.8281 L71,393.8281 L71,402.1797 L61,412.1797 L10,412.1797 L10,393.8281 " fill="#EEEEEE" style="stroke:#000000;stroke-width:1.5;"/><rect fill="none" height="468.9453" style="stroke:#000000;stroke-width:1.5;" width="712" x="10" y="393.8281"/><text fill="#000000" font-family="sans-serif" font-size="13" font-weight="bold" lengthAdjust="spacing" textLength="16" x="25" y="408.3232">alt</text><text fill="#000000" font-family="sans-serif" font-size="11" font-weight="bold" lengthAdjust="spacing" textLength="122" x="86" y="407.2471">[If Success response]</text><line style="stroke:#181818;stroke-width:1.0;" x1="56.5" x2="66.5" y1="445.707" y2="441.707"/><line style="stroke:#181818;stroke-width:1.0;" x1="56.5" x2="66.5" y1="445.707" y2="449.707"/><line style="stroke:#181818;stroke-width:1.0;" x1="55.5" x2="236.5" y1="445.707" y2="445.707"/><text fill="#000000" font-family="sans-serif" font-size="13" font-weight="bold" lengthAdjust="spacing" textLength="15" x="72.5" y="440.8506">[9]</text><text fill="#000000" font-family="sans-serif" font-size="13" font-weight="bold" lengthAdjust="spacing" textLength="26" x="91.5" y="440.8506">PUT</text><text fill="#000000" font-family="sans-serif" font-size="13" lengthAdjust="spacing" textLength="60" x="121.5" y="440.8506">/fxTransfer</text><path d="M242,417.1797 L242,459.1797 L352,459.1797 L352,427.1797 L342,417.1797 L242,417.1797 " fill="#FEFFDD" style="stroke:#181818;stroke-width:0.5;"/><path d="M342,417.1797 L342,427.1797 L352,427.1797 L342,417.1797 " fill="#FEFFDD" style="stroke:#181818;stroke-width:0.5;"/><text fill="#000000" font-family="sans-serif" font-size="13" lengthAdjust="spacing" textLength="80" x="248" y="435.6748">ILP fullfillment</text><text fill="#000000" font-family="sans-serif" font-size="13" lengthAdjust="spacing" textLength="89" x="248" y="452.0264">created by FXP</text><line style="stroke:#181818;stroke-width:1.0;" x1="235.5" x2="225.5" y1="487.2344" y2="483.2344"/><line style="stroke:#181818;stroke-width:1.0;" x1="235.5" x2="225.5" y1="487.2344" y2="491.2344"/><line style="stroke:#181818;stroke-width:1.0;stroke-dasharray:2.0,2.0;" x1="55.5" x2="236.5" y1="487.2344" y2="487.2344"/><text fill="#000000" font-family="sans-serif" font-size="13" font-weight="bold" lengthAdjust="spacing" textLength="22" x="62.5" y="482.3779">[10]</text><text fill="#000000" font-family="sans-serif" font-size="13" lengthAdjust="spacing" textLength="80" x="88.5" y="482.3779">HTTP 200 OK</text><line style="stroke:#181818;stroke-width:1.0;" x1="235.5" x2="225.5" y1="517.5859" y2="513.5859"/><line style="stroke:#181818;stroke-width:1.0;" x1="235.5" x2="225.5" y1="517.5859" y2="521.5859"/><line style="stroke:#181818;stroke-width:1.0;" x1="55.5" x2="236.5" y1="517.5859" y2="517.5859"/><text fill="#000000" font-family="sans-serif" font-size="13" font-weight="bold" lengthAdjust="spacing" textLength="22" x="62.5" y="512.7295">[11]</text><text fill="#000000" font-family="sans-serif" font-size="13" font-weight="bold" lengthAdjust="spacing" textLength="44" x="88.5" y="512.7295">PATCH</text><text fill="#000000" font-family="sans-serif" font-size="13" lengthAdjust="spacing" textLength="84" x="136.5" y="512.7295">/fxTransfer/{ID}</text><line style="stroke:#181818;stroke-width:1.0;" x1="56.5" x2="66.5" y1="547.9375" y2="543.9375"/><line style="stroke:#181818;stroke-width:1.0;" x1="56.5" x2="66.5" y1="547.9375" y2="551.9375"/><line style="stroke:#181818;stroke-width:1.0;stroke-dasharray:2.0,2.0;" x1="55.5" x2="236.5" y1="547.9375" y2="547.9375"/><text fill="#000000" font-family="sans-serif" font-size="13" font-weight="bold" lengthAdjust="spacing" textLength="22" x="72.5" y="543.0811">[12]</text><text fill="#000000" font-family="sans-serif" font-size="13" lengthAdjust="spacing" textLength="80" x="98.5" y="543.0811">HTTP 200 OK</text><polygon fill="#181818" points="384.5,574.2891,394.5,578.2891,384.5,582.2891,388.5,578.2891" style="stroke:#181818;stroke-width:1.0;"/><line style="stroke:#181818;stroke-width:1.0;" x1="237.5" x2="390.5" y1="578.2891" y2="578.2891"/><text fill="#000000" font-family="sans-serif" font-size="13" font-weight="bold" lengthAdjust="spacing" textLength="22" x="244.5" y="573.4326">[13]</text><text fill="#000000" font-family="sans-serif" font-size="13" font-weight="bold" lengthAdjust="spacing" textLength="26" x="270.5" y="573.4326">PUT</text><text fill="#000000" font-family="sans-serif" font-size="13" lengthAdjust="spacing" textLength="84" x="300.5" y="573.4326">/fxTransfer/{ID}</text><path d="M334,593.2891 L395,593.2891 L395,601.6406 L385,611.6406 L334,611.6406 L334,593.2891 " fill="#EEEEEE" style="stroke:#000000;stroke-width:1.5;"/><rect fill="none" height="155.5938" style="stroke:#000000;stroke-width:1.5;" width="378" x="334" y="593.2891"/><text fill="#000000" font-family="sans-serif" font-size="13" font-weight="bold" lengthAdjust="spacing" textLength="16" x="349" y="607.7842">alt</text><text fill="#000000" font-family="sans-serif" font-size="11" font-weight="bold" lengthAdjust="spacing" textLength="124" x="410" y="606.708">[If State is Committed]</text><polygon fill="#181818" points="612.5,629.9922,622.5,633.9922,612.5,637.9922,616.5,633.9922" style="stroke:#181818;stroke-width:1.0;"/><line style="stroke:#181818;stroke-width:1.0;" x1="406.5" x2="618.5" y1="633.9922" y2="633.9922"/><text fill="#000000" font-family="sans-serif" font-size="13" font-weight="bold" lengthAdjust="spacing" textLength="22" x="413.5" y="629.1357">[14]</text><text fill="#000000" font-family="sans-serif" font-size="13" lengthAdjust="spacing" textLength="163" x="439.5" y="629.1357">Commit funds for conversion</text><polygon fill="#181818" points="417.5,660.3438,407.5,664.3438,417.5,668.3438,413.5,664.3438" style="stroke:#181818;stroke-width:1.0;"/><line style="stroke:#181818;stroke-width:1.0;stroke-dasharray:2.0,2.0;" x1="411.5" x2="623.5" y1="664.3438" y2="664.3438"/><text fill="#000000" font-family="sans-serif" font-size="13" font-weight="bold" lengthAdjust="spacing" textLength="22" x="423.5" y="659.4873">[15]</text><text fill="#000000" font-family="sans-serif" font-size="13" lengthAdjust="spacing" textLength="58" x="449.5" y="659.4873">Response</text><line style="stroke:#000000;stroke-width:1.0;stroke-dasharray:2.0,2.0;" x1="334" x2="712" y1="673.3438" y2="673.3438"/><text fill="#000000" font-family="sans-serif" font-size="11" font-weight="bold" lengthAdjust="spacing" textLength="107" x="339" y="684.7627">[If State is Aborted]</text><polygon fill="#181818" points="612.5,706.5313,622.5,710.5313,612.5,714.5313,616.5,710.5313" style="stroke:#181818;stroke-width:1.0;"/><line style="stroke:#181818;stroke-width:1.0;" x1="406.5" x2="618.5" y1="710.5313" y2="710.5313"/><text fill="#000000" font-family="sans-serif" font-size="13" font-weight="bold" lengthAdjust="spacing" textLength="22" x="413.5" y="705.6748">[16]</text><text fill="#000000" font-family="sans-serif" font-size="13" lengthAdjust="spacing" textLength="168" x="439.5" y="705.6748">Rollback funds for conversion</text><polygon fill="#181818" points="417.5,736.8828,407.5,740.8828,417.5,744.8828,413.5,740.8828" style="stroke:#181818;stroke-width:1.0;"/><line style="stroke:#181818;stroke-width:1.0;stroke-dasharray:2.0,2.0;" x1="411.5" x2="623.5" y1="740.8828" y2="740.8828"/><text fill="#000000" font-family="sans-serif" font-size="13" font-weight="bold" lengthAdjust="spacing" textLength="22" x="423.5" y="736.0264">[17]</text><text fill="#000000" font-family="sans-serif" font-size="13" lengthAdjust="spacing" textLength="58" x="449.5" y="736.0264">Response</text><polygon fill="#181818" points="248.5,774.2344,238.5,778.2344,248.5,782.2344,244.5,778.2344" style="stroke:#181818;stroke-width:1.0;"/><line style="stroke:#181818;stroke-width:1.0;stroke-dasharray:2.0,2.0;" x1="242.5" x2="400.5" y1="778.2344" y2="778.2344"/><text fill="#000000" font-family="sans-serif" font-size="13" font-weight="bold" lengthAdjust="spacing" textLength="22" x="254.5" y="773.3779">[18]</text><text fill="#000000" font-family="sans-serif" font-size="13" lengthAdjust="spacing" textLength="58" x="280.5" y="773.3779">Response</text><line style="stroke:#000000;stroke-width:1.0;stroke-dasharray:2.0,2.0;" x1="10" x2="722" y1="787.2344" y2="787.2344"/><text fill="#000000" font-family="sans-serif" font-size="11" font-weight="bold" lengthAdjust="spacing" textLength="103" x="15" y="798.6533">[if Error response]</text><line style="stroke:#181818;stroke-width:1.0;" x1="56.5" x2="66.5" y1="824.4219" y2="820.4219"/><line style="stroke:#181818;stroke-width:1.0;" x1="56.5" x2="66.5" y1="824.4219" y2="828.4219"/><line style="stroke:#181818;stroke-width:1.0;" x1="55.5" x2="236.5" y1="824.4219" y2="824.4219"/><text fill="#000000" font-family="sans-serif" font-size="13" font-weight="bold" lengthAdjust="spacing" textLength="22" x="72.5" y="819.5654">[19]</text><text fill="#000000" font-family="sans-serif" font-size="13" font-weight="bold" lengthAdjust="spacing" textLength="26" x="98.5" y="819.5654">PUT</text><text fill="#000000" font-family="sans-serif" font-size="13" lengthAdjust="spacing" textLength="90" x="128.5" y="819.5654">/fxTransfer/error</text><line style="stroke:#181818;stroke-width:1.0;" x1="235.5" x2="225.5" y1="854.7734" y2="850.7734"/><line style="stroke:#181818;stroke-width:1.0;" x1="235.5" x2="225.5" y1="854.7734" y2="858.7734"/><line style="stroke:#181818;stroke-width:1.0;stroke-dasharray:2.0,2.0;" x1="55.5" x2="236.5" y1="854.7734" y2="854.7734"/><text fill="#000000" font-family="sans-serif" font-size="13" font-weight="bold" lengthAdjust="spacing" textLength="22" x="62.5" y="849.917">[20]</text><text fill="#000000" font-family="sans-serif" font-size="13" lengthAdjust="spacing" textLength="80" x="88.5" y="849.917">HTTP 200 OK</text><!--SRC=[ZLDTRzf047o_Nx4Y3qX8Y3IFg48AJjAW1CMDQLMfwSDXh-7A-OxidGbHbF-UFHi84FVZa0pSxkpipgnxxKuuedjmH7NPQVU4Q4E6gPQ4u9NNoF-hRxZw4O-Cnnb9hwo9fVT8fXjPiq9oVBC7bActv8HRABEK90lWfrUfMahZuKK0N5dZ8wijmTDSUHIlOZ-ZDRQ_fRPssGBf87bIFft3oOManJrcOchNqBgoX6fcu7ATpgMP8SHaLof3UZ2mER5yBf2hZKESMd1ogsPpdtX4FTGbSXUDdC0J6Gm3LEpZg6Q-cSk5EiP4tCLHVXH13QWuq6J0_OgFgA4qhCuC4glBe6SD7YOr-0iX6Y5awQqfYoaIVE9Fw_DqyFFqLqi8KOlI7Gp6KHywdVWkcNGwqClN4vB6vKXY77KvNEVruNeoYU7iz0pkqIsjSHZYW-XFO3PGhQJ7CCxxDD46ybrgbOMeTCwcYdzbaA-_bjPlSeP9Fn0XhH3oqcGEShOwtQqAF1ZfuJ40Ck1zOjWmwTR5jmt2Zeu5pjMi30k9L3YG9cENSRrKzCoxMM1L_N5BtwqqsSsPuTumGceFenoICatHEQ1zDNPYiIJVZXKnN1qeR10lmUWsvhcqpfNMrOxnNKfO2J5z3czAvNp0R9tQMBNnuHJkRZwQU3w9hWzfUo-ZYzTcAwiIUoOUTrn3cutSgk13HF7UsQ9G_3vdx_RLLytkDRg5cf_xHS-dbWvAtbkjfp9TD1PjhccoVpfQ4wiSBecuudyxsiEG_nTx0hbu0m00]--></g></svg>