<?xml version="1.0" encoding="us-ascii" standalone="no"?><svg xmlns="http://www.w3.org/2000/svg" xmlns:xlink="http://www.w3.org/1999/xlink" contentStyleType="text/css" height="641px" preserveAspectRatio="none" style="width:725px;height:641px;background:#FFFFFF;" version="1.1" viewBox="0 0 725 641" width="725px" zoomAndPan="magnify"><defs/><g><rect fill="#B0C4DE" height="629.0313" style="stroke:#181818;stroke-width:0.5;" width="275" x="147" y="6"/><text fill="#000000" font-family="sans-serif" font-size="13" font-weight="bold" lengthAdjust="spacing" textLength="174" x="197.5" y="19.4951">Foreign Exchange Provider</text><text fill="#000000" font-family="sans-serif" font-size="13" font-weight="bold" lengthAdjust="spacing" textLength="108" x="229.5" y="35.8467">Payment Manger</text><rect fill="#00008B" height="221.1094" style="stroke:#181818;stroke-width:1.0;" width="10" x="355.5" y="168.3672"/><rect fill="none" height="177.9453" style="stroke:#000000;stroke-width:1.5;" width="341.5" x="10" y="404.4766"/><line style="stroke:#181818;stroke-width:0.5;stroke-dasharray:5.0,5.0;" x1="55" x2="55" y1="75.3125" y2="599.4219"/><line style="stroke:#181818;stroke-width:0.5;stroke-dasharray:5.0,5.0;" x1="221" x2="221" y1="75.3125" y2="599.4219"/><line style="stroke:#181818;stroke-width:0.5;stroke-dasharray:5.0,5.0;" x1="360" x2="360" y1="75.3125" y2="599.4219"/><line style="stroke:#181818;stroke-width:0.5;stroke-dasharray:5.0,5.0;" x1="641" x2="641" y1="75.3125" y2="599.4219"/><rect fill="#8B0000" height="31.6094" rx="2.5" ry="2.5" style="stroke:#181818;stroke-width:0.5;" width="71" x="20" y="42.7031"/><text fill="#FFFFFF" font-family="sans-serif" font-size="14" lengthAdjust="spacing" textLength="57" x="27" y="64.2363">Mojaloop</text><rect fill="#8B0000" height="31.6094" rx="2.5" ry="2.5" style="stroke:#181818;stroke-width:0.5;" width="71" x="20" y="598.4219"/><text fill="#FFFFFF" font-family="sans-serif" font-size="14" lengthAdjust="spacing" textLength="57" x="27" y="619.9551">Mojaloop</text><rect fill="#BDB76B" height="31.6094" rx="2.5" ry="2.5" style="stroke:#181818;stroke-width:0.5;" width="141" x="151" y="42.7031"/><text fill="#FFFFFF" font-family="sans-serif" font-size="14" lengthAdjust="spacing" textLength="127" x="158" y="64.2363">Mojaloop Connector</text><rect fill="#BDB76B" height="31.6094" rx="2.5" ry="2.5" style="stroke:#181818;stroke-width:0.5;" width="141" x="151" y="598.4219"/><text fill="#FFFFFF" font-family="sans-serif" font-size="14" lengthAdjust="spacing" textLength="127" x="158" y="619.9551">Mojaloop Connector</text><rect fill="#00008B" height="31.6094" rx="2.5" ry="2.5" style="stroke:#181818;stroke-width:0.5;" width="115" x="303" y="42.7031"/><text fill="#FFFFFF" font-family="sans-serif" font-size="14" lengthAdjust="spacing" textLength="101" x="310" y="64.2363">Core Connector</text><rect fill="#00008B" height="31.6094" rx="2.5" ry="2.5" style="stroke:#181818;stroke-width:0.5;" width="115" x="303" y="598.4219"/><text fill="#FFFFFF" font-family="sans-serif" font-size="14" lengthAdjust="spacing" textLength="101" x="310" y="619.9551">Core Connector</text><rect fill="#006400" height="31.6094" rx="2.5" ry="2.5" style="stroke:#181818;stroke-width:0.5;" width="155" x="564" y="42.7031"/><text fill="#FFFFFF" font-family="sans-serif" font-size="14" lengthAdjust="spacing" textLength="141" x="571" y="64.2363">Core Banking Solution</text><rect fill="#006400" height="31.6094" rx="2.5" ry="2.5" style="stroke:#181818;stroke-width:0.5;" width="155" x="564" y="598.4219"/><text fill="#FFFFFF" font-family="sans-serif" font-size="14" lengthAdjust="spacing" textLength="141" x="571" y="619.9551">Core Banking Solution</text><rect fill="#00008B" height="221.1094" style="stroke:#181818;stroke-width:1.0;" width="10" x="355.5" y="168.3672"/><line style="stroke:#181818;stroke-width:1.0;" x1="219.5" x2="209.5" y1="107.6641" y2="103.6641"/><line style="stroke:#181818;stroke-width:1.0;" x1="219.5" x2="209.5" y1="107.6641" y2="111.6641"/><line style="stroke:#181818;stroke-width:1.0;" x1="55.5" x2="220.5" y1="107.6641" y2="107.6641"/><text fill="#000000" font-family="sans-serif" font-size="13" font-weight="bold" lengthAdjust="spacing" textLength="15" x="62.5" y="102.8076">[1]</text><text fill="#000000" font-family="sans-serif" font-size="13" font-weight="bold" lengthAdjust="spacing" textLength="36" x="81.5" y="102.8076">POST</text><text fill="#000000" font-family="sans-serif" font-size="13" lengthAdjust="spacing" textLength="56" x="121.5" y="102.8076">/fxQuotes</text><line style="stroke:#181818;stroke-width:1.0;" x1="56.5" x2="66.5" y1="138.0156" y2="134.0156"/><line style="stroke:#181818;stroke-width:1.0;" x1="56.5" x2="66.5" y1="138.0156" y2="142.0156"/><line style="stroke:#181818;stroke-width:1.0;stroke-dasharray:2.0,2.0;" x1="55.5" x2="220.5" y1="138.0156" y2="138.0156"/><text fill="#000000" font-family="sans-serif" font-size="13" font-weight="bold" lengthAdjust="spacing" textLength="15" x="72.5" y="133.1592">[2]</text><text fill="#000000" font-family="sans-serif" font-size="13" lengthAdjust="spacing" textLength="119" x="91.5" y="133.1592">HTTP 202 Response</text><polygon fill="#181818" points="343.5,164.3672,353.5,168.3672,343.5,172.3672,347.5,168.3672" style="stroke:#181818;stroke-width:1.0;"/><line style="stroke:#181818;stroke-width:1.0;" x1="221.5" x2="349.5" y1="168.3672" y2="168.3672"/><text fill="#000000" font-family="sans-serif" font-size="13" font-weight="bold" lengthAdjust="spacing" textLength="15" x="228.5" y="163.5107">[3]</text><text fill="#000000" font-family="sans-serif" font-size="13" font-weight="bold" lengthAdjust="spacing" textLength="36" x="247.5" y="163.5107">POST</text><text fill="#000000" font-family="sans-serif" font-size="13" lengthAdjust="spacing" textLength="56" x="287.5" y="163.5107">/fxQuotes</text><line style="stroke:#181818;stroke-width:1.0;" x1="365.5" x2="407.5" y1="198.7188" y2="198.7188"/><line style="stroke:#181818;stroke-width:1.0;" x1="407.5" x2="407.5" y1="198.7188" y2="211.7188"/><line style="stroke:#181818;stroke-width:1.0;" x1="366.5" x2="407.5" y1="211.7188" y2="211.7188"/><polygon fill="#181818" points="376.5,207.7188,366.5,211.7188,376.5,215.7188,372.5,211.7188" style="stroke:#181818;stroke-width:1.0;"/><text fill="#000000" font-family="sans-serif" font-size="13" font-weight="bold" lengthAdjust="spacing" textLength="15" x="372.5" y="193.8623">[4]</text><text fill="#000000" font-family="sans-serif" font-size="13" lengthAdjust="spacing" textLength="217" x="391.5" y="193.8623">Validate Currency Conversion request</text><line style="stroke:#181818;stroke-width:1.0;" x1="365.5" x2="407.5" y1="242.0703" y2="242.0703"/><line style="stroke:#181818;stroke-width:1.0;" x1="407.5" x2="407.5" y1="242.0703" y2="255.0703"/><line style="stroke:#181818;stroke-width:1.0;" x1="366.5" x2="407.5" y1="255.0703" y2="255.0703"/><polygon fill="#181818" points="376.5,251.0703,366.5,255.0703,376.5,259.0703,372.5,255.0703" style="stroke:#181818;stroke-width:1.0;"/><text fill="#000000" font-family="sans-serif" font-size="13" font-weight="bold" lengthAdjust="spacing" textLength="15" x="372.5" y="237.2139">[5]</text><text fill="#000000" font-family="sans-serif" font-size="13" lengthAdjust="spacing" textLength="221" x="391.5" y="237.2139">Get Currency Conversion Rate &amp; Fees</text><polygon fill="#181818" points="629.5,281.4219,639.5,285.4219,629.5,289.4219,633.5,285.4219" style="stroke:#181818;stroke-width:1.0;"/><line style="stroke:#181818;stroke-width:1.0;" x1="365.5" x2="635.5" y1="285.4219" y2="285.4219"/><text fill="#000000" font-family="sans-serif" font-size="13" font-weight="bold" lengthAdjust="spacing" textLength="15" x="372.5" y="280.5654">[6]</text><text fill="#000000" font-family="sans-serif" font-size="13" font-weight="bold" lengthAdjust="spacing" textLength="26" x="391.5" y="280.5654">GET</text><text fill="#000000" font-family="sans-serif" font-size="13" lengthAdjust="spacing" textLength="57" x="421.5" y="280.5654">[fx Quote]</text><polygon fill="#181818" points="376.5,311.7734,366.5,315.7734,376.5,319.7734,372.5,315.7734" style="stroke:#181818;stroke-width:1.0;"/><line style="stroke:#181818;stroke-width:1.0;stroke-dasharray:2.0,2.0;" x1="370.5" x2="640.5" y1="315.7734" y2="315.7734"/><text fill="#000000" font-family="sans-serif" font-size="13" font-weight="bold" lengthAdjust="spacing" textLength="15" x="382.5" y="310.917">[7]</text><text fill="#000000" font-family="sans-serif" font-size="13" lengthAdjust="spacing" textLength="119" x="401.5" y="310.917">Response [fx Quote]</text><line style="stroke:#181818;stroke-width:1.0;" x1="365.5" x2="407.5" y1="346.125" y2="346.125"/><line style="stroke:#181818;stroke-width:1.0;" x1="407.5" x2="407.5" y1="346.125" y2="359.125"/><line style="stroke:#181818;stroke-width:1.0;" x1="366.5" x2="407.5" y1="359.125" y2="359.125"/><polygon fill="#181818" points="376.5,355.125,366.5,359.125,376.5,363.125,372.5,359.125" style="stroke:#181818;stroke-width:1.0;"/><text fill="#000000" font-family="sans-serif" font-size="13" font-weight="bold" lengthAdjust="spacing" textLength="15" x="372.5" y="341.2686">[8]</text><text fill="#000000" font-family="sans-serif" font-size="13" lengthAdjust="spacing" textLength="238" x="391.5" y="341.2686">Configure terms and expiry time for quote</text><polygon fill="#181818" points="232.5,385.4766,222.5,389.4766,232.5,393.4766,228.5,389.4766" style="stroke:#181818;stroke-width:1.0;"/><line style="stroke:#181818;stroke-width:1.0;stroke-dasharray:2.0,2.0;" x1="226.5" x2="359.5" y1="389.4766" y2="389.4766"/><text fill="#000000" font-family="sans-serif" font-size="13" font-weight="bold" lengthAdjust="spacing" textLength="15" x="238.5" y="384.6201">[9]</text><text fill="#000000" font-family="sans-serif" font-size="13" lengthAdjust="spacing" textLength="58" x="257.5" y="384.6201">Response</text><path d="M10,404.4766 L71,404.4766 L71,412.8281 L61,422.8281 L10,422.8281 L10,404.4766 " fill="#EEEEEE" style="stroke:#000000;stroke-width:1.5;"/><rect fill="none" height="177.9453" style="stroke:#000000;stroke-width:1.5;" width="341.5" x="10" y="404.4766"/><text fill="#000000" font-family="sans-serif" font-size="13" font-weight="bold" lengthAdjust="spacing" textLength="16" x="25" y="418.9717">alt</text><text fill="#000000" font-family="sans-serif" font-size="11" font-weight="bold" lengthAdjust="spacing" textLength="122" x="86" y="417.8955">[If Success response]</text><line style="stroke:#181818;stroke-width:1.0;" x1="56.5" x2="66.5" y1="445.1797" y2="441.1797"/><line style="stroke:#181818;stroke-width:1.0;" x1="56.5" x2="66.5" y1="445.1797" y2="449.1797"/><line style="stroke:#181818;stroke-width:1.0;" x1="55.5" x2="220.5" y1="445.1797" y2="445.1797"/><text fill="#000000" font-family="sans-serif" font-size="13" font-weight="bold" lengthAdjust="spacing" textLength="22" x="72.5" y="440.3232">[10]</text><text fill="#000000" font-family="sans-serif" font-size="13" font-weight="bold" lengthAdjust="spacing" textLength="26" x="98.5" y="440.3232">PUT</text><text fill="#000000" font-family="sans-serif" font-size="13" lengthAdjust="spacing" textLength="56" x="128.5" y="440.3232">/fxQuotes</text><line style="stroke:#181818;stroke-width:1.0;" x1="219.5" x2="209.5" y1="486.707" y2="482.707"/><line style="stroke:#181818;stroke-width:1.0;" x1="219.5" x2="209.5" y1="486.707" y2="490.707"/><line style="stroke:#181818;stroke-width:1.0;stroke-dasharray:2.0,2.0;" x1="55.5" x2="220.5" y1="486.707" y2="486.707"/><text fill="#000000" font-family="sans-serif" font-size="13" font-weight="bold" lengthAdjust="spacing" textLength="22" x="62.5" y="481.8506">[11]</text><text fill="#000000" font-family="sans-serif" font-size="13" lengthAdjust="spacing" textLength="80" x="88.5" y="481.8506">HTTP 200 OK</text><path d="M226,458.1797 L226,500.1797 L336,500.1797 L336,468.1797 L326,458.1797 L226,458.1797 " fill="#FEFFDD" style="stroke:#181818;stroke-width:0.5;"/><path d="M326,458.1797 L326,468.1797 L336,468.1797 L326,458.1797 " fill="#FEFFDD" style="stroke:#181818;stroke-width:0.5;"/><text fill="#000000" font-family="sans-serif" font-size="13" lengthAdjust="spacing" textLength="75" x="232" y="476.6748">ILP condition</text><text fill="#000000" font-family="sans-serif" font-size="13" lengthAdjust="spacing" textLength="89" x="232" y="493.0264">created by FXP</text><line style="stroke:#000000;stroke-width:1.0;stroke-dasharray:2.0,2.0;" x1="10" x2="351.5" y1="506.8828" y2="506.8828"/><text fill="#000000" font-family="sans-serif" font-size="11" font-weight="bold" lengthAdjust="spacing" textLength="103" x="15" y="518.3018">[if Error response]</text><line style="stroke:#181818;stroke-width:1.0;" x1="56.5" x2="66.5" y1="544.0703" y2="540.0703"/><line style="stroke:#181818;stroke-width:1.0;" x1="56.5" x2="66.5" y1="544.0703" y2="548.0703"/><line style="stroke:#181818;stroke-width:1.0;" x1="55.5" x2="220.5" y1="544.0703" y2="544.0703"/><text fill="#000000" font-family="sans-serif" font-size="13" font-weight="bold" lengthAdjust="spacing" textLength="22" x="72.5" y="539.2139">[12]</text><text fill="#000000" font-family="sans-serif" font-size="13" font-weight="bold" lengthAdjust="spacing" textLength="26" x="98.5" y="539.2139">PUT</text><text fill="#000000" font-family="sans-serif" font-size="13" lengthAdjust="spacing" textLength="86" x="128.5" y="539.2139">/fxQuotes/error</text><line style="stroke:#181818;stroke-width:1.0;" x1="219.5" x2="209.5" y1="574.4219" y2="570.4219"/><line style="stroke:#181818;stroke-width:1.0;" x1="219.5" x2="209.5" y1="574.4219" y2="578.4219"/><line style="stroke:#181818;stroke-width:1.0;stroke-dasharray:2.0,2.0;" x1="55.5" x2="220.5" y1="574.4219" y2="574.4219"/><text fill="#000000" font-family="sans-serif" font-size="13" font-weight="bold" lengthAdjust="spacing" textLength="22" x="62.5" y="569.5654">[13]</text><text fill="#000000" font-family="sans-serif" font-size="13" lengthAdjust="spacing" textLength="80" x="88.5" y="569.5654">HTTP 200 OK</text><!--SRC=[ZLF1Rjf04BtlLumSgKYM43J7gEA02nGbLbnCgqff3eizDblCBfbT4r3KV- -ixQQGegfhoOYTUJDltZmFUg4_edzsH7CPzWP2z237h9A4u9IhaFytlp3zbiormvAaKqOdqZaatVzS6uSd69avGrROZT8xIN8B_7OgKpkf7Rm8WAdHBZAL8NXUAuR-5ASPGMn-oCgONG3IGlgiNBQ6gu-IDWlCnSeS89WQGbLgc1oojTGbGa9chtAaxngwayZZ5hbQxECKmDMTAjSkTOZLkAgHMLpi2P7H6lq0JVSuQZlVhkL6lSL4pE9DVXH12sXweCw1-Og_KMEfMPqIKbFLNieMF4vRy8mGjH2oTaRNsnKIlESd-B0QFGmV0o54Aqf_D8gZ6mZ3v3vTXY4CYaEp2YlYgC_1Dki6FYsN2LmFhs61TcUqHHyVHPUXl3orbmxzA7ycYJh0Lrcfl8dMHAYpevz_ZsHv1Y1ygj6wr-GPkejv2r_W7KoHspMvuzHJcKqyauVY00sLHy7t_RRIR-9dqQuB5ovKMNkl8cqjI1OT3pj5HpRj5g5Wcpqr3esyAl59EP7ZoRX2LWxc1QHrbg6rFCw9MgzYicHVpXNhbj5jenDx2FUtGdCSoFkEhJE_Io0pEbT-ty0N6I4tPeSS_NVLcCK315Oyg2fWGiJK_vF507tsFxXmUI5-0G00]--></g></svg>