<?xml version="1.0" encoding="us-ascii" standalone="no"?><svg xmlns="http://www.w3.org/2000/svg" xmlns:xlink="http://www.w3.org/1999/xlink" contentStyleType="text/css" height="1383px" preserveAspectRatio="none" style="width:1236px;height:1383px;background:#FFFFFF;" version="1.1" viewBox="0 0 1236 1383" width="1236px" zoomAndPan="magnify"><defs/><g><rect fill="#B0C4DE" height="1371.5781" style="stroke:#181818;stroke-width:0.5;" width="366" x="390" y="6"/><text fill="#000000" font-family="sans-serif" font-size="13" font-weight="bold" lengthAdjust="spacing" textLength="79" x="531" y="19.4951">Payee DFSP</text><text fill="#000000" font-family="sans-serif" font-size="13" font-weight="bold" lengthAdjust="spacing" textLength="108" x="519" y="35.8467">Payment Manger</text><rect fill="#00008B" height="104.0547" style="stroke:#181818;stroke-width:1.0;" width="10" x="689.5" y="293.7734"/><rect fill="#00008B" height="500.5156" style="stroke:#181818;stroke-width:1.0;" width="10" x="689.5" y="813.4531"/><rect fill="none" height="158.4609" style="stroke:#000000;stroke-width:1.5;" width="928" x="127" y="546.2344"/><rect fill="none" height="443.8125" style="stroke:#000000;stroke-width:1.5;" width="1128.5" x="101" y="881.1563"/><line style="stroke:#181818;stroke-width:0.5;stroke-dasharray:5.0,5.0;" x1="172" x2="172" y1="75.3125" y2="1341.9688"/><line style="stroke:#181818;stroke-width:0.5;stroke-dasharray:5.0,5.0;" x1="464" x2="464" y1="75.3125" y2="1341.9688"/><line style="stroke:#181818;stroke-width:0.5;stroke-dasharray:5.0,5.0;" x1="694" x2="694" y1="75.3125" y2="1341.9688"/><line style="stroke:#181818;stroke-width:0.5;stroke-dasharray:5.0,5.0;" x1="967" x2="967" y1="75.3125" y2="1341.9688"/><rect fill="#8B0000" height="31.6094" rx="2.5" ry="2.5" style="stroke:#181818;stroke-width:0.5;" width="71" x="137" y="42.7031"/><text fill="#FFFFFF" font-family="sans-serif" font-size="14" lengthAdjust="spacing" textLength="57" x="144" y="64.2363">Mojaloop</text><rect fill="#8B0000" height="31.6094" rx="2.5" ry="2.5" style="stroke:#181818;stroke-width:0.5;" width="71" x="137" y="1340.9688"/><text fill="#FFFFFF" font-family="sans-serif" font-size="14" lengthAdjust="spacing" textLength="57" x="144" y="1362.502">Mojaloop</text><rect fill="#BDB76B" height="31.6094" rx="2.5" ry="2.5" style="stroke:#181818;stroke-width:0.5;" width="141" x="394" y="42.7031"/><text fill="#FFFFFF" font-family="sans-serif" font-size="14" lengthAdjust="spacing" textLength="127" x="401" y="64.2363">Mojaloop Connector</text><rect fill="#BDB76B" height="31.6094" rx="2.5" ry="2.5" style="stroke:#181818;stroke-width:0.5;" width="141" x="394" y="1340.9688"/><text fill="#FFFFFF" font-family="sans-serif" font-size="14" lengthAdjust="spacing" textLength="127" x="401" y="1362.502">Mojaloop Connector</text><rect fill="#00008B" height="31.6094" rx="2.5" ry="2.5" style="stroke:#181818;stroke-width:0.5;" width="115" x="637" y="42.7031"/><text fill="#FFFFFF" font-family="sans-serif" font-size="14" lengthAdjust="spacing" textLength="101" x="644" y="64.2363">Core Connector</text><rect fill="#00008B" height="31.6094" rx="2.5" ry="2.5" style="stroke:#181818;stroke-width:0.5;" width="115" x="637" y="1340.9688"/><text fill="#FFFFFF" font-family="sans-serif" font-size="14" lengthAdjust="spacing" textLength="101" x="644" y="1362.502">Core Connector</text><rect fill="#006400" height="31.6094" rx="2.5" ry="2.5" style="stroke:#181818;stroke-width:0.5;" width="155" x="890" y="42.7031"/><text fill="#FFFFFF" font-family="sans-serif" font-size="14" lengthAdjust="spacing" textLength="141" x="897" y="64.2363">Core Banking Solution</text><rect fill="#006400" height="31.6094" rx="2.5" ry="2.5" style="stroke:#181818;stroke-width:0.5;" width="155" x="890" y="1340.9688"/><text fill="#FFFFFF" font-family="sans-serif" font-size="14" lengthAdjust="spacing" textLength="141" x="897" y="1362.502">Core Banking Solution</text><rect fill="#00008B" height="104.0547" style="stroke:#181818;stroke-width:1.0;" width="10" x="689.5" y="293.7734"/><rect fill="#00008B" height="500.5156" style="stroke:#181818;stroke-width:1.0;" width="10" x="689.5" y="813.4531"/><line style="stroke:#181818;stroke-width:1.0;" x1="172.5" x2="214.5" y1="120.5156" y2="120.5156"/><line style="stroke:#181818;stroke-width:1.0;" x1="214.5" x2="214.5" y1="120.5156" y2="133.5156"/><line style="stroke:#181818;stroke-width:1.0;" x1="173.5" x2="214.5" y1="133.5156" y2="133.5156"/><polygon fill="#181818" points="183.5,129.5156,173.5,133.5156,183.5,137.5156,179.5,133.5156" style="stroke:#181818;stroke-width:1.0;"/><text fill="#000000" font-family="sans-serif" font-size="13" font-weight="bold" lengthAdjust="spacing" textLength="15" x="179.5" y="115.6592">[1]</text><text fill="#000000" font-family="sans-serif" font-size="13" lengthAdjust="spacing" textLength="122" x="198.5" y="115.6592">Pass Quote to Payer</text><path d="M5,90.3125 L5,149.3125 L168,149.3125 L168,100.3125 L158,90.3125 L5,90.3125 " fill="#FEFFDD" style="stroke:#181818;stroke-width:0.5;"/><path d="M158,90.3125 L158,100.3125 L168,100.3125 L158,90.3125 " fill="#FEFFDD" style="stroke:#181818;stroke-width:0.5;"/><text fill="#000000" font-family="sans-serif" font-size="13" lengthAdjust="spacing" textLength="103" x="11" y="108.8076">Obtain consent to</text><text fill="#000000" font-family="sans-serif" font-size="13" lengthAdjust="spacing" textLength="142" x="11" y="125.1592">proceed with the transfer</text><text fill="#000000" font-family="sans-serif" font-size="13" lengthAdjust="spacing" textLength="19" x="11" y="141.5107">Via</text><text fill="#000000" font-family="sans-serif" font-size="13" font-weight="bold" lengthAdjust="spacing" textLength="36" x="34" y="141.5107">POST</text><text fill="#000000" font-family="sans-serif" font-size="13" lengthAdjust="spacing" textLength="54" x="74" y="141.5107">/transfers</text><line style="stroke:#181818;stroke-width:1.0;" x1="172.5" x2="214.5" y1="176.7188" y2="176.7188"/><line style="stroke:#181818;stroke-width:1.0;" x1="214.5" x2="214.5" y1="176.7188" y2="189.7188"/><line style="stroke:#181818;stroke-width:1.0;" x1="173.5" x2="214.5" y1="189.7188" y2="189.7188"/><polygon fill="#181818" points="183.5,185.7188,173.5,189.7188,183.5,193.7188,179.5,189.7188" style="stroke:#181818;stroke-width:1.0;"/><text fill="#000000" font-family="sans-serif" font-size="13" font-weight="bold" lengthAdjust="spacing" textLength="15" x="179.5" y="171.8623">[2]</text><text fill="#000000" font-family="sans-serif" font-size="13" lengthAdjust="spacing" textLength="163" x="198.5" y="171.8623">Perform liquidity(NDC)check</text><line style="stroke:#181818;stroke-width:1.0;" x1="172.5" x2="214.5" y1="220.0703" y2="220.0703"/><line style="stroke:#181818;stroke-width:1.0;" x1="214.5" x2="214.5" y1="220.0703" y2="233.0703"/><line style="stroke:#181818;stroke-width:1.0;" x1="173.5" x2="214.5" y1="233.0703" y2="233.0703"/><polygon fill="#181818" points="183.5,229.0703,173.5,233.0703,183.5,237.0703,179.5,233.0703" style="stroke:#181818;stroke-width:1.0;"/><text fill="#000000" font-family="sans-serif" font-size="13" font-weight="bold" lengthAdjust="spacing" textLength="15" x="179.5" y="215.2139">[3]</text><text fill="#000000" font-family="sans-serif" font-size="13" lengthAdjust="spacing" textLength="86" x="198.5" y="215.2139">Reserve Funds</text><polygon fill="#181818" points="452.5,259.4219,462.5,263.4219,452.5,267.4219,456.5,263.4219" style="stroke:#181818;stroke-width:1.0;"/><line style="stroke:#181818;stroke-width:1.0;" x1="172.5" x2="458.5" y1="263.4219" y2="263.4219"/><text fill="#000000" font-family="sans-serif" font-size="13" font-weight="bold" lengthAdjust="spacing" textLength="15" x="179.5" y="258.5654">[4]</text><text fill="#000000" font-family="sans-serif" font-size="13" font-weight="bold" lengthAdjust="spacing" textLength="36" x="198.5" y="258.5654">POST</text><text fill="#000000" font-family="sans-serif" font-size="13" lengthAdjust="spacing" textLength="54" x="238.5" y="258.5654">/transfers</text><polygon fill="#181818" points="677.5,289.7734,687.5,293.7734,677.5,297.7734,681.5,293.7734" style="stroke:#181818;stroke-width:1.0;"/><line style="stroke:#181818;stroke-width:1.0;" x1="464.5" x2="683.5" y1="293.7734" y2="293.7734"/><text fill="#000000" font-family="sans-serif" font-size="13" font-weight="bold" lengthAdjust="spacing" textLength="15" x="471.5" y="288.917">[5]</text><text fill="#000000" font-family="sans-serif" font-size="13" font-weight="bold" lengthAdjust="spacing" textLength="36" x="490.5" y="288.917">POST</text><text fill="#000000" font-family="sans-serif" font-size="13" lengthAdjust="spacing" textLength="54" x="530.5" y="288.917">/transfers</text><line style="stroke:#181818;stroke-width:1.0;" x1="699.5" x2="741.5" y1="324.125" y2="324.125"/><line style="stroke:#181818;stroke-width:1.0;" x1="741.5" x2="741.5" y1="324.125" y2="337.125"/><line style="stroke:#181818;stroke-width:1.0;" x1="700.5" x2="741.5" y1="337.125" y2="337.125"/><polygon fill="#181818" points="710.5,333.125,700.5,337.125,710.5,341.125,706.5,337.125" style="stroke:#181818;stroke-width:1.0;"/><text fill="#000000" font-family="sans-serif" font-size="13" font-weight="bold" lengthAdjust="spacing" textLength="15" x="706.5" y="319.2686">[6]</text><text fill="#000000" font-family="sans-serif" font-size="13" lengthAdjust="spacing" textLength="86" x="725.5" y="319.2686">Validate Quote</text><polygon fill="#181818" points="955.5,363.4766,965.5,367.4766,955.5,371.4766,959.5,367.4766" style="stroke:#181818;stroke-width:1.0;"/><line style="stroke:#181818;stroke-width:1.0;" x1="699.5" x2="961.5" y1="367.4766" y2="367.4766"/><text fill="#000000" font-family="sans-serif" font-size="13" font-weight="bold" lengthAdjust="spacing" textLength="15" x="706.5" y="362.6201">[7]</text><text fill="#000000" font-family="sans-serif" font-size="13" lengthAdjust="spacing" textLength="154" x="725.5" y="362.6201">Register Incoming Transfer</text><polygon fill="#181818" points="475.5,393.8281,465.5,397.8281,475.5,401.8281,471.5,397.8281" style="stroke:#181818;stroke-width:1.0;"/><line style="stroke:#181818;stroke-width:1.0;stroke-dasharray:2.0,2.0;" x1="469.5" x2="693.5" y1="397.8281" y2="397.8281"/><text fill="#000000" font-family="sans-serif" font-size="13" font-weight="bold" lengthAdjust="spacing" textLength="15" x="481.5" y="392.9717">[8]</text><text fill="#000000" font-family="sans-serif" font-size="13" lengthAdjust="spacing" textLength="53" x="500.5" y="392.9717">response</text><line style="stroke:#181818;stroke-width:1.0;" x1="464.5" x2="506.5" y1="428.1797" y2="428.1797"/><line style="stroke:#181818;stroke-width:1.0;" x1="506.5" x2="506.5" y1="428.1797" y2="441.1797"/><line style="stroke:#181818;stroke-width:1.0;" x1="465.5" x2="506.5" y1="441.1797" y2="441.1797"/><polygon fill="#181818" points="475.5,437.1797,465.5,441.1797,475.5,445.1797,471.5,441.1797" style="stroke:#181818;stroke-width:1.0;"/><text fill="#000000" font-family="sans-serif" font-size="13" font-weight="bold" lengthAdjust="spacing" textLength="15" x="471.5" y="423.3232">[9]</text><text fill="#000000" font-family="sans-serif" font-size="13" lengthAdjust="spacing" textLength="113" x="490.5" y="423.3232">Generate Fulfilment</text><polygon fill="#181818" points="183.5,483.8828,173.5,487.8828,183.5,491.8828,179.5,487.8828" style="stroke:#181818;stroke-width:1.0;"/><line style="stroke:#181818;stroke-width:1.0;stroke-dasharray:2.0,2.0;" x1="177.5" x2="463.5" y1="487.8828" y2="487.8828"/><text fill="#000000" font-family="sans-serif" font-size="13" font-weight="bold" lengthAdjust="spacing" textLength="22" x="189.5" y="474.8506">[10]</text><text fill="#000000" font-family="sans-serif" font-size="13" font-weight="bold" lengthAdjust="spacing" textLength="26" x="215.5" y="466.6748">PUT</text><text fill="#000000" font-family="sans-serif" font-size="13" lengthAdjust="spacing" textLength="76" x="245.5" y="466.6748">/transfers/{id}</text><text fill="#000000" font-family="sans-serif" font-size="13" lengthAdjust="spacing" textLength="242" x="215.5" y="483.0264">(TransferStatus='RESERVED', fulfullment)</text><line style="stroke:#181818;stroke-width:1.0;stroke-dasharray:2.0,2.0;" x1="172.5" x2="214.5" y1="518.2344" y2="518.2344"/><line style="stroke:#181818;stroke-width:1.0;stroke-dasharray:2.0,2.0;" x1="214.5" x2="214.5" y1="518.2344" y2="531.2344"/><line style="stroke:#181818;stroke-width:1.0;stroke-dasharray:2.0,2.0;" x1="173.5" x2="214.5" y1="531.2344" y2="531.2344"/><polygon fill="#181818" points="183.5,527.2344,173.5,531.2344,183.5,535.2344,179.5,531.2344" style="stroke:#181818;stroke-width:1.0;"/><text fill="#000000" font-family="sans-serif" font-size="13" font-weight="bold" lengthAdjust="spacing" textLength="22" x="179.5" y="513.3779">[11]</text><text fill="#000000" font-family="sans-serif" font-size="13" lengthAdjust="spacing" textLength="179" x="205.5" y="513.3779">Commit funds in DFSP ledgers</text><path d="M127,546.2344 L188,546.2344 L188,554.5859 L178,564.5859 L127,564.5859 L127,546.2344 " fill="#EEEEEE" style="stroke:#000000;stroke-width:1.5;"/><rect fill="none" height="158.4609" style="stroke:#000000;stroke-width:1.5;" width="928" x="127" y="546.2344"/><text fill="#000000" font-family="sans-serif" font-size="13" font-weight="bold" lengthAdjust="spacing" textLength="16" x="142" y="560.7295">alt</text><text fill="#000000" font-family="sans-serif" font-size="11" font-weight="bold" lengthAdjust="spacing" textLength="171" x="203" y="559.6533">[if (TransferStatus='ABORTED')]</text><polygon fill="#181818" points="452.5,599.2891,462.5,603.2891,452.5,607.2891,456.5,603.2891" style="stroke:#181818;stroke-width:1.0;"/><line style="stroke:#181818;stroke-width:1.0;" x1="172.5" x2="458.5" y1="603.2891" y2="603.2891"/><text fill="#000000" font-family="sans-serif" font-size="13" font-weight="bold" lengthAdjust="spacing" textLength="22" x="179.5" y="590.2568">[12]</text><text fill="#000000" font-family="sans-serif" font-size="13" font-weight="bold" lengthAdjust="spacing" textLength="44" x="205.5" y="582.0811">PATCH</text><text fill="#000000" font-family="sans-serif" font-size="13" lengthAdjust="spacing" textLength="76" x="253.5" y="582.0811">/transfers/{id}</text><text fill="#000000" font-family="sans-serif" font-size="13" lengthAdjust="spacing" textLength="166" x="205.5" y="598.4326">(TransferStatus='ABORTED')</text><polygon fill="#181818" points="682.5,662.3438,692.5,666.3438,682.5,670.3438,686.5,666.3438" style="stroke:#181818;stroke-width:1.0;"/><line style="stroke:#181818;stroke-width:1.0;" x1="464.5" x2="688.5" y1="666.3438" y2="666.3438"/><text fill="#000000" font-family="sans-serif" font-size="13" font-weight="bold" lengthAdjust="spacing" textLength="22" x="471.5" y="645.1357">[13]</text><text fill="#000000" font-family="sans-serif" font-size="13" lengthAdjust="spacing" textLength="95" x="497.5" y="628.7842">Commit Transfer</text><text fill="#000000" font-family="sans-serif" font-size="13" lengthAdjust="spacing" textLength="4" x="497.5" y="645.1357">&#160;</text><text fill="#000000" font-family="sans-serif" font-size="13" font-weight="bold" lengthAdjust="spacing" textLength="26" x="501.5" y="645.1357">PUT</text><text fill="#000000" font-family="sans-serif" font-size="13" lengthAdjust="spacing" textLength="76" x="531.5" y="645.1357">/transfers/{id}</text><text fill="#000000" font-family="sans-serif" font-size="13" lengthAdjust="spacing" textLength="166" x="497.5" y="661.4873">(TransferStatus='ABORTED')</text><polygon fill="#181818" points="955.5,692.6953,965.5,696.6953,955.5,700.6953,959.5,696.6953" style="stroke:#181818;stroke-width:1.0;"/><line style="stroke:#181818;stroke-width:1.0;" x1="694.5" x2="961.5" y1="696.6953" y2="696.6953"/><text fill="#000000" font-family="sans-serif" font-size="13" font-weight="bold" lengthAdjust="spacing" textLength="22" x="701.5" y="691.8389">[14]</text><text fill="#000000" font-family="sans-serif" font-size="13" lengthAdjust="spacing" textLength="223" x="727.5" y="691.8389">Notify that incoming transfer is aborted</text><polygon fill="#181818" points="452.5,746.3984,462.5,750.3984,452.5,754.3984,456.5,750.3984" style="stroke:#181818;stroke-width:1.0;"/><line style="stroke:#181818;stroke-width:1.0;" x1="172.5" x2="458.5" y1="750.3984" y2="750.3984"/><text fill="#000000" font-family="sans-serif" font-size="13" font-weight="bold" lengthAdjust="spacing" textLength="22" x="179.5" y="737.3662">[15]</text><text fill="#000000" font-family="sans-serif" font-size="13" font-weight="bold" lengthAdjust="spacing" textLength="44" x="205.5" y="729.1904">PATCH</text><text fill="#000000" font-family="sans-serif" font-size="13" lengthAdjust="spacing" textLength="76" x="253.5" y="729.1904">/transfers/{id}</text><text fill="#000000" font-family="sans-serif" font-size="13" lengthAdjust="spacing" textLength="180" x="205.5" y="745.542">(TransferStatus='COMMITTED')</text><polygon fill="#181818" points="677.5,809.4531,687.5,813.4531,677.5,817.4531,681.5,813.4531" style="stroke:#181818;stroke-width:1.0;"/><line style="stroke:#181818;stroke-width:1.0;" x1="464.5" x2="683.5" y1="813.4531" y2="813.4531"/><text fill="#000000" font-family="sans-serif" font-size="13" font-weight="bold" lengthAdjust="spacing" textLength="22" x="471.5" y="792.2451">[16]</text><text fill="#000000" font-family="sans-serif" font-size="13" lengthAdjust="spacing" textLength="95" x="497.5" y="775.8936">Commit Transfer</text><text fill="#000000" font-family="sans-serif" font-size="13" lengthAdjust="spacing" textLength="4" x="497.5" y="792.2451">&#160;</text><text fill="#000000" font-family="sans-serif" font-size="13" font-weight="bold" lengthAdjust="spacing" textLength="26" x="501.5" y="792.2451">PUT</text><text fill="#000000" font-family="sans-serif" font-size="13" lengthAdjust="spacing" textLength="76" x="531.5" y="792.2451">/transfers/{id}</text><text fill="#000000" font-family="sans-serif" font-size="13" lengthAdjust="spacing" textLength="180" x="497.5" y="808.5967">(TransferStatus='COMMITTED')</text><polygon fill="#181818" points="955.5,859.1563,965.5,863.1563,955.5,867.1563,959.5,863.1563" style="stroke:#181818;stroke-width:1.0;"/><line style="stroke:#181818;stroke-width:1.0;" x1="699.5" x2="961.5" y1="863.1563" y2="863.1563"/><text fill="#000000" font-family="sans-serif" font-size="13" font-weight="bold" lengthAdjust="spacing" textLength="22" x="706.5" y="850.124">[17]</text><text fill="#000000" font-family="sans-serif" font-size="13" lengthAdjust="spacing" textLength="122" x="732.5" y="841.9482">Perform AML checks</text><text fill="#000000" font-family="sans-serif" font-size="13" lengthAdjust="spacing" textLength="103" x="732.5" y="858.2998">and transfer funds</text><path d="M972,826.4531 L972,868.4531 L1123,868.4531 L1123,836.4531 L1113,826.4531 L972,826.4531 " fill="#FEFFDD" style="stroke:#181818;stroke-width:0.5;"/><path d="M1113,826.4531 L1113,836.4531 L1123,836.4531 L1113,826.4531 " fill="#FEFFDD" style="stroke:#181818;stroke-width:0.5;"/><text fill="#000000" font-family="sans-serif" font-size="13" lengthAdjust="spacing" textLength="130" x="978" y="844.9482">Replace with CBS API</text><text fill="#000000" font-family="sans-serif" font-size="13" lengthAdjust="spacing" textLength="93" x="978" y="861.2998">to transfer funds</text><path d="M101,881.1563 L162,881.1563 L162,889.5078 L152,899.5078 L101,899.5078 L101,881.1563 " fill="#EEEEEE" style="stroke:#000000;stroke-width:1.5;"/><rect fill="none" height="443.8125" style="stroke:#000000;stroke-width:1.5;" width="1128.5" x="101" y="881.1563"/><text fill="#000000" font-family="sans-serif" font-size="13" font-weight="bold" lengthAdjust="spacing" textLength="16" x="116" y="895.6514">alt</text><text fill="#000000" font-family="sans-serif" font-size="11" font-weight="bold" lengthAdjust="spacing" textLength="124" x="177" y="894.5752">[if (AML checks pass)]</text><line style="stroke:#181818;stroke-width:1.0;" x1="967.5" x2="1009.5" y1="921.8594" y2="921.8594"/><line style="stroke:#181818;stroke-width:1.0;" x1="1009.5" x2="1009.5" y1="921.8594" y2="934.8594"/><line style="stroke:#181818;stroke-width:1.0;" x1="968.5" x2="1009.5" y1="934.8594" y2="934.8594"/><polygon fill="#181818" points="978.5,930.8594,968.5,934.8594,978.5,938.8594,974.5,934.8594" style="stroke:#181818;stroke-width:1.0;"/><text fill="#000000" font-family="sans-serif" font-size="13" font-weight="bold" lengthAdjust="spacing" textLength="22" x="974.5" y="917.0029">[18]</text><text fill="#000000" font-family="sans-serif" font-size="13" lengthAdjust="spacing" textLength="138" x="1000.5" y="917.0029">Release funds to Payee</text><polygon fill="#181818" points="710.5,961.2109,700.5,965.2109,710.5,969.2109,706.5,965.2109" style="stroke:#181818;stroke-width:1.0;"/><line style="stroke:#181818;stroke-width:1.0;stroke-dasharray:2.0,2.0;" x1="704.5" x2="966.5" y1="965.2109" y2="965.2109"/><text fill="#000000" font-family="sans-serif" font-size="13" font-weight="bold" lengthAdjust="spacing" textLength="22" x="716.5" y="960.3545">[19]</text><text fill="#000000" font-family="sans-serif" font-size="13" lengthAdjust="spacing" textLength="53" x="742.5" y="960.3545">response</text><polygon fill="#181818" points="475.5,991.5625,465.5,995.5625,475.5,999.5625,471.5,995.5625" style="stroke:#181818;stroke-width:1.0;"/><line style="stroke:#181818;stroke-width:1.0;stroke-dasharray:2.0,2.0;" x1="469.5" x2="688.5" y1="995.5625" y2="995.5625"/><text fill="#000000" font-family="sans-serif" font-size="13" font-weight="bold" lengthAdjust="spacing" textLength="22" x="481.5" y="990.7061">[20]</text><text fill="#000000" font-family="sans-serif" font-size="13" lengthAdjust="spacing" textLength="53" x="507.5" y="990.7061">response</text><line style="stroke:#000000;stroke-width:1.0;stroke-dasharray:2.0,2.0;" x1="101" x2="1229.5" y1="1004.5625" y2="1004.5625"/><text fill="#000000" font-family="sans-serif" font-size="11" font-weight="bold" lengthAdjust="spacing" textLength="113" x="106" y="1015.9814">[if (AML checks fail)]</text><line style="stroke:#181818;stroke-width:1.0;" x1="967.5" x2="1009.5" y1="1058.1016" y2="1058.1016"/><line style="stroke:#181818;stroke-width:1.0;" x1="1009.5" x2="1009.5" y1="1058.1016" y2="1071.1016"/><line style="stroke:#181818;stroke-width:1.0;" x1="968.5" x2="1009.5" y1="1071.1016" y2="1071.1016"/><polygon fill="#181818" points="978.5,1067.1016,968.5,1071.1016,978.5,1075.1016,974.5,1071.1016" style="stroke:#181818;stroke-width:1.0;"/><text fill="#000000" font-family="sans-serif" font-size="13" font-weight="bold" lengthAdjust="spacing" textLength="22" x="974.5" y="1045.0693">[21]</text><text fill="#000000" font-family="sans-serif" font-size="13" lengthAdjust="spacing" textLength="213" x="1000.5" y="1036.8936">Compensation action for AML failure.</text><text fill="#000000" font-family="sans-serif" font-size="13" lengthAdjust="spacing" textLength="129" x="1004.5" y="1053.2451">Return error response.</text><polygon fill="#181818" points="710.5,1097.4531,700.5,1101.4531,710.5,1105.4531,706.5,1101.4531" style="stroke:#181818;stroke-width:1.0;"/><line style="stroke:#181818;stroke-width:1.0;stroke-dasharray:2.0,2.0;" x1="704.5" x2="966.5" y1="1101.4531" y2="1101.4531"/><text fill="#000000" font-family="sans-serif" font-size="13" font-weight="bold" lengthAdjust="spacing" textLength="22" x="716.5" y="1096.5967">[22]</text><text fill="#000000" font-family="sans-serif" font-size="13" lengthAdjust="spacing" textLength="53" x="742.5" y="1096.5967">response</text><polygon fill="#181818" points="475.5,1127.8047,465.5,1131.8047,475.5,1135.8047,471.5,1131.8047" style="stroke:#181818;stroke-width:1.0;"/><line style="stroke:#181818;stroke-width:1.0;stroke-dasharray:2.0,2.0;" x1="469.5" x2="688.5" y1="1131.8047" y2="1131.8047"/><text fill="#000000" font-family="sans-serif" font-size="13" font-weight="bold" lengthAdjust="spacing" textLength="22" x="481.5" y="1126.9482">[23]</text><text fill="#000000" font-family="sans-serif" font-size="13" lengthAdjust="spacing" textLength="53" x="507.5" y="1126.9482">response</text><rect fill="#FEFFDD" height="138" style="stroke:#181818;stroke-width:0.5;" width="348" x="111" y="1144.8047"/><text fill="#000000" font-family="sans-serif" font-size="13" lengthAdjust="spacing" textLength="340" x="115" y="1162.2998">Payee DFSP AML error checks (and other errors) result in:</text><text fill="#000000" font-family="sans-serif" font-size="13" lengthAdjust="spacing" textLength="4" x="115" y="1178.6514">&#160;</text><text fill="#000000" font-family="sans-serif" font-size="13" font-weight="bold" lengthAdjust="spacing" textLength="126" x="115" y="1195.0029">Reconciliation Error</text><text fill="#000000" font-family="sans-serif" font-size="13" lengthAdjust="spacing" textLength="123" x="127" y="1211.3545">Payer has sent funds</text><text fill="#000000" font-family="sans-serif" font-size="13" lengthAdjust="spacing" textLength="162" x="127" y="1227.7061">Payer DFSP has sent funds</text><text fill="#000000" font-family="sans-serif" font-size="13" lengthAdjust="spacing" textLength="322" x="127" y="1244.0576">Hub considers that the Payee DFSP has received funds</text><text fill="#000000" font-family="sans-serif" font-size="13" lengthAdjust="spacing" textLength="241" x="127" y="1260.4092">Payee DFSP has rejected the transaction</text><text fill="#000000" font-family="sans-serif" font-size="13" lengthAdjust="spacing" textLength="170" x="127" y="1276.7607">Payee has not received funds</text><polygon fill="#181818" points="475.5,1309.9688,465.5,1313.9688,475.5,1317.9688,471.5,1313.9688" style="stroke:#181818;stroke-width:1.0;"/><line style="stroke:#181818;stroke-width:1.0;" x1="469.5" x2="693.5" y1="1313.9688" y2="1313.9688"/><text fill="#000000" font-family="sans-serif" font-size="13" font-weight="bold" lengthAdjust="spacing" textLength="22" x="481.5" y="1309.1123">[24]</text><text fill="#000000" font-family="sans-serif" font-size="13" lengthAdjust="spacing" textLength="173" x="507.5" y="1309.1123">Innitiate Compensation Action</text><path d="M704,1293.6172 L704,1319.6172 L815,1319.6172 L815,1303.6172 L805,1293.6172 L704,1293.6172 " fill="#FEFFDD" style="stroke:#181818;stroke-width:0.5;"/><path d="M805,1293.6172 L805,1303.6172 L815,1303.6172 L805,1293.6172 " fill="#FEFFDD" style="stroke:#181818;stroke-width:0.5;"/><text fill="#000000" font-family="sans-serif" font-size="13" lengthAdjust="spacing" textLength="90" x="710" y="1312.1123">Refund Transfer</text><!--SRC=[hLLDSzCm4BthL-o4GziCfN3jG6SIjuKEX9Ouz48vAFOw4LMa8Cc53iD_PrUAdRZreGmuCt4YlVrwktewsXlo8muxZuYBmxqZ8VojCclfv0heEwX2hQK9y0i4mBar8RFQElYnL075Rx4B6KpiDwcjNGz0UiX_g50iuTcfTBTJBCNS_eG105p9UqGuFS-lRWpzNY5PJgHPe1l0imzgiGnvGDHZNID5xFKFcJK6Ys1TZ3J9KfJtItch7jfark43V9P1CeWnq9H0kVNQZQKXCXQGMrq7PKqo7-V9_Ar3D4B8EbXJh-Reu1Lz1g_d9rzUVXq8aHWuF4dlOwhSU_XKsu0GREJ12SF_D5P1NCw3L0OAQpnJGWYnThP0B87ibn2MPEQayHMPNIi9m-7LPJuR3k6eMVQn67P9rG0qyQ5D05rbtGgq-bwhKeNx_O-dsK6nnEAsOz3Wf-ZHtI6SrwRq7SGaE-wDpvX9TdYIzUz31CWYg3j9TMVPJXzu9zkONakjIaP4jhPRuvoJMYWVYEmBKzWLTsVMiBB1fVGS-ZLp6LTBt0dQPicmjsZGyVfvhIkbUHoR_IqHLChdRYL7lrJv6sxCVXCy3pBK_itUz2m_crwVdUuzXueyrZgwFDXbR-itiwkL2WGaVe6QpwU2fg5SC9U9Anr0LV0ep6XyEPrHb8E-jencsRkdPTjrqtHkarO3lZ5_Gq3h4hfz-sY3gkvfZ2LLrBIkSGVAWvnR5qWes8hcMFnRPTdbP78n-y-rxJXzqYXptSsX6qq-G3ngdZnBEgTjxLLxlA8QEDR0v7wAQoqBJ0B0kZEwkeWRf0uzvftJtqpEJjmr2L1YWtornqcZzBYPmOqk8RIen5hdCFKVCTJavK70IYhzC20rO8t6IzRJo1-zYA383-DhXo-88KeirCu0EaURJQGNVv-NQoMMBugujBs2OjGKOfFoFhV6ajYwjEuFs5tDP9hZQ1s_XiCfabGNIgjKoHc3wLg5z4HrXoLT5r7DjprgzsBuVi2xUXxl0LMoPiOJm-g_apRREInGtT7ryCXv1_IDBZu2jTT7ehmBPoJHrEUIPYeoADgfPeOlZ551nS7VRUTewtixofj9PfTTgMx7LVHgD6l07m00]--></g></svg>