<?xml version="1.0" encoding="us-ascii" standalone="no"?><svg xmlns="http://www.w3.org/2000/svg" xmlns:xlink="http://www.w3.org/1999/xlink" contentStyleType="text/css" height="1599px" preserveAspectRatio="none" style="width:1355px;height:1599px;background:#FFFFFF;" version="1.1" viewBox="0 0 1355 1599" width="1355px" zoomAndPan="magnify"><defs/><g><rect fill="#B0C4DE" height="1587.6328" style="stroke:#181818;stroke-width:0.5;" width="425" x="376" y="6"/><text fill="#000000" font-family="sans-serif" font-size="13" font-weight="bold" lengthAdjust="spacing" textLength="76" x="546.5" y="19.4951">Payer DFSP</text><text fill="#000000" font-family="sans-serif" font-size="13" font-weight="bold" lengthAdjust="spacing" textLength="108" x="534.5" y="35.8467">Payment Manger</text><rect fill="#00008B" height="1226.5898" style="stroke:#181818;stroke-width:1.0;" width="10" x="432.5" y="178.543"/><rect fill="none" height="120.8906" style="stroke:#000000;stroke-width:1.5;" width="377" x="48" y="1420.1328"/><line style="stroke:#181818;stroke-width:0.5;stroke-dasharray:5.0,5.0;" x1="283" x2="283" y1="75.3125" y2="1558.0234"/><line style="stroke:#181818;stroke-width:0.5;stroke-dasharray:5.0,5.0;" x1="437" x2="437" y1="75.3125" y2="1558.0234"/><line style="stroke:#181818;stroke-width:0.5;stroke-dasharray:5.0,5.0;" x1="726" x2="726" y1="75.3125" y2="1558.0234"/><line style="stroke:#181818;stroke-width:0.5;stroke-dasharray:5.0,5.0;" x1="951" x2="951" y1="75.3125" y2="1558.0234"/><rect fill="#006400" height="31.6094" rx="2.5" ry="2.5" style="stroke:#181818;stroke-width:0.5;" width="155" x="206" y="42.7031"/><text fill="#FFFFFF" font-family="sans-serif" font-size="14" lengthAdjust="spacing" textLength="141" x="213" y="64.2363">Core Banking Solution</text><rect fill="#006400" height="31.6094" rx="2.5" ry="2.5" style="stroke:#181818;stroke-width:0.5;" width="155" x="206" y="1557.0234"/><text fill="#FFFFFF" font-family="sans-serif" font-size="14" lengthAdjust="spacing" textLength="141" x="213" y="1578.5566">Core Banking Solution</text><rect fill="#00008B" height="31.6094" rx="2.5" ry="2.5" style="stroke:#181818;stroke-width:0.5;" width="115" x="380" y="42.7031"/><text fill="#FFFFFF" font-family="sans-serif" font-size="14" lengthAdjust="spacing" textLength="101" x="387" y="64.2363">Core Connector</text><rect fill="#00008B" height="31.6094" rx="2.5" ry="2.5" style="stroke:#181818;stroke-width:0.5;" width="115" x="380" y="1557.0234"/><text fill="#FFFFFF" font-family="sans-serif" font-size="14" lengthAdjust="spacing" textLength="101" x="387" y="1578.5566">Core Connector</text><rect fill="#BDB76B" height="31.6094" rx="2.5" ry="2.5" style="stroke:#181818;stroke-width:0.5;" width="141" x="656" y="42.7031"/><text fill="#FFFFFF" font-family="sans-serif" font-size="14" lengthAdjust="spacing" textLength="127" x="663" y="64.2363">Mojaloop Connector</text><rect fill="#BDB76B" height="31.6094" rx="2.5" ry="2.5" style="stroke:#181818;stroke-width:0.5;" width="141" x="656" y="1557.0234"/><text fill="#FFFFFF" font-family="sans-serif" font-size="14" lengthAdjust="spacing" textLength="127" x="663" y="1578.5566">Mojaloop Connector</text><rect fill="#8B0000" height="31.6094" rx="2.5" ry="2.5" style="stroke:#181818;stroke-width:0.5;" width="71" x="916" y="42.7031"/><text fill="#FFFFFF" font-family="sans-serif" font-size="14" lengthAdjust="spacing" textLength="57" x="923" y="64.2363">Mojaloop</text><rect fill="#8B0000" height="31.6094" rx="2.5" ry="2.5" style="stroke:#181818;stroke-width:0.5;" width="71" x="916" y="1557.0234"/><text fill="#FFFFFF" font-family="sans-serif" font-size="14" lengthAdjust="spacing" textLength="57" x="923" y="1578.5566">Mojaloop</text><rect fill="#00008B" height="1226.5898" style="stroke:#181818;stroke-width:1.0;" width="10" x="432.5" y="178.543"/><line style="stroke:#181818;stroke-width:1.0;" x1="283.5" x2="325.5" y1="107.6641" y2="107.6641"/><line style="stroke:#181818;stroke-width:1.0;" x1="325.5" x2="325.5" y1="107.6641" y2="120.6641"/><line style="stroke:#181818;stroke-width:1.0;" x1="284.5" x2="325.5" y1="120.6641" y2="120.6641"/><polygon fill="#181818" points="294.5,116.6641,284.5,120.6641,294.5,124.6641,290.5,120.6641" style="stroke:#181818;stroke-width:1.0;"/><text fill="#000000" font-family="sans-serif" font-size="13" font-weight="bold" lengthAdjust="spacing" textLength="15" x="290.5" y="102.8076">[1]</text><text fill="#000000" font-family="sans-serif" font-size="13" lengthAdjust="spacing" textLength="81" x="309.5" y="102.8076">Reserve funds</text><path d="M72,93.8125 L72,119.8125 L278,119.8125 L278,103.8125 L268,93.8125 L72,93.8125 " fill="#FEFFDD" style="stroke:#181818;stroke-width:0.5;"/><path d="M268,93.8125 L268,103.8125 L278,103.8125 L268,93.8125 " fill="#FEFFDD" style="stroke:#181818;stroke-width:0.5;"/><text fill="#000000" font-family="sans-serif" font-size="13" lengthAdjust="spacing" textLength="185" x="78" y="112.3076">Reserve funds in Payer Account</text><polygon fill="#181818" points="420.5,174.543,430.5,178.543,420.5,182.543,424.5,178.543" style="stroke:#181818;stroke-width:1.0;"/><line style="stroke:#181818;stroke-width:1.0;" x1="283.5" x2="426.5" y1="178.543" y2="178.543"/><text fill="#000000" font-family="sans-serif" font-size="13" font-weight="bold" lengthAdjust="spacing" textLength="15" x="290.5" y="173.6865">[2]</text><text fill="#000000" font-family="sans-serif" font-size="13" font-weight="bold" lengthAdjust="spacing" textLength="36" x="309.5" y="173.6865">POST</text><text fill="#000000" font-family="sans-serif" font-size="13" lengthAdjust="spacing" textLength="71" x="349.5" y="173.6865">/sendMoney</text><path d="M5,133.6641 L5,208.6641 L279,208.6641 L279,143.6641 L269,133.6641 L5,133.6641 " fill="#FEFFDD" style="stroke:#181818;stroke-width:0.5;"/><path d="M269,133.6641 L269,143.6641 L279,143.6641 L269,133.6641 " fill="#FEFFDD" style="stroke:#181818;stroke-width:0.5;"/><text fill="#000000" font-family="sans-serif" font-size="13" lengthAdjust="spacing" textLength="188" x="11" y="152.1592">If not already supported by CBS,</text><text fill="#000000" font-family="sans-serif" font-size="13" lengthAdjust="spacing" textLength="253" x="11" y="168.5107">this API to be defined by System Integrator.</text><text fill="#000000" font-family="sans-serif" font-size="13" lengthAdjust="spacing" textLength="188" x="19" y="184.8623">- need a reference to the transfer</text><text fill="#000000" font-family="sans-serif" font-size="13" lengthAdjust="spacing" textLength="144" x="19" y="201.2139">- and concent from payer</text><polygon fill="#181818" points="714.5,268.125,724.5,272.125,714.5,276.125,718.5,272.125" style="stroke:#181818;stroke-width:1.0;"/><line style="stroke:#181818;stroke-width:1.0;" x1="442.5" x2="720.5" y1="272.125" y2="272.125"/><text fill="#000000" font-family="sans-serif" font-size="13" font-weight="bold" lengthAdjust="spacing" textLength="15" x="449.5" y="250.917">[3]</text><text fill="#000000" font-family="sans-serif" font-size="13" font-weight="bold" lengthAdjust="spacing" textLength="36" x="468.5" y="234.5654">POST</text><text fill="#000000" font-family="sans-serif" font-size="13" lengthAdjust="spacing" textLength="54" x="508.5" y="234.5654">/transfers</text><text fill="#000000" font-family="sans-serif" font-size="13" lengthAdjust="spacing" textLength="190" x="468.5" y="250.917">(AUTO_ACCEPT_PARTY = true,</text><text fill="#000000" font-family="sans-serif" font-size="13" lengthAdjust="spacing" textLength="202" x="472.5" y="267.2686">AUTO_ACCEPT_QUOTES = false)</text><path d="M164,219.0703 L164,278.0703 L427,278.0703 L427,229.0703 L417,219.0703 L164,219.0703 " fill="#FEFFDD" style="stroke:#181818;stroke-width:0.5;"/><path d="M417,219.0703 L417,229.0703 L427,229.0703 L417,219.0703 " fill="#FEFFDD" style="stroke:#181818;stroke-width:0.5;"/><text fill="#000000" font-family="sans-serif" font-size="13" lengthAdjust="spacing" textLength="238" x="170" y="237.5654">Include Payer Regulatory requirements in</text><text fill="#000000" font-family="sans-serif" font-size="13" lengthAdjust="spacing" textLength="110" x="182" y="253.917">1. Quote extension</text><text fill="#000000" font-family="sans-serif" font-size="13" lengthAdjust="spacing" textLength="121" x="182" y="270.2686">2. Transfer extension</text><polygon fill="#181818" points="939.5,301.4766,949.5,305.4766,939.5,309.4766,943.5,305.4766" style="stroke:#181818;stroke-width:1.0;"/><line style="stroke:#181818;stroke-width:1.0;" x1="726.5" x2="945.5" y1="305.4766" y2="305.4766"/><text fill="#000000" font-family="sans-serif" font-size="13" font-weight="bold" lengthAdjust="spacing" textLength="15" x="733.5" y="300.6201">[4]</text><text fill="#000000" font-family="sans-serif" font-size="13" font-weight="bold" lengthAdjust="spacing" textLength="26" x="752.5" y="300.6201">GET</text><text fill="#000000" font-family="sans-serif" font-size="13" lengthAdjust="spacing" textLength="152" x="782.5" y="300.6201">/parties/{Type}/{ID}/{SubId}</text><line style="stroke:#181818;stroke-width:1.0;" x1="951.5" x2="993.5" y1="335.8281" y2="335.8281"/><line style="stroke:#181818;stroke-width:1.0;" x1="993.5" x2="993.5" y1="335.8281" y2="348.8281"/><line style="stroke:#181818;stroke-width:1.0;" x1="952.5" x2="993.5" y1="348.8281" y2="348.8281"/><polygon fill="#181818" points="962.5,344.8281,952.5,348.8281,962.5,352.8281,958.5,348.8281" style="stroke:#181818;stroke-width:1.0;"/><text fill="#000000" font-family="sans-serif" font-size="13" font-weight="bold" lengthAdjust="spacing" textLength="15" x="958.5" y="330.9717">[5]</text><text fill="#000000" font-family="sans-serif" font-size="13" lengthAdjust="spacing" textLength="213" x="977.5" y="330.9717">Determine Payee DFSP using oracle</text><line style="stroke:#181818;stroke-width:1.0;" x1="951.5" x2="993.5" y1="379.1797" y2="379.1797"/><line style="stroke:#181818;stroke-width:1.0;" x1="993.5" x2="993.5" y1="379.1797" y2="392.1797"/><line style="stroke:#181818;stroke-width:1.0;" x1="952.5" x2="993.5" y1="392.1797" y2="392.1797"/><polygon fill="#181818" points="962.5,388.1797,952.5,392.1797,962.5,396.1797,958.5,392.1797" style="stroke:#181818;stroke-width:1.0;"/><text fill="#000000" font-family="sans-serif" font-size="13" font-weight="bold" lengthAdjust="spacing" textLength="15" x="958.5" y="374.3232">[6]</text><text fill="#000000" font-family="sans-serif" font-size="13" lengthAdjust="spacing" textLength="294" x="977.5" y="374.3232">Lookup Payee Information from Payee DFSP using</text><text fill="#000000" font-family="sans-serif" font-size="13" font-weight="bold" lengthAdjust="spacing" textLength="26" x="1275.5" y="374.3232">GET</text><text fill="#000000" font-family="sans-serif" font-size="13" lengthAdjust="spacing" textLength="43" x="1305.5" y="374.3232">/parties</text><polygon fill="#181818" points="737.5,418.5313,727.5,422.5313,737.5,426.5313,733.5,422.5313" style="stroke:#181818;stroke-width:1.0;"/><line style="stroke:#181818;stroke-width:1.0;" x1="731.5" x2="950.5" y1="422.5313" y2="422.5313"/><text fill="#000000" font-family="sans-serif" font-size="13" font-weight="bold" lengthAdjust="spacing" textLength="15" x="743.5" y="417.6748">[7]</text><text fill="#000000" font-family="sans-serif" font-size="13" font-weight="bold" lengthAdjust="spacing" textLength="26" x="762.5" y="417.6748">PUT</text><text fill="#000000" font-family="sans-serif" font-size="13" lengthAdjust="spacing" textLength="152" x="792.5" y="417.6748">/parties/{Type}/{ID}/{SubId}</text><rect fill="#FEFFDD" height="40" style="stroke:#181818;stroke-width:0.5;" width="161" x="560" y="435.5313"/><text fill="#000000" font-family="sans-serif" font-size="13" lengthAdjust="spacing" textLength="76" x="564" y="453.0264">Accept Party</text><text fill="#000000" font-family="sans-serif" font-size="13" lengthAdjust="spacing" textLength="153" x="564" y="469.3779">Need Currency Conversion</text><line style="stroke:#181818;stroke-width:1.0;" x1="949.5" x2="939.5" y1="503.5859" y2="499.5859"/><line style="stroke:#181818;stroke-width:1.0;" x1="949.5" x2="939.5" y1="503.5859" y2="507.5859"/><line style="stroke:#181818;stroke-width:1.0;" x1="726.5" x2="950.5" y1="503.5859" y2="503.5859"/><text fill="#000000" font-family="sans-serif" font-size="13" font-weight="bold" lengthAdjust="spacing" textLength="15" x="733.5" y="498.7295">[8]</text><text fill="#000000" font-family="sans-serif" font-size="13" font-weight="bold" lengthAdjust="spacing" textLength="36" x="752.5" y="498.7295">POST</text><text fill="#000000" font-family="sans-serif" font-size="13" lengthAdjust="spacing" textLength="53" x="792.5" y="498.7295">/fxquotes</text><line style="stroke:#181818;stroke-width:1.0;" x1="951.5" x2="993.5" y1="533.9375" y2="533.9375"/><line style="stroke:#181818;stroke-width:1.0;" x1="993.5" x2="993.5" y1="533.9375" y2="546.9375"/><line style="stroke:#181818;stroke-width:1.0;" x1="952.5" x2="993.5" y1="546.9375" y2="546.9375"/><polygon fill="#181818" points="962.5,542.9375,952.5,546.9375,962.5,550.9375,958.5,546.9375" style="stroke:#181818;stroke-width:1.0;"/><text fill="#000000" font-family="sans-serif" font-size="13" font-weight="bold" lengthAdjust="spacing" textLength="15" x="958.5" y="529.0811">[9]</text><text fill="#000000" font-family="sans-serif" font-size="13" lengthAdjust="spacing" textLength="162" x="977.5" y="529.0811">Pass on quote to FXP using</text><text fill="#000000" font-family="sans-serif" font-size="13" font-weight="bold" lengthAdjust="spacing" textLength="36" x="1143.5" y="529.0811">POST</text><text fill="#000000" font-family="sans-serif" font-size="13" lengthAdjust="spacing" textLength="53" x="1183.5" y="529.0811">/fxquotes</text><line style="stroke:#181818;stroke-width:1.0;" x1="727.5" x2="737.5" y1="577.2891" y2="573.2891"/><line style="stroke:#181818;stroke-width:1.0;" x1="727.5" x2="737.5" y1="577.2891" y2="581.2891"/><line style="stroke:#181818;stroke-width:1.0;" x1="726.5" x2="950.5" y1="577.2891" y2="577.2891"/><text fill="#000000" font-family="sans-serif" font-size="13" font-weight="bold" lengthAdjust="spacing" textLength="22" x="743.5" y="572.4326">[10]</text><text fill="#000000" font-family="sans-serif" font-size="13" font-weight="bold" lengthAdjust="spacing" textLength="26" x="769.5" y="572.4326">PUT</text><text fill="#000000" font-family="sans-serif" font-size="13" lengthAdjust="spacing" textLength="75" x="799.5" y="572.4326">/fxquotes/{Id}</text><polygon fill="#181818" points="453.5,619.9922,443.5,623.9922,453.5,627.9922,449.5,623.9922" style="stroke:#181818;stroke-width:1.0;"/><line style="stroke:#181818;stroke-width:1.0;stroke-dasharray:2.0,2.0;" x1="447.5" x2="725.5" y1="623.9922" y2="623.9922"/><text fill="#000000" font-family="sans-serif" font-size="13" font-weight="bold" lengthAdjust="spacing" textLength="22" x="459.5" y="610.96">[11]</text><text fill="#000000" font-family="sans-serif" font-size="13" font-weight="bold" lengthAdjust="spacing" textLength="65" x="485.5" y="602.7842">Response:</text><text fill="#000000" font-family="sans-serif" font-size="13" lengthAdjust="spacing" textLength="142" x="554.5" y="602.7842">Do you accept this rate?</text><text fill="#000000" font-family="sans-serif" font-size="13" lengthAdjust="spacing" textLength="128" x="489.5" y="619.1357">It expires in 5 minutes</text><line style="stroke:#181818;stroke-width:1.0;" x1="442.5" x2="484.5" y1="683.5469" y2="683.5469"/><line style="stroke:#181818;stroke-width:1.0;" x1="484.5" x2="484.5" y1="683.5469" y2="696.5469"/><line style="stroke:#181818;stroke-width:1.0;" x1="443.5" x2="484.5" y1="696.5469" y2="696.5469"/><polygon fill="#181818" points="453.5,692.5469,443.5,696.5469,453.5,700.5469,449.5,696.5469" style="stroke:#181818;stroke-width:1.0;"/><text fill="#000000" font-family="sans-serif" font-size="13" font-weight="bold" lengthAdjust="spacing" textLength="22" x="449.5" y="670.5146">[12]</text><text fill="#000000" font-family="sans-serif" font-size="13" lengthAdjust="spacing" textLength="176" x="475.5" y="662.3389">Check that the conversion rate</text><text fill="#000000" font-family="sans-serif" font-size="13" lengthAdjust="spacing" textLength="147" x="475.5" y="678.6904">and terms are acceptable</text><path d="M213,636.9922 L213,711.9922 L427,711.9922 L427,646.9922 L417,636.9922 L213,636.9922 " fill="#FEFFDD" style="stroke:#181818;stroke-width:0.5;"/><path d="M417,636.9922 L417,646.9922 L427,646.9922 L417,636.9922 " fill="#FEFFDD" style="stroke:#181818;stroke-width:0.5;"/><text fill="#000000" font-family="sans-serif" font-size="13" font-weight="bold" lengthAdjust="spacing" textLength="57" x="219" y="655.4873">Validate:</text><text fill="#000000" font-family="sans-serif" font-size="13" lengthAdjust="spacing" textLength="189" x="223" y="671.8389">--&gt; transfer amount and currency</text><text fill="#000000" font-family="sans-serif" font-size="13" lengthAdjust="spacing" textLength="107" x="223" y="688.1904">--&gt; conversion rate</text><text fill="#000000" font-family="sans-serif" font-size="13" lengthAdjust="spacing" textLength="44" x="223" y="704.542">--&gt; FXP</text><polygon fill="#181818" points="714.5,735.75,724.5,739.75,714.5,743.75,718.5,739.75" style="stroke:#181818;stroke-width:1.0;"/><line style="stroke:#181818;stroke-width:1.0;" x1="442.5" x2="720.5" y1="739.75" y2="739.75"/><text fill="#000000" font-family="sans-serif" font-size="13" font-weight="bold" lengthAdjust="spacing" textLength="22" x="449.5" y="734.8936">[13]</text><text fill="#000000" font-family="sans-serif" font-size="13" font-weight="bold" lengthAdjust="spacing" textLength="26" x="475.5" y="734.8936">PUT</text><text fill="#000000" font-family="sans-serif" font-size="13" lengthAdjust="spacing" textLength="171" x="505.5" y="734.8936">/transfers {"acceptConverion":</text><text fill="#000000" font-family="sans-serif" font-size="13" font-weight="bold" lengthAdjust="spacing" textLength="25" x="680.5" y="734.8936">true</text><text fill="#000000" font-family="sans-serif" font-size="13" lengthAdjust="spacing" textLength="4" x="705.5" y="734.8936">}</text><polygon fill="#181818" points="939.5,766.1016,949.5,770.1016,939.5,774.1016,943.5,770.1016" style="stroke:#181818;stroke-width:1.0;"/><line style="stroke:#181818;stroke-width:1.0;" x1="726.5" x2="945.5" y1="770.1016" y2="770.1016"/><text fill="#000000" font-family="sans-serif" font-size="13" font-weight="bold" lengthAdjust="spacing" textLength="22" x="733.5" y="765.2451">[14]</text><text fill="#000000" font-family="sans-serif" font-size="13" font-weight="bold" lengthAdjust="spacing" textLength="36" x="759.5" y="765.2451">POST</text><text fill="#000000" font-family="sans-serif" font-size="13" lengthAdjust="spacing" textLength="43" x="799.5" y="765.2451">/quotes</text><line style="stroke:#181818;stroke-width:1.0;" x1="951.5" x2="993.5" y1="800.4531" y2="800.4531"/><line style="stroke:#181818;stroke-width:1.0;" x1="993.5" x2="993.5" y1="800.4531" y2="813.4531"/><line style="stroke:#181818;stroke-width:1.0;" x1="952.5" x2="993.5" y1="813.4531" y2="813.4531"/><polygon fill="#181818" points="962.5,809.4531,952.5,813.4531,962.5,817.4531,958.5,813.4531" style="stroke:#181818;stroke-width:1.0;"/><text fill="#000000" font-family="sans-serif" font-size="13" font-weight="bold" lengthAdjust="spacing" textLength="22" x="958.5" y="795.5967">[15]</text><text fill="#000000" font-family="sans-serif" font-size="13" lengthAdjust="spacing" textLength="214" x="984.5" y="795.5967">Pass on quote to Payee DFSP using</text><text fill="#000000" font-family="sans-serif" font-size="13" font-weight="bold" lengthAdjust="spacing" textLength="36" x="1202.5" y="795.5967">POST</text><text fill="#000000" font-family="sans-serif" font-size="13" lengthAdjust="spacing" textLength="43" x="1242.5" y="795.5967">/quotes</text><polygon fill="#181818" points="737.5,839.8047,727.5,843.8047,737.5,847.8047,733.5,843.8047" style="stroke:#181818;stroke-width:1.0;"/><line style="stroke:#181818;stroke-width:1.0;" x1="731.5" x2="950.5" y1="843.8047" y2="843.8047"/><text fill="#000000" font-family="sans-serif" font-size="13" font-weight="bold" lengthAdjust="spacing" textLength="22" x="743.5" y="838.9482">[16]</text><text fill="#000000" font-family="sans-serif" font-size="13" font-weight="bold" lengthAdjust="spacing" textLength="26" x="769.5" y="838.9482">PUT</text><text fill="#000000" font-family="sans-serif" font-size="13" lengthAdjust="spacing" textLength="65" x="799.5" y="838.9482">/quotes/{Id}</text><polygon fill="#181818" points="453.5,870.1563,443.5,874.1563,453.5,878.1563,449.5,874.1563" style="stroke:#181818;stroke-width:1.0;"/><line style="stroke:#181818;stroke-width:1.0;stroke-dasharray:2.0,2.0;" x1="447.5" x2="725.5" y1="874.1563" y2="874.1563"/><text fill="#000000" font-family="sans-serif" font-size="13" font-weight="bold" lengthAdjust="spacing" textLength="22" x="459.5" y="869.2998">[17]</text><text fill="#000000" font-family="sans-serif" font-size="13" lengthAdjust="spacing" textLength="53" x="485.5" y="869.2998">response</text><line style="stroke:#181818;stroke-width:1.0;stroke-dasharray:2.0,2.0;" x1="442.5" x2="484.5" y1="941.8867" y2="941.8867"/><line style="stroke:#181818;stroke-width:1.0;stroke-dasharray:2.0,2.0;" x1="484.5" x2="484.5" y1="941.8867" y2="954.8867"/><line style="stroke:#181818;stroke-width:1.0;stroke-dasharray:2.0,2.0;" x1="443.5" x2="484.5" y1="954.8867" y2="954.8867"/><polygon fill="#181818" points="453.5,950.8867,443.5,954.8867,453.5,958.8867,449.5,954.8867" style="stroke:#181818;stroke-width:1.0;"/><text fill="#000000" font-family="sans-serif" font-size="13" font-weight="bold" lengthAdjust="spacing" textLength="22" x="449.5" y="928.8545">[18]</text><text fill="#000000" font-family="sans-serif" font-size="13" lengthAdjust="spacing" textLength="158" x="475.5" y="920.6787">Check that the terms of the</text><text fill="#000000" font-family="sans-serif" font-size="13" lengthAdjust="spacing" textLength="179" x="479.5" y="937.0303">transfer align with expectations</text><path d="M183,887.1563 L183,978.1563 L427,978.1563 L427,897.1563 L417,887.1563 L183,887.1563 " fill="#FEFFDD" style="stroke:#181818;stroke-width:0.5;"/><path d="M417,887.1563 L417,897.1563 L427,897.1563 L417,887.1563 " fill="#FEFFDD" style="stroke:#181818;stroke-width:0.5;"/><text fill="#000000" font-family="sans-serif" font-size="13" font-weight="bold" lengthAdjust="spacing" textLength="57" x="189" y="905.6514">Validate:</text><text fill="#000000" font-family="sans-serif" font-size="13" lengthAdjust="spacing" textLength="189" x="193" y="922.0029">--&gt; transfer amount and currency</text><text fill="#000000" font-family="sans-serif" font-size="13" lengthAdjust="spacing" textLength="44" x="193" y="938.3545">--&gt; fees</text><text fill="#000000" font-family="sans-serif" font-size="13" lengthAdjust="spacing" textLength="94" x="193" y="954.7061">--&gt; payee DFSP</text><text fill="#000000" font-family="sans-serif" font-size="13" lengthAdjust="spacing" textLength="215" x="193" y="971.0576">--&gt; regulatory requirements for Payee</text><polygon fill="#181818" points="714.5,1002.2656,724.5,1006.2656,714.5,1010.2656,718.5,1006.2656" style="stroke:#181818;stroke-width:1.0;"/><line style="stroke:#181818;stroke-width:1.0;" x1="442.5" x2="720.5" y1="1006.2656" y2="1006.2656"/><text fill="#000000" font-family="sans-serif" font-size="13" font-weight="bold" lengthAdjust="spacing" textLength="22" x="449.5" y="1001.4092">[19]</text><text fill="#000000" font-family="sans-serif" font-size="13" font-weight="bold" lengthAdjust="spacing" textLength="26" x="475.5" y="1001.4092">PUT</text><text fill="#000000" font-family="sans-serif" font-size="13" lengthAdjust="spacing" textLength="180" x="505.5" y="1001.4092">/transfers {"acceptQuote": true}</text><polygon fill="#181818" points="939.5,1032.6172,949.5,1036.6172,939.5,1040.6172,943.5,1036.6172" style="stroke:#181818;stroke-width:1.0;"/><line style="stroke:#181818;stroke-width:1.0;" x1="726.5" x2="945.5" y1="1036.6172" y2="1036.6172"/><text fill="#000000" font-family="sans-serif" font-size="13" font-weight="bold" lengthAdjust="spacing" textLength="22" x="733.5" y="1031.7607">[20]</text><text fill="#000000" font-family="sans-serif" font-size="13" font-weight="bold" lengthAdjust="spacing" textLength="36" x="759.5" y="1031.7607">POST</text><text fill="#000000" font-family="sans-serif" font-size="13" lengthAdjust="spacing" textLength="64" x="799.5" y="1031.7607">/fxtransfers</text><line style="stroke:#181818;stroke-width:1.0;" x1="951.5" x2="993.5" y1="1066.9688" y2="1066.9688"/><line style="stroke:#181818;stroke-width:1.0;" x1="993.5" x2="993.5" y1="1066.9688" y2="1079.9688"/><line style="stroke:#181818;stroke-width:1.0;" x1="952.5" x2="993.5" y1="1079.9688" y2="1079.9688"/><polygon fill="#181818" points="962.5,1075.9688,952.5,1079.9688,962.5,1083.9688,958.5,1079.9688" style="stroke:#181818;stroke-width:1.0;"/><text fill="#000000" font-family="sans-serif" font-size="13" font-weight="bold" lengthAdjust="spacing" textLength="22" x="958.5" y="1062.1123">[21]</text><text fill="#000000" font-family="sans-serif" font-size="13" lengthAdjust="spacing" textLength="158" x="984.5" y="1062.1123">Reserve Payer DFSP funds</text><line style="stroke:#181818;stroke-width:1.0;" x1="951.5" x2="993.5" y1="1110.3203" y2="1110.3203"/><line style="stroke:#181818;stroke-width:1.0;" x1="993.5" x2="993.5" y1="1110.3203" y2="1123.3203"/><line style="stroke:#181818;stroke-width:1.0;" x1="952.5" x2="993.5" y1="1123.3203" y2="1123.3203"/><polygon fill="#181818" points="962.5,1119.3203,952.5,1123.3203,962.5,1127.3203,958.5,1123.3203" style="stroke:#181818;stroke-width:1.0;"/><text fill="#000000" font-family="sans-serif" font-size="13" font-weight="bold" lengthAdjust="spacing" textLength="22" x="958.5" y="1105.4639">[22]</text><text fill="#000000" font-family="sans-serif" font-size="13" lengthAdjust="spacing" textLength="173" x="984.5" y="1105.4639">Pass on transfer to FXP using</text><text fill="#000000" font-family="sans-serif" font-size="13" font-weight="bold" lengthAdjust="spacing" textLength="36" x="1161.5" y="1105.4639">POST</text><text fill="#000000" font-family="sans-serif" font-size="13" lengthAdjust="spacing" textLength="64" x="1201.5" y="1105.4639">/fxtransfers</text><polygon fill="#181818" points="737.5,1149.6719,727.5,1153.6719,737.5,1157.6719,733.5,1153.6719" style="stroke:#181818;stroke-width:1.0;"/><line style="stroke:#181818;stroke-width:1.0;" x1="731.5" x2="950.5" y1="1153.6719" y2="1153.6719"/><text fill="#000000" font-family="sans-serif" font-size="13" font-weight="bold" lengthAdjust="spacing" textLength="22" x="743.5" y="1148.8154">[23]</text><text fill="#000000" font-family="sans-serif" font-size="13" font-weight="bold" lengthAdjust="spacing" textLength="26" x="769.5" y="1148.8154">PUT</text><text fill="#000000" font-family="sans-serif" font-size="13" lengthAdjust="spacing" textLength="86" x="799.5" y="1148.8154">/fxtransfers/{Id}</text><polygon fill="#181818" points="939.5,1180.0234,949.5,1184.0234,939.5,1188.0234,943.5,1184.0234" style="stroke:#181818;stroke-width:1.0;"/><line style="stroke:#181818;stroke-width:1.0;" x1="726.5" x2="945.5" y1="1184.0234" y2="1184.0234"/><text fill="#000000" font-family="sans-serif" font-size="13" font-weight="bold" lengthAdjust="spacing" textLength="22" x="733.5" y="1179.167">[24]</text><text fill="#000000" font-family="sans-serif" font-size="13" font-weight="bold" lengthAdjust="spacing" textLength="36" x="759.5" y="1179.167">POST</text><text fill="#000000" font-family="sans-serif" font-size="13" lengthAdjust="spacing" textLength="54" x="799.5" y="1179.167">/transfers</text><line style="stroke:#181818;stroke-width:1.0;" x1="951.5" x2="993.5" y1="1214.375" y2="1214.375"/><line style="stroke:#181818;stroke-width:1.0;" x1="993.5" x2="993.5" y1="1214.375" y2="1227.375"/><line style="stroke:#181818;stroke-width:1.0;" x1="952.5" x2="993.5" y1="1227.375" y2="1227.375"/><polygon fill="#181818" points="962.5,1223.375,952.5,1227.375,962.5,1231.375,958.5,1227.375" style="stroke:#181818;stroke-width:1.0;"/><text fill="#000000" font-family="sans-serif" font-size="13" font-weight="bold" lengthAdjust="spacing" textLength="22" x="958.5" y="1209.5186">[25]</text><text fill="#000000" font-family="sans-serif" font-size="13" lengthAdjust="spacing" textLength="165" x="984.5" y="1209.5186">Reserve FPX target currency</text><line style="stroke:#181818;stroke-width:1.0;" x1="951.5" x2="993.5" y1="1257.7266" y2="1257.7266"/><line style="stroke:#181818;stroke-width:1.0;" x1="993.5" x2="993.5" y1="1257.7266" y2="1270.7266"/><line style="stroke:#181818;stroke-width:1.0;" x1="952.5" x2="993.5" y1="1270.7266" y2="1270.7266"/><polygon fill="#181818" points="962.5,1266.7266,952.5,1270.7266,962.5,1274.7266,958.5,1270.7266" style="stroke:#181818;stroke-width:1.0;"/><text fill="#000000" font-family="sans-serif" font-size="13" font-weight="bold" lengthAdjust="spacing" textLength="22" x="958.5" y="1252.8701">[26]</text><text fill="#000000" font-family="sans-serif" font-size="13" lengthAdjust="spacing" textLength="225" x="984.5" y="1252.8701">Pass on transfer to Payee DFSP using</text><text fill="#000000" font-family="sans-serif" font-size="13" font-weight="bold" lengthAdjust="spacing" textLength="36" x="1213.5" y="1252.8701">POST</text><text fill="#000000" font-family="sans-serif" font-size="13" lengthAdjust="spacing" textLength="54" x="1253.5" y="1252.8701">/transfers</text><line style="stroke:#181818;stroke-width:1.0;" x1="951.5" x2="993.5" y1="1301.0781" y2="1301.0781"/><line style="stroke:#181818;stroke-width:1.0;" x1="993.5" x2="993.5" y1="1301.0781" y2="1314.0781"/><line style="stroke:#181818;stroke-width:1.0;" x1="952.5" x2="993.5" y1="1314.0781" y2="1314.0781"/><polygon fill="#181818" points="962.5,1310.0781,952.5,1314.0781,962.5,1318.0781,958.5,1314.0781" style="stroke:#181818;stroke-width:1.0;"/><text fill="#000000" font-family="sans-serif" font-size="13" font-weight="bold" lengthAdjust="spacing" textLength="22" x="958.5" y="1296.2217">[27]</text><text fill="#000000" font-family="sans-serif" font-size="13" lengthAdjust="spacing" textLength="294" x="984.5" y="1296.2217">Commit Payer DFSP, FPX and Payee DFSP funds</text><polygon fill="#181818" points="737.5,1340.4297,727.5,1344.4297,737.5,1348.4297,733.5,1344.4297" style="stroke:#181818;stroke-width:1.0;"/><line style="stroke:#181818;stroke-width:1.0;" x1="731.5" x2="950.5" y1="1344.4297" y2="1344.4297"/><text fill="#000000" font-family="sans-serif" font-size="13" font-weight="bold" lengthAdjust="spacing" textLength="22" x="743.5" y="1339.5732">[28]</text><text fill="#000000" font-family="sans-serif" font-size="13" font-weight="bold" lengthAdjust="spacing" textLength="26" x="769.5" y="1339.5732">PUT</text><text fill="#000000" font-family="sans-serif" font-size="13" lengthAdjust="spacing" textLength="76" x="799.5" y="1339.5732">/transfers/{Id}</text><polygon fill="#181818" points="453.5,1370.7813,443.5,1374.7813,453.5,1378.7813,449.5,1374.7813" style="stroke:#181818;stroke-width:1.0;"/><line style="stroke:#181818;stroke-width:1.0;stroke-dasharray:2.0,2.0;" x1="447.5" x2="725.5" y1="1374.7813" y2="1374.7813"/><text fill="#000000" font-family="sans-serif" font-size="13" font-weight="bold" lengthAdjust="spacing" textLength="22" x="459.5" y="1369.9248">[29]</text><text fill="#000000" font-family="sans-serif" font-size="13" lengthAdjust="spacing" textLength="53" x="485.5" y="1369.9248">response</text><polygon fill="#181818" points="294.5,1401.1328,284.5,1405.1328,294.5,1409.1328,290.5,1405.1328" style="stroke:#181818;stroke-width:1.0;"/><line style="stroke:#181818;stroke-width:1.0;stroke-dasharray:2.0,2.0;" x1="288.5" x2="436.5" y1="1405.1328" y2="1405.1328"/><text fill="#000000" font-family="sans-serif" font-size="13" font-weight="bold" lengthAdjust="spacing" textLength="22" x="300.5" y="1400.2764">[30]</text><text fill="#000000" font-family="sans-serif" font-size="13" lengthAdjust="spacing" textLength="53" x="326.5" y="1400.2764">response</text><path d="M48,1420.1328 L109,1420.1328 L109,1428.4844 L99,1438.4844 L48,1438.4844 L48,1420.1328 " fill="#EEEEEE" style="stroke:#000000;stroke-width:1.5;"/><rect fill="none" height="120.8906" style="stroke:#000000;stroke-width:1.5;" width="377" x="48" y="1420.1328"/><text fill="#000000" font-family="sans-serif" font-size="13" font-weight="bold" lengthAdjust="spacing" textLength="16" x="63" y="1434.6279">alt</text><text fill="#000000" font-family="sans-serif" font-size="11" font-weight="bold" lengthAdjust="spacing" textLength="193" x="124" y="1433.5518">[if (transferStatus== 'COMMITTED')]</text><line style="stroke:#181818;stroke-width:1.0;" x1="283.5" x2="325.5" y1="1460.8359" y2="1460.8359"/><line style="stroke:#181818;stroke-width:1.0;" x1="325.5" x2="325.5" y1="1460.8359" y2="1473.8359"/><line style="stroke:#181818;stroke-width:1.0;" x1="284.5" x2="325.5" y1="1473.8359" y2="1473.8359"/><polygon fill="#181818" points="294.5,1469.8359,284.5,1473.8359,294.5,1477.8359,290.5,1473.8359" style="stroke:#181818;stroke-width:1.0;"/><text fill="#000000" font-family="sans-serif" font-size="13" font-weight="bold" lengthAdjust="spacing" textLength="22" x="290.5" y="1455.9795">[31]</text><text fill="#000000" font-family="sans-serif" font-size="13" lengthAdjust="spacing" textLength="92" x="316.5" y="1455.9795">Finalise transfer</text><path d="M63,1446.9844 L63,1472.9844 L278,1472.9844 L278,1456.9844 L268,1446.9844 L63,1446.9844 " fill="#FEFFDD" style="stroke:#181818;stroke-width:0.5;"/><path d="M268,1446.9844 L268,1456.9844 L278,1456.9844 L268,1446.9844 " fill="#FEFFDD" style="stroke:#181818;stroke-width:0.5;"/><text fill="#000000" font-family="sans-serif" font-size="13" lengthAdjust="spacing" textLength="194" x="69" y="1465.4795">Finalise transfer in Payer account</text><line style="stroke:#000000;stroke-width:1.0;stroke-dasharray:2.0,2.0;" x1="48" x2="425" y1="1482.8359" y2="1482.8359"/><text fill="#000000" font-family="sans-serif" font-size="11" font-weight="bold" lengthAdjust="spacing" textLength="32" x="53" y="1494.2549">[else]</text><line style="stroke:#181818;stroke-width:1.0;" x1="283.5" x2="325.5" y1="1520.0234" y2="1520.0234"/><line style="stroke:#181818;stroke-width:1.0;" x1="325.5" x2="325.5" y1="1520.0234" y2="1533.0234"/><line style="stroke:#181818;stroke-width:1.0;" x1="284.5" x2="325.5" y1="1533.0234" y2="1533.0234"/><polygon fill="#181818" points="294.5,1529.0234,284.5,1533.0234,294.5,1537.0234,290.5,1533.0234" style="stroke:#181818;stroke-width:1.0;"/><text fill="#000000" font-family="sans-serif" font-size="13" font-weight="bold" lengthAdjust="spacing" textLength="22" x="290.5" y="1515.167">[32]</text><text fill="#000000" font-family="sans-serif" font-size="13" lengthAdjust="spacing" textLength="97" x="316.5" y="1515.167">Rollback transfer</text><path d="M58,1506.1719 L58,1532.1719 L278,1532.1719 L278,1516.1719 L268,1506.1719 L58,1506.1719 " fill="#FEFFDD" style="stroke:#181818;stroke-width:0.5;"/><path d="M268,1506.1719 L268,1516.1719 L278,1516.1719 L268,1506.1719 " fill="#FEFFDD" style="stroke:#181818;stroke-width:0.5;"/><text fill="#000000" font-family="sans-serif" font-size="13" lengthAdjust="spacing" textLength="199" x="64" y="1524.667">Rollback transfer in Payer account</text><!--SRC=[ZLRRRjj647tdLmoK1oU4RJK5-cBKBcJA2eH6iMBAHOgw25RKK69DxJ9xSKmO_lVEyAwRRHcWoTsPsJddpEnk_yZddtUoyVEAGV-extdcFf6Pq68DzBH9b6H2MdW23s2af0rKgZJyN2KMlMSQwnhr0gKHBeMa44i8LUfiecGFX87WCeHtGw7lFsb4wStL8_G0O2for30SXTCxIUzhf2WJ8PUeU_3kSx9SsT0YffUfmxrh1KfAZApIvI81b8liiv-e_qIgLBRbCmbAbpzNuZxnK2w0SlFsUXRsuS_4HglIvmONdYUSLTAjvuJZ8_trVfzV_FFBlptFymZpoGKzpk063Ue7XDZ9XV6aiWWfnfPIt9Y1H5QC3A98EMcBVDYyYXMSWUzFhyEPxqFVqEH4ISnX8-8uPWyGgKQnoC6uB5FQ8k7AMOLZ5jAk4WE3wHYiWZd20kD4bXPXRYokOImjBhKWaax97E0499A108qnQfGHigjTqJyjfA4ngEm4PHmfCY3cOgsuYWXG2qH4DdaGb6uGTBGAWfEBoGQwEgw1E_b-S3kx_Zu8WglfxFjqS3Fx6yvfOOV7TnAwSrzlhsTN8Kt68ZNueSFBM4QfMs15xmqkNSheSWBqmoKQkV8A_Xd6nrFuwjWL7orAGpLS3Fzw2hCQRMUcWJOX46LvC91FLmMEefBGz9zcUORF_QVna1wXcuyNprvft3eDqQ9UanH5cbZq1JZ3pQIqY5BSyVYirBtBAlEnZ9LU2-wvalgTADjPDV4gxczVJLatb5Bd42bKg9XPMadRd3w_S9K4JdE9vDnf3wGWvSCawOQa3akrtF7Z3sRSx22S2cE001NJN7IZRosQWzwRWEffWa8GA8EwbQZxCYKDdf7LK46k78WIKD4Xr03u1zKVZ2q9db6P52No6v16ZfVZikL8mGgZU_8HjkY9gC5TXA08t1MihG51krQvXfYJeDtEzVs_H9eio8FouOAZFDl-4clU4Sh-gWYkRRRMguU9gQOu0RezThlLOa-zCgLICDwpsOmxpFUVj-gwvlojUkqfmWCXDfBRgvYkz68iUvalELPnyK72jUoboL82BRHY9MdxBzgaknTliVywzsmH8vL4-PerECjlVM2FeHwjEEdixgzBKsn890kBSaYI-B7rsn6cFcdQ8xSwZWufsA0_s7JDQlibx1YKEXv8-mr9ZwRVm0gzHDiAy9QyNoY-tUJhG85QhnFR8UguM9_LxyJR96-_UY-NBzyCcg45Tav6JwGMaXZUrv52gbTdpi_XABYUJCQpsTNmw4FdWZ5A91MlQO_ZZOrbTxgzQOZjcmRIoGdywDvVL9hE1JVQtl0xqo-5fnVlVm00]--></g></svg>