<?xml version="1.0" encoding="us-ascii" standalone="no"?><svg xmlns="http://www.w3.org/2000/svg" xmlns:xlink="http://www.w3.org/1999/xlink" contentStyleType="text/css" height="2199px" preserveAspectRatio="none" style="width:1066px;height:2199px;background:#FFFFFF;" version="1.1" viewBox="0 0 1066 2199" width="1066px" zoomAndPan="magnify"><defs/><g><rect fill="#B0C4DE" height="2187.8281" style="stroke:#181818;stroke-width:0.5;" width="425" x="301" y="6"/><text fill="#000000" font-family="sans-serif" font-size="13" font-weight="bold" lengthAdjust="spacing" textLength="76" x="471.5" y="19.4951">Payer DFSP</text><text fill="#000000" font-family="sans-serif" font-size="13" font-weight="bold" lengthAdjust="spacing" textLength="108" x="459.5" y="35.8467">Payment Manger</text><rect fill="#00008B" height="1113.1172" style="stroke:#181818;stroke-width:1.0;" width="10" x="357.5" y="237.4219"/><rect fill="#00008B" height="407.9219" style="stroke:#181818;stroke-width:1.0;" width="10" x="357.5" y="1578.7031"/><rect fill="none" height="139.5938" style="stroke:#000000;stroke-width:1.5;" width="279" x="9" y="2001.625"/><line style="stroke:#181818;stroke-width:0.5;stroke-dasharray:5.0,5.0;" x1="146" x2="146" y1="75.3125" y2="2158.2188"/><line style="stroke:#181818;stroke-width:0.5;stroke-dasharray:5.0,5.0;" x1="362" x2="362" y1="75.3125" y2="2158.2188"/><line style="stroke:#181818;stroke-width:0.5;stroke-dasharray:5.0,5.0;" x1="651" x2="651" y1="75.3125" y2="2158.2188"/><line style="stroke:#181818;stroke-width:0.5;stroke-dasharray:5.0,5.0;" x1="876" x2="876" y1="75.3125" y2="2158.2188"/><rect fill="#006400" height="31.6094" rx="2.5" ry="2.5" style="stroke:#181818;stroke-width:0.5;" width="155" x="69" y="42.7031"/><text fill="#FFFFFF" font-family="sans-serif" font-size="14" lengthAdjust="spacing" textLength="141" x="76" y="64.2363">Core Banking Solution</text><rect fill="#006400" height="31.6094" rx="2.5" ry="2.5" style="stroke:#181818;stroke-width:0.5;" width="155" x="69" y="2157.2188"/><text fill="#FFFFFF" font-family="sans-serif" font-size="14" lengthAdjust="spacing" textLength="141" x="76" y="2178.752">Core Banking Solution</text><rect fill="#00008B" height="31.6094" rx="2.5" ry="2.5" style="stroke:#181818;stroke-width:0.5;" width="115" x="305" y="42.7031"/><text fill="#FFFFFF" font-family="sans-serif" font-size="14" lengthAdjust="spacing" textLength="101" x="312" y="64.2363">Core Connector</text><rect fill="#00008B" height="31.6094" rx="2.5" ry="2.5" style="stroke:#181818;stroke-width:0.5;" width="115" x="305" y="2157.2188"/><text fill="#FFFFFF" font-family="sans-serif" font-size="14" lengthAdjust="spacing" textLength="101" x="312" y="2178.752">Core Connector</text><rect fill="#BDB76B" height="31.6094" rx="2.5" ry="2.5" style="stroke:#181818;stroke-width:0.5;" width="141" x="581" y="42.7031"/><text fill="#FFFFFF" font-family="sans-serif" font-size="14" lengthAdjust="spacing" textLength="127" x="588" y="64.2363">Mojaloop Connector</text><rect fill="#BDB76B" height="31.6094" rx="2.5" ry="2.5" style="stroke:#181818;stroke-width:0.5;" width="141" x="581" y="2157.2188"/><text fill="#FFFFFF" font-family="sans-serif" font-size="14" lengthAdjust="spacing" textLength="127" x="588" y="2178.752">Mojaloop Connector</text><rect fill="#8B0000" height="31.6094" rx="2.5" ry="2.5" style="stroke:#181818;stroke-width:0.5;" width="71" x="841" y="42.7031"/><text fill="#FFFFFF" font-family="sans-serif" font-size="14" lengthAdjust="spacing" textLength="57" x="848" y="64.2363">Mojaloop</text><rect fill="#8B0000" height="31.6094" rx="2.5" ry="2.5" style="stroke:#181818;stroke-width:0.5;" width="71" x="841" y="2157.2188"/><text fill="#FFFFFF" font-family="sans-serif" font-size="14" lengthAdjust="spacing" textLength="57" x="848" y="2178.752">Mojaloop</text><rect fill="#00008B" height="1113.1172" style="stroke:#181818;stroke-width:1.0;" width="10" x="357.5" y="237.4219"/><rect fill="#00008B" height="407.9219" style="stroke:#181818;stroke-width:1.0;" width="10" x="357.5" y="1578.7031"/><rect fill="#EEEEEE" height="3" style="stroke:#EEEEEE;stroke-width:1.0;" width="1059.5" x="0" y="106.4883"/><line style="stroke:#000000;stroke-width:1.0;" x1="0" x2="1059.5" y1="106.4883" y2="106.4883"/><line style="stroke:#000000;stroke-width:1.0;" x1="0" x2="1059.5" y1="109.4883" y2="109.4883"/><rect fill="#EEEEEE" height="24.3516" style="stroke:#000000;stroke-width:2.0;" width="433" x="313.25" y="95.3125"/><text fill="#000000" font-family="sans-serif" font-size="13" font-weight="bold" lengthAdjust="spacing" textLength="415" x="319.25" y="112.8076">Payer DFSP integration - 2 phase commit - with user confirmation</text><path d="M83,134.6641 L83,209.6641 L357,209.6641 L357,144.6641 L347,134.6641 L83,134.6641 " fill="#FEFFDD" style="stroke:#181818;stroke-width:0.5;"/><path d="M347,134.6641 L347,144.6641 L357,144.6641 L347,134.6641 " fill="#FEFFDD" style="stroke:#181818;stroke-width:0.5;"/><text fill="#000000" font-family="sans-serif" font-size="13" lengthAdjust="spacing" textLength="188" x="89" y="153.1592">If not already supported by CBS,</text><text fill="#000000" font-family="sans-serif" font-size="13" lengthAdjust="spacing" textLength="253" x="89" y="169.5107">this API to be defined by System Integrator.</text><text fill="#000000" font-family="sans-serif" font-size="13" lengthAdjust="spacing" textLength="209" x="97" y="185.8623">- include Scheme data requirements</text><text fill="#000000" font-family="sans-serif" font-size="13" lengthAdjust="spacing" textLength="171" x="97" y="202.2139">- align with Comesa use case</text><polygon fill="#181818" points="345.5,233.4219,355.5,237.4219,345.5,241.4219,349.5,237.4219" style="stroke:#181818;stroke-width:1.0;"/><line style="stroke:#181818;stroke-width:1.0;" x1="146.5" x2="351.5" y1="237.4219" y2="237.4219"/><text fill="#000000" font-family="sans-serif" font-size="13" font-weight="bold" lengthAdjust="spacing" textLength="15" x="153.5" y="232.5654">[1]</text><text fill="#000000" font-family="sans-serif" font-size="13" font-weight="bold" lengthAdjust="spacing" textLength="36" x="172.5" y="232.5654">POST</text><text fill="#000000" font-family="sans-serif" font-size="13" lengthAdjust="spacing" textLength="71" x="212.5" y="232.5654">/sendMoney</text><polygon fill="#181818" points="639.5,299.4766,649.5,303.4766,639.5,307.4766,643.5,303.4766" style="stroke:#181818;stroke-width:1.0;"/><line style="stroke:#181818;stroke-width:1.0;" x1="367.5" x2="645.5" y1="303.4766" y2="303.4766"/><text fill="#000000" font-family="sans-serif" font-size="13" font-weight="bold" lengthAdjust="spacing" textLength="15" x="374.5" y="282.2686">[2]</text><text fill="#000000" font-family="sans-serif" font-size="13" font-weight="bold" lengthAdjust="spacing" textLength="36" x="393.5" y="265.917">POST</text><text fill="#000000" font-family="sans-serif" font-size="13" lengthAdjust="spacing" textLength="54" x="433.5" y="265.917">/transfers</text><text fill="#000000" font-family="sans-serif" font-size="13" lengthAdjust="spacing" textLength="160" x="393.5" y="282.2686">(AUTO_ACCEPT_PARTY =</text><text fill="#000000" font-family="sans-serif" font-size="13" font-weight="bold" lengthAdjust="spacing" textLength="25" x="557.5" y="282.2686">true</text><text fill="#000000" font-family="sans-serif" font-size="13" lengthAdjust="spacing" textLength="4" x="582.5" y="282.2686">,</text><text fill="#000000" font-family="sans-serif" font-size="13" lengthAdjust="spacing" textLength="167" x="393.5" y="298.6201">AUTO_ACCEPT_QUOTES =</text><text fill="#000000" font-family="sans-serif" font-size="13" font-weight="bold" lengthAdjust="spacing" textLength="30" x="564.5" y="298.6201">false</text><text fill="#000000" font-family="sans-serif" font-size="13" lengthAdjust="spacing" textLength="4" x="594.5" y="298.6201">)</text><path d="M89,250.4219 L89,309.4219 L352,309.4219 L352,260.4219 L342,250.4219 L89,250.4219 " fill="#FEFFDD" style="stroke:#181818;stroke-width:0.5;"/><path d="M342,250.4219 L342,260.4219 L352,260.4219 L342,250.4219 " fill="#FEFFDD" style="stroke:#181818;stroke-width:0.5;"/><text fill="#000000" font-family="sans-serif" font-size="13" lengthAdjust="spacing" textLength="238" x="95" y="268.917">Include Payer Regulatory requirements in</text><text fill="#000000" font-family="sans-serif" font-size="13" lengthAdjust="spacing" textLength="110" x="107" y="285.2686">1. Quote extension</text><text fill="#000000" font-family="sans-serif" font-size="13" lengthAdjust="spacing" textLength="121" x="107" y="301.6201">2. Transfer extension</text><line style="stroke:#181818;stroke-width:1.0;" x1="874.5" x2="864.5" y1="336.8281" y2="332.8281"/><line style="stroke:#181818;stroke-width:1.0;" x1="874.5" x2="864.5" y1="336.8281" y2="340.8281"/><line style="stroke:#181818;stroke-width:1.0;" x1="651.5" x2="875.5" y1="336.8281" y2="336.8281"/><text fill="#000000" font-family="sans-serif" font-size="13" font-weight="bold" lengthAdjust="spacing" textLength="15" x="658.5" y="331.9717">[3]</text><text fill="#000000" font-family="sans-serif" font-size="13" font-weight="bold" lengthAdjust="spacing" textLength="26" x="677.5" y="331.9717">GET</text><text fill="#000000" font-family="sans-serif" font-size="13" lengthAdjust="spacing" textLength="152" x="707.5" y="331.9717">/parties/{Type}/{ID}/{SubId}</text><line style="stroke:#181818;stroke-width:1.0;" x1="652.5" x2="662.5" y1="367.1797" y2="363.1797"/><line style="stroke:#181818;stroke-width:1.0;" x1="652.5" x2="662.5" y1="367.1797" y2="371.1797"/><line style="stroke:#181818;stroke-width:1.0;stroke-dasharray:2.0,2.0;" x1="651.5" x2="875.5" y1="367.1797" y2="367.1797"/><text fill="#000000" font-family="sans-serif" font-size="13" font-weight="bold" lengthAdjust="spacing" textLength="15" x="668.5" y="362.3232">[4]</text><text fill="#000000" font-family="sans-serif" font-size="13" lengthAdjust="spacing" textLength="114" x="687.5" y="362.3232">HTTP 202 response</text><line style="stroke:#181818;stroke-width:1.0;" x1="876.5" x2="918.5" y1="413.8828" y2="413.8828"/><line style="stroke:#181818;stroke-width:1.0;" x1="918.5" x2="918.5" y1="413.8828" y2="426.8828"/><line style="stroke:#181818;stroke-width:1.0;" x1="877.5" x2="918.5" y1="426.8828" y2="426.8828"/><polygon fill="#181818" points="887.5,422.8828,877.5,426.8828,887.5,430.8828,883.5,426.8828" style="stroke:#181818;stroke-width:1.0;"/><text fill="#000000" font-family="sans-serif" font-size="13" font-weight="bold" lengthAdjust="spacing" textLength="15" x="883.5" y="400.8506">[5]</text><text fill="#000000" font-family="sans-serif" font-size="13" lengthAdjust="spacing" textLength="139" x="902.5" y="392.6748">Determine Payee DFSP</text><text fill="#000000" font-family="sans-serif" font-size="13" lengthAdjust="spacing" textLength="70" x="902.5" y="409.0264">using oracle</text><line style="stroke:#181818;stroke-width:1.0;" x1="876.5" x2="918.5" y1="489.9375" y2="489.9375"/><line style="stroke:#181818;stroke-width:1.0;" x1="918.5" x2="918.5" y1="489.9375" y2="502.9375"/><line style="stroke:#181818;stroke-width:1.0;" x1="877.5" x2="918.5" y1="502.9375" y2="502.9375"/><polygon fill="#181818" points="887.5,498.9375,877.5,502.9375,887.5,506.9375,883.5,502.9375" style="stroke:#181818;stroke-width:1.0;"/><text fill="#000000" font-family="sans-serif" font-size="13" font-weight="bold" lengthAdjust="spacing" textLength="15" x="883.5" y="468.7295">[6]</text><text fill="#000000" font-family="sans-serif" font-size="13" lengthAdjust="spacing" textLength="150" x="902.5" y="452.3779">Lookup Payee Information</text><text fill="#000000" font-family="sans-serif" font-size="13" lengthAdjust="spacing" textLength="140" x="906.5" y="468.7295">from Payee DFSP using</text><text fill="#000000" font-family="sans-serif" font-size="13" font-weight="bold" lengthAdjust="spacing" textLength="26" x="902.5" y="485.0811">GET</text><text fill="#000000" font-family="sans-serif" font-size="13" lengthAdjust="spacing" textLength="43" x="932.5" y="485.0811">/parties</text><line style="stroke:#181818;stroke-width:1.0;" x1="652.5" x2="662.5" y1="533.2891" y2="529.2891"/><line style="stroke:#181818;stroke-width:1.0;" x1="652.5" x2="662.5" y1="533.2891" y2="537.2891"/><line style="stroke:#181818;stroke-width:1.0;" x1="651.5" x2="875.5" y1="533.2891" y2="533.2891"/><text fill="#000000" font-family="sans-serif" font-size="13" font-weight="bold" lengthAdjust="spacing" textLength="15" x="668.5" y="528.4326">[7]</text><text fill="#000000" font-family="sans-serif" font-size="13" font-weight="bold" lengthAdjust="spacing" textLength="26" x="687.5" y="528.4326">PUT</text><text fill="#000000" font-family="sans-serif" font-size="13" lengthAdjust="spacing" textLength="152" x="717.5" y="528.4326">/parties/{Type}/{ID}/{SubId}</text><line style="stroke:#181818;stroke-width:1.0;" x1="874.5" x2="864.5" y1="563.6406" y2="559.6406"/><line style="stroke:#181818;stroke-width:1.0;" x1="874.5" x2="864.5" y1="563.6406" y2="567.6406"/><line style="stroke:#181818;stroke-width:1.0;stroke-dasharray:2.0,2.0;" x1="651.5" x2="875.5" y1="563.6406" y2="563.6406"/><text fill="#000000" font-family="sans-serif" font-size="13" font-weight="bold" lengthAdjust="spacing" textLength="15" x="658.5" y="558.7842">[8]</text><text fill="#000000" font-family="sans-serif" font-size="13" lengthAdjust="spacing" textLength="119" x="677.5" y="558.7842">HTTP 200 Response</text><rect fill="#FEFFDD" height="40" style="stroke:#181818;stroke-width:0.5;" width="161" x="485" y="576.6406"/><text fill="#000000" font-family="sans-serif" font-size="13" lengthAdjust="spacing" textLength="76" x="489" y="594.1357">Accept Party</text><text fill="#000000" font-family="sans-serif" font-size="13" lengthAdjust="spacing" textLength="153" x="489" y="610.4873">Need Currency Conversion</text><line style="stroke:#181818;stroke-width:1.0;" x1="874.5" x2="864.5" y1="644.6953" y2="640.6953"/><line style="stroke:#181818;stroke-width:1.0;" x1="874.5" x2="864.5" y1="644.6953" y2="648.6953"/><line style="stroke:#181818;stroke-width:1.0;" x1="651.5" x2="875.5" y1="644.6953" y2="644.6953"/><text fill="#000000" font-family="sans-serif" font-size="13" font-weight="bold" lengthAdjust="spacing" textLength="15" x="658.5" y="639.8389">[9]</text><text fill="#000000" font-family="sans-serif" font-size="13" font-weight="bold" lengthAdjust="spacing" textLength="36" x="677.5" y="639.8389">POST</text><text fill="#000000" font-family="sans-serif" font-size="13" lengthAdjust="spacing" textLength="53" x="717.5" y="639.8389">/fxquotes</text><line style="stroke:#181818;stroke-width:1.0;" x1="652.5" x2="662.5" y1="675.0469" y2="671.0469"/><line style="stroke:#181818;stroke-width:1.0;" x1="652.5" x2="662.5" y1="675.0469" y2="679.0469"/><line style="stroke:#181818;stroke-width:1.0;stroke-dasharray:2.0,2.0;" x1="651.5" x2="875.5" y1="675.0469" y2="675.0469"/><text fill="#000000" font-family="sans-serif" font-size="13" font-weight="bold" lengthAdjust="spacing" textLength="22" x="668.5" y="670.1904">[10]</text><text fill="#000000" font-family="sans-serif" font-size="13" lengthAdjust="spacing" textLength="114" x="694.5" y="670.1904">HTTP 202 response</text><line style="stroke:#181818;stroke-width:1.0;" x1="876.5" x2="918.5" y1="738.1016" y2="738.1016"/><line style="stroke:#181818;stroke-width:1.0;" x1="918.5" x2="918.5" y1="738.1016" y2="751.1016"/><line style="stroke:#181818;stroke-width:1.0;" x1="877.5" x2="918.5" y1="751.1016" y2="751.1016"/><polygon fill="#181818" points="887.5,747.1016,877.5,751.1016,887.5,755.1016,883.5,751.1016" style="stroke:#181818;stroke-width:1.0;"/><text fill="#000000" font-family="sans-serif" font-size="13" font-weight="bold" lengthAdjust="spacing" textLength="22" x="883.5" y="716.8936">[11]</text><text fill="#000000" font-family="sans-serif" font-size="13" lengthAdjust="spacing" textLength="99" x="909.5" y="700.542">Pass on quote to</text><text fill="#000000" font-family="sans-serif" font-size="13" lengthAdjust="spacing" textLength="59" x="909.5" y="716.8936">FXP using</text><text fill="#000000" font-family="sans-serif" font-size="13" font-weight="bold" lengthAdjust="spacing" textLength="36" x="909.5" y="733.2451">POST</text><text fill="#000000" font-family="sans-serif" font-size="13" lengthAdjust="spacing" textLength="53" x="949.5" y="733.2451">/fxquotes</text><line style="stroke:#181818;stroke-width:1.0;" x1="652.5" x2="662.5" y1="781.4531" y2="777.4531"/><line style="stroke:#181818;stroke-width:1.0;" x1="652.5" x2="662.5" y1="781.4531" y2="785.4531"/><line style="stroke:#181818;stroke-width:1.0;" x1="651.5" x2="875.5" y1="781.4531" y2="781.4531"/><text fill="#000000" font-family="sans-serif" font-size="13" font-weight="bold" lengthAdjust="spacing" textLength="22" x="668.5" y="776.5967">[12]</text><text fill="#000000" font-family="sans-serif" font-size="13" font-weight="bold" lengthAdjust="spacing" textLength="26" x="694.5" y="776.5967">PUT</text><text fill="#000000" font-family="sans-serif" font-size="13" lengthAdjust="spacing" textLength="75" x="724.5" y="776.5967">/fxquotes/{Id}</text><line style="stroke:#181818;stroke-width:1.0;" x1="874.5" x2="864.5" y1="811.8047" y2="807.8047"/><line style="stroke:#181818;stroke-width:1.0;" x1="874.5" x2="864.5" y1="811.8047" y2="815.8047"/><line style="stroke:#181818;stroke-width:1.0;stroke-dasharray:2.0,2.0;" x1="651.5" x2="875.5" y1="811.8047" y2="811.8047"/><text fill="#000000" font-family="sans-serif" font-size="13" font-weight="bold" lengthAdjust="spacing" textLength="22" x="658.5" y="806.9482">[13]</text><text fill="#000000" font-family="sans-serif" font-size="13" lengthAdjust="spacing" textLength="119" x="684.5" y="806.9482">HTTP 200 Response</text><polygon fill="#181818" points="378.5,870.8594,368.5,874.8594,378.5,878.8594,374.5,874.8594" style="stroke:#181818;stroke-width:1.0;"/><line style="stroke:#181818;stroke-width:1.0;stroke-dasharray:2.0,2.0;" x1="372.5" x2="650.5" y1="874.8594" y2="874.8594"/><text fill="#000000" font-family="sans-serif" font-size="13" font-weight="bold" lengthAdjust="spacing" textLength="22" x="384.5" y="853.6514">[14]</text><text fill="#000000" font-family="sans-serif" font-size="13" lengthAdjust="spacing" textLength="58" x="410.5" y="837.2998">Response</text><text fill="#000000" font-family="sans-serif" font-size="13" lengthAdjust="spacing" textLength="142" x="410.5" y="853.6514">Do you accept this rate?</text><text fill="#000000" font-family="sans-serif" font-size="13" lengthAdjust="spacing" textLength="128" x="414.5" y="870.0029">It expires in 5 minutes</text><line style="stroke:#181818;stroke-width:1.0;" x1="367.5" x2="409.5" y1="934.4141" y2="934.4141"/><line style="stroke:#181818;stroke-width:1.0;" x1="409.5" x2="409.5" y1="934.4141" y2="947.4141"/><line style="stroke:#181818;stroke-width:1.0;" x1="368.5" x2="409.5" y1="947.4141" y2="947.4141"/><polygon fill="#181818" points="378.5,943.4141,368.5,947.4141,378.5,951.4141,374.5,947.4141" style="stroke:#181818;stroke-width:1.0;"/><text fill="#000000" font-family="sans-serif" font-size="13" font-weight="bold" lengthAdjust="spacing" textLength="22" x="374.5" y="921.3818">[15]</text><text fill="#000000" font-family="sans-serif" font-size="13" lengthAdjust="spacing" textLength="176" x="400.5" y="913.2061">Check that the conversion rate</text><text fill="#000000" font-family="sans-serif" font-size="13" lengthAdjust="spacing" textLength="147" x="400.5" y="929.5576">and terms are acceptable</text><path d="M138,887.8594 L138,962.8594 L352,962.8594 L352,897.8594 L342,887.8594 L138,887.8594 " fill="#FEFFDD" style="stroke:#181818;stroke-width:0.5;"/><path d="M342,887.8594 L342,897.8594 L352,897.8594 L342,887.8594 " fill="#FEFFDD" style="stroke:#181818;stroke-width:0.5;"/><text fill="#000000" font-family="sans-serif" font-size="13" font-weight="bold" lengthAdjust="spacing" textLength="57" x="144" y="906.3545">Validate:</text><text fill="#000000" font-family="sans-serif" font-size="13" lengthAdjust="spacing" textLength="189" x="148" y="922.7061">--&gt; transfer amount and currency</text><text fill="#000000" font-family="sans-serif" font-size="13" lengthAdjust="spacing" textLength="107" x="148" y="939.0576">--&gt; conversion rate</text><text fill="#000000" font-family="sans-serif" font-size="13" lengthAdjust="spacing" textLength="44" x="148" y="955.4092">--&gt; FXP</text><polygon fill="#181818" points="639.5,986.6172,649.5,990.6172,639.5,994.6172,643.5,990.6172" style="stroke:#181818;stroke-width:1.0;"/><line style="stroke:#181818;stroke-width:1.0;" x1="367.5" x2="645.5" y1="990.6172" y2="990.6172"/><text fill="#000000" font-family="sans-serif" font-size="13" font-weight="bold" lengthAdjust="spacing" textLength="22" x="374.5" y="985.7607">[16]</text><text fill="#000000" font-family="sans-serif" font-size="13" font-weight="bold" lengthAdjust="spacing" textLength="26" x="400.5" y="985.7607">PUT</text><text fill="#000000" font-family="sans-serif" font-size="13" lengthAdjust="spacing" textLength="171" x="430.5" y="985.7607">/transfers {"acceptConverion":</text><text fill="#000000" font-family="sans-serif" font-size="13" font-weight="bold" lengthAdjust="spacing" textLength="25" x="605.5" y="985.7607">true</text><text fill="#000000" font-family="sans-serif" font-size="13" lengthAdjust="spacing" textLength="4" x="630.5" y="985.7607">}</text><line style="stroke:#181818;stroke-width:1.0;" x1="874.5" x2="864.5" y1="1020.9688" y2="1016.9688"/><line style="stroke:#181818;stroke-width:1.0;" x1="874.5" x2="864.5" y1="1020.9688" y2="1024.9688"/><line style="stroke:#181818;stroke-width:1.0;" x1="651.5" x2="875.5" y1="1020.9688" y2="1020.9688"/><text fill="#000000" font-family="sans-serif" font-size="13" font-weight="bold" lengthAdjust="spacing" textLength="22" x="658.5" y="1016.1123">[17]</text><text fill="#000000" font-family="sans-serif" font-size="13" font-weight="bold" lengthAdjust="spacing" textLength="36" x="684.5" y="1016.1123">POST</text><text fill="#000000" font-family="sans-serif" font-size="13" lengthAdjust="spacing" textLength="43" x="724.5" y="1016.1123">/quotes</text><line style="stroke:#181818;stroke-width:1.0;" x1="652.5" x2="662.5" y1="1051.3203" y2="1047.3203"/><line style="stroke:#181818;stroke-width:1.0;" x1="652.5" x2="662.5" y1="1051.3203" y2="1055.3203"/><line style="stroke:#181818;stroke-width:1.0;stroke-dasharray:2.0,2.0;" x1="651.5" x2="875.5" y1="1051.3203" y2="1051.3203"/><text fill="#000000" font-family="sans-serif" font-size="13" font-weight="bold" lengthAdjust="spacing" textLength="22" x="668.5" y="1046.4639">[18]</text><text fill="#000000" font-family="sans-serif" font-size="13" lengthAdjust="spacing" textLength="114" x="694.5" y="1046.4639">HTTP 202 response</text><line style="stroke:#181818;stroke-width:1.0;" x1="876.5" x2="918.5" y1="1114.375" y2="1114.375"/><line style="stroke:#181818;stroke-width:1.0;" x1="918.5" x2="918.5" y1="1114.375" y2="1127.375"/><line style="stroke:#181818;stroke-width:1.0;" x1="877.5" x2="918.5" y1="1127.375" y2="1127.375"/><polygon fill="#181818" points="887.5,1123.375,877.5,1127.375,887.5,1131.375,883.5,1127.375" style="stroke:#181818;stroke-width:1.0;"/><text fill="#000000" font-family="sans-serif" font-size="13" font-weight="bold" lengthAdjust="spacing" textLength="22" x="883.5" y="1093.167">[19]</text><text fill="#000000" font-family="sans-serif" font-size="13" lengthAdjust="spacing" textLength="99" x="909.5" y="1076.8154">Pass on quote to</text><text fill="#000000" font-family="sans-serif" font-size="13" lengthAdjust="spacing" textLength="111" x="909.5" y="1093.167">Payee DFSP using</text><text fill="#000000" font-family="sans-serif" font-size="13" font-weight="bold" lengthAdjust="spacing" textLength="36" x="909.5" y="1109.5186">POST</text><text fill="#000000" font-family="sans-serif" font-size="13" lengthAdjust="spacing" textLength="43" x="949.5" y="1109.5186">/quotes</text><line style="stroke:#181818;stroke-width:1.0;" x1="652.5" x2="662.5" y1="1157.7266" y2="1153.7266"/><line style="stroke:#181818;stroke-width:1.0;" x1="652.5" x2="662.5" y1="1157.7266" y2="1161.7266"/><line style="stroke:#181818;stroke-width:1.0;" x1="651.5" x2="875.5" y1="1157.7266" y2="1157.7266"/><text fill="#000000" font-family="sans-serif" font-size="13" font-weight="bold" lengthAdjust="spacing" textLength="22" x="668.5" y="1152.8701">[20]</text><text fill="#000000" font-family="sans-serif" font-size="13" font-weight="bold" lengthAdjust="spacing" textLength="26" x="694.5" y="1152.8701">PUT</text><text fill="#000000" font-family="sans-serif" font-size="13" lengthAdjust="spacing" textLength="65" x="724.5" y="1152.8701">/quotes/{Id}</text><line style="stroke:#181818;stroke-width:1.0;" x1="874.5" x2="864.5" y1="1188.0781" y2="1184.0781"/><line style="stroke:#181818;stroke-width:1.0;" x1="874.5" x2="864.5" y1="1188.0781" y2="1192.0781"/><line style="stroke:#181818;stroke-width:1.0;stroke-dasharray:2.0,2.0;" x1="651.5" x2="875.5" y1="1188.0781" y2="1188.0781"/><text fill="#000000" font-family="sans-serif" font-size="13" font-weight="bold" lengthAdjust="spacing" textLength="22" x="658.5" y="1183.2217">[21]</text><text fill="#000000" font-family="sans-serif" font-size="13" lengthAdjust="spacing" textLength="119" x="684.5" y="1183.2217">HTTP 200 Response</text><polygon fill="#181818" points="378.5,1214.4297,368.5,1218.4297,378.5,1222.4297,374.5,1218.4297" style="stroke:#181818;stroke-width:1.0;"/><line style="stroke:#181818;stroke-width:1.0;stroke-dasharray:2.0,2.0;" x1="372.5" x2="650.5" y1="1218.4297" y2="1218.4297"/><text fill="#000000" font-family="sans-serif" font-size="13" font-weight="bold" lengthAdjust="spacing" textLength="22" x="384.5" y="1213.5732">[22]</text><text fill="#000000" font-family="sans-serif" font-size="13" lengthAdjust="spacing" textLength="58" x="410.5" y="1213.5732">Response</text><line style="stroke:#181818;stroke-width:1.0;stroke-dasharray:2.0,2.0;" x1="367.5" x2="409.5" y1="1286.1602" y2="1286.1602"/><line style="stroke:#181818;stroke-width:1.0;stroke-dasharray:2.0,2.0;" x1="409.5" x2="409.5" y1="1286.1602" y2="1299.1602"/><line style="stroke:#181818;stroke-width:1.0;stroke-dasharray:2.0,2.0;" x1="368.5" x2="409.5" y1="1299.1602" y2="1299.1602"/><polygon fill="#181818" points="378.5,1295.1602,368.5,1299.1602,378.5,1303.1602,374.5,1299.1602" style="stroke:#181818;stroke-width:1.0;"/><text fill="#000000" font-family="sans-serif" font-size="13" font-weight="bold" lengthAdjust="spacing" textLength="22" x="374.5" y="1273.1279">[23]</text><text fill="#000000" font-family="sans-serif" font-size="13" lengthAdjust="spacing" textLength="158" x="400.5" y="1264.9521">Check that the terms of the</text><text fill="#000000" font-family="sans-serif" font-size="13" lengthAdjust="spacing" textLength="179" x="404.5" y="1281.3037">transfer align with expectations</text><path d="M108,1231.4297 L108,1322.4297 L352,1322.4297 L352,1241.4297 L342,1231.4297 L108,1231.4297 " fill="#FEFFDD" style="stroke:#181818;stroke-width:0.5;"/><path d="M342,1231.4297 L342,1241.4297 L352,1241.4297 L342,1231.4297 " fill="#FEFFDD" style="stroke:#181818;stroke-width:0.5;"/><text fill="#000000" font-family="sans-serif" font-size="13" font-weight="bold" lengthAdjust="spacing" textLength="57" x="114" y="1249.9248">Validate:</text><text fill="#000000" font-family="sans-serif" font-size="13" lengthAdjust="spacing" textLength="189" x="118" y="1266.2764">--&gt; transfer amount and currency</text><text fill="#000000" font-family="sans-serif" font-size="13" lengthAdjust="spacing" textLength="44" x="118" y="1282.6279">--&gt; fees</text><text fill="#000000" font-family="sans-serif" font-size="13" lengthAdjust="spacing" textLength="94" x="118" y="1298.9795">--&gt; payee DFSP</text><text fill="#000000" font-family="sans-serif" font-size="13" lengthAdjust="spacing" textLength="215" x="118" y="1315.3311">--&gt; regulatory requirements for Payee</text><polygon fill="#181818" points="157.5,1346.5391,147.5,1350.5391,157.5,1354.5391,153.5,1350.5391" style="stroke:#181818;stroke-width:1.0;"/><line style="stroke:#181818;stroke-width:1.0;stroke-dasharray:2.0,2.0;" x1="151.5" x2="361.5" y1="1350.5391" y2="1350.5391"/><text fill="#000000" font-family="sans-serif" font-size="13" font-weight="bold" lengthAdjust="spacing" textLength="22" x="163.5" y="1345.6826">[24]</text><text fill="#000000" font-family="sans-serif" font-size="13" lengthAdjust="spacing" textLength="58" x="189.5" y="1345.6826">Response</text><line style="stroke:#181818;stroke-width:1.0;" x1="146.5" x2="188.5" y1="1397.2422" y2="1397.2422"/><line style="stroke:#181818;stroke-width:1.0;" x1="188.5" x2="188.5" y1="1397.2422" y2="1410.2422"/><line style="stroke:#181818;stroke-width:1.0;" x1="147.5" x2="188.5" y1="1410.2422" y2="1410.2422"/><polygon fill="#181818" points="157.5,1406.2422,147.5,1410.2422,157.5,1414.2422,153.5,1410.2422" style="stroke:#181818;stroke-width:1.0;"/><text fill="#000000" font-family="sans-serif" font-size="13" font-weight="bold" lengthAdjust="spacing" textLength="22" x="153.5" y="1384.21">[25]</text><text fill="#000000" font-family="sans-serif" font-size="13" lengthAdjust="spacing" textLength="155" x="179.5" y="1376.0342">Obtain consent from Payer</text><text fill="#000000" font-family="sans-serif" font-size="13" lengthAdjust="spacing" textLength="137" x="183.5" y="1392.3857">on Fees and Payee Info</text><line style="stroke:#181818;stroke-width:1.0;" x1="146.5" x2="188.5" y1="1445.2695" y2="1445.2695"/><line style="stroke:#181818;stroke-width:1.0;" x1="188.5" x2="188.5" y1="1445.2695" y2="1458.2695"/><line style="stroke:#181818;stroke-width:1.0;" x1="147.5" x2="188.5" y1="1458.2695" y2="1458.2695"/><polygon fill="#181818" points="157.5,1454.2695,147.5,1458.2695,157.5,1462.2695,153.5,1458.2695" style="stroke:#181818;stroke-width:1.0;"/><text fill="#000000" font-family="sans-serif" font-size="13" font-weight="bold" lengthAdjust="spacing" textLength="22" x="153.5" y="1440.4131">[26]</text><text fill="#000000" font-family="sans-serif" font-size="13" lengthAdjust="spacing" textLength="81" x="179.5" y="1440.4131">Reserve funds</text><path d="M22,1423.2422 L22,1465.2422 L141,1465.2422 L141,1433.2422 L131,1423.2422 L22,1423.2422 " fill="#FEFFDD" style="stroke:#181818;stroke-width:0.5;"/><path d="M131,1423.2422 L131,1433.2422 L141,1433.2422 L131,1423.2422 " fill="#FEFFDD" style="stroke:#181818;stroke-width:0.5;"/><text fill="#000000" font-family="sans-serif" font-size="13" lengthAdjust="spacing" textLength="81" x="28" y="1441.7373">Reserve funds</text><text fill="#000000" font-family="sans-serif" font-size="13" lengthAdjust="spacing" textLength="98" x="28" y="1458.0889">in Payer account</text><path d="M83,1475.9453 L83,1550.9453 L357,1550.9453 L357,1485.9453 L347,1475.9453 L83,1475.9453 " fill="#FEFFDD" style="stroke:#181818;stroke-width:0.5;"/><path d="M347,1475.9453 L347,1485.9453 L357,1485.9453 L347,1475.9453 " fill="#FEFFDD" style="stroke:#181818;stroke-width:0.5;"/><text fill="#000000" font-family="sans-serif" font-size="13" lengthAdjust="spacing" textLength="188" x="89" y="1494.4404">If not already supported by CBS,</text><text fill="#000000" font-family="sans-serif" font-size="13" lengthAdjust="spacing" textLength="253" x="89" y="1510.792">this API to be defined by System Integrator.</text><text fill="#000000" font-family="sans-serif" font-size="13" lengthAdjust="spacing" textLength="188" x="97" y="1527.1436">- need a reference to the transfer</text><text fill="#000000" font-family="sans-serif" font-size="13" lengthAdjust="spacing" textLength="144" x="97" y="1543.4951">- and consent from payer</text><polygon fill="#181818" points="345.5,1574.7031,355.5,1578.7031,345.5,1582.7031,349.5,1578.7031" style="stroke:#181818;stroke-width:1.0;"/><line style="stroke:#181818;stroke-width:1.0;" x1="146.5" x2="351.5" y1="1578.7031" y2="1578.7031"/><text fill="#000000" font-family="sans-serif" font-size="13" font-weight="bold" lengthAdjust="spacing" textLength="22" x="153.5" y="1573.8467">[27]</text><text fill="#000000" font-family="sans-serif" font-size="13" font-weight="bold" lengthAdjust="spacing" textLength="26" x="179.5" y="1573.8467">PUT</text><text fill="#000000" font-family="sans-serif" font-size="13" lengthAdjust="spacing" textLength="136" x="209.5" y="1573.8467">/sendmoney/{transferId}</text><polygon fill="#181818" points="639.5,1605.0547,649.5,1609.0547,639.5,1613.0547,643.5,1609.0547" style="stroke:#181818;stroke-width:1.0;"/><line style="stroke:#181818;stroke-width:1.0;" x1="367.5" x2="645.5" y1="1609.0547" y2="1609.0547"/><text fill="#000000" font-family="sans-serif" font-size="13" font-weight="bold" lengthAdjust="spacing" textLength="22" x="374.5" y="1604.1982">[28]</text><text fill="#000000" font-family="sans-serif" font-size="13" font-weight="bold" lengthAdjust="spacing" textLength="26" x="400.5" y="1604.1982">PUT</text><text fill="#000000" font-family="sans-serif" font-size="13" lengthAdjust="spacing" textLength="54" x="430.5" y="1604.1982">/transfers</text><polygon fill="#181818" points="864.5,1635.4063,874.5,1639.4063,864.5,1643.4063,868.5,1639.4063" style="stroke:#181818;stroke-width:1.0;"/><line style="stroke:#181818;stroke-width:1.0;" x1="651.5" x2="870.5" y1="1639.4063" y2="1639.4063"/><text fill="#000000" font-family="sans-serif" font-size="13" font-weight="bold" lengthAdjust="spacing" textLength="22" x="658.5" y="1634.5498">[29]</text><text fill="#000000" font-family="sans-serif" font-size="13" font-weight="bold" lengthAdjust="spacing" textLength="36" x="684.5" y="1634.5498">POST</text><text fill="#000000" font-family="sans-serif" font-size="13" lengthAdjust="spacing" textLength="54" x="724.5" y="1634.5498">/transfers</text><polygon fill="#181818" points="662.5,1665.7578,652.5,1669.7578,662.5,1673.7578,658.5,1669.7578" style="stroke:#181818;stroke-width:1.0;"/><line style="stroke:#181818;stroke-width:1.0;stroke-dasharray:2.0,2.0;" x1="656.5" x2="875.5" y1="1669.7578" y2="1669.7578"/><text fill="#000000" font-family="sans-serif" font-size="13" font-weight="bold" lengthAdjust="spacing" textLength="22" x="668.5" y="1664.9014">[30]</text><text fill="#000000" font-family="sans-serif" font-size="13" lengthAdjust="spacing" textLength="114" x="694.5" y="1664.9014">HTTP 202 response</text><line style="stroke:#181818;stroke-width:1.0;" x1="876.5" x2="918.5" y1="1716.4609" y2="1716.4609"/><line style="stroke:#181818;stroke-width:1.0;" x1="918.5" x2="918.5" y1="1716.4609" y2="1729.4609"/><line style="stroke:#181818;stroke-width:1.0;" x1="877.5" x2="918.5" y1="1729.4609" y2="1729.4609"/><polygon fill="#181818" points="887.5,1725.4609,877.5,1729.4609,887.5,1733.4609,883.5,1729.4609" style="stroke:#181818;stroke-width:1.0;"/><text fill="#000000" font-family="sans-serif" font-size="13" font-weight="bold" lengthAdjust="spacing" textLength="22" x="883.5" y="1703.4287">[31]</text><text fill="#000000" font-family="sans-serif" font-size="13" lengthAdjust="spacing" textLength="84" x="909.5" y="1695.2529">Reserve Payer</text><text fill="#000000" font-family="sans-serif" font-size="13" lengthAdjust="spacing" textLength="70" x="909.5" y="1711.6045">DFSP funds</text><line style="stroke:#181818;stroke-width:1.0;" x1="876.5" x2="918.5" y1="1792.5156" y2="1792.5156"/><line style="stroke:#181818;stroke-width:1.0;" x1="918.5" x2="918.5" y1="1792.5156" y2="1805.5156"/><line style="stroke:#181818;stroke-width:1.0;" x1="877.5" x2="918.5" y1="1805.5156" y2="1805.5156"/><polygon fill="#181818" points="887.5,1801.5156,877.5,1805.5156,887.5,1809.5156,883.5,1805.5156" style="stroke:#181818;stroke-width:1.0;"/><text fill="#000000" font-family="sans-serif" font-size="13" font-weight="bold" lengthAdjust="spacing" textLength="22" x="883.5" y="1771.3076">[32]</text><text fill="#000000" font-family="sans-serif" font-size="13" lengthAdjust="spacing" textLength="110" x="909.5" y="1754.9561">Pass on transfer to</text><text fill="#000000" font-family="sans-serif" font-size="13" lengthAdjust="spacing" textLength="111" x="909.5" y="1771.3076">Payee DFSP using</text><text fill="#000000" font-family="sans-serif" font-size="13" font-weight="bold" lengthAdjust="spacing" textLength="36" x="909.5" y="1787.6592">POST</text><text fill="#000000" font-family="sans-serif" font-size="13" lengthAdjust="spacing" textLength="54" x="949.5" y="1787.6592">/transfers</text><line style="stroke:#181818;stroke-width:1.0;" x1="876.5" x2="918.5" y1="1852.2188" y2="1852.2188"/><line style="stroke:#181818;stroke-width:1.0;" x1="918.5" x2="918.5" y1="1852.2188" y2="1865.2188"/><line style="stroke:#181818;stroke-width:1.0;" x1="877.5" x2="918.5" y1="1865.2188" y2="1865.2188"/><polygon fill="#181818" points="887.5,1861.2188,877.5,1865.2188,887.5,1869.2188,883.5,1865.2188" style="stroke:#181818;stroke-width:1.0;"/><text fill="#000000" font-family="sans-serif" font-size="13" font-weight="bold" lengthAdjust="spacing" textLength="22" x="883.5" y="1839.1865">[33]</text><text fill="#000000" font-family="sans-serif" font-size="13" lengthAdjust="spacing" textLength="83" x="909.5" y="1831.0107">Commit Payer</text><text fill="#000000" font-family="sans-serif" font-size="13" lengthAdjust="spacing" textLength="70" x="909.5" y="1847.3623">DFSP funds</text><polygon fill="#181818" points="662.5,1891.5703,652.5,1895.5703,662.5,1899.5703,658.5,1895.5703" style="stroke:#181818;stroke-width:1.0;"/><line style="stroke:#181818;stroke-width:1.0;" x1="656.5" x2="875.5" y1="1895.5703" y2="1895.5703"/><text fill="#000000" font-family="sans-serif" font-size="13" font-weight="bold" lengthAdjust="spacing" textLength="22" x="668.5" y="1890.7139">[34]</text><text fill="#000000" font-family="sans-serif" font-size="13" font-weight="bold" lengthAdjust="spacing" textLength="26" x="694.5" y="1890.7139">PUT</text><text fill="#000000" font-family="sans-serif" font-size="13" lengthAdjust="spacing" textLength="76" x="724.5" y="1890.7139">/transfers/{Id}</text><polygon fill="#181818" points="864.5,1921.9219,874.5,1925.9219,864.5,1929.9219,868.5,1925.9219" style="stroke:#181818;stroke-width:1.0;"/><line style="stroke:#181818;stroke-width:1.0;stroke-dasharray:2.0,2.0;" x1="651.5" x2="870.5" y1="1925.9219" y2="1925.9219"/><text fill="#000000" font-family="sans-serif" font-size="13" font-weight="bold" lengthAdjust="spacing" textLength="22" x="658.5" y="1921.0654">[35]</text><text fill="#000000" font-family="sans-serif" font-size="13" lengthAdjust="spacing" textLength="119" x="684.5" y="1921.0654">HTTP 200 Response</text><polygon fill="#181818" points="378.5,1952.2734,368.5,1956.2734,378.5,1960.2734,374.5,1956.2734" style="stroke:#181818;stroke-width:1.0;"/><line style="stroke:#181818;stroke-width:1.0;stroke-dasharray:2.0,2.0;" x1="372.5" x2="650.5" y1="1956.2734" y2="1956.2734"/><text fill="#000000" font-family="sans-serif" font-size="13" font-weight="bold" lengthAdjust="spacing" textLength="22" x="384.5" y="1951.417">[36]</text><text fill="#000000" font-family="sans-serif" font-size="13" lengthAdjust="spacing" textLength="53" x="410.5" y="1951.417">response</text><polygon fill="#181818" points="157.5,1982.625,147.5,1986.625,157.5,1990.625,153.5,1986.625" style="stroke:#181818;stroke-width:1.0;"/><line style="stroke:#181818;stroke-width:1.0;stroke-dasharray:2.0,2.0;" x1="151.5" x2="361.5" y1="1986.625" y2="1986.625"/><text fill="#000000" font-family="sans-serif" font-size="13" font-weight="bold" lengthAdjust="spacing" textLength="22" x="163.5" y="1981.7686">[37]</text><text fill="#000000" font-family="sans-serif" font-size="13" lengthAdjust="spacing" textLength="53" x="189.5" y="1981.7686">response</text><path d="M9,2001.625 L70,2001.625 L70,2009.9766 L60,2019.9766 L9,2019.9766 L9,2001.625 " fill="#EEEEEE" style="stroke:#000000;stroke-width:1.5;"/><rect fill="none" height="139.5938" style="stroke:#000000;stroke-width:1.5;" width="279" x="9" y="2001.625"/><text fill="#000000" font-family="sans-serif" font-size="13" font-weight="bold" lengthAdjust="spacing" textLength="16" x="24" y="2016.1201">alt</text><text fill="#000000" font-family="sans-serif" font-size="11" font-weight="bold" lengthAdjust="spacing" textLength="193" x="85" y="2015.0439">[if (transferStatus== 'COMMITTED')]</text><line style="stroke:#181818;stroke-width:1.0;" x1="146.5" x2="188.5" y1="2047.0039" y2="2047.0039"/><line style="stroke:#181818;stroke-width:1.0;" x1="188.5" x2="188.5" y1="2047.0039" y2="2060.0039"/><line style="stroke:#181818;stroke-width:1.0;" x1="147.5" x2="188.5" y1="2060.0039" y2="2060.0039"/><polygon fill="#181818" points="157.5,2056.0039,147.5,2060.0039,157.5,2064.0039,153.5,2060.0039" style="stroke:#181818;stroke-width:1.0;"/><text fill="#000000" font-family="sans-serif" font-size="13" font-weight="bold" lengthAdjust="spacing" textLength="22" x="153.5" y="2042.1475">[38]</text><text fill="#000000" font-family="sans-serif" font-size="13" lengthAdjust="spacing" textLength="92" x="179.5" y="2042.1475">Finalise transfer</text><path d="M22,2024.9766 L22,2066.9766 L141,2066.9766 L141,2034.9766 L131,2024.9766 L22,2024.9766 " fill="#FEFFDD" style="stroke:#181818;stroke-width:0.5;"/><path d="M131,2024.9766 L131,2034.9766 L141,2034.9766 L131,2024.9766 " fill="#FEFFDD" style="stroke:#181818;stroke-width:0.5;"/><text fill="#000000" font-family="sans-serif" font-size="13" lengthAdjust="spacing" textLength="92" x="28" y="2043.4717">Finalise transfer</text><text fill="#000000" font-family="sans-serif" font-size="13" lengthAdjust="spacing" textLength="98" x="28" y="2059.8232">in Payer account</text><line style="stroke:#000000;stroke-width:1.0;stroke-dasharray:2.0,2.0;" x1="9" x2="288" y1="2073.6797" y2="2073.6797"/><text fill="#000000" font-family="sans-serif" font-size="11" font-weight="bold" lengthAdjust="spacing" textLength="32" x="14" y="2085.0986">[else]</text><line style="stroke:#181818;stroke-width:1.0;" x1="146.5" x2="188.5" y1="2115.543" y2="2115.543"/><line style="stroke:#181818;stroke-width:1.0;" x1="188.5" x2="188.5" y1="2115.543" y2="2128.543"/><line style="stroke:#181818;stroke-width:1.0;" x1="147.5" x2="188.5" y1="2128.543" y2="2128.543"/><polygon fill="#181818" points="157.5,2124.543,147.5,2128.543,157.5,2132.543,153.5,2128.543" style="stroke:#181818;stroke-width:1.0;"/><text fill="#000000" font-family="sans-serif" font-size="13" font-weight="bold" lengthAdjust="spacing" textLength="22" x="153.5" y="2110.6865">[39]</text><text fill="#000000" font-family="sans-serif" font-size="13" lengthAdjust="spacing" textLength="97" x="179.5" y="2110.6865">Rollback transfer</text><path d="M19,2093.5156 L19,2135.5156 L141,2135.5156 L141,2103.5156 L131,2093.5156 L19,2093.5156 " fill="#FEFFDD" style="stroke:#181818;stroke-width:0.5;"/><path d="M131,2093.5156 L131,2103.5156 L141,2103.5156 L131,2093.5156 " fill="#FEFFDD" style="stroke:#181818;stroke-width:0.5;"/><text fill="#000000" font-family="sans-serif" font-size="13" lengthAdjust="spacing" textLength="97" x="25" y="2112.0107">Rollback transfer</text><text fill="#000000" font-family="sans-serif" font-size="13" lengthAdjust="spacing" textLength="98" x="25" y="2128.3623">in Payer account</text><!--SRC=[lLPVRzis47_NfpYu3scDEau3z2LOCYHoqXch5pTIYWtpKD3ooTOYaIf9fJ62VFVUYP8iEqgJOSDimB35E_Bkz-VeuLwVNzvWw-ML3_jxGyypDudCXHOPqATDeYGNqi8zU00NIbfVfKh3jrLYqNkWP-sWdgyqmfcGjCKI0fKMDb6o1yA0VnR0gv7GDnyqelJcwWvw030LQzGmkWYcCqdVCwHT9a8kKVVWrSTakRA1HKpFqW8xp_ALb1XPfTqXFhX3kk8dwc-HAfNlv4nyb_BhIjma7ie5K6rUPsOP7tnBRBHoELUuy3nHM2MBR4vzlADtxwVvoPy7V_Kyx_YurHuaqk9I2mO41d08-KeOX4XbMMBf0UswWi9GTAHadEZCHHuVUvvK5Y75s59_rDGu1de28jKe5cimHPuhRP7gNZFARvaekqeCd4x7O1NC4HOO9z9516jZCODnLOtI-nGEL40YexHO80JH2ZDA4LQ0ngz5ef5PCLMOI9EbTDNwAaCZk6Y8k1TwbVXnlHvLCZZn_IFezwUNGTZlmz3GuaH9N8Cd8flS2chBzrk4-VxWPBALOhMG9aPjO2PVdrw7brzEVVzy6dwPdbw5Vy0nXLfTOB__bWBQwv-kByFpe0o8HMeeuiq6HszSzUhekS9baJ8Kwws62H664jxjmwU2K_7EeZJC2Zy-t8UmggwzqW0meMPEd5Yuem_dPKEbhj0CxyDrZW_3-_68Fe9YFbuyU2vuG6aCmYzXE8N3WqEgoUHA6gpNcqr7Q55dH6pP1pgPpMHXs7nAYoXzdFDHgPiYhnB6CbQLq6OIOgsozavkdvdShRtPi-Rg-jdE28iM65Ld1mHyrPdUI7p24Z-D8imj5QFjcdx-XgHTlz0QPRHc-zwI8gXe1bjtWLtB9xxxoioPVmpjL1W3H6UPpYQQoOlVsv0yTS8EAFKomV426CfrzapzX8uQALYh0eH3fFGrsHP_fYKOMr9UJdejjVeUI0i5ry8-ucty5KOtb2CuaMTD3Lov1UqWIAoi8GE2PgaxGyn9DXkh03NpcKnFym2FwDhW8J0uWTgO839Lq8padQAAeJfcvxpwCG7Pk8GcHilqrpkUl- -vaXpZV9CSDOP_U8hp_uxnJYzq7xD3-xyYdH7fvCynfUBo1z6_uM0paqaFTBMLbZOj5dSuV9v1ZeYHXEM-vWqKxhT-OcJIFAb6IEicADiv2reTBh1r0LHN1GTSpgqW9KSSH2Kr4qbJjyJD1HV4TMx6LokPTaTzYn0NSc6s5BormiERpd2Zd_J5pM-A_N_kMia3ZQzNmf_mBlLMCbnpKb-sp4aR3EP1Tr-oryqTc_4TExolDsCHFdlVxbZFAztrs5oRWCPVBxDNJO63dSOQkyenzPGJ6p2UD-EZifhDVFV_wWV7TWFGykuBhAkthSjgrDrQ5wc598RNzK41URKmz4znpx-SJCPXU3xQUzCIzKKYoRXc8uqjOJzQ_R6uaVu80N-qNQFIT2vup7GTy6ZrcGFeotS0]--></g></svg>