<?xml version="1.0" encoding="us-ascii" standalone="no"?><svg xmlns="http://www.w3.org/2000/svg" xmlns:xlink="http://www.w3.org/1999/xlink" contentStyleType="text/css" height="529px" preserveAspectRatio="none" style="width:763px;height:529px;background:#FFFFFF;" version="1.1" viewBox="0 0 763 529" width="763px" zoomAndPan="magnify"><defs/><g><text fill="#000000" font-family="sans-serif" font-size="14" font-weight="bold" lengthAdjust="spacing" textLength="461" x="147.25" y="29.5332">FXP Transaction Fee - P2P Send Money with Currency Conversion</text><line style="stroke:#181818;stroke-width:0.5;stroke-dasharray:5.0,5.0;" x1="168" x2="168" y1="76.2188" y2="492.4922"/><line style="stroke:#181818;stroke-width:0.5;stroke-dasharray:5.0,5.0;" x1="349" x2="349" y1="76.2188" y2="492.4922"/><line style="stroke:#181818;stroke-width:0.5;stroke-dasharray:5.0,5.0;" x1="532.5" x2="532.5" y1="76.2188" y2="492.4922"/><rect fill="#E3E3E3" height="31.6094" rx="2.5" ry="2.5" style="stroke:#181818;stroke-width:0.5;" width="141" x="98" y="43.6094"/><text fill="#000000" font-family="sans-serif" font-size="14" lengthAdjust="spacing" textLength="127" x="105" y="65.1426">Mojaloop Connector</text><rect fill="#E3E3E3" height="31.6094" rx="2.5" ry="2.5" style="stroke:#181818;stroke-width:0.5;" width="141" x="98" y="491.4922"/><text fill="#000000" font-family="sans-serif" font-size="14" lengthAdjust="spacing" textLength="127" x="105" y="513.0254">Mojaloop Connector</text><rect fill="#E3E3E3" height="31.6094" rx="2.5" ry="2.5" style="stroke:#181818;stroke-width:0.5;" width="115" x="292" y="43.6094"/><text fill="#000000" font-family="sans-serif" font-size="14" lengthAdjust="spacing" textLength="101" x="299" y="65.1426">Core Connector</text><rect fill="#E3E3E3" height="31.6094" rx="2.5" ry="2.5" style="stroke:#181818;stroke-width:0.5;" width="115" x="292" y="491.4922"/><text fill="#000000" font-family="sans-serif" font-size="14" lengthAdjust="spacing" textLength="101" x="299" y="513.0254">Core Connector</text><rect fill="#E3E3E3" height="31.6094" rx="2.5" ry="2.5" style="stroke:#181818;stroke-width:0.5;" width="40" x="512.5" y="43.6094"/><text fill="#000000" font-family="sans-serif" font-size="14" lengthAdjust="spacing" textLength="26" x="519.5" y="65.1426">FXP</text><rect fill="#E3E3E3" height="31.6094" rx="2.5" ry="2.5" style="stroke:#181818;stroke-width:0.5;" width="40" x="512.5" y="491.4922"/><text fill="#000000" font-family="sans-serif" font-size="14" lengthAdjust="spacing" textLength="26" x="519.5" y="513.0254">FXP</text><rect fill="#EEEEEE" height="3" style="stroke:#EEEEEE;stroke-width:1.0;" width="756.5" x="0" y="107.3945"/><line style="stroke:#000000;stroke-width:1.0;" x1="0" x2="756.5" y1="107.3945" y2="107.3945"/><line style="stroke:#000000;stroke-width:1.0;" x1="0" x2="756.5" y1="110.3945" y2="110.3945"/><rect fill="#EEEEEE" height="24.3516" style="stroke:#000000;stroke-width:2.0;" width="228" x="264.25" y="96.2188"/><text fill="#000000" font-family="sans-serif" font-size="13" font-weight="bold" lengthAdjust="spacing" textLength="210" x="270.25" y="113.7139">Incoming FX Conversion Request</text><path d="M5,135.5703 L5,177.5703 L333,177.5703 L333,145.5703 L323,135.5703 L5,135.5703 " fill="#FAFAFA" style="stroke:#181818;stroke-width:0.5;"/><path d="M323,135.5703 L323,145.5703 L333,145.5703 L323,135.5703 " fill="#FAFAFA" style="stroke:#181818;stroke-width:0.5;"/><text fill="#000000" font-family="sans-serif" font-size="13" lengthAdjust="spacing" textLength="307" x="11" y="154.0654">Agreement in place; executing FX conversion request</text><text fill="#000000" font-family="sans-serif" font-size="13" lengthAdjust="spacing" textLength="214" x="11" y="170.417">for P2P send money (ZMW &#8594; MWK)</text><polygon fill="#181818" points="337.5,201.625,347.5,205.625,337.5,209.625,341.5,205.625" style="stroke:#181818;stroke-width:1.0;"/><line style="stroke:#181818;stroke-width:1.0;" x1="168.5" x2="343.5" y1="205.625" y2="205.625"/><text fill="#000000" font-family="sans-serif" font-size="13" font-weight="bold" lengthAdjust="spacing" textLength="7" x="175.5" y="200.7686">1</text><text fill="#000000" font-family="sans-serif" font-size="13" lengthAdjust="spacing" textLength="99" x="186.5" y="200.7686">POST /fxTransfer</text><polygon fill="#181818" points="520.5,248.3281,530.5,252.3281,520.5,256.3281,524.5,252.3281" style="stroke:#181818;stroke-width:1.0;"/><line style="stroke:#181818;stroke-width:1.0;" x1="349.5" x2="526.5" y1="252.3281" y2="252.3281"/><text fill="#000000" font-family="sans-serif" font-size="13" font-weight="bold" lengthAdjust="spacing" textLength="7" x="356.5" y="239.2959">2</text><text fill="#000000" font-family="sans-serif" font-size="13" lengthAdjust="spacing" textLength="113" x="367.5" y="231.1201">Execute conversion</text><text fill="#000000" font-family="sans-serif" font-size="13" lengthAdjust="spacing" textLength="148" x="367.5" y="247.4717">495 ZMW &#8594; 36754 MWK</text><line style="stroke:#181818;stroke-width:1.0;" x1="532.5" x2="574.5" y1="331.7344" y2="331.7344"/><line style="stroke:#181818;stroke-width:1.0;" x1="574.5" x2="574.5" y1="331.7344" y2="344.7344"/><line style="stroke:#181818;stroke-width:1.0;" x1="533.5" x2="574.5" y1="344.7344" y2="344.7344"/><polygon fill="#181818" points="543.5,340.7344,533.5,344.7344,543.5,348.7344,539.5,344.7344" style="stroke:#181818;stroke-width:1.0;"/><text fill="#000000" font-family="sans-serif" font-size="13" font-weight="bold" lengthAdjust="spacing" textLength="7" x="539.5" y="302.3506">3</text><text fill="#000000" font-family="sans-serif" font-size="13" lengthAdjust="spacing" textLength="164" x="550.5" y="277.8232">Perform currency conversion</text><text fill="#000000" font-family="sans-serif" font-size="13" font-weight="bold" lengthAdjust="spacing" textLength="164" x="550.5" y="294.1748">Deduct FXP fee: 371 MWK</text><text fill="#000000" font-family="sans-serif" font-size="13" lengthAdjust="spacing" textLength="199" x="550.5" y="310.5264">Convert: 495 ZMW &#8594; 37125 MWK</text><text fill="#000000" font-family="sans-serif" font-size="13" lengthAdjust="spacing" textLength="148" x="550.5" y="326.8779">Final output: 36754 MWK</text><polygon fill="#181818" points="360.5,371.0859,350.5,375.0859,360.5,379.0859,356.5,375.0859" style="stroke:#181818;stroke-width:1.0;"/><line style="stroke:#181818;stroke-width:1.0;" x1="354.5" x2="531.5" y1="375.0859" y2="375.0859"/><text fill="#000000" font-family="sans-serif" font-size="13" font-weight="bold" lengthAdjust="spacing" textLength="7" x="366.5" y="370.2295">4</text><text fill="#000000" font-family="sans-serif" font-size="13" lengthAdjust="spacing" textLength="127" x="377.5" y="370.2295">Conversion completed</text><polygon fill="#181818" points="179.5,401.4375,169.5,405.4375,179.5,409.4375,175.5,405.4375" style="stroke:#181818;stroke-width:1.0;"/><line style="stroke:#181818;stroke-width:1.0;" x1="173.5" x2="348.5" y1="405.4375" y2="405.4375"/><text fill="#000000" font-family="sans-serif" font-size="13" font-weight="bold" lengthAdjust="spacing" textLength="7" x="185.5" y="400.5811">5</text><text fill="#000000" font-family="sans-serif" font-size="13" lengthAdjust="spacing" textLength="146" x="196.5" y="400.5811">FX conversion successful</text><path d="M408,418.4375 L408,477.4375 L656,477.4375 L656,428.4375 L646,418.4375 L408,418.4375 " fill="#FAFAFA" style="stroke:#181818;stroke-width:0.5;"/><path d="M646,418.4375 L646,428.4375 L656,428.4375 L646,418.4375 " fill="#FAFAFA" style="stroke:#181818;stroke-width:0.5;"/><text fill="#000000" font-family="sans-serif" font-size="13" lengthAdjust="spacing" textLength="60" x="414" y="436.9326">FXP earns</text><text fill="#000000" font-family="sans-serif" font-size="13" font-weight="bold" lengthAdjust="spacing" textLength="82" x="478" y="436.9326">371 MWK fee</text><text fill="#000000" font-family="sans-serif" font-size="13" lengthAdjust="spacing" textLength="227" x="414" y="453.2842">for converting 495 ZMW to 37125 MWK</text><text fill="#000000" font-family="sans-serif" font-size="13" lengthAdjust="spacing" textLength="170" x="414" y="469.6357">(net 36754 MWK to recipient)</text><!--SRC=[PPBTIYGn48NlynI5LzeWYp-pWospiBGEoD9ieuAop4qsKwrPkwjwaygkle0Fu2Fw92QP6UpHgq3gvDIfho9MEeJvRGFNJfFNHYmJp15X7vh31gwGbb0puHFyjt8FLN0EoJn1nVGFdOzgvHyi3Thf7decDlUEUmHn0PKEmXJwt-YKYWgnnWwQ17Pg_gCxvY7P41fXjmFQGrrjoofs-45IVP34wFa-dahDPd11XdjBT_5Yb14kyMz0Bp2RAM91u5Y8xKhuVkSGUunMbc3ejC5Jm4SqGTOcvjt4hKmMrBBBT7oYqsSwkx_g6tXzVe7wviUUKdK5-zzYs1AQdrVNyALzp7pRIABAfPYtXFFS24Sz5dHyCe6Drz7NwUGuEIgLLhHvrg2B2NemcsMCtnV56Iw3aRpK5h64e-b1yYYA1Qs8I0bRNQO7XvEaMD3Sakw0WmmXYZwtJmEDg4RKGuU2o_LG2UWsCX-CGU_RqAaH-3n5iaJjo4DHh2Ecl2bcuhiooLlOX1KUPzqbbFU8gUWm_WeRTxcdtW00]--></g></svg>