<?xml version="1.0" encoding="us-ascii" standalone="no"?><svg xmlns="http://www.w3.org/2000/svg" xmlns:xlink="http://www.w3.org/1999/xlink" contentStyleType="text/css" height="496px" preserveAspectRatio="none" style="width:764px;height:496px;background:#FFFFFF;" version="1.1" viewBox="0 0 764 496" width="764px" zoomAndPan="magnify"><defs/><g><text fill="#000000" font-family="sans-serif" font-size="14" font-weight="bold" lengthAdjust="spacing" textLength="505" x="125.75" y="29.5332">FXP Transaction Fee - P2B Merchant Payment with Currency Conversion</text><line style="stroke:#181818;stroke-width:0.5;stroke-dasharray:5.0,5.0;" x1="169" x2="169" y1="76.2188" y2="459.7891"/><line style="stroke:#181818;stroke-width:0.5;stroke-dasharray:5.0,5.0;" x1="350" x2="350" y1="76.2188" y2="459.7891"/><line style="stroke:#181818;stroke-width:0.5;stroke-dasharray:5.0,5.0;" x1="533.5" x2="533.5" y1="76.2188" y2="459.7891"/><rect fill="#E3E3E3" height="31.6094" rx="2.5" ry="2.5" style="stroke:#181818;stroke-width:0.5;" width="141" x="99" y="43.6094"/><text fill="#000000" font-family="sans-serif" font-size="14" lengthAdjust="spacing" textLength="127" x="106" y="65.1426">Mojaloop Connector</text><rect fill="#E3E3E3" height="31.6094" rx="2.5" ry="2.5" style="stroke:#181818;stroke-width:0.5;" width="141" x="99" y="458.7891"/><text fill="#000000" font-family="sans-serif" font-size="14" lengthAdjust="spacing" textLength="127" x="106" y="480.3223">Mojaloop Connector</text><rect fill="#E3E3E3" height="31.6094" rx="2.5" ry="2.5" style="stroke:#181818;stroke-width:0.5;" width="115" x="293" y="43.6094"/><text fill="#000000" font-family="sans-serif" font-size="14" lengthAdjust="spacing" textLength="101" x="300" y="65.1426">Core Connector</text><rect fill="#E3E3E3" height="31.6094" rx="2.5" ry="2.5" style="stroke:#181818;stroke-width:0.5;" width="115" x="293" y="458.7891"/><text fill="#000000" font-family="sans-serif" font-size="14" lengthAdjust="spacing" textLength="101" x="300" y="480.3223">Core Connector</text><rect fill="#E3E3E3" height="31.6094" rx="2.5" ry="2.5" style="stroke:#181818;stroke-width:0.5;" width="40" x="513.5" y="43.6094"/><text fill="#000000" font-family="sans-serif" font-size="14" lengthAdjust="spacing" textLength="26" x="520.5" y="65.1426">FXP</text><rect fill="#E3E3E3" height="31.6094" rx="2.5" ry="2.5" style="stroke:#181818;stroke-width:0.5;" width="40" x="513.5" y="458.7891"/><text fill="#000000" font-family="sans-serif" font-size="14" lengthAdjust="spacing" textLength="26" x="520.5" y="480.3223">FXP</text><rect fill="#EEEEEE" height="3" style="stroke:#EEEEEE;stroke-width:1.0;" width="757.5" x="0" y="107.3945"/><line style="stroke:#000000;stroke-width:1.0;" x1="0" x2="757.5" y1="107.3945" y2="107.3945"/><line style="stroke:#000000;stroke-width:1.0;" x1="0" x2="757.5" y1="110.3945" y2="110.3945"/><rect fill="#EEEEEE" height="24.3516" style="stroke:#000000;stroke-width:2.0;" width="228" x="264.75" y="96.2188"/><text fill="#000000" font-family="sans-serif" font-size="13" font-weight="bold" lengthAdjust="spacing" textLength="210" x="270.75" y="113.7139">Incoming FX Conversion Request</text><path d="M5,135.5703 L5,177.5703 L335,177.5703 L335,145.5703 L325,135.5703 L5,135.5703 " fill="#FAFAFA" style="stroke:#181818;stroke-width:0.5;"/><path d="M325,135.5703 L325,145.5703 L335,145.5703 L325,135.5703 " fill="#FAFAFA" style="stroke:#181818;stroke-width:0.5;"/><text fill="#000000" font-family="sans-serif" font-size="13" lengthAdjust="spacing" textLength="309" x="11" y="154.0654">Agreement in Place; executing FX conversion request</text><text fill="#000000" font-family="sans-serif" font-size="13" lengthAdjust="spacing" textLength="222" x="11" y="170.417">for merchant payment (ZMW &#8594; MWK)</text><polygon fill="#181818" points="338.5,201.625,348.5,205.625,338.5,209.625,342.5,205.625" style="stroke:#181818;stroke-width:1.0;"/><line style="stroke:#181818;stroke-width:1.0;" x1="169.5" x2="344.5" y1="205.625" y2="205.625"/><text fill="#000000" font-family="sans-serif" font-size="13" font-weight="bold" lengthAdjust="spacing" textLength="7" x="176.5" y="200.7686">1</text><text fill="#000000" font-family="sans-serif" font-size="13" lengthAdjust="spacing" textLength="140" x="187.5" y="200.7686">FX conversion execution</text><polygon fill="#181818" points="521.5,248.3281,531.5,252.3281,521.5,256.3281,525.5,252.3281" style="stroke:#181818;stroke-width:1.0;"/><line style="stroke:#181818;stroke-width:1.0;" x1="350.5" x2="527.5" y1="252.3281" y2="252.3281"/><text fill="#000000" font-family="sans-serif" font-size="13" font-weight="bold" lengthAdjust="spacing" textLength="7" x="357.5" y="239.2959">2</text><text fill="#000000" font-family="sans-serif" font-size="13" lengthAdjust="spacing" textLength="113" x="368.5" y="231.1201">Execute conversion</text><text fill="#000000" font-family="sans-serif" font-size="13" lengthAdjust="spacing" textLength="148" x="368.5" y="247.4717">680 ZMW &#8594; 50500 MWK</text><line style="stroke:#181818;stroke-width:1.0;" x1="533.5" x2="575.5" y1="315.3828" y2="315.3828"/><line style="stroke:#181818;stroke-width:1.0;" x1="575.5" x2="575.5" y1="315.3828" y2="328.3828"/><line style="stroke:#181818;stroke-width:1.0;" x1="534.5" x2="575.5" y1="328.3828" y2="328.3828"/><polygon fill="#181818" points="544.5,324.3828,534.5,328.3828,544.5,332.3828,540.5,328.3828" style="stroke:#181818;stroke-width:1.0;"/><text fill="#000000" font-family="sans-serif" font-size="13" font-weight="bold" lengthAdjust="spacing" textLength="7" x="540.5" y="294.1748">3</text><text fill="#000000" font-family="sans-serif" font-size="13" lengthAdjust="spacing" textLength="164" x="551.5" y="277.8232">Perform currency conversion</text><text fill="#000000" font-family="sans-serif" font-size="13" lengthAdjust="spacing" textLength="199" x="551.5" y="294.1748">Convert: 680 ZMW &#8594; 51005 MWK</text><text fill="#000000" font-family="sans-serif" font-size="13" font-weight="bold" lengthAdjust="spacing" textLength="164" x="551.5" y="310.5264">Deduct FXP fee: 505 MWK</text><polygon fill="#181818" points="361.5,354.7344,351.5,358.7344,361.5,362.7344,357.5,358.7344" style="stroke:#181818;stroke-width:1.0;"/><line style="stroke:#181818;stroke-width:1.0;" x1="355.5" x2="532.5" y1="358.7344" y2="358.7344"/><text fill="#000000" font-family="sans-serif" font-size="13" font-weight="bold" lengthAdjust="spacing" textLength="7" x="367.5" y="353.8779">4</text><text fill="#000000" font-family="sans-serif" font-size="13" lengthAdjust="spacing" textLength="127" x="378.5" y="353.8779">Conversion completed</text><polygon fill="#181818" points="180.5,385.0859,170.5,389.0859,180.5,393.0859,176.5,389.0859" style="stroke:#181818;stroke-width:1.0;"/><line style="stroke:#181818;stroke-width:1.0;" x1="174.5" x2="349.5" y1="389.0859" y2="389.0859"/><text fill="#000000" font-family="sans-serif" font-size="13" font-weight="bold" lengthAdjust="spacing" textLength="7" x="186.5" y="384.2295">5</text><text fill="#000000" font-family="sans-serif" font-size="13" lengthAdjust="spacing" textLength="146" x="197.5" y="384.2295">FX conversion successful</text><path d="M409,402.0859 L409,444.0859 L657,444.0859 L657,412.0859 L647,402.0859 L409,402.0859 " fill="#FAFAFA" style="stroke:#181818;stroke-width:0.5;"/><path d="M647,402.0859 L647,412.0859 L657,412.0859 L647,402.0859 " fill="#FAFAFA" style="stroke:#181818;stroke-width:0.5;"/><text fill="#000000" font-family="sans-serif" font-size="13" lengthAdjust="spacing" textLength="60" x="415" y="420.5811">FXP earns</text><text fill="#000000" font-family="sans-serif" font-size="13" font-weight="bold" lengthAdjust="spacing" textLength="82" x="479" y="420.5811">505 MWK fee</text><text fill="#000000" font-family="sans-serif" font-size="13" lengthAdjust="spacing" textLength="227" x="415" y="436.9326">for converting 680 ZMW to 50500 MWK</text><!--SRC=[PPBVIiCm5CRlynI7NMbWK8M9L2feTI1IA29CP3SnEzkYxKdD7tKlu0FuY3w9ITTgDwy29z_vdUzyYLEkGfW-b71l15aXdT84KqGOGtby2GKQkHRae1IR6iFvhjmQScyCajn0hkaDZGqzpBueQeGHDTIQj5mRNICuuv49xpJv-WaDOq7Xb5HDH8uA_ImghPk88PHEcn482qM-AykrmJr9lYS92xJrS3AMPN13KjUALg4my0Xt-EhHEiWoHjeXw70HngLmiJA8xNwAeAo4n3F03vJUTH3v1p5Ro9oMsa3TvzDq-Hmy5ZFu_lo2OdPxo1WhSXYV1x_f7gMZX-3oLX6Sft3T5d6WczF9QG8zSv9CaYII6OjFrhULQ8AN6cJ_BCF-xVekXHtGKP9C8cXEd5_XmalNVe8bOXgdn2lEVwT4-uCOGxPDXGuNdVVYttRMIudMBdt51actPYCIXI4Bd7UJubZEju5k8MtilM6d1ul_0000]--></g></svg>