<?xml version="1.0" encoding="us-ascii" standalone="no"?><svg xmlns="http://www.w3.org/2000/svg" xmlns:xlink="http://www.w3.org/1999/xlink" contentStyleType="text/css" height="633px" preserveAspectRatio="none" style="width:813px;height:633px;background:#FFFFFF;" version="1.1" viewBox="0 0 813 633" width="813px" zoomAndPan="magnify"><defs/><g><text fill="#000000" font-family="sans-serif" font-size="14" font-weight="bold" lengthAdjust="spacing" textLength="330" x="237.5" y="29.5332">Payee DFSP Transaction Fee - P2P Send Money</text><line style="stroke:#181818;stroke-width:0.5;stroke-dasharray:5.0,5.0;" x1="133" x2="133" y1="121.2188" y2="551.4922"/><line style="stroke:#181818;stroke-width:0.5;stroke-dasharray:5.0,5.0;" x1="280" x2="280" y1="121.2188" y2="551.4922"/><line style="stroke:#181818;stroke-width:0.5;stroke-dasharray:5.0,5.0;" x1="440" x2="440" y1="121.2188" y2="551.4922"/><line style="stroke:#181818;stroke-width:0.5;stroke-dasharray:5.0,5.0;" x1="678.5" x2="678.5" y1="121.2188" y2="551.4922"/><rect fill="#E3E3E3" height="31.6094" rx="2.5" ry="2.5" style="stroke:#181818;stroke-width:0.5;" width="141" x="63" y="88.6094"/><text fill="#000000" font-family="sans-serif" font-size="14" lengthAdjust="spacing" textLength="127" x="70" y="110.1426">Mojaloop Connector</text><rect fill="#E3E3E3" height="31.6094" rx="2.5" ry="2.5" style="stroke:#181818;stroke-width:0.5;" width="141" x="63" y="550.4922"/><text fill="#000000" font-family="sans-serif" font-size="14" lengthAdjust="spacing" textLength="127" x="70" y="572.0254">Mojaloop Connector</text><rect fill="#E3E3E3" height="31.6094" rx="2.5" ry="2.5" style="stroke:#181818;stroke-width:0.5;" width="115" x="223" y="88.6094"/><text fill="#000000" font-family="sans-serif" font-size="14" lengthAdjust="spacing" textLength="101" x="230" y="110.1426">Core Connector</text><rect fill="#E3E3E3" height="31.6094" rx="2.5" ry="2.5" style="stroke:#181818;stroke-width:0.5;" width="115" x="223" y="550.4922"/><text fill="#000000" font-family="sans-serif" font-size="14" lengthAdjust="spacing" textLength="101" x="230" y="572.0254">Core Connector</text><rect fill="#E3E3E3" height="31.6094" rx="2.5" ry="2.5" style="stroke:#181818;stroke-width:0.5;" width="95" x="393" y="88.6094"/><text fill="#000000" font-family="sans-serif" font-size="14" lengthAdjust="spacing" textLength="81" x="400" y="110.1426">Payee DFSP</text><rect fill="#E3E3E3" height="31.6094" rx="2.5" ry="2.5" style="stroke:#181818;stroke-width:0.5;" width="95" x="393" y="550.4922"/><text fill="#000000" font-family="sans-serif" font-size="14" lengthAdjust="spacing" textLength="81" x="400" y="572.0254">Payee DFSP</text><text fill="#000000" font-family="sans-serif" font-size="14" lengthAdjust="spacing" textLength="40" x="655.5" y="118.1426">Payee</text><ellipse cx="678.5" cy="52.1094" fill="#E3E3E3" rx="8" ry="8" style="stroke:#181818;stroke-width:0.5;"/><path d="M678.5,60.1094 L678.5,87.1094 M665.5,68.1094 L691.5,68.1094 M678.5,87.1094 L665.5,102.1094 M678.5,87.1094 L691.5,102.1094 " fill="none" style="stroke:#181818;stroke-width:0.5;"/><text fill="#000000" font-family="sans-serif" font-size="14" lengthAdjust="spacing" textLength="40" x="655.5" y="565.0254">Payee</text><ellipse cx="678.5" cy="576.6016" fill="#E3E3E3" rx="8" ry="8" style="stroke:#181818;stroke-width:0.5;"/><path d="M678.5,584.6016 L678.5,611.6016 M665.5,592.6016 L691.5,592.6016 M678.5,611.6016 L665.5,626.6016 M678.5,611.6016 L691.5,626.6016 " fill="none" style="stroke:#181818;stroke-width:0.5;"/><rect fill="#EEEEEE" height="3" style="stroke:#EEEEEE;stroke-width:1.0;" width="806" x="0" y="152.3945"/><line style="stroke:#000000;stroke-width:1.0;" x1="0" x2="806" y1="152.3945" y2="152.3945"/><line style="stroke:#000000;stroke-width:1.0;" x1="0" x2="806" y1="155.3945" y2="155.3945"/><rect fill="#EEEEEE" height="24.3516" style="stroke:#000000;stroke-width:2.0;" width="192" x="307" y="141.2188"/><text fill="#000000" font-family="sans-serif" font-size="13" font-weight="bold" lengthAdjust="spacing" textLength="174" x="313" y="158.7139">Incoming Payment Request</text><path d="M5,180.5703 L5,239.5703 L262,239.5703 L262,190.5703 L252,180.5703 L5,180.5703 " fill="#FAFAFA" style="stroke:#181818;stroke-width:0.5;"/><path d="M252,180.5703 L252,190.5703 L262,190.5703 L252,180.5703 " fill="#FAFAFA" style="stroke:#181818;stroke-width:0.5;"/><text fill="#000000" font-family="sans-serif" font-size="13" lengthAdjust="spacing" textLength="232" x="11" y="199.0654">Agreement in place; executing incoming</text><text fill="#000000" font-family="sans-serif" font-size="13" lengthAdjust="spacing" textLength="203" x="11" y="215.417">payment request from Payer DFSP</text><text fill="#000000" font-family="sans-serif" font-size="13" lengthAdjust="spacing" textLength="118" x="11" y="231.7686">for P2P send money</text><polygon fill="#181818" points="268.5,262.9766,278.5,266.9766,268.5,270.9766,272.5,266.9766" style="stroke:#181818;stroke-width:1.0;"/><line style="stroke:#181818;stroke-width:1.0;" x1="133.5" x2="274.5" y1="266.9766" y2="266.9766"/><text fill="#000000" font-family="sans-serif" font-size="13" font-weight="bold" lengthAdjust="spacing" textLength="7" x="140.5" y="262.1201">1</text><text fill="#000000" font-family="sans-serif" font-size="13" lengthAdjust="spacing" textLength="106" x="151.5" y="262.1201">Transfer execution</text><polygon fill="#181818" points="428.5,309.6797,438.5,313.6797,428.5,317.6797,432.5,313.6797" style="stroke:#181818;stroke-width:1.0;"/><line style="stroke:#181818;stroke-width:1.0;" x1="280.5" x2="434.5" y1="313.6797" y2="313.6797"/><text fill="#000000" font-family="sans-serif" font-size="13" font-weight="bold" lengthAdjust="spacing" textLength="7" x="287.5" y="300.6475">2</text><text fill="#000000" font-family="sans-serif" font-size="13" lengthAdjust="spacing" textLength="123" x="298.5" y="292.4717">Credit payee account</text><text fill="#000000" font-family="sans-serif" font-size="13" lengthAdjust="spacing" textLength="125" x="298.5" y="308.8232">Amount: 36754 MWK</text><line style="stroke:#181818;stroke-width:1.0;" x1="440.5" x2="482.5" y1="360.3828" y2="360.3828"/><line style="stroke:#181818;stroke-width:1.0;" x1="482.5" x2="482.5" y1="360.3828" y2="373.3828"/><line style="stroke:#181818;stroke-width:1.0;" x1="441.5" x2="482.5" y1="373.3828" y2="373.3828"/><polygon fill="#181818" points="451.5,369.3828,441.5,373.3828,451.5,377.3828,447.5,373.3828" style="stroke:#181818;stroke-width:1.0;"/><text fill="#000000" font-family="sans-serif" font-size="13" font-weight="bold" lengthAdjust="spacing" textLength="7" x="447.5" y="347.3506">3</text><text fill="#000000" font-family="sans-serif" font-size="13" lengthAdjust="spacing" textLength="109" x="458.5" y="339.1748">Debit receiving fee:</text><text fill="#000000" font-family="sans-serif" font-size="13" font-weight="bold" lengthAdjust="spacing" textLength="58" x="571.5" y="339.1748">367 MWK</text><text fill="#000000" font-family="sans-serif" font-size="13" lengthAdjust="spacing" textLength="114" x="458.5" y="355.5264">from payee account</text><polygon fill="#181818" points="666.5,416.0859,676.5,420.0859,666.5,424.0859,670.5,420.0859" style="stroke:#181818;stroke-width:1.0;"/><line style="stroke:#181818;stroke-width:1.0;" x1="440.5" x2="672.5" y1="420.0859" y2="420.0859"/><text fill="#000000" font-family="sans-serif" font-size="13" font-weight="bold" lengthAdjust="spacing" textLength="7" x="447.5" y="407.0537">4</text><text fill="#000000" font-family="sans-serif" font-size="13" lengthAdjust="spacing" textLength="110" x="458.5" y="398.8779">Credit 36387 MWK</text><text fill="#000000" font-family="sans-serif" font-size="13" lengthAdjust="spacing" textLength="203" x="458.5" y="415.2295">(Receiving fee 367 MWK deducted)</text><polygon fill="#181818" points="291.5,446.4375,281.5,450.4375,291.5,454.4375,287.5,450.4375" style="stroke:#181818;stroke-width:1.0;"/><line style="stroke:#181818;stroke-width:1.0;" x1="285.5" x2="439.5" y1="450.4375" y2="450.4375"/><text fill="#000000" font-family="sans-serif" font-size="13" font-weight="bold" lengthAdjust="spacing" textLength="7" x="297.5" y="445.5811">5</text><text fill="#000000" font-family="sans-serif" font-size="13" lengthAdjust="spacing" textLength="110" x="308.5" y="445.5811">Transfer completed</text><polygon fill="#181818" points="144.5,476.7891,134.5,480.7891,144.5,484.7891,140.5,480.7891" style="stroke:#181818;stroke-width:1.0;"/><line style="stroke:#181818;stroke-width:1.0;" x1="138.5" x2="279.5" y1="480.7891" y2="480.7891"/><text fill="#000000" font-family="sans-serif" font-size="13" font-weight="bold" lengthAdjust="spacing" textLength="7" x="150.5" y="475.9326">6</text><text fill="#000000" font-family="sans-serif" font-size="13" lengthAdjust="spacing" textLength="112" x="161.5" y="475.9326">Transfer successful</text><path d="M555,493.7891 L555,535.7891 L801,535.7891 L801,503.7891 L791,493.7891 L555,493.7891 " fill="#FAFAFA" style="stroke:#181818;stroke-width:0.5;"/><path d="M791,493.7891 L791,503.7891 L801,503.7891 L791,493.7891 " fill="#FAFAFA" style="stroke:#181818;stroke-width:0.5;"/><text fill="#000000" font-family="sans-serif" font-size="13" lengthAdjust="spacing" textLength="164" x="561" y="512.2842">Payee receives 36387 MWK</text><text fill="#000000" font-family="sans-serif" font-size="13" lengthAdjust="spacing" textLength="76" x="561" y="528.6357">(36754 MWK</text><text fill="#000000" font-family="sans-serif" font-size="13" font-weight="bold" lengthAdjust="spacing" textLength="66" x="641" y="528.6357">- 367 MWK</text><text fill="#000000" font-family="sans-serif" font-size="13" lengthAdjust="spacing" textLength="75" x="711" y="528.6357">receiving fee)</text><!--SRC=[RL7BIiD05DtFLrnSsK8trXUH2YMb8188Ld2JpJYvqT7atZWFqRztPfe-Kbo5cVF8EMUSTYr2ANyHORNUbF1i95cfd6Q2TRYSGNbHmWQfXe89VuNzrDHB8plec5Yz6-uGdF4ef7TCldj58qHWEArqByd1MS4VicNk8MSYL8xD6KWBHJwcvMpmX9AVK0v14voEuI1aL0pm0H5YiO07KjnfUejN7GQJ9_poQ1qi5eBO8V0tcf0bW-MRGKmKJT2tKk4Tu0ygxw9SxtogK7_hP0Qd9coG_cXIj8gQ42REPkDiNPfD53dCxaEXR3jn4yY3EPF84xYhaq5kiDOE-bHNAiMUN4NBBdupc5_VN5r2yV8en4uobg_mLSTu2lLtZDmWPZ2T1brKJQSXOOmyil_7QvzZVZs_JTAApf-ENM6mX1fhhnpMax7Dg6xOhsyna8QwnJ5elL9eRUDRSVGiGupjis_xe1t5sMyH-irWtt1SVYB-0000]--></g></svg>