<?xml version="1.0" encoding="us-ascii" standalone="no"?><svg xmlns="http://www.w3.org/2000/svg" xmlns:xlink="http://www.w3.org/1999/xlink" contentStyleType="text/css" height="1052px" preserveAspectRatio="none" style="width:962px;height:1052px;background:#FFFFFF;" version="1.1" viewBox="0 0 962 1052" width="962px" zoomAndPan="magnify"><defs/><g><text fill="#000000" font-family="sans-serif" font-size="14" font-weight="bold" lengthAdjust="spacing" textLength="330" x="312.25" y="29.5332">Payee DFSP Transaction Fee - P2P Send Money</text><line style="stroke:#181818;stroke-width:0.5;stroke-dasharray:5.0,5.0;" x1="241" x2="241" y1="121.2188" y2="970.1055"/><line style="stroke:#181818;stroke-width:0.5;stroke-dasharray:5.0,5.0;" x1="503" x2="503" y1="121.2188" y2="970.1055"/><line style="stroke:#181818;stroke-width:0.5;stroke-dasharray:5.0,5.0;" x1="685" x2="685" y1="121.2188" y2="970.1055"/><line style="stroke:#181818;stroke-width:0.5;stroke-dasharray:5.0,5.0;" x1="927.5" x2="927.5" y1="121.2188" y2="970.1055"/><rect fill="#E3E3E3" height="31.6094" rx="2.5" ry="2.5" style="stroke:#181818;stroke-width:0.5;" width="141" x="171" y="88.6094"/><text fill="#000000" font-family="sans-serif" font-size="14" lengthAdjust="spacing" textLength="127" x="178" y="110.1426">Mojaloop Connector</text><rect fill="#E3E3E3" height="31.6094" rx="2.5" ry="2.5" style="stroke:#181818;stroke-width:0.5;" width="141" x="171" y="969.1055"/><text fill="#000000" font-family="sans-serif" font-size="14" lengthAdjust="spacing" textLength="127" x="178" y="990.6387">Mojaloop Connector</text><rect fill="#E3E3E3" height="31.6094" rx="2.5" ry="2.5" style="stroke:#181818;stroke-width:0.5;" width="115" x="446" y="88.6094"/><text fill="#000000" font-family="sans-serif" font-size="14" lengthAdjust="spacing" textLength="101" x="453" y="110.1426">Core Connector</text><rect fill="#E3E3E3" height="31.6094" rx="2.5" ry="2.5" style="stroke:#181818;stroke-width:0.5;" width="115" x="446" y="969.1055"/><text fill="#000000" font-family="sans-serif" font-size="14" lengthAdjust="spacing" textLength="101" x="453" y="990.6387">Core Connector</text><rect fill="#E3E3E3" height="31.6094" rx="2.5" ry="2.5" style="stroke:#181818;stroke-width:0.5;" width="95" x="638" y="88.6094"/><text fill="#000000" font-family="sans-serif" font-size="14" lengthAdjust="spacing" textLength="81" x="645" y="110.1426">Payee DFSP</text><rect fill="#E3E3E3" height="31.6094" rx="2.5" ry="2.5" style="stroke:#181818;stroke-width:0.5;" width="95" x="638" y="969.1055"/><text fill="#000000" font-family="sans-serif" font-size="14" lengthAdjust="spacing" textLength="81" x="645" y="990.6387">Payee DFSP</text><text fill="#000000" font-family="sans-serif" font-size="14" lengthAdjust="spacing" textLength="40" x="904.5" y="118.1426">Payee</text><ellipse cx="927.5" cy="52.1094" fill="#E3E3E3" rx="8" ry="8" style="stroke:#181818;stroke-width:0.5;"/><path d="M927.5,60.1094 L927.5,87.1094 M914.5,68.1094 L940.5,68.1094 M927.5,87.1094 L914.5,102.1094 M927.5,87.1094 L940.5,102.1094 " fill="none" style="stroke:#181818;stroke-width:0.5;"/><text fill="#000000" font-family="sans-serif" font-size="14" lengthAdjust="spacing" textLength="40" x="904.5" y="983.6387">Payee</text><ellipse cx="927.5" cy="995.2148" fill="#E3E3E3" rx="8" ry="8" style="stroke:#181818;stroke-width:0.5;"/><path d="M927.5,1003.2148 L927.5,1030.2148 M914.5,1011.2148 L940.5,1011.2148 M927.5,1030.2148 L914.5,1045.2148 M927.5,1030.2148 L940.5,1045.2148 " fill="none" style="stroke:#181818;stroke-width:0.5;"/><rect fill="#EEEEEE" height="3" style="stroke:#EEEEEE;stroke-width:1.0;" width="955.5" x="0" y="152.3945"/><line style="stroke:#000000;stroke-width:1.0;" x1="0" x2="955.5" y1="152.3945" y2="152.3945"/><line style="stroke:#000000;stroke-width:1.0;" x1="0" x2="955.5" y1="155.3945" y2="155.3945"/><rect fill="#EEEEEE" height="24.3516" style="stroke:#000000;stroke-width:2.0;" width="192" x="381.75" y="141.2188"/><text fill="#000000" font-family="sans-serif" font-size="13" font-weight="bold" lengthAdjust="spacing" textLength="174" x="387.75" y="158.7139">Incoming Payment Request</text><path d="M101,180.5703 L101,222.5703 L381,222.5703 L381,190.5703 L371,180.5703 L101,180.5703 " fill="#FAFAFA" style="stroke:#181818;stroke-width:0.5;"/><path d="M371,180.5703 L371,190.5703 L381,190.5703 L371,180.5703 " fill="#FAFAFA" style="stroke:#181818;stroke-width:0.5;"/><text fill="#000000" font-family="sans-serif" font-size="13" lengthAdjust="spacing" textLength="259" x="107" y="199.0654">Incoming payment request from Payer DFSP</text><text fill="#000000" font-family="sans-serif" font-size="13" lengthAdjust="spacing" textLength="118" x="107" y="215.417">for P2P send money</text><polygon fill="#181818" points="491.5,372.2617,501.5,376.2617,491.5,380.2617,495.5,376.2617" style="stroke:#181818;stroke-width:1.0;"/><line style="stroke:#181818;stroke-width:1.0;" x1="241.5" x2="497.5" y1="376.2617" y2="376.2617"/><text fill="#000000" font-family="sans-serif" font-size="13" font-weight="bold" lengthAdjust="spacing" textLength="7" x="248.5" y="371.4053">1</text><text fill="#000000" font-family="sans-serif" font-size="13" lengthAdjust="spacing" textLength="125" x="259.5" y="371.4053">POST /quoterequests</text><path d="M5,233.2734 L5,504.2734 L237,504.2734 L237,243.2734 L227,233.2734 L5,233.2734 " fill="#FAFAFA" style="stroke:#181818;stroke-width:0.5;"/><path d="M227,233.2734 L227,243.2734 L237,243.2734 L227,233.2734 " fill="#FAFAFA" style="stroke:#181818;stroke-width:0.5;"/><text fill="#000000" font-family="sans-serif" font-size="13" lengthAdjust="spacing" textLength="4" x="11" y="251.7686">{</text><text fill="#000000" font-family="sans-serif" font-size="13" lengthAdjust="spacing" textLength="170" x="19" y="268.1201">"quoteId": "382987...8c1727",</text><text fill="#000000" font-family="sans-serif" font-size="13" lengthAdjust="spacing" textLength="195" x="19" y="284.4717">"transactionId": "d9ce59...51451",</text><text fill="#000000" font-family="sans-serif" font-size="13" lengthAdjust="spacing" textLength="57" x="19" y="300.8232">"payee": {</text><text fill="#000000" font-family="sans-serif" font-size="13" lengthAdjust="spacing" textLength="81" x="27" y="317.1748">"partyIdInfo": {</text><text fill="#000000" font-family="sans-serif" font-size="13" lengthAdjust="spacing" textLength="149" x="35" y="333.5264">"partyIdType": "MSISDN",</text><text fill="#000000" font-family="sans-serif" font-size="13" lengthAdjust="spacing" textLength="187" x="35" y="349.8779">"partyIdentifier": "+1234567890",</text><text fill="#000000" font-family="sans-serif" font-size="13" lengthAdjust="spacing" textLength="125" x="35" y="366.2295">"fspId": "payeeDFSP"</text><text fill="#000000" font-family="sans-serif" font-size="13" lengthAdjust="spacing" textLength="4" x="27" y="382.5811">}</text><text fill="#000000" font-family="sans-serif" font-size="13" lengthAdjust="spacing" textLength="8" x="19" y="398.9326">},</text><text fill="#000000" font-family="sans-serif" font-size="13" lengthAdjust="spacing" textLength="85" x="19" y="415.2842">"amountType":</text><text fill="#000000" font-family="sans-serif" font-size="13" font-weight="bold" lengthAdjust="spacing" textLength="47" x="108" y="415.2842">"SEND"</text><text fill="#000000" font-family="sans-serif" font-size="13" lengthAdjust="spacing" textLength="4" x="155" y="415.2842">,</text><text fill="#000000" font-family="sans-serif" font-size="13" lengthAdjust="spacing" textLength="65" x="19" y="431.6357">"amount": {</text><text fill="#000000" font-family="sans-serif" font-size="13" lengthAdjust="spacing" textLength="110" x="27" y="447.9873">"amount": "36754",</text><text fill="#000000" font-family="sans-serif" font-size="13" lengthAdjust="spacing" textLength="111" x="27" y="464.3389">"currency": "MWK"</text><text fill="#000000" font-family="sans-serif" font-size="13" lengthAdjust="spacing" textLength="4" x="19" y="480.6904">}</text><text fill="#000000" font-family="sans-serif" font-size="13" lengthAdjust="spacing" textLength="4" x="11" y="497.042">}</text><path d="M374,514.8984 L374,556.8984 L632,556.8984 L632,524.8984 L622,514.8984 L374,514.8984 " fill="#FAFAFA" style="stroke:#181818;stroke-width:0.5;"/><path d="M622,514.8984 L622,524.8984 L632,524.8984 L622,514.8984 " fill="#FAFAFA" style="stroke:#181818;stroke-width:0.5;"/><text fill="#000000" font-family="sans-serif" font-size="13" lengthAdjust="spacing" textLength="237" x="380" y="533.3936">Core Connector processes quote request</text><text fill="#000000" font-family="sans-serif" font-size="13" lengthAdjust="spacing" textLength="192" x="380" y="549.7451">and calculates Payee DFSP fees</text><polygon fill="#181818" points="673.5,580.9531,683.5,584.9531,673.5,588.9531,677.5,584.9531" style="stroke:#181818;stroke-width:1.0;"/><line style="stroke:#181818;stroke-width:1.0;" x1="503.5" x2="679.5" y1="584.9531" y2="584.9531"/><text fill="#000000" font-family="sans-serif" font-size="13" font-weight="bold" lengthAdjust="spacing" textLength="7" x="510.5" y="580.0967">2</text><text fill="#000000" font-family="sans-serif" font-size="13" lengthAdjust="spacing" textLength="139" x="521.5" y="580.0967">Quote payee for transfer</text><line style="stroke:#181818;stroke-width:1.0;" x1="685.5" x2="727.5" y1="615.3047" y2="615.3047"/><line style="stroke:#181818;stroke-width:1.0;" x1="727.5" x2="727.5" y1="615.3047" y2="628.3047"/><line style="stroke:#181818;stroke-width:1.0;" x1="686.5" x2="727.5" y1="628.3047" y2="628.3047"/><polygon fill="#181818" points="696.5,624.3047,686.5,628.3047,696.5,632.3047,692.5,628.3047" style="stroke:#181818;stroke-width:1.0;"/><text fill="#000000" font-family="sans-serif" font-size="13" font-weight="bold" lengthAdjust="spacing" textLength="7" x="692.5" y="610.4482">3</text><text fill="#000000" font-family="sans-serif" font-size="13" font-weight="bold" lengthAdjust="spacing" textLength="217" x="703.5" y="610.4482">Calculate receiving fee (367 MWK)</text><polygon fill="#181818" points="514.5,654.6563,504.5,658.6563,514.5,662.6563,510.5,658.6563" style="stroke:#181818;stroke-width:1.0;"/><line style="stroke:#181818;stroke-width:1.0;" x1="508.5" x2="684.5" y1="658.6563" y2="658.6563"/><text fill="#000000" font-family="sans-serif" font-size="13" font-weight="bold" lengthAdjust="spacing" textLength="7" x="520.5" y="653.7998">4</text><text fill="#000000" font-family="sans-serif" font-size="13" lengthAdjust="spacing" textLength="147" x="531.5" y="653.7998">Quote response with fees</text><polygon fill="#181818" points="252.5,794.293,242.5,798.293,252.5,802.293,248.5,798.293" style="stroke:#181818;stroke-width:1.0;"/><line style="stroke:#181818;stroke-width:1.0;" x1="246.5" x2="502.5" y1="798.293" y2="798.293"/><text fill="#000000" font-family="sans-serif" font-size="13" font-weight="bold" lengthAdjust="spacing" textLength="7" x="258.5" y="793.4365">5</text><text fill="#000000" font-family="sans-serif" font-size="13" lengthAdjust="spacing" textLength="227" x="269.5" y="793.4365">Quote response with Payee DFSP fees</text><path d="M508,671.6563 L508,909.6563 L797,909.6563 L797,681.6563 L787,671.6563 L508,671.6563 " fill="#FAFAFA" style="stroke:#181818;stroke-width:0.5;"/><path d="M787,671.6563 L787,681.6563 L797,681.6563 L787,671.6563 " fill="#FAFAFA" style="stroke:#181818;stroke-width:0.5;"/><text fill="#000000" font-family="sans-serif" font-size="13" lengthAdjust="spacing" textLength="4" x="514" y="690.1514">{</text><text fill="#000000" font-family="sans-serif" font-size="13" lengthAdjust="spacing" textLength="241" x="522" y="706.5029">"expiration": "2025-08-05T12:30:00.000Z",</text><text fill="#000000" font-family="sans-serif" font-size="13" lengthAdjust="spacing" textLength="8" x="514" y="722.8545">&#160;&#160;</text><text fill="#000000" font-family="sans-serif" font-size="13" font-weight="bold" lengthAdjust="spacing" textLength="191" x="522" y="722.8545">"payeeFspFeeAmount": "367",</text><text fill="#000000" font-family="sans-serif" font-size="13" lengthAdjust="spacing" textLength="8" x="514" y="739.2061">&#160;&#160;</text><text fill="#000000" font-family="sans-serif" font-size="13" font-weight="bold" lengthAdjust="spacing" textLength="260" x="522" y="739.2061">"payeeFspFeeAmountCurrency": "MWK",</text><text fill="#000000" font-family="sans-serif" font-size="13" lengthAdjust="spacing" textLength="192" x="522" y="755.5576">"payeeReceiveAmount": "36387",</text><text fill="#000000" font-family="sans-serif" font-size="13" lengthAdjust="spacing" textLength="242" x="522" y="771.9092">"payeeReceiveAmountCurrency": "MWK",</text><text fill="#000000" font-family="sans-serif" font-size="13" lengthAdjust="spacing" textLength="170" x="522" y="788.2607">"quoteId": "382987...8c1727",</text><text fill="#000000" font-family="sans-serif" font-size="13" lengthAdjust="spacing" textLength="195" x="522" y="804.6123">"transactionId": "d9ce59...51451",</text><text fill="#000000" font-family="sans-serif" font-size="13" lengthAdjust="spacing" textLength="155" x="522" y="820.9639">"transferAmount": "36754",</text><text fill="#000000" font-family="sans-serif" font-size="13" lengthAdjust="spacing" textLength="201" x="522" y="837.3154">"transferAmountCurrency": "MWK"</text><text fill="#000000" font-family="sans-serif" font-size="13" lengthAdjust="spacing" textLength="4" x="514" y="853.667">}</text><text fill="#000000" font-family="sans-serif" font-size="13" lengthAdjust="spacing" textLength="184" x="514" y="870.0186">Note: After conversion and fees:</text><text fill="#000000" font-family="sans-serif" font-size="13" lengthAdjust="spacing" textLength="127" x="514" y="886.3701">Payee receives 36754</text><text fill="#000000" font-family="sans-serif" font-size="13" font-weight="bold" lengthAdjust="spacing" textLength="29" x="645" y="886.3701">- 367</text><text fill="#000000" font-family="sans-serif" font-size="13" lengthAdjust="spacing" textLength="84" x="678" y="886.3701">= 36387 MWK</text><text fill="#000000" font-family="sans-serif" font-size="13" lengthAdjust="spacing" textLength="136" x="514" y="902.7217">payeeFspFeeAmount =</text><text fill="#000000" font-family="sans-serif" font-size="13" font-weight="bold" lengthAdjust="spacing" textLength="58" x="654" y="902.7217">367 MWK</text><path d="M115,920.5781 L115,954.5781 L368,954.5781 L368,930.5781 L358,920.5781 L115,920.5781 " fill="#FAFAFA" style="stroke:#181818;stroke-width:0.5;"/><path d="M358,920.5781 L358,930.5781 L368,930.5781 L358,920.5781 " fill="#FAFAFA" style="stroke:#181818;stroke-width:0.5;"/><line style="stroke:#181818;stroke-width:1.0;stroke-dasharray:1.0,2.0;" x1="116" x2="129.5" y1="933.7539" y2="933.7539"/><text fill="#000000" font-family="sans-serif" font-size="13" lengthAdjust="spacing" textLength="224" x="129.5" y="938.5732">. performs quote and transfer process .</text><line style="stroke:#181818;stroke-width:1.0;stroke-dasharray:1.0,2.0;" x1="353.5" x2="367" y1="933.7539" y2="933.7539"/><!--SRC=[hLJ1RjD04BtlLuny0jC4nwcRn5AGAfTA4Kf9cqX8g9V56RU6UDVihWiHohypkxRhE2qtBbLtv-tCc_UUOtApGrZnFI9SNQzNi55SQ9wQN0gufii1hC8Lh55iOIa5xfd-aOkIArv08OLC7vKi48ogaF7AI54Ltr0nHWYJftd9XG5lAR_pdPGb9588J8rK7d0DowGFIwJ24qXo0kc8kh8xqe5n-w8fTnN6vdDOY5GMkNYmLmLIaplyMQ4sC9yp8Gs2V495NE8EMJP8rI0psj5rL6xqlSXec9L5MraA9mjR9Z3uG8HZM7rUR-3zpugQDnrqFMc7cM5_683dYekj5uCtdeQpwMGu74xJqIISU6UsRZeNQjHsbc8q8rGqEez6DQXqsyPWExgZCll5Ta7idY-xwys-j5XlkLwihsvSW-CohPjdEIeBUJSAn-VHnMGw2pfSfikQYPlg772b0_qzE3gya9KmpHpVzzOVRwuytp-gTLoVpzxuOXATDsEyj58AHRftHBzyiXCExC2iobP0TcIO5ReV62YLJ55hrE3aRUsx5vpUftoNLZjkK1-dFKFKZ2NEkZPCCTowvsvHi5OxDpAATGlfmtq_QPlJp1Jp9niYQWrlQ3kWHTxwFkizjknl6vAwb48Z_ChDOu_FyX-OK_fE4vK_F3RPmjzbhhYDZfKn3C9e44m7GRGPXV4uY8DW60J1LoSvkUIslDObVUkNnwPuPyJvTKHoubADh75tRlzUg_5qSfJN7k15f__sRRIMNRuIj9FYAGaAt0qnYE4oemyOKYaeRzh-7jeSMSdZsil6R4gKwqrQ3Un_lWzpS6jRwzaB-QZg-qqmIBdNmcsjftsWH4NvAzf0s_ajzpRj5lSN]--></g></svg>