<?xml version="1.0" encoding="us-ascii" standalone="no"?><svg xmlns="http://www.w3.org/2000/svg" xmlns:xlink="http://www.w3.org/1999/xlink" contentStyleType="text/css" height="712px" preserveAspectRatio="none" style="width:791px;height:712px;background:#FFFFFF;" version="1.1" viewBox="0 0 791 712" width="791px" zoomAndPan="magnify"><defs/><g><text fill="#000000" font-family="sans-serif" font-size="14" font-weight="bold" lengthAdjust="spacing" textLength="371" x="206" y="29.5332">Payer DFSP Transaction Fee - P2B Merchant Payment</text><line style="stroke:#181818;stroke-width:0.5;stroke-dasharray:5.0,5.0;" x1="26" x2="26" y1="121.2188" y2="630.7773"/><line style="stroke:#181818;stroke-width:0.5;stroke-dasharray:5.0,5.0;" x1="246.5" x2="246.5" y1="121.2188" y2="630.7773"/><line style="stroke:#181818;stroke-width:0.5;stroke-dasharray:5.0,5.0;" x1="477" x2="477" y1="121.2188" y2="630.7773"/><line style="stroke:#181818;stroke-width:0.5;stroke-dasharray:5.0,5.0;" x1="708" x2="708" y1="121.2188" y2="630.7773"/><text fill="#000000" font-family="sans-serif" font-size="14" lengthAdjust="spacing" textLength="37" x="5" y="118.1426">Payer</text><ellipse cx="26.5" cy="52.1094" fill="#E3E3E3" rx="8" ry="8" style="stroke:#181818;stroke-width:0.5;"/><path d="M26.5,60.1094 L26.5,87.1094 M13.5,68.1094 L39.5,68.1094 M26.5,87.1094 L13.5,102.1094 M26.5,87.1094 L39.5,102.1094 " fill="none" style="stroke:#181818;stroke-width:0.5;"/><text fill="#000000" font-family="sans-serif" font-size="14" lengthAdjust="spacing" textLength="37" x="5" y="644.3105">Payer</text><ellipse cx="26.5" cy="655.8867" fill="#E3E3E3" rx="8" ry="8" style="stroke:#181818;stroke-width:0.5;"/><path d="M26.5,663.8867 L26.5,690.8867 M13.5,671.8867 L39.5,671.8867 M26.5,690.8867 L13.5,705.8867 M26.5,690.8867 L39.5,705.8867 " fill="none" style="stroke:#181818;stroke-width:0.5;"/><rect fill="#E3E3E3" height="31.6094" rx="2.5" ry="2.5" style="stroke:#181818;stroke-width:0.5;" width="92" x="200.5" y="88.6094"/><text fill="#000000" font-family="sans-serif" font-size="14" lengthAdjust="spacing" textLength="78" x="207.5" y="110.1426">Payer DFSP</text><rect fill="#E3E3E3" height="31.6094" rx="2.5" ry="2.5" style="stroke:#181818;stroke-width:0.5;" width="92" x="200.5" y="629.7773"/><text fill="#000000" font-family="sans-serif" font-size="14" lengthAdjust="spacing" textLength="78" x="207.5" y="651.3105">Payer DFSP</text><rect fill="#E3E3E3" height="31.6094" rx="2.5" ry="2.5" style="stroke:#181818;stroke-width:0.5;" width="115" x="420" y="88.6094"/><text fill="#000000" font-family="sans-serif" font-size="14" lengthAdjust="spacing" textLength="101" x="427" y="110.1426">Core Connector</text><rect fill="#E3E3E3" height="31.6094" rx="2.5" ry="2.5" style="stroke:#181818;stroke-width:0.5;" width="115" x="420" y="629.7773"/><text fill="#000000" font-family="sans-serif" font-size="14" lengthAdjust="spacing" textLength="101" x="427" y="651.3105">Core Connector</text><rect fill="#E3E3E3" height="31.6094" rx="2.5" ry="2.5" style="stroke:#181818;stroke-width:0.5;" width="141" x="638" y="88.6094"/><text fill="#000000" font-family="sans-serif" font-size="14" lengthAdjust="spacing" textLength="127" x="645" y="110.1426">Mojaloop Connector</text><rect fill="#E3E3E3" height="31.6094" rx="2.5" ry="2.5" style="stroke:#181818;stroke-width:0.5;" width="141" x="638" y="629.7773"/><text fill="#000000" font-family="sans-serif" font-size="14" lengthAdjust="spacing" textLength="127" x="645" y="651.3105">Mojaloop Connector</text><rect fill="#EEEEEE" height="3" style="stroke:#EEEEEE;stroke-width:1.0;" width="784" x="0" y="152.3945"/><line style="stroke:#000000;stroke-width:1.0;" x1="0" x2="784" y1="152.3945" y2="152.3945"/><line style="stroke:#000000;stroke-width:1.0;" x1="0" x2="784" y1="155.3945" y2="155.3945"/><rect fill="#EEEEEE" height="24.3516" style="stroke:#000000;stroke-width:2.0;" width="191" x="296.5" y="141.2188"/><text fill="#000000" font-family="sans-serif" font-size="13" font-weight="bold" lengthAdjust="spacing" textLength="173" x="302.5" y="158.7139">Fee Added to Merchant Bill</text><polygon fill="#181818" points="234.5,193.9219,244.5,197.9219,234.5,201.9219,238.5,197.9219" style="stroke:#181818;stroke-width:1.0;"/><line style="stroke:#181818;stroke-width:1.0;" x1="26.5" x2="240.5" y1="197.9219" y2="197.9219"/><text fill="#000000" font-family="sans-serif" font-size="13" font-weight="bold" lengthAdjust="spacing" textLength="7" x="33.5" y="193.0654">1</text><text fill="#000000" font-family="sans-serif" font-size="13" lengthAdjust="spacing" textLength="98" x="44.5" y="193.0654">Confirm payment</text><polygon fill="#181818" points="465.5,240.625,475.5,244.625,465.5,248.625,469.5,244.625" style="stroke:#181818;stroke-width:1.0;"/><line style="stroke:#181818;stroke-width:1.0;" x1="246.5" x2="471.5" y1="244.625" y2="244.625"/><text fill="#000000" font-family="sans-serif" font-size="13" font-weight="bold" lengthAdjust="spacing" textLength="7" x="253.5" y="231.5928">2</text><text fill="#000000" font-family="sans-serif" font-size="13" lengthAdjust="spacing" textLength="139" x="264.5" y="223.417">PUT /merchantPayment</text><text fill="#000000" font-family="sans-serif" font-size="13" lengthAdjust="spacing" textLength="97" x="264.5" y="239.7686">(confirm transfer)</text><polygon fill="#181818" points="696.5,339.3828,706.5,343.3828,696.5,347.3828,700.5,343.3828" style="stroke:#181818;stroke-width:1.0;"/><line style="stroke:#181818;stroke-width:1.0;" x1="477.5" x2="702.5" y1="343.3828" y2="343.3828"/><text fill="#000000" font-family="sans-serif" font-size="13" font-weight="bold" lengthAdjust="spacing" textLength="7" x="484.5" y="338.5264">3</text><text fill="#000000" font-family="sans-serif" font-size="13" lengthAdjust="spacing" textLength="93" x="495.5" y="338.5264">POST /transfers</text><path d="M237,257.625 L237,414.625 L472,414.625 L472,267.625 L462,257.625 L237,257.625 " fill="#FAFAFA" style="stroke:#181818;stroke-width:0.5;"/><path d="M462,257.625 L462,267.625 L472,267.625 L462,257.625 " fill="#FAFAFA" style="stroke:#181818;stroke-width:0.5;"/><text fill="#000000" font-family="sans-serif" font-size="13" lengthAdjust="spacing" textLength="4" x="243" y="276.1201">{</text><text fill="#000000" font-family="sans-serif" font-size="13" lengthAdjust="spacing" textLength="153" x="251" y="292.4717">"transferId": "transfer-456",</text><text fill="#000000" font-family="sans-serif" font-size="13" lengthAdjust="spacing" textLength="110" x="251" y="308.8232">"amount": "50500",</text><text fill="#000000" font-family="sans-serif" font-size="13" lengthAdjust="spacing" textLength="115" x="251" y="325.1748">"currency": "MWK",</text><text fill="#000000" font-family="sans-serif" font-size="13" lengthAdjust="spacing" textLength="57" x="251" y="341.5264">"payee": {</text><text fill="#000000" font-family="sans-serif" font-size="13" lengthAdjust="spacing" textLength="190" x="259" y="357.8779">"partyIdType": "MERCHANT_ID",</text><text fill="#000000" font-family="sans-serif" font-size="13" lengthAdjust="spacing" textLength="198" x="259" y="374.2295">"partyIdentifier": "MERCHANT123"</text><text fill="#000000" font-family="sans-serif" font-size="13" lengthAdjust="spacing" textLength="4" x="251" y="390.5811">}</text><text fill="#000000" font-family="sans-serif" font-size="13" lengthAdjust="spacing" textLength="4" x="243" y="406.9326">}</text><path d="M416,424.7891 L416,458.7891 L770,458.7891 L770,434.7891 L760,424.7891 L416,424.7891 " fill="#FAFAFA" style="stroke:#181818;stroke-width:0.5;"/><path d="M760,424.7891 L760,434.7891 L770,434.7891 L760,424.7891 " fill="#FAFAFA" style="stroke:#181818;stroke-width:0.5;"/><line style="stroke:#181818;stroke-width:1.0;stroke-dasharray:1.0,2.0;" x1="417" x2="430.5" y1="437.9648" y2="437.9648"/><text fill="#000000" font-family="sans-serif" font-size="13" lengthAdjust="spacing" textLength="197" x="430.5" y="442.7842">. performs the rest of the transfer .</text><line style="stroke:#181818;stroke-width:1.0;stroke-dasharray:1.0,2.0;" x1="627.5" x2="641" y1="437.9648" y2="437.9648"/><polygon fill="#181818" points="488.5,482.668,478.5,486.668,488.5,490.668,484.5,486.668" style="stroke:#181818;stroke-width:1.0;"/><line style="stroke:#181818;stroke-width:1.0;" x1="482.5" x2="707.5" y1="486.668" y2="486.668"/><text fill="#000000" font-family="sans-serif" font-size="13" font-weight="bold" lengthAdjust="spacing" textLength="7" x="494.5" y="481.8115">4</text><text fill="#000000" font-family="sans-serif" font-size="13" lengthAdjust="spacing" textLength="196" x="505.5" y="481.8115">Transfer successful (50500 MWK)</text><polygon fill="#181818" points="257.5,513.0195,247.5,517.0195,257.5,521.0195,253.5,517.0195" style="stroke:#181818;stroke-width:1.0;"/><line style="stroke:#181818;stroke-width:1.0;" x1="251.5" x2="476.5" y1="517.0195" y2="517.0195"/><text fill="#000000" font-family="sans-serif" font-size="13" font-weight="bold" lengthAdjust="spacing" textLength="7" x="263.5" y="512.1631">5</text><text fill="#000000" font-family="sans-serif" font-size="13" lengthAdjust="spacing" textLength="196" x="274.5" y="512.1631">Transfer successful (50500 MWK)</text><polygon fill="#181818" points="37.5,608.7773,27.5,612.7773,37.5,616.7773,33.5,612.7773" style="stroke:#181818;stroke-width:1.0;"/><line style="stroke:#181818;stroke-width:1.0;" x1="31.5" x2="245.5" y1="612.7773" y2="612.7773"/><text fill="#000000" font-family="sans-serif" font-size="13" font-weight="bold" lengthAdjust="spacing" textLength="7" x="43.5" y="575.2178">6</text><text fill="#000000" font-family="sans-serif" font-size="13" lengthAdjust="spacing" textLength="116" x="54.5" y="542.5146">Payment completed</text><text fill="#000000" font-family="sans-serif" font-size="13" lengthAdjust="spacing" textLength="185" x="54.5" y="558.8662">Merchant received: 50000 MWK</text><text fill="#000000" font-family="sans-serif" font-size="13" lengthAdjust="spacing" textLength="138" x="54.5" y="575.2178">Amount sent: 680 ZMW</text><text fill="#000000" font-family="sans-serif" font-size="13" font-weight="bold" lengthAdjust="spacing" textLength="150" x="54.5" y="591.5693">Payer DFSP fee: 6 ZMW</text><text fill="#000000" font-family="sans-serif" font-size="13" lengthAdjust="spacing" textLength="120" x="54.5" y="607.9209">Total paid: 686 ZMW</text><!--SRC=[XPDTQzim58Rlpwyu-AeDJPPrIoc6359rPM5u2wr7OHY69XyJRPPa9BaGHl_x93ckqztipZhlSrwT3zbBtnBk-84itjuzxB2qN3ikl3GQxuXmZhlB6op8YZtNFfAAj0VtM-gEMwvG6Mt4tXf5w6rFm7jlTAz-aWK8FiPYbkmpv6wu24AYbq9sqJ2Rxfw8S7WDCMC9cT6QecC26NkD5EONRutf_i4A1h1UfrOsTKqrUZDrSoFR5jTh66gOVtYvFOykZRGAksF3C4eHOop7tRSItwYZqt4ibJuJnpmVvzYGFGTWBEOKCUVhGqWQ9GVQUCAM6Wz_034RXMsTvTDf_dvrbLr4dIlJQn-rrNArN0v1qLjBMXnYk7ZyF0H3rKGX4ctJqVh3jYuF7INiuptxjFbI_jZU9dmYGW-oaM5P9zJRotTPW9xX6KZN66k6eNBp5APMi8iqZyLYWHtPnbZbqEy9BJcFfadVOo-H0YZOECHoZBjU27AkwLiyIyrXwENyEBffA__ZJvUKllFnnQ8mgcl9Krtfb_rR4YIVgCunE0mUbTwaAQCBIJbUNI_nU_5OwTdiv2TfY88KXTciqgNnl0qFHTQHJs7u2m00]--></g></svg>