<?xml version="1.0" encoding="us-ascii" standalone="no"?><svg xmlns="http://www.w3.org/2000/svg" xmlns:xlink="http://www.w3.org/1999/xlink" contentStyleType="text/css" height="990px" preserveAspectRatio="none" style="width:944px;height:990px;background:#FFFFFF;" version="1.1" viewBox="0 0 944 990" width="944px" zoomAndPan="magnify"><defs/><g><text fill="#000000" font-family="sans-serif" font-size="14" font-weight="bold" lengthAdjust="spacing" textLength="327" x="304.75" y="29.5332">Payer DFSP Transaction Fee - P2P Send Money</text><line style="stroke:#181818;stroke-width:0.5;stroke-dasharray:5.0,5.0;" x1="26" x2="26" y1="121.2188" y2="908.0508"/><line style="stroke:#181818;stroke-width:0.5;stroke-dasharray:5.0,5.0;" x1="287.5" x2="287.5" y1="121.2188" y2="908.0508"/><line style="stroke:#181818;stroke-width:0.5;stroke-dasharray:5.0,5.0;" x1="524" x2="524" y1="121.2188" y2="908.0508"/><line style="stroke:#181818;stroke-width:0.5;stroke-dasharray:5.0,5.0;" x1="662" x2="662" y1="121.2188" y2="908.0508"/><text fill="#000000" font-family="sans-serif" font-size="14" lengthAdjust="spacing" textLength="37" x="5" y="118.1426">Payer</text><ellipse cx="26.5" cy="52.1094" fill="#E3E3E3" rx="8" ry="8" style="stroke:#181818;stroke-width:0.5;"/><path d="M26.5,60.1094 L26.5,87.1094 M13.5,68.1094 L39.5,68.1094 M26.5,87.1094 L13.5,102.1094 M26.5,87.1094 L39.5,102.1094 " fill="none" style="stroke:#181818;stroke-width:0.5;"/><text fill="#000000" font-family="sans-serif" font-size="14" lengthAdjust="spacing" textLength="37" x="5" y="921.584">Payer</text><ellipse cx="26.5" cy="933.1602" fill="#E3E3E3" rx="8" ry="8" style="stroke:#181818;stroke-width:0.5;"/><path d="M26.5,941.1602 L26.5,968.1602 M13.5,949.1602 L39.5,949.1602 M26.5,968.1602 L13.5,983.1602 M26.5,968.1602 L39.5,983.1602 " fill="none" style="stroke:#181818;stroke-width:0.5;"/><rect fill="#E3E3E3" height="31.6094" rx="2.5" ry="2.5" style="stroke:#181818;stroke-width:0.5;" width="92" x="241.5" y="88.6094"/><text fill="#000000" font-family="sans-serif" font-size="14" lengthAdjust="spacing" textLength="78" x="248.5" y="110.1426">Payer DFSP</text><rect fill="#E3E3E3" height="31.6094" rx="2.5" ry="2.5" style="stroke:#181818;stroke-width:0.5;" width="92" x="241.5" y="907.0508"/><text fill="#000000" font-family="sans-serif" font-size="14" lengthAdjust="spacing" textLength="78" x="248.5" y="928.584">Payer DFSP</text><rect fill="#E3E3E3" height="31.6094" rx="2.5" ry="2.5" style="stroke:#181818;stroke-width:0.5;" width="115" x="467" y="88.6094"/><text fill="#000000" font-family="sans-serif" font-size="14" lengthAdjust="spacing" textLength="101" x="474" y="110.1426">Core Connector</text><rect fill="#E3E3E3" height="31.6094" rx="2.5" ry="2.5" style="stroke:#181818;stroke-width:0.5;" width="115" x="467" y="907.0508"/><text fill="#000000" font-family="sans-serif" font-size="14" lengthAdjust="spacing" textLength="101" x="474" y="928.584">Core Connector</text><rect fill="#E3E3E3" height="31.6094" rx="2.5" ry="2.5" style="stroke:#181818;stroke-width:0.5;" width="141" x="592" y="88.6094"/><text fill="#000000" font-family="sans-serif" font-size="14" lengthAdjust="spacing" textLength="127" x="599" y="110.1426">Mojaloop Connector</text><rect fill="#E3E3E3" height="31.6094" rx="2.5" ry="2.5" style="stroke:#181818;stroke-width:0.5;" width="141" x="592" y="907.0508"/><text fill="#000000" font-family="sans-serif" font-size="14" lengthAdjust="spacing" textLength="127" x="599" y="928.584">Mojaloop Connector</text><rect fill="#EEEEEE" height="3" style="stroke:#EEEEEE;stroke-width:1.0;" width="937.5" x="0" y="152.3945"/><line style="stroke:#000000;stroke-width:1.0;" x1="0" x2="937.5" y1="152.3945" y2="152.3945"/><line style="stroke:#000000;stroke-width:1.0;" x1="0" x2="937.5" y1="155.3945" y2="155.3945"/><rect fill="#EEEEEE" height="24.3516" style="stroke:#000000;stroke-width:2.0;" width="196" x="370.75" y="141.2188"/><text fill="#000000" font-family="sans-serif" font-size="13" font-weight="bold" lengthAdjust="spacing" textLength="178" x="376.75" y="158.7139">Fee Deduction Before DRPP</text><polygon fill="#181818" points="275.5,193.9219,285.5,197.9219,275.5,201.9219,279.5,197.9219" style="stroke:#181818;stroke-width:1.0;"/><line style="stroke:#181818;stroke-width:1.0;" x1="26.5" x2="281.5" y1="197.9219" y2="197.9219"/><text fill="#000000" font-family="sans-serif" font-size="13" font-weight="bold" lengthAdjust="spacing" textLength="7" x="33.5" y="193.0654">1</text><text fill="#000000" font-family="sans-serif" font-size="13" lengthAdjust="spacing" textLength="226" x="44.5" y="193.0654">Send 500 ZMW to MSISDN 987654321</text><line style="stroke:#181818;stroke-width:1.0;" x1="287.5" x2="329.5" y1="228.2734" y2="228.2734"/><line style="stroke:#181818;stroke-width:1.0;" x1="329.5" x2="329.5" y1="228.2734" y2="241.2734"/><line style="stroke:#181818;stroke-width:1.0;" x1="288.5" x2="329.5" y1="241.2734" y2="241.2734"/><polygon fill="#181818" points="298.5,237.2734,288.5,241.2734,298.5,245.2734,294.5,241.2734" style="stroke:#181818;stroke-width:1.0;"/><text fill="#000000" font-family="sans-serif" font-size="13" font-weight="bold" lengthAdjust="spacing" textLength="7" x="294.5" y="223.417">2</text><text fill="#000000" font-family="sans-serif" font-size="13" font-weight="bold" lengthAdjust="spacing" textLength="212" x="305.5" y="223.417">Calculate transaction fee (5 ZMW)</text><line style="stroke:#181818;stroke-width:1.0;" x1="287.5" x2="329.5" y1="287.9766" y2="287.9766"/><line style="stroke:#181818;stroke-width:1.0;" x1="329.5" x2="329.5" y1="287.9766" y2="300.9766"/><line style="stroke:#181818;stroke-width:1.0;" x1="288.5" x2="329.5" y1="300.9766" y2="300.9766"/><polygon fill="#181818" points="298.5,296.9766,288.5,300.9766,298.5,304.9766,294.5,300.9766" style="stroke:#181818;stroke-width:1.0;"/><text fill="#000000" font-family="sans-serif" font-size="13" font-weight="bold" lengthAdjust="spacing" textLength="7" x="294.5" y="274.9443">3</text><text fill="#000000" font-family="sans-serif" font-size="13" lengthAdjust="spacing" textLength="138" x="305.5" y="266.7686">Deduct fee from amount</text><text fill="#000000" font-family="sans-serif" font-size="13" lengthAdjust="spacing" textLength="25" x="305.5" y="283.1201">(500</text><text fill="#000000" font-family="sans-serif" font-size="13" font-weight="bold" lengthAdjust="spacing" textLength="15" x="334.5" y="283.1201">- 5</text><text fill="#000000" font-family="sans-serif" font-size="13" lengthAdjust="spacing" textLength="72" x="353.5" y="283.1201">= 495 ZMW)</text><polygon fill="#181818" points="512.5,387.5586,522.5,391.5586,512.5,395.5586,516.5,391.5586" style="stroke:#181818;stroke-width:1.0;"/><line style="stroke:#181818;stroke-width:1.0;" x1="287.5" x2="518.5" y1="391.5586" y2="391.5586"/><text fill="#000000" font-family="sans-serif" font-size="13" font-weight="bold" lengthAdjust="spacing" textLength="7" x="294.5" y="386.7021">4</text><text fill="#000000" font-family="sans-serif" font-size="13" lengthAdjust="spacing" textLength="110" x="305.5" y="386.7021">POST /sendmoney</text><path d="M77,313.9766 L77,453.9766 L282,453.9766 L282,323.9766 L272,313.9766 L77,313.9766 " fill="#FAFAFA" style="stroke:#181818;stroke-width:0.5;"/><path d="M272,313.9766 L272,323.9766 L282,323.9766 L272,313.9766 " fill="#FAFAFA" style="stroke:#181818;stroke-width:0.5;"/><text fill="#000000" font-family="sans-serif" font-size="13" lengthAdjust="spacing" textLength="4" x="83" y="332.4717">{</text><text fill="#000000" font-family="sans-serif" font-size="13" lengthAdjust="spacing" textLength="96" x="91" y="348.8232">"amount": "495",</text><text fill="#000000" font-family="sans-serif" font-size="13" lengthAdjust="spacing" textLength="113" x="91" y="365.1748">"currency": "ZMW",</text><text fill="#000000" font-family="sans-serif" font-size="13" lengthAdjust="spacing" textLength="57" x="91" y="381.5264">"payee": {</text><text fill="#000000" font-family="sans-serif" font-size="13" lengthAdjust="spacing" textLength="149" x="99" y="397.8779">"partyIdType": "MSISDN",</text><text fill="#000000" font-family="sans-serif" font-size="13" lengthAdjust="spacing" textLength="168" x="99" y="414.2295">"partyIdentifier": "987654321"</text><text fill="#000000" font-family="sans-serif" font-size="13" lengthAdjust="spacing" textLength="4" x="91" y="430.5811">}</text><text fill="#000000" font-family="sans-serif" font-size="13" lengthAdjust="spacing" textLength="4" x="83" y="446.9326">}</text><path d="M452,464.7891 L452,498.7891 L735,498.7891 L735,474.7891 L725,464.7891 L452,464.7891 " fill="#FAFAFA" style="stroke:#181818;stroke-width:0.5;"/><path d="M725,464.7891 L725,474.7891 L735,474.7891 L725,464.7891 " fill="#FAFAFA" style="stroke:#181818;stroke-width:0.5;"/><line style="stroke:#181818;stroke-width:1.0;stroke-dasharray:1.0,2.0;" x1="453" x2="466.5" y1="477.9648" y2="477.9648"/><text fill="#000000" font-family="sans-serif" font-size="13" lengthAdjust="spacing" textLength="254" x="466.5" y="482.7842">. performs the rest of the agreement phase .</text><line style="stroke:#181818;stroke-width:1.0;stroke-dasharray:1.0,2.0;" x1="720.5" x2="734" y1="477.9648" y2="477.9648"/><polygon fill="#181818" points="298.5,648.3047,288.5,652.3047,298.5,656.3047,294.5,652.3047" style="stroke:#181818;stroke-width:1.0;"/><line style="stroke:#181818;stroke-width:1.0;" x1="292.5" x2="523.5" y1="652.3047" y2="652.3047"/><text fill="#000000" font-family="sans-serif" font-size="13" font-weight="bold" lengthAdjust="spacing" textLength="7" x="304.5" y="647.4482">5</text><text fill="#000000" font-family="sans-serif" font-size="13" lengthAdjust="spacing" textLength="155" x="315.5" y="647.4482">Transfer terms with all fees</text><path d="M529,509.3164 L529,780.3164 L927,780.3164 L927,519.3164 L917,509.3164 L529,509.3164 " fill="#FAFAFA" style="stroke:#181818;stroke-width:0.5;"/><path d="M917,509.3164 L917,519.3164 L927,519.3164 L917,509.3164 " fill="#FAFAFA" style="stroke:#181818;stroke-width:0.5;"/><text fill="#000000" font-family="sans-serif" font-size="13" lengthAdjust="spacing" textLength="4" x="535" y="527.8115">{</text><text fill="#000000" font-family="sans-serif" font-size="13" lengthAdjust="spacing" textLength="117" x="543" y="544.1631">"payeeDetails": {...},</text><text fill="#000000" font-family="sans-serif" font-size="13" lengthAdjust="spacing" textLength="144" x="543" y="560.5146">"sendAmount": "495.00",</text><text fill="#000000" font-family="sans-serif" font-size="13" lengthAdjust="spacing" textLength="143" x="543" y="576.8662">"sendCurrency": "ZMW",</text><text fill="#000000" font-family="sans-serif" font-size="13" lengthAdjust="spacing" textLength="170" x="543" y="593.2178">"receiveAmount": "36387.00",</text><text fill="#000000" font-family="sans-serif" font-size="13" lengthAdjust="spacing" textLength="157" x="543" y="609.5693">"receiveCurrency": "MWK",</text><text fill="#000000" font-family="sans-serif" font-size="13" lengthAdjust="spacing" textLength="133" x="543" y="625.9209">"targetFees": "738.00",</text><text fill="#000000" font-family="sans-serif" font-size="13" lengthAdjust="spacing" textLength="125" x="543" y="642.2725">"sourceFees": "0.00",</text><text fill="#000000" font-family="sans-serif" font-size="13" lengthAdjust="spacing" textLength="315" x="543" y="658.624">"transactionId": "01JKB0F2WV7YVSA6CXGP977XT9",</text><text fill="#000000" font-family="sans-serif" font-size="13" lengthAdjust="spacing" textLength="369" x="543" y="674.9756">"homeTransactionId": "42fdb186-2a36-46f1-9be9-8989a9e0aeb4"</text><text fill="#000000" font-family="sans-serif" font-size="13" lengthAdjust="spacing" textLength="4" x="535" y="691.3271">}</text><text fill="#000000" font-family="sans-serif" font-size="13" lengthAdjust="spacing" textLength="367" x="535" y="707.6787">Note: sourceFees = Combined fees from Payee DFSP and FXP</text><text fill="#000000" font-family="sans-serif" font-size="13" lengthAdjust="spacing" textLength="214" x="535" y="724.0303">expressed in source currency (ZMW)</text><text fill="#000000" font-family="sans-serif" font-size="13" lengthAdjust="spacing" textLength="326" x="535" y="740.3818">targetFees = Combined fees from Payee DFSP and FXP</text><text fill="#000000" font-family="sans-serif" font-size="13" lengthAdjust="spacing" textLength="210" x="535" y="756.7334">expressed in target currency (MWK)</text><text fill="#000000" font-family="sans-serif" font-size="13" lengthAdjust="spacing" textLength="281" x="535" y="773.085">In this case: 738 MWK Payee DFSP + FXP fees</text><polygon fill="#181818" points="37.5,886.0508,27.5,890.0508,37.5,894.0508,33.5,890.0508" style="stroke:#181818;stroke-width:1.0;"/><line style="stroke:#181818;stroke-width:1.0;" x1="31.5" x2="286.5" y1="890.0508" y2="890.0508"/><text fill="#000000" font-family="sans-serif" font-size="13" font-weight="bold" lengthAdjust="spacing" textLength="7" x="43.5" y="844.3154">6</text><text fill="#000000" font-family="sans-serif" font-size="13" lengthAdjust="spacing" textLength="186" x="54.5" y="803.4365">Present complete transfer terms</text><text fill="#000000" font-family="sans-serif" font-size="13" lengthAdjust="spacing" textLength="156" x="54.5" y="819.7881">Amount to send: 500 ZMW</text><text fill="#000000" font-family="sans-serif" font-size="13" font-weight="bold" lengthAdjust="spacing" textLength="150" x="54.5" y="836.1396">Payer DFSP fee: 5 ZMW</text><text fill="#000000" font-family="sans-serif" font-size="13" lengthAdjust="spacing" textLength="210" x="54.5" y="852.4912">Payee DFSP + FXP fees: 738 MWK</text><text fill="#000000" font-family="sans-serif" font-size="13" lengthAdjust="spacing" textLength="193" x="54.5" y="868.8428">Total fees: 738 MWK and 5 ZMW</text><text fill="#000000" font-family="sans-serif" font-size="13" lengthAdjust="spacing" textLength="183" x="54.5" y="885.1943">Payee will receive: 36387 MWK</text><!--SRC=[dLHDRzf04BtlhnZvbBY1yWr6eb9gH4KZKgkW9AsuB6OStDgxrdgT55NvxvtTvJDDBxt1p9itCs_UMgSwGuZu5XMC9_C85egBaiSwbG8cY523g1N17CKQPbBWbfK_Kr5mnNF8fP3nHiaSGQiA6Q-q55M-GiKOCKW5dYNsW9Uk1QD2dSPfmONU9MtN8uB-d8D2gH12AGGQHWiCmtF8JFxWcPJ5AzWiP6mqiakCSLsvbJvYOWZ7NwC8HYFcHgXzE3GVkbMxZGPydzs3bZ2RJ-VZMmW6_LwtqsursHvwNkRx8S_YAkFQg77KCA7s5rr3Tkdx_wXrurbeGd82psKbz59Sc35ylmPTtuSHT0B7myvemd08qPVv0jwND7bkRoGaJP5Xejbl1k0vFcy87b5uLoOKLqgXYBScI9mkM10jKiGKsRzARwVhnROmGSy9OP7790gT9YdTc007YJo2lB0NPfGqexXvv1D9FGklxCJrUXqAL7ICl0IzGL1OQf29_SqV5M9Er51iU8a6p5WOdejcZPeGfKR3yPpg3V0iCogMhg5A7pSx1UncOzGypKgp836-s9MDPjUdyjGR3U-G2TzIIM6CwHCUgzgzzg1_gDkbJqjdzpSkfxbwH4sED4Du_VRWs4rMAiPzfd68drXfkhQfvkURZur9w_wk_-rkVjqB7pv5GR__i0XSmOQUu-9rKQULh5VDGQ_MukrUhTDBchLWXK5j40m27c23uwhZqS5kIROX76SXquKoNwK2rrPNPqzp0tHV2quNdZn4mF1NGHSi2PUA7G7iFGONrhN7vV-JrX6Sq9AkbsnAYKrQGanE6G9f2XG-9NjdgQmj3eRy-o7I8w9EndEnp8iCzy_uuB2bS1SttmJZZU7-8x4Kld_o0QL6b389tr-AD-SuZBaK2wbvTXwqstSTioj_JidNEryDmThD01dx0m00]--></g></svg>