<?xml version="1.0" encoding="us-ascii" standalone="no"?><svg xmlns="http://www.w3.org/2000/svg" xmlns:xlink="http://www.w3.org/1999/xlink" contentStyleType="text/css" height="633px" preserveAspectRatio="none" style="width:847px;height:633px;background:#FFFFFF;" version="1.1" viewBox="0 0 847 633" width="847px" zoomAndPan="magnify"><defs/><g><text fill="#000000" font-family="sans-serif" font-size="14" font-weight="bold" lengthAdjust="spacing" textLength="374" x="232.5" y="29.5332">Payee DFSP Transaction Fee - P2B Merchant Payment</text><line style="stroke:#181818;stroke-width:0.5;stroke-dasharray:5.0,5.0;" x1="133" x2="133" y1="121.2188" y2="551.4922"/><line style="stroke:#181818;stroke-width:0.5;stroke-dasharray:5.0,5.0;" x1="280" x2="280" y1="121.2188" y2="551.4922"/><line style="stroke:#181818;stroke-width:0.5;stroke-dasharray:5.0,5.0;" x1="457" x2="457" y1="121.2188" y2="551.4922"/><line style="stroke:#181818;stroke-width:0.5;stroke-dasharray:5.0,5.0;" x1="705" x2="705" y1="121.2188" y2="551.4922"/><rect fill="#E3E3E3" height="31.6094" rx="2.5" ry="2.5" style="stroke:#181818;stroke-width:0.5;" width="141" x="63" y="88.6094"/><text fill="#000000" font-family="sans-serif" font-size="14" lengthAdjust="spacing" textLength="127" x="70" y="110.1426">Mojaloop Connector</text><rect fill="#E3E3E3" height="31.6094" rx="2.5" ry="2.5" style="stroke:#181818;stroke-width:0.5;" width="141" x="63" y="550.4922"/><text fill="#000000" font-family="sans-serif" font-size="14" lengthAdjust="spacing" textLength="127" x="70" y="572.0254">Mojaloop Connector</text><rect fill="#E3E3E3" height="31.6094" rx="2.5" ry="2.5" style="stroke:#181818;stroke-width:0.5;" width="115" x="223" y="88.6094"/><text fill="#000000" font-family="sans-serif" font-size="14" lengthAdjust="spacing" textLength="101" x="230" y="110.1426">Core Connector</text><rect fill="#E3E3E3" height="31.6094" rx="2.5" ry="2.5" style="stroke:#181818;stroke-width:0.5;" width="115" x="223" y="550.4922"/><text fill="#000000" font-family="sans-serif" font-size="14" lengthAdjust="spacing" textLength="101" x="230" y="572.0254">Core Connector</text><rect fill="#E3E3E3" height="31.6094" rx="2.5" ry="2.5" style="stroke:#181818;stroke-width:0.5;" width="95" x="410" y="88.6094"/><text fill="#000000" font-family="sans-serif" font-size="14" lengthAdjust="spacing" textLength="81" x="417" y="110.1426">Payee DFSP</text><rect fill="#E3E3E3" height="31.6094" rx="2.5" ry="2.5" style="stroke:#181818;stroke-width:0.5;" width="95" x="410" y="550.4922"/><text fill="#000000" font-family="sans-serif" font-size="14" lengthAdjust="spacing" textLength="81" x="417" y="572.0254">Payee DFSP</text><text fill="#000000" font-family="sans-serif" font-size="14" lengthAdjust="spacing" textLength="59" x="673" y="118.1426">Merchant</text><ellipse cx="705.5" cy="52.1094" fill="#E3E3E3" rx="8" ry="8" style="stroke:#181818;stroke-width:0.5;"/><path d="M705.5,60.1094 L705.5,87.1094 M692.5,68.1094 L718.5,68.1094 M705.5,87.1094 L692.5,102.1094 M705.5,87.1094 L718.5,102.1094 " fill="none" style="stroke:#181818;stroke-width:0.5;"/><text fill="#000000" font-family="sans-serif" font-size="14" lengthAdjust="spacing" textLength="59" x="673" y="565.0254">Merchant</text><ellipse cx="705.5" cy="576.6016" fill="#E3E3E3" rx="8" ry="8" style="stroke:#181818;stroke-width:0.5;"/><path d="M705.5,584.6016 L705.5,611.6016 M692.5,592.6016 L718.5,592.6016 M705.5,611.6016 L692.5,626.6016 M705.5,611.6016 L718.5,626.6016 " fill="none" style="stroke:#181818;stroke-width:0.5;"/><rect fill="#EEEEEE" height="3" style="stroke:#EEEEEE;stroke-width:1.0;" width="840" x="0" y="152.3945"/><line style="stroke:#000000;stroke-width:1.0;" x1="0" x2="840" y1="152.3945" y2="152.3945"/><line style="stroke:#000000;stroke-width:1.0;" x1="0" x2="840" y1="155.3945" y2="155.3945"/><rect fill="#EEEEEE" height="24.3516" style="stroke:#000000;stroke-width:2.0;" width="192" x="324" y="141.2188"/><text fill="#000000" font-family="sans-serif" font-size="13" font-weight="bold" lengthAdjust="spacing" textLength="174" x="330" y="158.7139">Incoming Payment Request</text><path d="M5,180.5703 L5,239.5703 L262,239.5703 L262,190.5703 L252,180.5703 L5,180.5703 " fill="#FAFAFA" style="stroke:#181818;stroke-width:0.5;"/><path d="M252,180.5703 L252,190.5703 L262,190.5703 L252,180.5703 " fill="#FAFAFA" style="stroke:#181818;stroke-width:0.5;"/><text fill="#000000" font-family="sans-serif" font-size="13" lengthAdjust="spacing" textLength="232" x="11" y="199.0654">Agreement in place; executing incoming</text><text fill="#000000" font-family="sans-serif" font-size="13" lengthAdjust="spacing" textLength="203" x="11" y="215.417">payment request from Payer DFSP</text><text fill="#000000" font-family="sans-serif" font-size="13" lengthAdjust="spacing" textLength="126" x="11" y="231.7686">for merchant payment</text><polygon fill="#181818" points="268.5,262.9766,278.5,266.9766,268.5,270.9766,272.5,266.9766" style="stroke:#181818;stroke-width:1.0;"/><line style="stroke:#181818;stroke-width:1.0;" x1="133.5" x2="274.5" y1="266.9766" y2="266.9766"/><text fill="#000000" font-family="sans-serif" font-size="13" font-weight="bold" lengthAdjust="spacing" textLength="7" x="140.5" y="262.1201">1</text><text fill="#000000" font-family="sans-serif" font-size="13" lengthAdjust="spacing" textLength="106" x="151.5" y="262.1201">Transfer execution</text><polygon fill="#181818" points="445.5,309.6797,455.5,313.6797,445.5,317.6797,449.5,313.6797" style="stroke:#181818;stroke-width:1.0;"/><line style="stroke:#181818;stroke-width:1.0;" x1="280.5" x2="451.5" y1="313.6797" y2="313.6797"/><text fill="#000000" font-family="sans-serif" font-size="13" font-weight="bold" lengthAdjust="spacing" textLength="7" x="287.5" y="300.6475">2</text><text fill="#000000" font-family="sans-serif" font-size="13" lengthAdjust="spacing" textLength="142" x="298.5" y="292.4717">Credit merchant account</text><text fill="#000000" font-family="sans-serif" font-size="13" lengthAdjust="spacing" textLength="125" x="298.5" y="308.8232">Amount: 50500 MWK</text><line style="stroke:#181818;stroke-width:1.0;" x1="457.5" x2="499.5" y1="360.3828" y2="360.3828"/><line style="stroke:#181818;stroke-width:1.0;" x1="499.5" x2="499.5" y1="360.3828" y2="373.3828"/><line style="stroke:#181818;stroke-width:1.0;" x1="458.5" x2="499.5" y1="373.3828" y2="373.3828"/><polygon fill="#181818" points="468.5,369.3828,458.5,373.3828,468.5,377.3828,464.5,373.3828" style="stroke:#181818;stroke-width:1.0;"/><text fill="#000000" font-family="sans-serif" font-size="13" font-weight="bold" lengthAdjust="spacing" textLength="7" x="464.5" y="347.3506">3</text><text fill="#000000" font-family="sans-serif" font-size="13" lengthAdjust="spacing" textLength="122" x="475.5" y="339.1748">Debit processing fee:</text><text fill="#000000" font-family="sans-serif" font-size="13" font-weight="bold" lengthAdjust="spacing" textLength="58" x="601.5" y="339.1748">500 MWK</text><text fill="#000000" font-family="sans-serif" font-size="13" lengthAdjust="spacing" textLength="133" x="475.5" y="355.5264">from merchant account</text><polygon fill="#181818" points="693.5,416.0859,703.5,420.0859,693.5,424.0859,697.5,420.0859" style="stroke:#181818;stroke-width:1.0;"/><line style="stroke:#181818;stroke-width:1.0;" x1="457.5" x2="699.5" y1="420.0859" y2="420.0859"/><text fill="#000000" font-family="sans-serif" font-size="13" font-weight="bold" lengthAdjust="spacing" textLength="7" x="464.5" y="407.0537">4</text><text fill="#000000" font-family="sans-serif" font-size="13" lengthAdjust="spacing" textLength="110" x="475.5" y="398.8779">Credit 50000 MWK</text><text fill="#000000" font-family="sans-serif" font-size="13" lengthAdjust="spacing" textLength="90" x="475.5" y="415.2295">(Processing fee</text><text fill="#000000" font-family="sans-serif" font-size="13" font-weight="bold" lengthAdjust="spacing" textLength="58" x="569.5" y="415.2295">500 MWK</text><text fill="#000000" font-family="sans-serif" font-size="13" lengthAdjust="spacing" textLength="57" x="631.5" y="415.2295">deducted)</text><polygon fill="#181818" points="291.5,446.4375,281.5,450.4375,291.5,454.4375,287.5,450.4375" style="stroke:#181818;stroke-width:1.0;"/><line style="stroke:#181818;stroke-width:1.0;" x1="285.5" x2="456.5" y1="450.4375" y2="450.4375"/><text fill="#000000" font-family="sans-serif" font-size="13" font-weight="bold" lengthAdjust="spacing" textLength="7" x="297.5" y="445.5811">5</text><text fill="#000000" font-family="sans-serif" font-size="13" lengthAdjust="spacing" textLength="110" x="308.5" y="445.5811">Transfer completed</text><polygon fill="#181818" points="144.5,476.7891,134.5,480.7891,144.5,484.7891,140.5,480.7891" style="stroke:#181818;stroke-width:1.0;"/><line style="stroke:#181818;stroke-width:1.0;" x1="138.5" x2="279.5" y1="480.7891" y2="480.7891"/><text fill="#000000" font-family="sans-serif" font-size="13" font-weight="bold" lengthAdjust="spacing" textLength="7" x="150.5" y="475.9326">6</text><text fill="#000000" font-family="sans-serif" font-size="13" lengthAdjust="spacing" textLength="112" x="161.5" y="475.9326">Transfer successful</text><path d="M576,493.7891 L576,535.7891 L835,535.7891 L835,503.7891 L825,493.7891 L576,493.7891 " fill="#FAFAFA" style="stroke:#181818;stroke-width:0.5;"/><path d="M825,493.7891 L825,503.7891 L835,503.7891 L825,493.7891 " fill="#FAFAFA" style="stroke:#181818;stroke-width:0.5;"/><text fill="#000000" font-family="sans-serif" font-size="13" lengthAdjust="spacing" textLength="181" x="582" y="512.2842">Merchant receives 50000 MWK</text><text fill="#000000" font-family="sans-serif" font-size="13" lengthAdjust="spacing" textLength="76" x="582" y="528.6357">(50500 MWK</text><text fill="#000000" font-family="sans-serif" font-size="13" font-weight="bold" lengthAdjust="spacing" textLength="66" x="662" y="528.6357">- 500 MWK</text><text fill="#000000" font-family="sans-serif" font-size="13" lengthAdjust="spacing" textLength="88" x="732" y="528.6357">processing fee)</text><!--SRC=[NPBBQiCm44Nt-egXgyOG28LiN5n87GAb64nRw2ORHHudQgqPLvP2-_ULducp2ehk79-vjjEkGiZb7o9iT-yvV5X9ZLHECy4k_Bc4_E4PChJg9CcrIOFaHFEjgPPM6Z1Ch4wM3OAp7eNqZicR0reXGi9ffUjsyYxZBranrv0o4Ih7zWva0rawZwLiyIQItaGkkjrrTmm78Tk9yA11jiSF1o6I15v8iT5q7DU0D_pns3X84a7i4FYCDXZ5i3bQn2wY2UfAAdm4_4NbNJkkHyu-bD2Jx40gGnETaUq4zrG69JFMDwI5o59OFeN5uhxmCiG7F9D8kyjnhHXIYuLs5ufKYZsvFMrC-nl3UhLUhI3xV1LYd9eJjdW8WDgomgPfnKl46A9e68kYuDcAtpvYpXkxd8p2U0_Oqtq-Wr-peS32AuV5OewRRHyAhIiCeM7xxFgoyQfbbxuIr-zfqfa-JuiAzHcRcTdKJf1QmaLhNiT2_0C0]--></g></svg>