<?xml version="1.0" encoding="us-ascii" standalone="no"?><svg xmlns="http://www.w3.org/2000/svg" xmlns:xlink="http://www.w3.org/1999/xlink" contentStyleType="text/css" height="1052px" preserveAspectRatio="none" style="width:948px;height:1052px;background:#FFFFFF;" version="1.1" viewBox="0 0 948 1052" width="948px" zoomAndPan="magnify"><defs/><g><text fill="#000000" font-family="sans-serif" font-size="14" font-weight="bold" lengthAdjust="spacing" textLength="374" x="283" y="29.5332">Payee DFSP Transaction Fee - P2B Merchant Payment</text><line style="stroke:#181818;stroke-width:0.5;stroke-dasharray:5.0,5.0;" x1="256" x2="256" y1="121.2188" y2="970.1055"/><line style="stroke:#181818;stroke-width:0.5;stroke-dasharray:5.0,5.0;" x1="518" x2="518" y1="121.2188" y2="970.1055"/><line style="stroke:#181818;stroke-width:0.5;stroke-dasharray:5.0,5.0;" x1="718" x2="718" y1="121.2188" y2="970.1055"/><line style="stroke:#181818;stroke-width:0.5;stroke-dasharray:5.0,5.0;" x1="903" x2="903" y1="121.2188" y2="970.1055"/><rect fill="#E3E3E3" height="31.6094" rx="2.5" ry="2.5" style="stroke:#181818;stroke-width:0.5;" width="141" x="186" y="88.6094"/><text fill="#000000" font-family="sans-serif" font-size="14" lengthAdjust="spacing" textLength="127" x="193" y="110.1426">Mojaloop Connector</text><rect fill="#E3E3E3" height="31.6094" rx="2.5" ry="2.5" style="stroke:#181818;stroke-width:0.5;" width="141" x="186" y="969.1055"/><text fill="#000000" font-family="sans-serif" font-size="14" lengthAdjust="spacing" textLength="127" x="193" y="990.6387">Mojaloop Connector</text><rect fill="#E3E3E3" height="31.6094" rx="2.5" ry="2.5" style="stroke:#181818;stroke-width:0.5;" width="115" x="461" y="88.6094"/><text fill="#000000" font-family="sans-serif" font-size="14" lengthAdjust="spacing" textLength="101" x="468" y="110.1426">Core Connector</text><rect fill="#E3E3E3" height="31.6094" rx="2.5" ry="2.5" style="stroke:#181818;stroke-width:0.5;" width="115" x="461" y="969.1055"/><text fill="#000000" font-family="sans-serif" font-size="14" lengthAdjust="spacing" textLength="101" x="468" y="990.6387">Core Connector</text><rect fill="#E3E3E3" height="31.6094" rx="2.5" ry="2.5" style="stroke:#181818;stroke-width:0.5;" width="95" x="671" y="88.6094"/><text fill="#000000" font-family="sans-serif" font-size="14" lengthAdjust="spacing" textLength="81" x="678" y="110.1426">Payee DFSP</text><rect fill="#E3E3E3" height="31.6094" rx="2.5" ry="2.5" style="stroke:#181818;stroke-width:0.5;" width="95" x="671" y="969.1055"/><text fill="#000000" font-family="sans-serif" font-size="14" lengthAdjust="spacing" textLength="81" x="678" y="990.6387">Payee DFSP</text><text fill="#000000" font-family="sans-serif" font-size="14" lengthAdjust="spacing" textLength="59" x="871" y="118.1426">Merchant</text><ellipse cx="903.5" cy="52.1094" fill="#E3E3E3" rx="8" ry="8" style="stroke:#181818;stroke-width:0.5;"/><path d="M903.5,60.1094 L903.5,87.1094 M890.5,68.1094 L916.5,68.1094 M903.5,87.1094 L890.5,102.1094 M903.5,87.1094 L916.5,102.1094 " fill="none" style="stroke:#181818;stroke-width:0.5;"/><text fill="#000000" font-family="sans-serif" font-size="14" lengthAdjust="spacing" textLength="59" x="871" y="983.6387">Merchant</text><ellipse cx="903.5" cy="995.2148" fill="#E3E3E3" rx="8" ry="8" style="stroke:#181818;stroke-width:0.5;"/><path d="M903.5,1003.2148 L903.5,1030.2148 M890.5,1011.2148 L916.5,1011.2148 M903.5,1030.2148 L890.5,1045.2148 M903.5,1030.2148 L916.5,1045.2148 " fill="none" style="stroke:#181818;stroke-width:0.5;"/><rect fill="#EEEEEE" height="3" style="stroke:#EEEEEE;stroke-width:1.0;" width="941" x="0" y="152.3945"/><line style="stroke:#000000;stroke-width:1.0;" x1="0" x2="941" y1="152.3945" y2="152.3945"/><line style="stroke:#000000;stroke-width:1.0;" x1="0" x2="941" y1="155.3945" y2="155.3945"/><rect fill="#EEEEEE" height="24.3516" style="stroke:#000000;stroke-width:2.0;" width="192" x="374.5" y="141.2188"/><text fill="#000000" font-family="sans-serif" font-size="13" font-weight="bold" lengthAdjust="spacing" textLength="174" x="380.5" y="158.7139">Incoming Payment Request</text><path d="M116,180.5703 L116,222.5703 L396,222.5703 L396,190.5703 L386,180.5703 L116,180.5703 " fill="#FAFAFA" style="stroke:#181818;stroke-width:0.5;"/><path d="M386,180.5703 L386,190.5703 L396,190.5703 L386,180.5703 " fill="#FAFAFA" style="stroke:#181818;stroke-width:0.5;"/><text fill="#000000" font-family="sans-serif" font-size="13" lengthAdjust="spacing" textLength="259" x="122" y="199.0654">Incoming payment request from Payer DFSP</text><text fill="#000000" font-family="sans-serif" font-size="13" lengthAdjust="spacing" textLength="126" x="122" y="215.417">for merchant payment</text><polygon fill="#181818" points="506.5,372.2617,516.5,376.2617,506.5,380.2617,510.5,376.2617" style="stroke:#181818;stroke-width:1.0;"/><line style="stroke:#181818;stroke-width:1.0;" x1="256.5" x2="512.5" y1="376.2617" y2="376.2617"/><text fill="#000000" font-family="sans-serif" font-size="13" font-weight="bold" lengthAdjust="spacing" textLength="7" x="263.5" y="371.4053">1</text><text fill="#000000" font-family="sans-serif" font-size="13" lengthAdjust="spacing" textLength="125" x="274.5" y="371.4053">POST /quoterequests</text><path d="M5,233.2734 L5,504.2734 L252,504.2734 L252,243.2734 L242,233.2734 L5,233.2734 " fill="#FAFAFA" style="stroke:#181818;stroke-width:0.5;"/><path d="M242,233.2734 L242,243.2734 L252,243.2734 L242,233.2734 " fill="#FAFAFA" style="stroke:#181818;stroke-width:0.5;"/><text fill="#000000" font-family="sans-serif" font-size="13" lengthAdjust="spacing" textLength="4" x="11" y="251.7686">{</text><text fill="#000000" font-family="sans-serif" font-size="13" lengthAdjust="spacing" textLength="170" x="19" y="268.1201">"quoteId": "382987...8c1727",</text><text fill="#000000" font-family="sans-serif" font-size="13" lengthAdjust="spacing" textLength="195" x="19" y="284.4717">"transactionId": "d9ce59...51451",</text><text fill="#000000" font-family="sans-serif" font-size="13" lengthAdjust="spacing" textLength="57" x="19" y="300.8232">"payee": {</text><text fill="#000000" font-family="sans-serif" font-size="13" lengthAdjust="spacing" textLength="81" x="27" y="317.1748">"partyIdInfo": {</text><text fill="#000000" font-family="sans-serif" font-size="13" lengthAdjust="spacing" textLength="190" x="35" y="333.5264">"partyIdType": "MERCHANT_ID",</text><text fill="#000000" font-family="sans-serif" font-size="13" lengthAdjust="spacing" textLength="202" x="35" y="349.8779">"partyIdentifier": "MERCHANT789",</text><text fill="#000000" font-family="sans-serif" font-size="13" lengthAdjust="spacing" textLength="125" x="35" y="366.2295">"fspId": "payeeDFSP"</text><text fill="#000000" font-family="sans-serif" font-size="13" lengthAdjust="spacing" textLength="4" x="27" y="382.5811">}</text><text fill="#000000" font-family="sans-serif" font-size="13" lengthAdjust="spacing" textLength="8" x="19" y="398.9326">},</text><text fill="#000000" font-family="sans-serif" font-size="13" lengthAdjust="spacing" textLength="85" x="19" y="415.2842">"amountType":</text><text fill="#000000" font-family="sans-serif" font-size="13" font-weight="bold" lengthAdjust="spacing" textLength="67" x="108" y="415.2842">"RECEIVE"</text><text fill="#000000" font-family="sans-serif" font-size="13" lengthAdjust="spacing" textLength="4" x="175" y="415.2842">,</text><text fill="#000000" font-family="sans-serif" font-size="13" lengthAdjust="spacing" textLength="65" x="19" y="431.6357">"amount": {</text><text fill="#000000" font-family="sans-serif" font-size="13" lengthAdjust="spacing" textLength="110" x="27" y="447.9873">"amount": "50000",</text><text fill="#000000" font-family="sans-serif" font-size="13" lengthAdjust="spacing" textLength="111" x="27" y="464.3389">"currency": "MWK"</text><text fill="#000000" font-family="sans-serif" font-size="13" lengthAdjust="spacing" textLength="4" x="19" y="480.6904">}</text><text fill="#000000" font-family="sans-serif" font-size="13" lengthAdjust="spacing" textLength="4" x="11" y="497.042">}</text><path d="M389,514.8984 L389,556.8984 L647,556.8984 L647,524.8984 L637,514.8984 L389,514.8984 " fill="#FAFAFA" style="stroke:#181818;stroke-width:0.5;"/><path d="M637,514.8984 L637,524.8984 L647,524.8984 L637,514.8984 " fill="#FAFAFA" style="stroke:#181818;stroke-width:0.5;"/><text fill="#000000" font-family="sans-serif" font-size="13" lengthAdjust="spacing" textLength="237" x="395" y="533.3936">Core Connector processes quote request</text><text fill="#000000" font-family="sans-serif" font-size="13" lengthAdjust="spacing" textLength="192" x="395" y="549.7451">and calculates Payee DFSP fees</text><polygon fill="#181818" points="706.5,580.9531,716.5,584.9531,706.5,588.9531,710.5,584.9531" style="stroke:#181818;stroke-width:1.0;"/><line style="stroke:#181818;stroke-width:1.0;" x1="518.5" x2="712.5" y1="584.9531" y2="584.9531"/><text fill="#000000" font-family="sans-serif" font-size="13" font-weight="bold" lengthAdjust="spacing" textLength="7" x="525.5" y="580.0967">2</text><text fill="#000000" font-family="sans-serif" font-size="13" lengthAdjust="spacing" textLength="165" x="536.5" y="580.0967">Quote merchant for payment</text><line style="stroke:#181818;stroke-width:1.0;" x1="718.5" x2="760.5" y1="631.6563" y2="631.6563"/><line style="stroke:#181818;stroke-width:1.0;" x1="760.5" x2="760.5" y1="631.6563" y2="644.6563"/><line style="stroke:#181818;stroke-width:1.0;" x1="719.5" x2="760.5" y1="644.6563" y2="644.6563"/><polygon fill="#181818" points="729.5,640.6563,719.5,644.6563,729.5,648.6563,725.5,644.6563" style="stroke:#181818;stroke-width:1.0;"/><text fill="#000000" font-family="sans-serif" font-size="13" font-weight="bold" lengthAdjust="spacing" textLength="7" x="725.5" y="618.624">3</text><text fill="#000000" font-family="sans-serif" font-size="13" lengthAdjust="spacing" textLength="142" x="736.5" y="610.4482">Calculate processing fee</text><text fill="#000000" font-family="sans-serif" font-size="13" lengthAdjust="spacing" textLength="4" x="736.5" y="626.7998">(</text><text fill="#000000" font-family="sans-serif" font-size="13" font-weight="bold" lengthAdjust="spacing" textLength="58" x="740.5" y="626.7998">500 MWK</text><text fill="#000000" font-family="sans-serif" font-size="13" lengthAdjust="spacing" textLength="94" x="802.5" y="626.7998">on 50000 MWK)</text><polygon fill="#181818" points="529.5,671.0078,519.5,675.0078,529.5,679.0078,525.5,675.0078" style="stroke:#181818;stroke-width:1.0;"/><line style="stroke:#181818;stroke-width:1.0;" x1="523.5" x2="717.5" y1="675.0078" y2="675.0078"/><text fill="#000000" font-family="sans-serif" font-size="13" font-weight="bold" lengthAdjust="spacing" textLength="7" x="535.5" y="670.1514">4</text><text fill="#000000" font-family="sans-serif" font-size="13" lengthAdjust="spacing" textLength="147" x="546.5" y="670.1514">Quote response with fees</text><polygon fill="#181818" points="267.5,802.4688,257.5,806.4688,267.5,810.4688,263.5,806.4688" style="stroke:#181818;stroke-width:1.0;"/><line style="stroke:#181818;stroke-width:1.0;" x1="261.5" x2="517.5" y1="806.4688" y2="806.4688"/><text fill="#000000" font-family="sans-serif" font-size="13" font-weight="bold" lengthAdjust="spacing" textLength="7" x="273.5" y="801.6123">5</text><text fill="#000000" font-family="sans-serif" font-size="13" lengthAdjust="spacing" textLength="227" x="284.5" y="801.6123">Quote response with Payee DFSP fees</text><path d="M523,688.0078 L523,910.0078 L844,910.0078 L844,698.0078 L834,688.0078 L523,688.0078 " fill="#FAFAFA" style="stroke:#181818;stroke-width:0.5;"/><path d="M834,688.0078 L834,698.0078 L844,698.0078 L834,688.0078 " fill="#FAFAFA" style="stroke:#181818;stroke-width:0.5;"/><text fill="#000000" font-family="sans-serif" font-size="13" lengthAdjust="spacing" textLength="4" x="529" y="706.5029">{</text><text fill="#000000" font-family="sans-serif" font-size="13" lengthAdjust="spacing" textLength="241" x="537" y="722.8545">"expiration": "2025-08-05T12:30:00.000Z",</text><text fill="#000000" font-family="sans-serif" font-size="13" lengthAdjust="spacing" textLength="8" x="529" y="739.2061">&#160;&#160;</text><text fill="#000000" font-family="sans-serif" font-size="13" font-weight="bold" lengthAdjust="spacing" textLength="191" x="537" y="739.2061">"payeeFspFeeAmount": "500",</text><text fill="#000000" font-family="sans-serif" font-size="13" lengthAdjust="spacing" textLength="8" x="529" y="755.5576">&#160;&#160;</text><text fill="#000000" font-family="sans-serif" font-size="13" font-weight="bold" lengthAdjust="spacing" textLength="260" x="537" y="755.5576">"payeeFspFeeAmountCurrency": "MWK",</text><text fill="#000000" font-family="sans-serif" font-size="13" lengthAdjust="spacing" textLength="192" x="537" y="771.9092">"payeeReceiveAmount": "50000",</text><text fill="#000000" font-family="sans-serif" font-size="13" lengthAdjust="spacing" textLength="242" x="537" y="788.2607">"payeeReceiveAmountCurrency": "MWK",</text><text fill="#000000" font-family="sans-serif" font-size="13" lengthAdjust="spacing" textLength="170" x="537" y="804.6123">"quoteId": "382987...8c1727",</text><text fill="#000000" font-family="sans-serif" font-size="13" lengthAdjust="spacing" textLength="195" x="537" y="820.9639">"transactionId": "d9ce59...51451",</text><text fill="#000000" font-family="sans-serif" font-size="13" lengthAdjust="spacing" textLength="155" x="537" y="837.3154">"transferAmount": "50500",</text><text fill="#000000" font-family="sans-serif" font-size="13" lengthAdjust="spacing" textLength="201" x="537" y="853.667">"transferAmountCurrency": "MWK"</text><text fill="#000000" font-family="sans-serif" font-size="13" lengthAdjust="spacing" textLength="4" x="529" y="870.0186">}</text><text fill="#000000" font-family="sans-serif" font-size="13" lengthAdjust="spacing" textLength="230" x="529" y="886.3701">Note: Merchant receives 50000 = 50500</text><text fill="#000000" font-family="sans-serif" font-size="13" font-weight="bold" lengthAdjust="spacing" textLength="29" x="763" y="886.3701">- 500</text><text fill="#000000" font-family="sans-serif" font-size="13" lengthAdjust="spacing" textLength="33" x="796" y="886.3701">MWK</text><text fill="#000000" font-family="sans-serif" font-size="13" lengthAdjust="spacing" textLength="224" x="529" y="902.7217">payeeFspFeeAmount = processing fee</text><path d="M130,920.5781 L130,954.5781 L383,954.5781 L383,930.5781 L373,920.5781 L130,920.5781 " fill="#FAFAFA" style="stroke:#181818;stroke-width:0.5;"/><path d="M373,920.5781 L373,930.5781 L383,930.5781 L373,920.5781 " fill="#FAFAFA" style="stroke:#181818;stroke-width:0.5;"/><line style="stroke:#181818;stroke-width:1.0;stroke-dasharray:1.0,2.0;" x1="131" x2="144.5" y1="933.7539" y2="933.7539"/><text fill="#000000" font-family="sans-serif" font-size="13" lengthAdjust="spacing" textLength="224" x="144.5" y="938.5732">. performs quote and transfer process .</text><line style="stroke:#181818;stroke-width:1.0;stroke-dasharray:1.0,2.0;" x1="368.5" x2="382" y1="933.7539" y2="933.7539"/><!--SRC=[hLHHRzem47xthpZbQOiA2tGH48b9NKerDD5HYZPfgZHvuIZPY9tQJZSqyTztTf8ceUlRU42oxxlllhll79EQFSAI7n3Xykfs2Ml5XUQ9IQM0AxhimNBu7XQeaXqNnY8p58Rfdwd8kU8PP5B8PATaXc1KWOmNHeeY-uwACKAOD4bpc-ajv0- -bpA7M0g1YP7A0wvX4NTXiLHu0ebF88rS5tP7EZ1kCwXG9RQahmwCJQSm5udCKd5Vjm4hV2XG6vXEcP06GJwY8aLHWymhfAgGM-hKLLHEm9tOKici7a-5PcmHG-yT2OzW-Ubs3MyU2gAlE7HPQuzRm_um0Cy5vnil0kzyF9oCH_r-VvmCHiEHTsRZfl6aH6qc2OOJGeM3j-6W1ELs2XIqZEwep66-cPE-fylcUdt8BTPRp5RnXulhzRVvfMDfOwYFT9kYQkD6uqc3s-gybEDAEpjSw4Z_HwU9Px8GfYhc-zvg5i_cdsUUxxV2ZUQdinS6zAigUKcX58hau8Hy-MYB7DcHeTY07IHhMMS7tbqWo9LCK6lKuCPS6tadEEKdV9yKUsvGjz_05b4p5ZiBw-MAuCQbFrbjVQ_jha7TXBWchpNOVIBkE_7Azwb3e6Py7-YXkNRjyJNhSDbsRYhLEfT28_nApQuZSF42vhGVDoILtk-gfSFVUQgutIaxrs4m37l1k1U4wy4mEW-Y8EYJfg_E0tBEMNobS_eaNBHTyivy_mL4V69RYInnAqmmVUnILOR_0_2CwRyz6WVQeceB2MiXtU2f2Dh0Qr8GDTz6LMhMbPrJS5mqcvwz8QSfZJqR4-6ww_7FnROkatJ8KT7YPVKosnskPTOq5iV-0W00]--></g></svg>