<?xml version="1.0" encoding="us-ascii" standalone="no"?><svg xmlns="http://www.w3.org/2000/svg" xmlns:xlink="http://www.w3.org/1999/xlink" contentStyleType="text/css" height="598px" preserveAspectRatio="none" style="width:774px;height:598px;background:#FFFFFF;" version="1.1" viewBox="0 0 774 598" width="774px" zoomAndPan="magnify"><defs/><g><text fill="#000000" font-family="sans-serif" font-size="14" font-weight="bold" lengthAdjust="spacing" textLength="327" x="219.5" y="29.5332">Payer DFSP Transaction Fee - P2P Send Money</text><line style="stroke:#181818;stroke-width:0.5;stroke-dasharray:5.0,5.0;" x1="116" x2="116" y1="121.2188" y2="516.3164"/><line style="stroke:#181818;stroke-width:0.5;stroke-dasharray:5.0,5.0;" x1="261.5" x2="261.5" y1="121.2188" y2="516.3164"/><line style="stroke:#181818;stroke-width:0.5;stroke-dasharray:5.0,5.0;" x1="476" x2="476" y1="121.2188" y2="516.3164"/><line style="stroke:#181818;stroke-width:0.5;stroke-dasharray:5.0,5.0;" x1="691" x2="691" y1="121.2188" y2="516.3164"/><text fill="#000000" font-family="sans-serif" font-size="14" lengthAdjust="spacing" textLength="37" x="95" y="118.1426">Payer</text><ellipse cx="116.5" cy="52.1094" fill="#E3E3E3" rx="8" ry="8" style="stroke:#181818;stroke-width:0.5;"/><path d="M116.5,60.1094 L116.5,87.1094 M103.5,68.1094 L129.5,68.1094 M116.5,87.1094 L103.5,102.1094 M116.5,87.1094 L129.5,102.1094 " fill="none" style="stroke:#181818;stroke-width:0.5;"/><text fill="#000000" font-family="sans-serif" font-size="14" lengthAdjust="spacing" textLength="37" x="95" y="529.8496">Payer</text><ellipse cx="116.5" cy="541.4258" fill="#E3E3E3" rx="8" ry="8" style="stroke:#181818;stroke-width:0.5;"/><path d="M116.5,549.4258 L116.5,576.4258 M103.5,557.4258 L129.5,557.4258 M116.5,576.4258 L103.5,591.4258 M116.5,576.4258 L129.5,591.4258 " fill="none" style="stroke:#181818;stroke-width:0.5;"/><rect fill="#E3E3E3" height="31.6094" rx="2.5" ry="2.5" style="stroke:#181818;stroke-width:0.5;" width="92" x="215.5" y="88.6094"/><text fill="#000000" font-family="sans-serif" font-size="14" lengthAdjust="spacing" textLength="78" x="222.5" y="110.1426">Payer DFSP</text><rect fill="#E3E3E3" height="31.6094" rx="2.5" ry="2.5" style="stroke:#181818;stroke-width:0.5;" width="92" x="215.5" y="515.3164"/><text fill="#000000" font-family="sans-serif" font-size="14" lengthAdjust="spacing" textLength="78" x="222.5" y="536.8496">Payer DFSP</text><rect fill="#E3E3E3" height="31.6094" rx="2.5" ry="2.5" style="stroke:#181818;stroke-width:0.5;" width="115" x="419" y="88.6094"/><text fill="#000000" font-family="sans-serif" font-size="14" lengthAdjust="spacing" textLength="101" x="426" y="110.1426">Core Connector</text><rect fill="#E3E3E3" height="31.6094" rx="2.5" ry="2.5" style="stroke:#181818;stroke-width:0.5;" width="115" x="419" y="515.3164"/><text fill="#000000" font-family="sans-serif" font-size="14" lengthAdjust="spacing" textLength="101" x="426" y="536.8496">Core Connector</text><rect fill="#E3E3E3" height="31.6094" rx="2.5" ry="2.5" style="stroke:#181818;stroke-width:0.5;" width="141" x="621" y="88.6094"/><text fill="#000000" font-family="sans-serif" font-size="14" lengthAdjust="spacing" textLength="127" x="628" y="110.1426">Mojaloop Connector</text><rect fill="#E3E3E3" height="31.6094" rx="2.5" ry="2.5" style="stroke:#181818;stroke-width:0.5;" width="141" x="621" y="515.3164"/><text fill="#000000" font-family="sans-serif" font-size="14" lengthAdjust="spacing" textLength="127" x="628" y="536.8496">Mojaloop Connector</text><rect fill="#EEEEEE" height="3" style="stroke:#EEEEEE;stroke-width:1.0;" width="767" x="0" y="152.3945"/><line style="stroke:#000000;stroke-width:1.0;" x1="0" x2="767" y1="152.3945" y2="152.3945"/><line style="stroke:#000000;stroke-width:1.0;" x1="0" x2="767" y1="155.3945" y2="155.3945"/><rect fill="#EEEEEE" height="24.3516" style="stroke:#000000;stroke-width:2.0;" width="196" x="285.5" y="141.2188"/><text fill="#000000" font-family="sans-serif" font-size="13" font-weight="bold" lengthAdjust="spacing" textLength="178" x="291.5" y="158.7139">Fee Deduction Before DRPP</text><polygon fill="#181818" points="249.5,193.9219,259.5,197.9219,249.5,201.9219,253.5,197.9219" style="stroke:#181818;stroke-width:1.0;"/><line style="stroke:#181818;stroke-width:1.0;" x1="116.5" x2="255.5" y1="197.9219" y2="197.9219"/><text fill="#000000" font-family="sans-serif" font-size="13" font-weight="bold" lengthAdjust="spacing" textLength="7" x="123.5" y="193.0654">1</text><text fill="#000000" font-family="sans-serif" font-size="13" lengthAdjust="spacing" textLength="78" x="134.5" y="193.0654">Accept terms</text><polygon fill="#181818" points="464.5,259.9766,474.5,263.9766,464.5,267.9766,468.5,263.9766" style="stroke:#181818;stroke-width:1.0;"/><line style="stroke:#181818;stroke-width:1.0;" x1="261.5" x2="470.5" y1="263.9766" y2="263.9766"/><text fill="#000000" font-family="sans-serif" font-size="13" font-weight="bold" lengthAdjust="spacing" textLength="7" x="268.5" y="250.9443">2</text><text fill="#000000" font-family="sans-serif" font-size="13" lengthAdjust="spacing" textLength="100" x="279.5" y="242.7686">PUT /sendmoney</text><text fill="#000000" font-family="sans-serif" font-size="13" lengthAdjust="spacing" textLength="97" x="279.5" y="259.1201">(confirm transfer)</text><path d="M5,210.9219 L5,285.9219 L257,285.9219 L257,220.9219 L247,210.9219 L5,210.9219 " fill="#FAFAFA" style="stroke:#181818;stroke-width:0.5;"/><path d="M247,210.9219 L247,220.9219 L257,220.9219 L247,210.9219 " fill="#FAFAFA" style="stroke:#181818;stroke-width:0.5;"/><text fill="#000000" font-family="sans-serif" font-size="13" lengthAdjust="spacing" textLength="4" x="11" y="229.417">{</text><text fill="#000000" font-family="sans-serif" font-size="13" lengthAdjust="spacing" textLength="118" x="19" y="245.7686">"acceptQuote": true,</text><text fill="#000000" font-family="sans-serif" font-size="13" lengthAdjust="spacing" textLength="223" x="19" y="262.1201">"homeTransactionId": "HTX123456789"</text><text fill="#000000" font-family="sans-serif" font-size="13" lengthAdjust="spacing" textLength="4" x="11" y="278.4717">}</text><polygon fill="#181818" points="679.5,309.6797,689.5,313.6797,679.5,317.6797,683.5,313.6797" style="stroke:#181818;stroke-width:1.0;"/><line style="stroke:#181818;stroke-width:1.0;" x1="476.5" x2="685.5" y1="313.6797" y2="313.6797"/><text fill="#000000" font-family="sans-serif" font-size="13" font-weight="bold" lengthAdjust="spacing" textLength="7" x="483.5" y="308.8232">3</text><text fill="#000000" font-family="sans-serif" font-size="13" lengthAdjust="spacing" textLength="83" x="494.5" y="308.8232">PUT /transfers</text><path d="M415,326.6797 L415,360.6797 L753,360.6797 L753,336.6797 L743,326.6797 L415,326.6797 " fill="#FAFAFA" style="stroke:#181818;stroke-width:0.5;"/><path d="M743,326.6797 L743,336.6797 L753,336.6797 L743,326.6797 " fill="#FAFAFA" style="stroke:#181818;stroke-width:0.5;"/><line style="stroke:#181818;stroke-width:1.0;stroke-dasharray:1.0,2.0;" x1="416" x2="429.5" y1="339.8555" y2="339.8555"/><text fill="#000000" font-family="sans-serif" font-size="13" lengthAdjust="spacing" textLength="197" x="429.5" y="344.6748">. performs the rest of the transfer .</text><line style="stroke:#181818;stroke-width:1.0;stroke-dasharray:1.0,2.0;" x1="626.5" x2="640" y1="339.8555" y2="339.8555"/><polygon fill="#181818" points="487.5,384.5586,477.5,388.5586,487.5,392.5586,483.5,388.5586" style="stroke:#181818;stroke-width:1.0;"/><line style="stroke:#181818;stroke-width:1.0;" x1="481.5" x2="690.5" y1="388.5586" y2="388.5586"/><text fill="#000000" font-family="sans-serif" font-size="13" font-weight="bold" lengthAdjust="spacing" textLength="7" x="493.5" y="383.7021">4</text><text fill="#000000" font-family="sans-serif" font-size="13" lengthAdjust="spacing" textLength="180" x="504.5" y="383.7021">Transfer successful (495 ZMW)</text><polygon fill="#181818" points="272.5,414.9102,262.5,418.9102,272.5,422.9102,268.5,418.9102" style="stroke:#181818;stroke-width:1.0;"/><line style="stroke:#181818;stroke-width:1.0;" x1="266.5" x2="475.5" y1="418.9102" y2="418.9102"/><text fill="#000000" font-family="sans-serif" font-size="13" font-weight="bold" lengthAdjust="spacing" textLength="7" x="278.5" y="414.0537">5</text><text fill="#000000" font-family="sans-serif" font-size="13" lengthAdjust="spacing" textLength="180" x="289.5" y="414.0537">Transfer successful (495 ZMW)</text><polygon fill="#181818" points="127.5,494.3164,117.5,498.3164,127.5,502.3164,123.5,498.3164" style="stroke:#181818;stroke-width:1.0;"/><line style="stroke:#181818;stroke-width:1.0;" x1="121.5" x2="260.5" y1="498.3164" y2="498.3164"/><text fill="#000000" font-family="sans-serif" font-size="13" font-weight="bold" lengthAdjust="spacing" textLength="7" x="133.5" y="468.9326">6</text><text fill="#000000" font-family="sans-serif" font-size="13" lengthAdjust="spacing" textLength="110" x="144.5" y="444.4053">Transfer completed</text><text fill="#000000" font-family="sans-serif" font-size="13" lengthAdjust="spacing" textLength="91" x="144.5" y="460.7568">Sent: 495 ZMW</text><text fill="#000000" font-family="sans-serif" font-size="13" font-weight="bold" lengthAdjust="spacing" textLength="74" x="144.5" y="477.1084">Fee: 5 ZMW</text><text fill="#000000" font-family="sans-serif" font-size="13" lengthAdjust="spacing" textLength="92" x="144.5" y="493.46">Total: 500 ZMW</text><!--SRC=[VL9DJzmm4BtFhnZb12lOyjqIQP70AmI7I062MbLxSRCJRI3sHBPJ2I7-EsFl1fOUUlECtxptvjcX3HrXgL_8uVpweSJAQUjr7LgsU4s4-rWUbVX0Tea5Mte1_zpQNZjjqB3bUkNO40Ot4EWXi1tC7t80mi0EiqISeVPh2P31qDPjhstON2RLJuGKNq6A7Q5YQoao9g1INo45F-cEkVy7LYY0sImjCQVbi5xfYff8EBylIvpD0DOUzYy-r7Eyh6lg0mPoncy0CHZ1A9LZ-LZXDoznc9Z6mkxKR9lM6Ob0Wcl8xOBbGDXH4-0L43ET-Eu6wMPvIceljbUIsrROjqkvp6wgNuT7noUdPzz_d6Vm1Z7sI0UWL7HGZ0v6DN6OvFYlh56elUHnEfrYJqusDHx3Yj2H3yXDEe-J4GLGg76nQkpxGGnxtmmTxfoSd-BlukVkHlupfF-ZjqDBvws1catVKQ3bmigl2ZbkfXPsCf6toZ5Layd2LXnq9_N1GUp0Em00]--></g></svg>